<svg width="32" height="32" viewBox="0 0 32 32" fill="none" xmlns="http://www.w3.org/2000/svg">
<path d="M18.4806 18.3917L21.3135 18.3917L21.3145 9.89001L12.8138 9.89001L12.8148 12.7239L16.4761 12.7249L8.92604 20.275L10.9295 22.2785L18.4796 14.7284L18.4806 18.3917Z" fill="white"/>
<path fill-rule="evenodd" clip-rule="evenodd" d="M26.6022 26.6022C32.6882 20.5162 32.6882 10.6505 26.6022 4.5645C20.5162 -1.5215 10.6505 -1.5215 4.5645 4.5645C-1.5215 10.6505 -1.5215 20.5162 4.5645 26.6022C10.6505 32.6882 20.5162 32.6882 26.6022 26.6022ZM24.599 24.599C26.9901 22.2079 28.3334 18.9649 28.3334 15.5833C28.3334 12.2018 26.9901 8.95877 24.599 6.56767C22.2079 4.17656 18.9649 2.83326 15.5833 2.83326C12.2018 2.83326 8.95877 4.17656 6.56767 6.56767C4.17656 8.95877 2.83326 12.2018 2.83326 15.5833C2.83326 18.9649 4.17656 22.2079 6.56767 24.599C8.95877 26.9901 12.2018 28.3334 15.5833 28.3334C18.9649 28.3334 22.2079 26.9901 24.599 24.599Z" fill="white"/>
</svg>
