<svg width="59" height="70" viewBox="0 0 59 70" fill="none" xmlns="http://www.w3.org/2000/svg">
<path d="M0.538228 62.6708C1.08757 63.2709 1.93961 63.4895 2.71017 63.228L11.4897 60.2469L15.1601 68.761C15.483 69.5101 16.2193 69.9967 17.0349 70H17.0434C17.8558 70 18.5919 69.5204 18.9199 68.7765L25.7617 53.2573C26.833 53.3889 27.9234 53.4579 29.0297 53.4579C30.1361 53.4579 31.2264 53.389 32.2977 53.2573L39.1395 68.7765C39.4674 69.5204 40.2036 70.0001 41.0161 70H41.0246C41.8404 69.9967 42.5765 69.5101 42.8995 68.761L46.57 60.2469L55.3495 63.228C56.1194 63.4895 56.9721 63.271 57.5215 62.6708C58.0709 62.0707 58.2137 61.2026 57.8851 60.4581L50.1842 43.0027C53.6353 38.5083 55.6904 32.8887 55.6904 26.7972C55.6904 12.0212 43.7305 0 29.0298 0C14.3292 0 2.36933 12.0212 2.36933 26.7972C2.36933 32.8887 4.42437 38.5085 7.87548 43.0027L0.174551 60.4581C-0.153852 61.2026 -0.0112526 62.0707 0.538228 62.6708ZM52.2484 57.8433L46.0957 55.7541C45.0832 55.4101 43.9764 55.9023 43.553 56.8843L40.9951 62.8176L36.4103 52.4177C40.4762 51.2447 44.145 49.1273 47.1647 46.3203L52.2484 57.8433ZM6.47095 26.7972C6.47095 14.2828 16.5909 4.10162 29.0298 4.10162C41.4688 4.10162 51.5887 14.2828 51.5887 26.7972C51.5887 39.2362 41.4688 49.3561 29.0298 49.3561C16.5909 49.3561 6.47095 39.2362 6.47095 26.7972ZM10.8948 46.3203C13.9147 49.1273 17.5835 51.2448 21.6494 52.4177L17.0645 62.8175L14.5067 56.8841C14.0833 55.9021 12.9765 55.4101 11.9641 55.754L5.81127 57.8432L10.8948 46.3203Z" fill="black"/>
<path d="M20.975 29.4145L19.7758 36.4054C19.6438 37.1747 19.9601 37.9524 20.5916 38.4112C21.222 38.8693 22.0593 38.9312 22.7514 38.5674L29.0297 35.2667L35.3079 38.5674C35.9991 38.9306 36.8365 38.8701 37.4677 38.4112C38.0992 37.9524 38.4156 37.1749 38.2837 36.4054L37.0846 29.4145L42.1638 24.4634C42.7227 23.9186 42.924 23.1036 42.6826 22.3612C42.4413 21.6188 41.7997 21.0777 41.0272 20.9654L34.0079 19.9455L30.8687 13.585C30.5233 12.885 29.8103 12.4417 29.0297 12.4417C28.2492 12.4417 27.5362 12.8848 27.1907 13.585L24.0516 19.9455L17.0322 20.9654C16.2597 21.0777 15.6178 21.6188 15.3767 22.3612C15.1353 23.1036 15.3366 23.9186 15.8955 24.4636L20.975 29.4145ZM25.7084 23.8493C26.3764 23.7522 26.9538 23.3327 27.2525 22.7273L29.0297 19.1263L30.8069 22.7273C31.1057 23.3326 31.6832 23.7522 32.3511 23.8493L36.3251 24.4268L33.4495 27.2298C32.9662 27.701 32.7456 28.3798 32.8598 29.0451L33.5386 33.0031L29.984 31.1344C29.3867 30.8204 28.6729 30.8202 28.0754 31.1344L24.5208 33.0031L25.1996 29.0451C25.3137 28.3798 25.0931 27.701 24.6098 27.2298L21.734 24.4268L25.7084 23.8493Z" fill="#126DFB"/>
</svg>
