<svg width="70" height="70" viewBox="0 0 70 70" fill="none" xmlns="http://www.w3.org/2000/svg">
<path d="M57.4789 25.5833L52.7045 30.1925L50.5212 28.0848C49.7158 27.3072 48.4097 27.3071 47.6042 28.0848C46.7986 28.8625 46.7986 30.1233 47.6042 30.9009L51.2459 34.4167C52.0513 35.1944 53.3575 35.1944 54.1629 34.4167L60.3958 28.3993C61.2014 27.6216 61.2014 26.3608 60.3958 25.5832C59.5904 24.8056 58.2843 24.8056 57.4789 25.5833Z" fill="#126DFB"/>
<path d="M54.209 13.8112C45.5018 13.8112 38.418 20.8947 38.418 29.6015C38.418 38.3083 45.5018 45.3918 54.209 45.3918C62.9162 45.3918 70 38.3083 70 29.6015C70 20.8947 62.9162 13.8112 54.209 13.8112ZM54.209 41.2904C47.7634 41.2904 42.5195 36.0468 42.5195 29.6015C42.5195 23.1562 47.7634 17.9126 54.209 17.9126C60.6546 17.9126 65.8984 23.1562 65.8984 29.6015C65.8984 36.0468 60.6546 41.2904 54.209 41.2904Z" fill="#126DFB"/>
<path d="M46.8359 49.493H39.8277L37.5607 42.6925C37.2816 41.8551 36.4979 41.2903 35.6152 41.2903H33.9129C33.7966 35.412 33.9287 27.6853 34.9821 20.9883C35.2986 18.9743 35.8303 17.1257 36.5619 15.4948C37.2491 13.9649 37.5702 12.333 37.516 10.6452C37.4518 4.8735 32.2369 -0.141202 26.4715 0.00303669C20.436 0.0316109 15.5258 4.96497 15.5258 11.0003C15.5258 12.4865 15.8174 13.9278 16.3928 15.2846C17.208 17.2061 17.7402 18.9789 18.0199 20.7036C19.1141 27.4641 19.2526 35.3153 19.1342 41.2904H17.4316C16.549 41.2904 15.7653 41.8552 15.4861 42.6926L13.2192 49.4932H6.21099C2.78619 49.493 0 52.2792 0 55.7037V59.7465C0 60.8791 0.918203 61.7972 2.05078 61.7972H3.41797V67.9492C3.41797 69.0818 4.33617 70 5.46875 70H47.5781C48.7107 70 49.6289 69.0818 49.6289 67.9494V61.7973H50.9961C52.1287 61.7973 53.0469 60.8791 53.0469 59.7467V55.7039C53.0469 52.2792 50.2607 49.493 46.8359 49.493ZM22.0687 20.0478C21.7354 17.9932 21.114 15.9111 20.1687 13.6831C19.8094 12.8359 19.6273 11.9332 19.6273 11.0003C19.6273 7.21591 22.7064 4.12237 26.4905 4.10446H26.5215C30.2094 4.10446 33.2993 7.09081 33.4166 10.7762C33.4506 11.8359 33.25 12.8582 32.82 13.8155C31.9393 15.7793 31.3034 17.9783 30.9304 20.3514C29.8369 27.303 29.6942 35.2456 29.8108 41.2904H23.2366C23.3552 35.1445 23.2053 27.0709 22.0687 20.0478ZM18.9098 45.3917H34.1372L35.5043 49.493H17.5427L18.9098 45.3917ZM4.10156 55.7037C4.10156 54.5407 5.04779 53.5944 6.21099 53.5944H46.836C47.9992 53.5944 48.9454 54.5407 48.9454 55.7037V57.6959H4.10156V55.7037ZM45.5273 65.8986H7.51953V61.7972H45.5273V65.8986Z" fill="black"/>
</svg>
