<svg width="70" height="64" viewBox="0 0 70 64" fill="none" xmlns="http://www.w3.org/2000/svg">
<path d="M67.1557 16.1194H66.292C65.2752 13.5771 63.1328 8.22083 61.7182 4.6859C60.5798 1.83942 57.8633 0 54.7974 0H2.02683C0.90748 0 0 0.90748 0 2.02683V34.5912C0 35.7106 0.90748 36.6181 2.02683 36.6181H54.7974C57.8632 36.6181 60.5798 34.7788 61.7179 31.9326C63.1964 28.2382 65.4695 22.5551 66.4222 20.173H67.1557C69.842 20.0733 69.84 16.2182 67.1557 16.1194ZM57.9543 30.4269C57.435 31.7253 56.1958 32.5644 54.7974 32.5644H4.05366V4.05366H54.7974C56.1959 4.05366 57.4351 4.89263 57.9543 6.19102C57.9544 6.19116 57.9544 6.19129 57.9545 6.19143C59.1304 9.12979 60.8088 13.3261 61.926 16.1192H60.6428C57.9564 16.219 57.9584 20.0741 60.6428 20.1729H62.0563C60.9429 22.9568 59.177 27.3718 57.9543 30.4269Z" fill="black"/>
<path d="M18.3017 17.5277C18.9007 16.6124 19.2504 15.52 19.2504 14.3469V13.2615C19.2504 10.0491 16.6367 7.43542 13.4243 7.43542H9.6251C8.50575 7.43542 7.59827 8.3429 7.59827 9.46226V26.8299C7.59827 27.9492 8.50575 28.8567 9.6251 28.8567H14.5098C17.7222 28.8567 20.3357 26.2432 20.3357 23.0307V21.9452C20.3358 20.1801 19.5456 18.597 18.3017 17.5277ZM11.6519 11.4891H13.4243C14.4015 11.4891 15.1967 12.2841 15.1967 13.2615V14.3469C15.1967 15.3241 14.4015 16.1193 13.4243 16.1193C12.8067 16.1193 12.2111 16.2159 11.6521 16.3948L11.6519 11.4891ZM16.2822 23.0308C16.2822 24.008 15.4871 24.8032 14.5099 24.8032H11.6521V21.9454C11.6521 20.9682 12.4471 20.173 13.4243 20.173H14.5099C15.4871 20.173 16.2822 20.968 16.2822 21.9454V23.0308Z" fill="black"/>
<path d="M38.3904 11.3522C39.3676 11.3522 40.1628 12.1742 40.1628 13.1844C40.1628 14.3037 41.0703 15.2112 42.1896 15.2112C43.309 15.2112 44.2164 14.3037 44.2164 13.1844C44.2164 9.939 41.6029 7.29858 38.3904 7.29858C31.847 7.48249 30.5853 15.9859 35.9293 19.061L38.8165 20.7369C40.5745 21.6985 40.7615 24.7866 38.3904 24.9386C37.4132 24.9386 36.6181 24.1167 36.6181 23.1065C36.6181 21.9872 35.7106 21.0797 34.5913 21.0797C33.4719 21.0797 32.5645 21.9872 32.5645 23.1065C32.5645 26.3519 35.178 28.9923 38.3904 28.9923C44.9335 28.8084 46.1958 20.3061 40.8516 17.231L37.9643 15.5549C36.2067 14.5936 36.0191 11.5041 38.3904 11.3522Z" fill="black"/>
<path d="M29.1638 11.4891C31.8501 11.3894 31.8481 7.5342 29.1638 7.43542H24.8219C23.7025 7.43542 22.795 8.3429 22.795 9.46226V26.8299C22.795 27.9492 23.7025 28.8567 24.8219 28.8567H29.1638C31.8501 28.757 31.8481 24.9018 29.1638 24.8031H26.8487V20.1728H28.0783C30.7647 20.0731 30.7627 16.218 28.0783 16.1192H26.8487V11.489L29.1638 11.4891Z" fill="black"/>
<path d="M54.1299 7.43542H47.617C44.9307 7.53514 44.9327 11.3903 47.617 11.4891H48.8467V26.8299C48.9464 29.5163 52.8015 29.5142 52.9003 26.8299V11.4891H54.1299C56.8161 11.3894 56.8141 7.5342 54.1299 7.43542Z" fill="black"/>
<path d="M7.99709 42.3339H4.19773C3.07838 42.3339 2.1709 43.2414 2.1709 44.3608V61.7284C2.27062 64.4148 6.12579 64.4127 6.22456 61.7284V58.472C6.22456 57.4948 7.01975 56.6996 7.99696 56.6996C11.2093 56.6996 13.8229 54.086 13.8229 50.8735V48.1598C13.823 44.9475 11.2095 42.3339 7.99709 42.3339ZM9.76935 50.8736C9.76935 51.8508 8.97429 52.646 7.99709 52.646C7.37945 52.646 6.78383 52.7426 6.2247 52.9217V46.3877H7.99709C8.97429 46.3877 9.76935 47.1828 9.76935 48.1601V50.8736Z" fill="#126DFB"/>
<path d="M58.4717 46.3876C61.1581 46.2879 61.1561 42.4327 58.4717 42.3339H54.1299C53.0105 42.3339 52.103 43.2414 52.103 44.3608V61.7284C52.103 62.8477 53.0105 63.7552 54.1299 63.7552H58.4719C61.1582 63.6555 61.1562 59.8003 58.4719 59.7016H56.1567V55.0713H57.3864C60.0728 54.9716 60.0708 51.1165 57.3864 51.0177H56.1567V46.3874H58.4717V46.3876Z" fill="#126DFB"/>
<path d="M32.4204 42.3339C31.301 42.3339 30.3936 43.2414 30.3936 44.3608V61.7284C30.4933 64.4148 34.3484 64.4127 34.4472 61.7284V44.3608C34.4472 43.2414 33.5397 42.3339 32.4204 42.3339Z" fill="#126DFB"/>
<path d="M43.8177 46.2245C44.7949 46.2245 45.5901 47.0196 45.5901 47.9969C45.5901 49.1162 46.4976 50.0237 47.617 50.0237C48.7363 50.0237 49.6438 49.1162 49.6438 47.9969C49.351 40.2783 38.2831 40.2809 37.9918 47.9969V58.0919C38.2853 65.8113 49.3522 65.8073 49.6438 58.0917C49.6438 56.9724 48.7363 56.065 47.617 56.065C46.4976 56.065 45.5901 56.9725 45.5901 58.0919C45.5901 59.0691 44.7949 59.8643 43.8177 59.8643C42.8405 59.8643 42.0455 59.0692 42.0455 58.0919V47.9969C42.0455 47.0196 42.8405 46.2245 43.8177 46.2245Z" fill="#126DFB"/>
<path d="M22.1083 42.3339H18.3091C17.1897 42.3339 16.2822 43.2414 16.2822 44.3608V61.7284C16.3819 64.4148 20.2371 64.4127 20.3359 61.7284V58.472C20.3359 58.0219 20.506 57.6116 20.7834 57.2987L24.1838 62.7945C24.7728 63.7464 26.022 64.0407 26.9738 63.4517C27.9257 62.8627 28.22 61.6137 27.631 60.6617L24.7773 56.0496C26.6504 55.0797 27.9342 53.1244 27.9342 50.8736V48.1598C27.9342 44.9475 25.3207 42.3339 22.1083 42.3339ZM23.8805 50.8735C23.8805 51.8507 23.0855 52.6459 22.1081 52.6459C21.4905 52.6459 20.8949 52.7425 20.3358 52.9215V46.3876H22.1081C23.0854 46.3876 23.8805 47.1826 23.8805 48.16V50.8735Z" fill="#126DFB"/>
</svg>
