<svg width="80" height="80" viewBox="0 0 80 80" fill="none" xmlns="http://www.w3.org/2000/svg">
<rect width="80" height="80" rx="20" fill="url(#paint0_linear_737_3464)"/>
<g clip-path="url(#clip0_737_3464)">
<path d="M38.6319 51.7874L38.4798 51.6604C38.0359 51.2895 37.4631 51.1095 36.8868 51.1599C36.3105 51.2102 35.7776 51.4868 35.4048 51.9291L36.134 51.0552C36.5048 50.6112 36.6848 50.0384 36.6344 49.4622C36.5841 48.8859 36.3075 48.353 35.8652 47.9802L35.7131 47.8531C35.2692 47.4822 34.6964 47.3022 34.1201 47.3526C33.5438 47.403 33.011 47.6795 32.6381 48.1218C32.6923 48.0572 32.7475 48.002 32.8017 47.9364L33.3694 47.2489C33.5538 47.0302 33.6931 46.7771 33.7793 46.5043C33.8655 46.2314 33.8968 45.9442 33.8714 45.6593C33.846 45.3743 33.7645 45.0971 33.6315 44.8438C33.4985 44.5905 33.3166 44.366 33.0964 44.1833L32.9433 44.052C32.7246 43.8676 32.4715 43.7283 32.1987 43.6421C31.9259 43.5559 31.6387 43.5246 31.3537 43.55C31.0687 43.5754 30.7915 43.6569 30.5382 43.7899C30.2849 43.9229 30.0604 44.1048 29.8777 44.3249L29.135 45.1979C29.5074 44.7547 29.689 44.1821 29.64 43.6053C29.591 43.0285 29.3154 42.4947 28.8735 42.1208L28.7204 41.9895C28.5006 41.805 28.2466 41.6657 27.9729 41.5795C27.6991 41.4934 27.4111 41.4621 27.1252 41.4874C26.8394 41.5128 26.5613 41.5943 26.3071 41.7273C26.0528 41.8603 25.8272 42.0421 25.6433 42.2624L22.9767 45.4437C22.933 45.4954 22.893 45.5501 22.8569 45.6072C22.5452 46.0534 22.4116 46.6001 22.4824 47.1397C22.5531 47.6794 22.823 48.1731 23.2392 48.5239L23.3912 48.6552C23.8359 49.0265 24.4097 49.2064 24.9867 49.1552C25.5638 49.104 26.097 48.8261 26.4694 48.3822C26.0985 48.8266 25.9189 49.3999 25.9699 49.9764C26.0208 50.553 26.2982 51.0858 26.7412 51.4583L26.8944 51.5781C27.3359 51.9496 27.9068 52.1307 28.4818 52.0817C29.0568 52.0327 29.5888 51.7575 29.961 51.3166L29.9673 51.3093C29.783 51.5288 29.6438 51.7824 29.5576 52.0557C29.4713 52.3289 29.4398 52.6165 29.4647 52.902C29.4897 53.1875 29.5707 53.4652 29.703 53.7194C29.8354 53.9735 30.0165 54.1991 30.236 54.3833L30.3881 54.5114C30.8322 54.8822 31.405 55.062 31.9813 55.0114C32.5576 54.9608 33.0904 54.684 33.4631 54.2416C33.0922 54.6855 32.9123 55.2583 32.9626 55.8346C33.013 56.4109 33.2896 56.9438 33.7319 57.3166L33.884 57.4447C34.3279 57.8156 34.9007 57.9956 35.4769 57.9452C36.0532 57.8949 36.5861 57.6183 36.959 57.176L38.9017 54.8604C39.2718 54.4164 39.4512 53.844 39.4006 53.2683C39.3501 52.6925 39.0737 52.1601 38.6319 51.7874Z" fill="white"/>
<path d="M50.4597 31.0905C50.2771 30.7634 50.1398 30.413 50.0514 30.0489C49.1904 29.742 48.2832 29.5845 47.3691 29.5833H43.7691C42.2482 29.5827 40.758 30.0116 39.4702 30.8208L34.5962 33.8812C34.1572 34.1553 33.8369 34.5842 33.6989 35.083C33.5608 35.5818 33.615 36.1143 33.8506 36.5752C34.0863 37.036 34.4863 37.3916 34.9715 37.5717C35.4568 37.7518 35.9919 37.7433 36.4712 37.5478L45.8941 33.7978L55.6858 42.1624C55.8941 42.003 56.1712 41.7708 56.4733 41.503L50.4597 31.0905Z" fill="white"/>
<path d="M55.2738 25.9039L53.0249 27.2024C52.0285 27.7776 51.6871 29.0518 52.2624 30.0482L58.8618 41.4785C59.4371 42.4749 60.7113 42.8163 61.7077 42.241L63.9566 40.9425C64.953 40.3672 65.2944 39.0931 64.7191 38.0967L58.1196 26.6664C57.5443 25.67 56.2702 25.3286 55.2738 25.9039Z" fill="white"/>
<path d="M21.8785 26.6678L15.279 38.0981C14.7037 39.0945 15.0451 40.3686 16.0415 40.9439L18.2904 42.2423C19.2868 42.8176 20.5609 42.4762 21.1362 41.4798L27.7357 30.0495C28.311 29.0531 27.9696 27.779 26.9732 27.2037L24.7243 25.9053C23.7279 25.33 22.4537 25.6713 21.8785 26.6678Z" fill="white"/>
<path d="M52.4196 48.2228L52.9571 48.7228C53.3773 49.0844 53.9132 49.2833 54.4675 49.2833C55.0218 49.2833 55.5578 49.0844 55.9779 48.7228C56.2304 48.5056 56.4329 48.2363 56.5718 47.9336C56.7106 47.6309 56.7825 47.3017 56.7825 46.9687C56.7825 46.6356 56.7106 46.3065 56.5718 46.0037C56.4329 45.701 56.2304 45.4318 55.9779 45.2145L46.2717 36.8562L45.4988 36.1968L37.2498 39.4791C36.2881 39.8668 35.2161 39.8806 34.2447 39.5176C33.2734 39.1546 32.473 38.4413 32.0012 37.5179C31.5294 36.5945 31.4203 35.528 31.6953 34.5282C31.9703 33.5284 32.6096 32.6677 33.4873 32.1155L37.8061 29.4072L32.9842 28.8062C32.0183 28.6898 31.04 28.7285 30.0863 28.9208C30.1082 29.6815 29.9193 30.4336 29.5404 31.0937L23.4561 41.6312L24.054 40.9176C24.781 40.0513 25.822 39.5087 26.9486 39.4089C28.0752 39.3091 29.1953 39.6603 30.0633 40.3853L30.2342 40.5312C30.5581 40.8042 30.839 41.1244 31.0675 41.4812C31.6437 41.4146 32.2275 41.4666 32.7829 41.6341C33.3382 41.8016 33.8534 42.081 34.2967 42.4551L34.4633 42.5978C34.8902 42.9558 35.2418 43.3948 35.4979 43.8896C35.7539 44.3843 35.9093 44.9249 35.955 45.4801C35.955 45.5176 35.9613 45.5541 35.9633 45.5906C36.3597 45.7564 36.7288 45.9812 37.0581 46.2572L37.2081 46.3843C37.6527 46.7566 38.0164 47.2159 38.2769 47.734C38.5374 48.252 38.6891 48.8179 38.7227 49.3968C39.1203 49.5622 39.4902 49.7873 39.8196 50.0645L39.9748 50.1947C40.8101 50.8927 41.3444 51.8855 41.467 52.9671C41.5896 54.0486 41.291 55.1358 40.6331 56.003L41.104 56.4322C41.3252 56.6359 41.5846 56.7936 41.8672 56.8963C42.1498 56.9989 42.45 57.0445 42.7503 57.0304C43.0507 57.0162 43.3452 56.9426 43.6169 56.8139C43.8886 56.6851 44.132 56.5037 44.3331 56.2801C44.7367 55.8314 44.947 55.2416 44.9184 54.6388C44.8897 54.0359 44.6244 53.4687 44.18 53.0603L44.9092 53.727C45.1304 53.9291 45.3892 54.0857 45.6709 54.1878C45.9526 54.2898 46.2517 54.3354 46.551 54.3219C46.8503 54.3085 47.1441 54.2361 47.4154 54.1091C47.6868 53.9821 47.9305 53.8029 48.1326 53.5817C48.3347 53.3605 48.4913 53.1017 48.5934 52.82C48.6955 52.5383 48.7411 52.2392 48.7276 51.9399C48.7141 51.6406 48.6418 51.3468 48.5147 51.0754C48.3877 50.8041 48.2085 50.5604 47.9873 50.3583L49.3415 51.5926C49.7901 51.9898 50.3769 52.1946 50.9752 52.1628C51.5735 52.1311 52.1353 51.8653 52.5393 51.423C52.9434 50.9806 53.1573 50.3971 53.1349 49.7984C53.1125 49.1997 52.8556 48.6338 52.4196 48.2228Z" fill="white"/>
</g>
<defs>
<linearGradient id="paint0_linear_737_3464" x1="0" y1="40" x2="80" y2="40" gradientUnits="userSpaceOnUse">
<stop stop-color="#0035E5"/>
<stop offset="0.7" stop-color="#298CFF"/>
</linearGradient>
<clipPath id="clip0_737_3464">
<rect width="50" height="50" fill="white" transform="translate(15 15)"/>
</clipPath>
</defs>
</svg>
