<svg width="80" height="80" viewBox="0 0 80 80" fill="none" xmlns="http://www.w3.org/2000/svg">
<path d="M0 20C0 8.95431 8.95431 0 20 0H60C71.0457 0 80 8.95431 80 20V60C80 71.0457 71.0457 80 60 80H20C8.95431 80 0 71.0457 0 60V20Z" fill="url(#paint0_linear_737_3414)"/>
<path d="M49.625 41.375C47.9933 41.375 46.3983 41.8589 45.0415 42.7654C43.6848 43.6719 42.6274 44.9604 42.003 46.4679C41.3786 47.9754 41.2152 49.6342 41.5335 51.2345C41.8519 52.8348 42.6376 54.3048 43.7914 55.4586C44.9452 56.6124 46.4152 57.3982 48.0155 57.7165C49.6159 58.0348 51.2747 57.8714 52.7821 57.247C54.2896 56.6226 55.5781 55.5652 56.4846 54.2085C57.3911 52.8517 57.875 51.2567 57.875 49.625C57.8728 47.4376 57.0029 45.3405 55.4562 43.7938C53.9095 42.2471 51.8124 41.3772 49.625 41.375ZM53.6125 51.6146C53.5318 51.7763 53.4201 51.9205 53.2837 52.0389C53.1473 52.1574 52.9889 52.2478 52.8175 52.305C52.6462 52.3622 52.4652 52.3851 52.285 52.3723C52.1048 52.3596 51.9288 52.3114 51.7673 52.2306L49.0173 50.8556C48.7874 50.7424 48.5938 50.5671 48.4582 50.3497C48.3226 50.1322 48.2505 49.8812 48.25 49.625V45.5C48.25 45.1353 48.3949 44.7856 48.6527 44.5277C48.9106 44.2699 49.2603 44.125 49.625 44.125C49.9897 44.125 50.3394 44.2699 50.5973 44.5277C50.8551 44.7856 51 45.1353 51 45.5V48.7752L52.9896 49.7694C53.1519 49.8494 53.2967 49.9607 53.4159 50.0968C53.5351 50.233 53.6262 50.3913 53.6841 50.5627C53.7419 50.7341 53.7654 50.9153 53.7531 51.0958C53.7408 51.2763 53.6931 51.4526 53.6125 51.6146Z" fill="white"/>
<path d="M55.125 27.625C55.125 26.531 54.6904 25.4818 53.9168 24.7082C53.1432 23.9346 52.094 23.5 51 23.5H46.875V22.125C46.875 21.7603 46.7301 21.4106 46.4723 21.1527C46.2144 20.8949 45.8647 20.75 45.5 20.75C45.1353 20.75 44.7856 20.8949 44.5277 21.1527C44.2699 21.4106 44.125 21.7603 44.125 22.125V23.5H31.75V22.125C31.75 21.7603 31.6051 21.4106 31.3473 21.1527C31.0894 20.8949 30.7397 20.75 30.375 20.75C30.0103 20.75 29.6606 20.8949 29.4027 21.1527C29.1449 21.4106 29 21.7603 29 22.125V23.5H24.875C23.781 23.5 22.7318 23.9346 21.9582 24.7082C21.1846 25.4818 20.75 26.531 20.75 27.625V31.75H55.125V27.625Z" fill="white"/>
<path d="M49.625 38.625C51.5577 38.6223 53.4563 39.1349 55.125 40.11V34.5H20.75V51C20.7533 52.093 21.1889 53.1403 21.9618 53.9132C22.7347 54.6861 23.782 55.1217 24.875 55.125H40.11C39.1349 53.4563 38.6223 51.5577 38.625 49.625C38.629 46.7088 39.7892 43.9133 41.8512 41.8512C43.9133 39.7892 46.7088 38.629 49.625 38.625ZM29 49.625H26.25C25.8853 49.625 25.5356 49.4801 25.2777 49.2223C25.0199 48.9644 24.875 48.6147 24.875 48.25C24.875 47.8853 25.0199 47.5356 25.2777 47.2777C25.5356 47.0199 25.8853 46.875 26.25 46.875H29C29.3647 46.875 29.7144 47.0199 29.9723 47.2777C30.2301 47.5356 30.375 47.8853 30.375 48.25C30.375 48.6147 30.2301 48.9644 29.9723 49.2223C29.7144 49.4801 29.3647 49.625 29 49.625ZM29 42.75H26.25C25.8853 42.75 25.5356 42.6051 25.2777 42.3473C25.0199 42.0894 24.875 41.7397 24.875 41.375C24.875 41.0103 25.0199 40.6606 25.2777 40.4027C25.5356 40.1449 25.8853 40 26.25 40H29C29.3647 40 29.7144 40.1449 29.9723 40.4027C30.2301 40.6606 30.375 41.0103 30.375 41.375C30.375 41.7397 30.2301 42.0894 29.9723 42.3473C29.7144 42.6051 29.3647 42.75 29 42.75ZM37.25 42.75H34.5C34.1353 42.75 33.7856 42.6051 33.5277 42.3473C33.2699 42.0894 33.125 41.7397 33.125 41.375C33.125 41.0103 33.2699 40.6606 33.5277 40.4027C33.7856 40.1449 34.1353 40 34.5 40H37.25C37.6147 40 37.9644 40.1449 38.2223 40.4027C38.4801 40.6606 38.625 41.0103 38.625 41.375C38.625 41.7397 38.4801 42.0894 38.2223 42.3473C37.9644 42.6051 37.6147 42.75 37.25 42.75Z" fill="white"/>
<defs>
<linearGradient id="paint0_linear_737_3414" x1="0" y1="40" x2="80" y2="40" gradientUnits="userSpaceOnUse">
<stop stop-color="#0035E5"/>
<stop offset="0.7" stop-color="#298CFF"/>
</linearGradient>
</defs>
</svg>
