<svg width="80" height="80" viewBox="0 0 80 80" fill="none" xmlns="http://www.w3.org/2000/svg">
<rect width="80" height="80" rx="20" fill="url(#paint0_linear_737_3475)"/>
<g clip-path="url(#clip0_737_3475)">
<path d="M26.0349 42.6438C26.0349 36.3583 31.1485 31.2446 37.434 31.2446V27.0311C36.3241 27.0315 35.261 26.559 34.5391 25.7159L32.6284 23.4841C31.7067 23.7169 30.7904 24.0177 29.8861 24.3917C28.9823 24.7667 28.1217 25.2019 27.3054 25.689L27.5315 28.6067C27.6174 29.7155 27.19 30.8111 26.4022 31.5961C25.6176 32.3812 24.5239 32.8067 23.4172 32.7209L20.4881 32.494C20.001 33.3103 19.5658 34.1709 19.1908 35.0747C18.8168 35.979 18.516 36.8953 18.2832 37.8169L20.5062 39.7202C21.351 40.4435 21.8234 41.5204 21.8214 42.6326C21.8219 43.7425 21.3494 44.8168 20.5062 45.5387L18.2744 47.4495C18.5072 48.3711 18.808 49.2874 19.182 50.1918C19.5569 51.0956 19.9922 51.9562 20.4793 52.7725L23.397 52.5464C24.5058 52.4605 25.6014 52.8879 26.3863 53.6757C27.1715 54.4603 27.597 55.554 27.5112 56.6607L27.2843 59.5898C28.1006 60.0769 28.9612 60.5121 29.8651 60.8871C30.7694 61.2611 31.6857 61.5619 32.6073 61.7947L34.5106 59.5717C35.2339 58.7269 36.3108 58.2545 37.4229 58.2565L37.4272 54.0429C31.1447 54.0392 26.0349 48.927 26.0349 42.6438Z" fill="white"/>
<path d="M28.6006 42.6437C28.6006 47.5128 32.5607 51.4744 37.4294 51.4768L37.4337 47.2669C34.8803 47.2669 32.8104 45.197 32.8104 42.6437C32.8104 40.0903 34.8803 38.0205 37.4337 38.0205V33.8107C32.5631 33.8107 28.6006 37.7731 28.6006 42.6437Z" fill="white"/>
<path d="M37.4336 20.3839H39.9997V22.95H37.4336V20.3839Z" fill="white"/>
<path d="M32.3018 18.2053H34.8678V20.7714H32.3018V18.2053Z" fill="white"/>
<path d="M40 57.2568H42.5661V59.8229H40V57.2568Z" fill="white"/>
<path d="M45.1318 59.434H47.6979V62.0001H45.1318V59.434Z" fill="white"/>
<path d="M58.1791 37.162C58.1787 36.0521 58.6512 34.9778 59.4943 34.2559L61.726 32.3452C61.4932 31.4236 61.1924 30.5072 60.8184 29.6029C60.4434 28.6991 60.0082 27.8385 59.5211 27.0222L56.6034 27.2483C55.4945 27.3342 54.399 26.9067 53.614 26.1189C52.8289 25.3344 52.4033 24.2406 52.4891 23.134L52.7161 20.2049C51.8998 19.7177 51.0391 19.2825 50.1353 18.9075C49.2311 18.5336 48.3149 18.2327 47.3932 18L45.49 20.223C44.7667 21.0678 43.6898 21.5402 42.5776 21.5381L42.5733 25.7517C48.8557 25.7555 53.9656 30.8676 53.9656 37.1508C53.9656 43.4364 48.852 48.55 42.5664 48.55V52.7635C43.6763 52.7631 44.7395 53.2356 45.4614 54.0787L47.3721 56.3104C48.2937 56.0776 49.21 55.7768 50.1143 55.4028C51.0182 55.0278 51.8788 54.5926 52.695 54.1055L52.469 51.1878C52.3831 50.079 52.8105 48.9834 53.5983 48.1984C54.3828 47.4133 55.4766 46.9878 56.5833 47.0735L59.5124 47.3004C59.9995 46.4841 60.4347 45.6235 60.8097 44.7196C61.1837 43.8153 61.4845 42.899 61.7172 41.9774L59.4942 40.0741C58.6496 39.3511 58.1771 38.2741 58.1791 37.162Z" fill="white"/>
<path d="M51.3995 37.1509C51.3995 32.2817 47.4392 28.3202 42.5707 28.3179L42.5664 32.5277C45.1198 32.5277 47.1896 34.5976 47.1896 37.1509C47.1896 39.7042 45.1197 41.7741 42.5664 41.7741V45.984C47.437 45.984 51.3995 42.0215 51.3995 37.1509Z" fill="white"/>
</g>
<defs>
<linearGradient id="paint0_linear_737_3475" x1="0" y1="40" x2="80" y2="40" gradientUnits="userSpaceOnUse">
<stop stop-color="#0035E5"/>
<stop offset="0.7" stop-color="#298CFF"/>
</linearGradient>
<clipPath id="clip0_737_3475">
<rect width="44" height="44" fill="white" transform="translate(18 18)"/>
</clipPath>
</defs>
</svg>
