<svg width="80" height="80" viewBox="0 0 80 80" fill="none" xmlns="http://www.w3.org/2000/svg">
<rect width="80" height="80" rx="20" fill="url(#paint0_linear_737_3439)"/>
<g clip-path="url(#clip0_737_3439)">
<path d="M40.2698 60C38.7284 60.0383 35.7002 59.7984 34.7104 59.5633C34.0141 59.4036 33.3875 59.0246 32.9229 58.482C32.4511 57.9493 32.1546 57.2843 32.0737 56.5773V56.5562C32.0218 56.0463 32.0059 55.5333 32.026 55.0211C32.0059 54.5965 32.0218 54.171 32.0737 53.7492V53.7281C32.1456 53.0548 32.4468 52.4268 32.9268 51.9492C33.4096 51.468 34.0415 51.165 34.719 51.0898C35.712 50.9851 38.7338 50.9273 40.2659 50.9281C41.7979 50.9289 44.2667 50.9851 45.2596 51.0898C45.938 51.1662 46.5702 51.4708 47.0526 51.9539C47.5323 52.4317 47.8334 53.0596 47.9057 53.7328V53.7539C47.9552 54.1755 47.98 54.5997 47.9799 55.0242C47.9826 55.5376 47.9581 56.0509 47.9065 56.5617V56.5828C47.8251 57.2901 47.5284 57.9552 47.0565 58.4883C46.5922 59.0308 45.9658 59.4099 45.2698 59.5695C44.2815 59.7859 41.8112 60.0062 40.2698 60Z" fill="white"/>
<path d="M40 49.7664C42.6514 49.7664 44.8008 47.617 44.8008 44.9656C44.8008 42.3142 42.6514 40.1648 40 40.1648C37.3486 40.1648 35.1992 42.3142 35.1992 44.9656C35.1992 47.617 37.3486 49.7664 40 49.7664Z" fill="white"/>
<path d="M52.4605 49.2304C54.9639 49.2304 56.9934 47.201 56.9934 44.6976C56.9934 42.1942 54.9639 40.1648 52.4605 40.1648C49.9571 40.1648 47.9277 42.1942 47.9277 44.6976C47.9277 47.201 49.9571 49.2304 52.4605 49.2304Z" fill="white"/>
<path d="M27.5396 49.2304C30.0431 49.2304 32.0725 47.201 32.0725 44.6976C32.0725 42.1942 30.0431 40.1648 27.5396 40.1648C25.0362 40.1648 23.0068 42.1942 23.0068 44.6976C23.0068 47.201 25.0362 49.2304 27.5396 49.2304Z" fill="white"/>
<path d="M46.8863 25.2891C46.3494 25.2047 45.8652 24.9179 45.5333 24.4874C45.2014 24.057 45.047 23.5158 45.102 22.975C45.1187 22.8261 45.1526 22.6795 45.2027 22.5383C45.2625 22.3472 45.2635 22.1427 45.2057 21.951C45.1479 21.7593 45.034 21.5895 44.8785 21.4633C44.2002 20.8778 43.431 20.4068 42.6012 20.0688C42.4203 19.9924 42.2191 19.9787 42.0294 20.0296C41.8398 20.0805 41.6726 20.1933 41.5543 20.35C41.3968 20.5577 41.1994 20.7317 40.9736 20.8619C40.7479 20.9921 40.4984 21.0757 40.2398 21.108C39.9812 21.1402 39.7187 21.1204 39.4679 21.0497C39.2171 20.9789 38.9829 20.8587 38.7793 20.6961C38.6536 20.5954 38.5412 20.4791 38.4449 20.35C38.3266 20.1933 38.1594 20.0805 37.9698 20.0296C37.7802 19.9787 37.579 19.9924 37.3981 20.0688C36.6327 20.38 35.9184 20.8045 35.2793 21.3281C35.1163 21.456 34.9963 21.6307 34.9355 21.8287C34.8746 22.0267 34.8757 22.2386 34.9387 22.436C35.3207 23.4516 34.8051 24.6383 33.7566 25.0711C33.5698 25.1491 33.3727 25.1999 33.1715 25.2219C32.9669 25.2462 32.7746 25.3328 32.6209 25.4701C32.4672 25.6073 32.3594 25.7885 32.3121 25.9891C32.1201 26.8414 32.1031 27.7238 32.2621 28.5828C32.3031 28.7898 32.4086 28.9783 32.5637 29.1214C32.7187 29.2645 32.9151 29.3546 33.1246 29.3789C33.6628 29.4358 34.1584 29.6974 34.5092 30.1095C34.8599 30.5215 35.0388 31.0527 35.009 31.593C34.9956 31.815 34.9441 32.033 34.8566 32.2375C34.6902 32.6211 34.8191 33.086 35.1621 33.3688C35.837 33.9442 36.5998 34.4077 37.4215 34.7414C37.5234 34.7808 37.6311 34.803 37.7402 34.8071C37.8877 34.8103 38.0336 34.7762 38.1643 34.7079C38.295 34.6396 38.4063 34.5393 38.4879 34.4164C38.6641 34.1488 38.9042 33.9292 39.1866 33.7777C39.4689 33.6261 39.7846 33.5473 40.1051 33.5485C40.4152 33.548 40.721 33.6215 40.9969 33.763C41.2729 33.9044 41.5111 34.1097 41.6918 34.3617C41.8095 34.5293 41.9821 34.6504 42.1797 34.7042C42.3773 34.758 42.5874 34.741 42.7738 34.6563C43.5236 34.323 44.2208 33.8822 44.8434 33.3477C45.0016 33.2195 45.1169 33.0461 45.174 32.8507C45.2311 32.6553 45.2272 32.4471 45.1629 32.2539C44.7723 31.2461 45.2707 30.0531 46.3145 29.6094C46.4908 29.5323 46.6769 29.4797 46.8676 29.4531C47.0697 29.4237 47.258 29.3331 47.407 29.1934C47.5561 29.0537 47.6587 28.8717 47.7012 28.6719C47.7911 28.2529 47.8397 27.8261 47.8465 27.3977C47.8462 26.9458 47.7988 26.4952 47.7051 26.0531C47.6623 25.8576 47.5612 25.6797 47.4151 25.5429C47.2691 25.406 47.085 25.3167 46.8871 25.2867L46.8863 25.2891ZM42.6152 27.3985C42.6155 27.9158 42.4624 28.4217 42.1752 28.852C41.888 29.2824 41.4796 29.6179 41.0017 29.8161C40.5237 30.0143 39.9978 30.0663 39.4903 29.9656C38.9828 29.8648 38.5166 29.6158 38.1506 29.2501C37.7847 28.8844 37.5354 28.4183 37.4344 27.9109C37.3333 27.4035 37.385 26.8775 37.5829 26.3994C37.7809 25.9214 38.1161 25.5128 38.5463 25.2253C38.9765 24.9378 39.4822 24.7844 39.9996 24.7844C40.6922 24.7879 41.3555 25.0646 41.8453 25.5543C42.3351 26.0441 42.6117 26.7074 42.6152 27.4V27.3985Z" fill="white"/>
<path d="M59.9996 54.1882C59.9997 53.7872 59.9764 53.3866 59.9301 52.9882V52.9687C59.8621 52.333 59.5777 51.74 59.1246 51.289C58.6697 50.8327 58.0728 50.545 57.4324 50.4734C56.4949 50.3742 54.1668 50.3171 52.7168 50.3171C51.2668 50.3171 48.4301 50.371 47.4824 50.4695C47.6847 50.6133 47.8747 50.7738 48.0504 50.9492C48.7572 51.6557 49.2008 52.5829 49.3074 53.5765V53.5937V53.6039C49.3614 54.0837 49.3875 54.5663 49.3855 55.0492C49.3883 55.6015 49.3622 56.1535 49.3074 56.7031V56.7101V56.7226C49.2329 57.41 49.0104 58.0732 48.6551 58.6664C49.9152 58.8109 51.6746 58.9195 52.7176 58.8937C54.173 58.9039 56.5051 58.6953 57.441 58.4835C58.0983 58.333 58.6896 57.975 59.1277 57.4625C59.5732 56.96 59.8534 56.3327 59.9301 55.6656V55.646C59.979 55.1617 60.0022 54.6751 59.9996 54.1882Z" fill="white"/>
<path d="M30.6743 56.7187V56.7141V56.6969C30.6186 56.143 30.5999 55.586 30.618 55.0297C30.6013 54.5532 30.6201 54.0761 30.6743 53.6023V53.5797C30.7405 52.9618 30.9376 52.3652 31.2524 51.8294C31.5672 51.2937 31.9925 50.8312 32.5 50.4727C31.5571 50.3734 29.2399 50.3203 27.7946 50.3203C26.3493 50.3203 23.4914 50.3742 22.5539 50.4766C21.9133 50.5467 21.3156 50.833 20.8594 51.2883C20.4064 51.7396 20.1223 52.3329 20.0547 52.9687V52.9883C20.0052 53.3862 19.9895 53.7877 20.0078 54.1883C19.989 54.6718 20.0041 55.1561 20.0532 55.6375V55.6578C20.1301 56.3249 20.4102 56.9521 20.8555 57.4547C21.2939 57.9673 21.8855 58.3253 22.543 58.4758C23.4805 58.6984 26.3375 58.9242 27.793 58.8883C28.9746 58.881 30.1549 58.8069 31.3282 58.6664C30.9721 58.072 30.749 57.4076 30.6743 56.7187Z" fill="white"/>
<path d="M27.4573 39.2969C27.4026 39.2969 27.3487 39.2969 27.2932 39.2883C27.0992 39.267 26.9112 39.2077 26.7402 39.1137C26.5691 39.0196 26.4182 38.8928 26.2962 38.7404C26.1743 38.588 26.0835 38.4131 26.0292 38.2256C25.975 38.038 25.9582 37.8417 25.9799 37.6477C26.3338 34.418 28.5752 31.5789 31.6885 30.4157C32.0573 30.2779 32.4658 30.2922 32.824 30.4556C33.1822 30.619 33.4609 30.9179 33.5987 31.2867C33.7365 31.6556 33.7221 32.064 33.5587 32.4222C33.3954 32.7805 33.0964 33.0591 32.7276 33.1969C30.6541 33.9711 29.1643 35.8453 28.9307 37.9711C28.8916 38.3348 28.7196 38.6713 28.4477 38.916C28.1758 39.1607 27.8231 39.2963 27.4573 39.2969Z" fill="white"/>
<path d="M52.5429 39.2969C52.1767 39.2963 51.8237 39.1603 51.5518 38.9151C51.2798 38.67 51.108 38.3329 51.0695 37.9688C50.8351 35.843 49.346 33.9688 47.2726 33.1946C46.9038 33.0568 46.6048 32.7781 46.4414 32.4199C46.2781 32.0617 46.2637 31.6532 46.4015 31.2844C46.5393 30.9156 46.8179 30.6166 47.1762 30.4533C47.5344 30.2899 47.9428 30.2755 48.3117 30.4133C51.4249 31.5766 53.6663 34.4157 54.0202 37.6454C54.042 37.8394 54.0252 38.0357 53.9709 38.2232C53.9166 38.4107 53.8259 38.5857 53.7039 38.7381C53.5819 38.8905 53.4311 39.0173 53.26 39.1113C53.0889 39.2054 52.901 39.2647 52.707 39.286C52.6562 39.2899 52.5976 39.2969 52.5429 39.2969Z" fill="white"/>
</g>
<defs>
<linearGradient id="paint0_linear_737_3439" x1="0" y1="40" x2="80" y2="40" gradientUnits="userSpaceOnUse">
<stop stop-color="#0035E5"/>
<stop offset="0.7" stop-color="#298CFF"/>
</linearGradient>
<clipPath id="clip0_737_3439">
<rect width="40" height="40" fill="white" transform="translate(20 20)"/>
</clipPath>
</defs>
</svg>
