<svg width="66" height="66" viewBox="0 0 66 66" fill="none" xmlns="http://www.w3.org/2000/svg">
<path d="M33 0C31.6971 0 30.6429 1.05427 30.6429 2.35714C30.6429 3.66002 31.6971 4.71429 33 4.71429C48.5977 4.71429 61.2857 17.4023 61.2857 33C61.2857 48.5977 48.5977 61.2857 33 61.2857C17.4023 61.2857 4.71429 48.5977 4.71429 33C4.71429 27.3486 6.42891 21.8322 9.56611 17.1818C9.86234 18.1448 10.7248 18.8571 11.7857 18.8571C13.0886 18.8571 14.1429 17.8029 14.1429 16.5V11.7857C14.1429 10.4828 13.0886 9.42857 11.7857 9.42857H7.07143C5.76855 9.42857 4.71429 10.4828 4.71429 11.7857C4.71429 12.7368 5.28357 13.5448 6.0937 13.9174C2.15573 19.4722 0 26.1521 0 33C0 51.1965 14.8035 66 33 66C51.1965 66 66 51.1965 66 33C66 14.8035 51.1965 0 33 0Z" fill="black"/>
<path d="M44.7859 44.7858C46.0877 44.7858 47.143 43.7305 47.143 42.4287C47.143 41.1269 46.0877 40.0715 44.7859 40.0715C43.484 40.0715 42.4287 41.1269 42.4287 42.4287C42.4287 43.7305 43.484 44.7858 44.7859 44.7858Z" fill="#126DFB"/>
<path d="M37.7146 44.7858C39.0164 44.7858 40.0717 43.7305 40.0717 42.4287C40.0717 41.1269 39.0164 40.0715 37.7146 40.0715C36.4128 40.0715 35.3574 41.1269 35.3574 42.4287C35.3574 43.7305 36.4128 44.7858 37.7146 44.7858Z" fill="#126DFB"/>
<path d="M28.286 40.0715H21.2146C19.9117 40.0715 18.8574 41.1258 18.8574 42.4287C18.8574 43.7315 19.9117 44.7858 21.2146 44.7858H28.286C29.5889 44.7858 30.6431 43.7315 30.6431 42.4287C30.6431 41.1258 29.5889 40.0715 28.286 40.0715Z" fill="#126DFB"/>
<path d="M44.7859 30.6428C46.0877 30.6428 47.143 29.5874 47.143 28.2856C47.143 26.9838 46.0877 25.9285 44.7859 25.9285C43.484 25.9285 42.4287 26.9838 42.4287 28.2856C42.4287 29.5874 43.484 30.6428 44.7859 30.6428Z" fill="#126DFB"/>
<path d="M37.7146 30.6428C39.0164 30.6428 40.0717 29.5874 40.0717 28.2856C40.0717 26.9838 39.0164 25.9285 37.7146 25.9285C36.4128 25.9285 35.3574 26.9838 35.3574 28.2856C35.3574 29.5874 36.4128 30.6428 37.7146 30.6428Z" fill="#126DFB"/>
<path d="M21.2146 30.6428H28.286C29.5889 30.6428 30.6431 29.5885 30.6431 28.2856C30.6431 26.9827 29.5889 25.9285 28.286 25.9285H21.2146C19.9117 25.9285 18.8574 26.9827 18.8574 28.2856C18.8574 29.5885 19.9117 30.6428 21.2146 30.6428Z" fill="#126DFB"/>
<path d="M54.2147 25.9286C54.2147 22.0292 51.0427 18.8572 47.1433 18.8572H18.8576C14.9581 18.8572 11.7861 22.0292 11.7861 25.9286V30.6429C11.7861 32.4605 12.4945 34.1032 13.6253 35.3572C12.4945 36.6111 11.7861 38.2538 11.7861 40.0715V44.7857C11.7861 48.6852 14.9581 51.8572 18.8576 51.8572H47.1433C51.0427 51.8572 54.2147 48.6852 54.2147 44.7857V40.0715C54.2147 38.2538 53.5063 36.6111 52.3755 35.3572C53.5063 34.1032 54.2147 32.4605 54.2147 30.6429V25.9286ZM16.5004 25.9286C16.5004 24.628 17.557 23.5715 18.8576 23.5715H47.1433C48.4438 23.5715 49.5004 24.628 49.5004 25.9286V30.6429C49.5004 31.9435 48.4438 33 47.1433 33H18.8576C17.557 33 16.5004 31.9435 16.5004 30.6429V25.9286ZM49.5004 44.7857C49.5004 46.0863 48.4438 47.1429 47.1433 47.1429H18.8576C17.557 47.1429 16.5004 46.0863 16.5004 44.7857V40.0715C16.5004 38.7709 17.557 37.7143 18.8576 37.7143H47.1433C48.4438 37.7143 49.5004 38.7709 49.5004 40.0715V44.7857Z" fill="black"/>
</svg>
