<svg width="80" height="80" viewBox="0 0 80 80" fill="none" xmlns="http://www.w3.org/2000/svg">
<path d="M39.9999 60.3333C22.6666 60.3333 8.99992 42 8.33325 41.3333C7.66659 40.6667 7.66659 39.6667 8.33325 39C8.99992 38.3333 22.3332 20 39.9999 20C57.6666 20 70.9999 38.3333 71.6666 39C72.3332 39.6667 72.3332 40.6667 71.6666 41.3333C70.9999 42 57.3332 60.3333 39.9999 60.3333ZM12.6666 40C15.9999 44 26.9999 56.3333 39.9999 56.3333C52.9999 56.3333 64.3332 44 67.3332 40C63.9999 36 52.9999 23.6667 39.9999 23.6667C26.9999 23.6667 15.6666 36 12.6666 40Z" fill="#126DFB"/>
<path d="M40.0001 50.3334C34.3334 50.3334 29.6667 45.6667 29.6667 40C29.6667 34.3334 34.3334 29.6667 40.0001 29.6667C45.6668 29.6667 50.3334 34.3334 50.3334 40C50.3334 45.6667 45.6668 50.3334 40.0001 50.3334ZM40.0001 33.6667C36.3334 33.6667 33.6668 36.3334 33.6668 40C33.6668 43.6667 36.3334 46.3334 40.0001 46.3334C43.6668 46.3334 46.3334 43.6667 46.3334 40C46.3334 36.3334 43.6668 33.6667 40.0001 33.6667Z" fill="#126DFB"/>
<path d="M20.0001 75.3333H6.66675C5.66675 75.3333 4.66675 74.3333 4.66675 73.3333V60C4.66675 59 5.66675 58 6.66675 58C7.66675 58 8.66675 59 8.66675 60V71.3333H20.0001C21.0001 71.3333 22.0001 72.3333 22.0001 73.3333C22.0001 74.3333 21.0001 75.3333 20.0001 75.3333Z" fill="black"/>
<path d="M73.3333 22C72.3333 22 71.3333 21 71.3333 20V8.66669H60C59 8.66669 58 7.66669 58 6.66669C58 5.66669 59 4.66669 60 4.66669H73.3333C74.3333 4.66669 75.3333 5.66669 75.3333 6.66669V20C75.3333 21 74.3333 22 73.3333 22Z" fill="black"/>
<path d="M6.66675 22C5.66675 22 4.66675 21 4.66675 20V6.66669C4.66675 5.66669 5.66675 4.66669 6.66675 4.66669H20.0001C21.0001 4.66669 22.0001 5.66669 22.0001 6.66669C22.0001 7.66669 21.0001 8.66669 20.0001 8.66669H8.66675V20C8.66675 21 7.66675 22 6.66675 22Z" fill="black"/>
<path d="M73.3333 75.3333H60C59 75.3333 58 74.3333 58 73.3333C58 72.3333 59 71.3333 60 71.3333H71.3333V60C71.3333 59 72.3333 58 73.3333 58C74.3333 58 75.3333 59 75.3333 60V73.3333C75.3333 74.3333 74.3333 75.3333 73.3333 75.3333Z" fill="black"/>
</svg>
