<svg width="63" height="68" viewBox="0 0 63 68" fill="none" xmlns="http://www.w3.org/2000/svg">
<path d="M14.7336 36.5128C13.9361 36.5128 13.0394 36.2298 12.3354 35.7559C11.4226 35.1415 10.1848 35.3834 9.57025 36.296C8.95586 37.2087 9.19758 38.4467 10.1103 39.0612C10.9551 39.6299 11.9275 40.0472 12.9235 40.2812V40.5005C12.9235 41.6007 13.8155 42.4927 14.9157 42.4927C16.0159 42.4927 16.9079 41.6007 16.9079 40.5005V40.124C18.5836 39.5209 19.881 38.2269 20.378 36.5367C21.2264 33.6516 19.7381 30.8469 16.7589 29.7161C16.3328 29.5543 15.9492 29.4215 15.6108 29.3044C14.5878 28.95 14.1575 28.7909 13.7771 28.4071C13.5137 28.1412 13.3957 27.8239 13.4533 27.5367C13.5112 27.2489 13.7371 27.0158 14.1069 26.8624C14.7 26.6161 15.9418 26.9896 16.7992 27.4931C17.7482 28.0501 18.9687 27.7328 19.5259 26.784C20.083 25.8352 19.7656 24.6145 18.8168 24.0574C18.4788 23.8588 17.7864 23.488 16.9076 23.2002V22.9413C16.9076 21.8411 16.0156 20.9492 14.9154 20.9492C13.8152 20.9492 12.9232 21.8411 12.9232 22.9413V23.0568C12.8084 23.0945 12.6937 23.1351 12.5797 23.1824C10.9743 23.8485 9.86895 25.1495 9.54688 26.7519C9.22813 28.3383 9.75141 30.0056 10.9467 31.2118C11.9935 32.2682 13.117 32.6574 14.3065 33.0695C14.6343 33.1831 14.9732 33.3005 15.3447 33.4415C16.3681 33.83 16.8093 34.5485 16.5551 35.413C16.3559 36.0911 15.6578 36.5128 14.7336 36.5128Z" fill="#126DFB"/>
<path d="M26.8362 26.2657H38.8112C39.9114 26.2657 40.8034 25.3738 40.8034 24.2736C40.8034 23.1733 39.9114 22.2814 38.8112 22.2814H26.8362C25.736 22.2814 24.844 23.1733 24.844 24.2736C24.844 25.3738 25.736 26.2657 26.8362 26.2657Z" fill="#126DFB"/>
<path d="M26.8362 34.3792H38.8112C39.9114 34.3792 40.8034 33.4872 40.8034 32.387C40.8034 31.2868 39.9114 30.3948 38.8112 30.3948H26.8362C25.736 30.3948 24.844 31.2868 24.844 32.387C24.844 33.4872 25.736 34.3792 26.8362 34.3792Z" fill="#126DFB"/>
<path d="M62.4814 53.3574C62.4814 45.9592 56.9659 39.826 49.8311 38.851V10.2843C49.8311 9.18412 48.9391 8.29215 47.8389 8.29215H37.8582V6.18495C37.8582 5.08473 36.9662 4.19276 35.866 4.19276H31.9665C30.5854 1.63598 27.9088 0 24.9155 0C21.9223 0 19.2457 1.63598 17.8647 4.19276H13.9652C12.865 4.19276 11.973 5.08473 11.973 6.18495V8.29215H1.99219C0.891969 8.29215 0 9.18412 0 10.2843V66.0078C0 67.108 0.891969 68 1.99219 68H47.8388C55.9127 67.9999 62.4814 61.4314 62.4814 53.3574ZM15.9574 8.17713H19.1736C20.0403 8.17713 20.8079 7.61666 21.0714 6.79084C21.6073 5.11222 23.1521 3.98438 24.9155 3.98438C26.6788 3.98438 28.2239 5.11222 28.7598 6.79084C29.0233 7.61666 29.7908 8.17713 30.6575 8.17713H33.8737V12.4838H15.9574V8.17713ZM3.98438 64.0156V12.2765H11.9729V14.4762C11.9729 15.5764 12.8649 16.4684 13.9651 16.4684H35.8657C36.966 16.4684 37.8579 15.5764 37.8579 14.4762V12.2765H45.8465V38.851C44.0401 39.0977 42.3377 39.6748 40.8021 40.5199C40.8021 40.5134 40.8031 40.507 40.8031 40.5004C40.8031 39.4002 39.9111 38.5082 38.8109 38.5082H26.8358C25.7356 38.5082 24.8436 39.4002 24.8436 40.5004C24.8436 41.6006 25.7356 42.4926 26.8358 42.4926H38.033C36.7379 43.6625 35.6526 45.0601 34.8402 46.6216H11.02C9.91977 46.6216 9.0278 47.5135 9.0278 48.6138C9.0278 49.714 9.91977 50.6059 11.02 50.6059H33.4567C33.2865 51.4975 33.1962 52.4171 33.1962 53.3574C33.1962 53.822 33.2189 54.2813 33.2614 54.735H11.02C9.91977 54.735 9.0278 55.6269 9.0278 56.7271C9.0278 57.8274 9.91977 58.7193 11.02 58.7193H34.2129C35.0123 60.7437 36.2508 62.5479 37.8097 64.0156H3.98438ZM47.8388 64.0156C41.962 64.0156 37.1807 59.2344 37.1807 53.3574C37.1807 47.4805 41.962 42.6992 47.8388 42.6992C53.7158 42.6992 58.497 47.4805 58.497 53.3574C58.497 59.2344 53.7158 64.0156 47.8388 64.0156Z" fill="black"/>
<path d="M50.6062 49.1494L46.4162 53.3393L45.0715 51.9946C44.2938 51.2166 43.0323 51.2166 42.2542 51.9946C41.4762 52.7726 41.4762 54.034 42.2542 54.812L45.0075 57.5654C45.381 57.939 45.8878 58.149 46.4161 58.149C46.9444 58.149 47.4513 57.9392 47.8247 57.5654L53.4233 51.9667C54.2013 51.1887 54.2013 49.9274 53.4233 49.1494C52.6456 48.3714 51.3841 48.3715 50.6062 49.1494Z" fill="black"/>
</svg>
