<svg width="75" height="66" viewBox="0 0 75 66" fill="none" xmlns="http://www.w3.org/2000/svg">
<path d="M72.6954 0H2.19403C0.982339 0 0 0.982339 0 2.19403C0 3.40572 0.982339 4.38805 2.19403 4.38805H3.29689V46.9436C3.29689 48.1552 4.27923 49.1376 5.49092 49.1376H35.2507V53.2132C32.697 54.1189 30.8626 56.5576 30.8626 59.4179C30.8626 63.0473 33.8154 66 37.4447 66C41.0741 66 44.0268 63.0473 44.0268 59.4179C44.0268 56.5576 42.1925 54.1189 39.6388 53.2132V49.1376H69.3985C70.6102 49.1376 71.5926 48.1552 71.5926 46.9436V4.38805H72.6954C73.9071 4.38805 74.8895 3.40572 74.8895 2.19403C74.8895 0.982339 73.9071 0 72.6954 0ZM37.4447 61.6119C36.2349 61.6119 35.2507 60.6277 35.2507 59.4179C35.2507 58.2081 36.2349 57.2239 37.4447 57.2239C38.6545 57.2239 39.6388 58.2081 39.6388 59.4179C39.6388 60.6277 38.6545 61.6119 37.4447 61.6119ZM67.2045 44.7495H7.68495V4.38805H67.2045V44.7495Z" fill="black"/>
<path d="M20.8273 30.645C19.8103 30.645 18.6682 30.2851 17.7726 29.6821C16.7674 29.0054 15.4041 29.2719 14.7274 30.2771C14.0508 31.2824 14.3172 32.6458 15.3223 33.3223C16.3801 34.0343 17.6061 34.5458 18.8551 34.8152V35.2714C18.8551 36.4831 19.8375 37.4655 21.0492 37.4655C22.2608 37.4655 23.2432 36.4831 23.2432 35.2714V34.6448C25.2917 33.9594 26.8837 32.4113 27.4829 30.3731C28.4809 26.9787 26.725 23.6772 23.2128 22.3441C22.6967 22.1482 22.231 21.9869 21.8201 21.8444C20.5363 21.3996 19.9953 21.1991 19.4949 20.694C19.1178 20.3134 18.9508 19.8498 19.0368 19.4216C19.1222 18.9969 19.4548 18.6445 19.9734 18.4294C20.7942 18.0888 22.3847 18.5787 23.4645 19.2126C24.5093 19.8264 25.8536 19.4766 26.4674 18.4316C27.0808 17.3866 26.7313 16.0423 25.6862 15.4287C25.2618 15.1794 24.369 14.7016 23.2432 14.3517V13.8658C23.2432 12.6541 22.2608 11.6718 21.0492 11.6718C19.8375 11.6718 18.8551 12.6541 18.8551 13.8658V14.177C18.6664 14.2328 18.4783 14.2987 18.2916 14.3761C16.4079 15.1578 15.1115 16.6816 14.7346 18.557C14.3615 20.4142 14.9758 22.3678 16.3778 23.7826C17.6157 25.0318 18.8983 25.4761 20.3838 25.9907C20.7849 26.1297 21.1997 26.2733 21.6556 26.4465C23.0119 26.9613 23.6166 27.9665 23.2732 29.1352C22.9995 30.0665 22.0624 30.645 20.8273 30.645Z" fill="#126DFB"/>
<path d="M49.7818 30.4865C50.2103 30.9149 50.7718 31.1292 51.3332 31.1292C51.8946 31.1292 52.4562 30.9151 52.8845 30.4865L61.6166 21.7544C62.4734 20.8977 62.4734 19.5085 61.6166 18.6516C60.76 17.7949 59.3708 17.7948 58.5138 18.6516L51.333 25.8322L48.5899 23.0891C47.7332 22.2324 46.344 22.2323 45.4871 23.0891C44.6303 23.9459 44.6303 25.3351 45.4871 26.1919L49.7818 30.4865Z" fill="#126DFB"/>
<path d="M32.7109 39.1831C32.9356 39.256 33.1633 39.2905 33.3874 39.2905C34.313 39.2905 35.1736 38.7 35.4742 37.7721L43.59 12.7177C43.9636 11.565 43.3317 10.3279 42.179 9.9543C41.0261 9.58102 39.789 10.2128 39.4157 11.3653L31.2998 36.4197C30.9263 37.5724 31.558 38.8097 32.7109 39.1831Z" fill="black"/>
</svg>
