<svg width="70" height="70" viewBox="0 0 70 70" fill="none" xmlns="http://www.w3.org/2000/svg">
<path d="M35.1367 31.1035H38.5547C39.6873 31.1035 40.6055 30.1853 40.6055 29.0527C40.6055 27.9202 39.6873 27.002 38.5547 27.002H35.1367C34.0041 27.002 33.0859 27.9202 33.0859 29.0527C33.0859 30.1853 34.0041 31.1035 35.1367 31.1035Z" fill="#126DFB"/>
<path d="M26.3867 27.002H22.9688C21.8362 27.002 20.918 27.9202 20.918 29.0527C20.918 30.1853 21.8362 31.1035 22.9688 31.1035H26.3867C27.5193 31.1035 28.4375 30.1853 28.4375 29.0527C28.4375 27.9202 27.5193 27.002 26.3867 27.002Z" fill="#126DFB"/>
<path d="M47.3047 31.1035H50.7227C51.8552 31.1035 52.7734 30.1853 52.7734 29.0527C52.7734 27.9202 51.8552 27.002 50.7227 27.002H47.3047C46.1721 27.002 45.2539 27.9202 45.2539 29.0527C45.2539 30.1853 46.1721 31.1035 47.3047 31.1035Z" fill="#126DFB"/>
<path d="M14.2188 36.2305H10.8008C9.6682 36.2305 8.75 37.1487 8.75 38.2813C8.75 39.4139 9.6682 40.3321 10.8008 40.3321H14.2188C15.3513 40.3321 16.2695 39.4139 16.2695 38.2813C16.2695 37.1487 15.3513 36.2305 14.2188 36.2305Z" fill="#126DFB"/>
<path d="M26.3867 36.2305H22.9688C21.8362 36.2305 20.918 37.1487 20.918 38.2813C20.918 39.4139 21.8362 40.3321 22.9688 40.3321H26.3867C27.5193 40.3321 28.4375 39.4139 28.4375 38.2813C28.4375 37.1487 27.5193 36.2305 26.3867 36.2305Z" fill="#126DFB"/>
<path d="M40.6055 38.2813C40.6055 37.1487 39.6873 36.2305 38.5547 36.2305H35.1367C34.0041 36.2305 33.0859 37.1487 33.0859 38.2813C33.0859 39.4139 34.0041 40.3321 35.1367 40.3321H38.5547C39.6873 40.3321 40.6055 39.4139 40.6055 38.2813Z" fill="#126DFB"/>
<path d="M14.2188 45.459H10.8008C9.6682 45.459 8.75 46.3772 8.75 47.5098C8.75 48.6424 9.6682 49.5606 10.8008 49.5606H14.2188C15.3513 49.5606 16.2695 48.6424 16.2695 47.5098C16.2695 46.3772 15.3513 45.459 14.2188 45.459Z" fill="#126DFB"/>
<path d="M26.3867 45.459H22.9688C21.8362 45.459 20.918 46.3772 20.918 47.5098C20.918 48.6424 21.8362 49.5606 22.9688 49.5606H26.3867C27.5193 49.5606 28.4375 48.6424 28.4375 47.5098C28.4375 46.3772 27.5193 45.459 26.3867 45.459Z" fill="#126DFB"/>
<path d="M61.5234 38.1549V11.6211C61.5234 7.47482 58.1502 4.10156 54.0039 4.10156H50.0391V2.05078C50.0391 0.918203 49.1209 0 47.9883 0C46.8557 0 45.9375 0.918203 45.9375 2.05078V4.10156H38.5547V2.05078C38.5547 0.918203 37.6365 0 36.5039 0C35.3713 0 34.4531 0.918203 34.4531 2.05078V4.10156H27.0703V2.05078C27.0703 0.918203 26.1521 0 25.0195 0C23.887 0 22.9688 0.918203 22.9688 2.05078V4.10156H15.5859V2.05078C15.5859 0.918203 14.6677 0 13.5352 0C12.4026 0 11.4844 0.918203 11.4844 2.05078V4.10156H7.51953C3.37326 4.10156 0 7.47482 0 11.6211V52.6367C0 56.0291 2.75994 58.7891 6.15234 58.7891H36.8624C39.2643 65.3249 45.5515 70 52.9102 70C62.3335 70 70 62.3335 70 52.9102C70 46.6259 66.5898 41.1238 61.5234 38.1549ZM4.10156 11.6211C4.10156 9.73643 5.63486 8.20312 7.51953 8.20312H11.4844V10.2539C11.4844 11.3865 12.4026 12.3047 13.5352 12.3047C14.6677 12.3047 15.5859 11.3865 15.5859 10.2539V8.20312H22.9688V10.2539C22.9688 11.3865 23.887 12.3047 25.0195 12.3047C26.1521 12.3047 27.0703 11.3865 27.0703 10.2539V8.20312H34.4531V10.2539C34.4531 11.3865 35.3713 12.3047 36.5039 12.3047C37.6365 12.3047 38.5547 11.3865 38.5547 10.2539V8.20312H45.9375V10.2539C45.9375 11.3865 46.8557 12.3047 47.9883 12.3047C49.1209 12.3047 50.0391 11.3865 50.0391 10.2539V8.20312H54.0039C55.8886 8.20312 57.4219 9.73643 57.4219 11.6211V17.7734H4.10156V11.6211ZM6.15234 54.6875C5.02154 54.6875 4.10156 53.7675 4.10156 52.6367V21.875H57.4219V36.426C55.984 36.032 54.4713 35.8203 52.9102 35.8203C43.4868 35.8203 35.8203 43.4868 35.8203 52.9102C35.8203 53.5102 35.8518 54.1032 35.9125 54.6875H6.15234ZM52.9102 65.8984C45.7484 65.8984 39.9219 60.0719 39.9219 52.9102C39.9219 45.7484 45.7484 39.9219 52.9102 39.9219C60.0719 39.9219 65.8984 45.7484 65.8984 52.9102C65.8984 60.0719 60.0719 65.8984 52.9102 65.8984Z" fill="black"/>
<path d="M59.7461 50.8594H54.9609V46.0743C54.9609 44.9417 54.0427 44.0235 52.9102 44.0235C51.7776 44.0235 50.8594 44.9417 50.8594 46.0743V52.9102C50.8594 54.0428 51.7776 54.961 52.9102 54.961H59.7461C60.8787 54.961 61.7969 54.0428 61.7969 52.9102C61.7969 51.7776 60.8787 50.8594 59.7461 50.8594Z" fill="black"/>
</svg>
