<svg width="68" height="68" viewBox="0 0 68 68" fill="none" xmlns="http://www.w3.org/2000/svg">
<path d="M1.99217 68H22.3225C23.4227 68 24.3147 67.108 24.3147 66.0078V63.7882C24.3147 59.1827 21.7404 55.1671 17.9553 53.1047C19.2996 51.6775 20.1261 49.7573 20.1261 47.6465C20.1261 43.2525 16.5514 39.6777 12.1574 39.6777C7.76349 39.6777 4.18874 43.2525 4.18874 47.6465C4.18874 49.7573 5.01522 51.6775 6.35954 53.1047C2.57428 55.1671 0 59.1827 0 63.7882V66.0078C0 67.108 0.891961 68 1.99217 68ZM8.17308 47.6465C8.17308 45.4495 9.96045 43.6621 12.1574 43.6621C14.3544 43.6621 16.1418 45.4495 16.1418 47.6465C16.1418 49.8435 14.3544 51.6309 12.1574 51.6309C9.96045 51.6309 8.17308 49.8435 8.17308 47.6465ZM12.1574 55.6152C16.4256 55.6152 20.3304 58.9612 20.3304 64.0156H3.98434C3.98434 58.9875 7.86642 55.6152 12.1574 55.6152Z" fill="black"/>
<path d="M61.6407 53.1047C62.985 51.6775 63.8115 49.7573 63.8115 47.6465C63.8115 43.2525 60.2368 39.6777 55.8428 39.6777C51.4489 39.6777 47.8742 43.2525 47.8742 47.6465C47.8742 49.7573 48.7006 51.6775 50.045 53.1047C46.2598 55.1671 43.6855 59.1826 43.6855 63.7882V66.0078C43.6855 67.108 44.5775 68 45.6777 68H66.0079C67.1082 68 68.0001 67.108 68.0001 66.0078V63.7882C68.0001 59.1827 65.4258 55.1671 61.6407 53.1047ZM51.8584 47.6465C51.8584 45.4495 53.6457 43.6621 55.8427 43.6621C58.0397 43.6621 59.827 45.4495 59.827 47.6465C59.827 49.8435 58.0397 51.6309 55.8427 51.6309C53.6457 51.6309 51.8584 49.8435 51.8584 47.6465ZM64.0158 64.0156H47.6698C47.6698 58.9875 51.5518 55.6152 55.8427 55.6152C60.1107 55.6152 64.0158 58.9608 64.0158 64.0156Z" fill="black"/>
<path d="M46.158 26.3301V24.1105C46.158 19.505 43.5837 15.4894 39.7986 13.4269C41.1427 11.9997 41.9692 10.0795 41.9692 7.96875C41.9692 3.57478 38.3945 0 34.0005 0C29.6066 0 26.0319 3.57478 26.0319 7.96875C26.0319 10.0795 26.8584 11.9997 28.2027 13.4269C24.4175 15.4894 21.8433 19.505 21.8433 24.1105V26.3301C21.8433 27.4303 22.7352 28.3223 23.8354 28.3223H44.1658C45.266 28.3223 46.158 27.4303 46.158 26.3301ZM30.0162 7.96875C30.0162 5.77176 31.8036 3.98437 34.0005 3.98437C36.1975 3.98437 37.9849 5.77176 37.9849 7.96875C37.9849 10.1657 36.1975 11.9531 34.0005 11.9531C31.8036 11.9531 30.0162 10.1657 30.0162 7.96875ZM42.1736 24.3379H25.8275C25.8275 19.3097 29.7095 15.9375 34.0005 15.9375C38.2684 15.9375 42.1736 19.283 42.1736 24.3379Z" fill="black"/>
<path d="M42.0484 50.3424C39.4457 51.1974 36.7012 51.6308 33.8914 51.6308C31.1801 51.6308 28.5251 51.2258 26.0002 50.4272C24.9508 50.0959 23.8316 50.6769 23.5 51.7259C23.1682 52.7748 23.7497 53.8943 24.7986 54.2261C27.7125 55.1477 30.7718 55.615 33.8913 55.615C37.1243 55.615 40.2871 55.1146 43.2918 54.1277C44.3372 53.7843 44.9061 52.6585 44.5628 51.6133C44.2195 50.568 43.0938 49.9988 42.0484 50.3424Z" fill="#126DFB"/>
<path d="M15.6366 16.5101C13.4364 18.631 11.566 21.0965 10.0773 23.8385C8.53461 26.68 7.46522 29.6983 6.89891 32.8097C6.67698 34.029 7.61264 35.1589 8.8612 35.1589C9.80522 35.1589 10.6438 34.4848 10.8188 33.5231C11.3094 30.828 12.2381 28.2092 13.5788 25.7397C14.8728 23.3566 16.4953 21.2165 18.4017 19.3789C19.1938 18.6153 19.217 17.3542 18.4535 16.5619C17.6898 15.7698 16.4288 15.7466 15.6366 16.5101Z" fill="#126DFB"/>
<path d="M52.3626 16.5101C51.5703 15.7465 50.3092 15.7698 49.5456 16.5619C48.7821 17.3541 48.8052 18.6153 49.5974 19.3789C51.5038 21.2165 53.1265 23.3565 54.4203 25.7397C55.7612 28.2093 56.6897 30.8281 57.1803 33.5231C57.3771 34.6044 58.4131 35.3234 59.4969 35.1263C60.5793 34.9294 61.2972 33.892 61.1002 32.8097C60.5339 29.6983 59.4645 26.68 57.9218 23.8385C56.4331 21.0965 54.5627 18.6309 52.3626 16.5101Z" fill="#126DFB"/>
</svg>
