<svg width="64" height="64" viewBox="0 0 64 64" fill="none" xmlns="http://www.w3.org/2000/svg">
<g clip-path="url(#clip0_733_1675)">
<path d="M25.1577 26.7319H10.6852C9.64974 26.7319 8.81024 27.5714 8.81024 28.6069C8.81024 29.6424 9.64974 30.4819 10.6852 30.4819H25.1576C26.1931 30.4819 27.0326 29.6424 27.0326 28.6069C27.0326 27.5714 26.1932 26.7319 25.1577 26.7319Z" fill="black"/>
<path d="M25.1577 19.2314H10.6852C9.64974 19.2314 8.81024 20.0709 8.81024 21.1064C8.81024 22.1419 9.64974 22.9814 10.6852 22.9814H25.1576C26.1931 22.9814 27.0326 22.1419 27.0326 21.1064C27.0326 20.0709 26.1932 19.2314 25.1577 19.2314Z" fill="black"/>
<path d="M10.6852 15.4809H38.6476C39.6831 15.4809 40.5226 14.6414 40.5226 13.6059C40.5226 12.5704 39.6831 11.7309 38.6476 11.7309H10.6852C9.64974 11.7309 8.81024 12.5704 8.81024 13.6059C8.81024 14.6414 9.64974 15.4809 10.6852 15.4809Z" fill="black"/>
<path d="M25.1577 34.1814H10.6852C9.64974 34.1814 8.81024 35.0209 8.81024 36.0564C8.81024 37.0919 9.64974 37.9314 10.6852 37.9314H25.1576C26.1931 37.9314 27.0326 37.0919 27.0326 36.0564C27.0326 35.0209 26.1932 34.1814 25.1577 34.1814Z" fill="black"/>
<path d="M25.1577 40.4318H10.6852C9.64974 40.4318 8.81024 41.2713 8.81024 42.3068C8.81024 43.3423 9.64974 44.1818 10.6852 44.1818H25.1576C26.1931 44.1818 27.0326 43.3423 27.0326 42.3068C27.0326 41.2713 26.1932 40.4318 25.1577 40.4318Z" fill="black"/>
<path d="M25.1577 47.9323H10.6852C9.64974 47.9323 8.81024 48.7718 8.81024 49.8073C8.81024 50.8428 9.64974 51.6823 10.6852 51.6823H25.1576C26.1931 51.6823 27.0326 50.8428 27.0326 49.8073C27.0326 48.7718 26.1932 47.9323 25.1577 47.9323Z" fill="black"/>
<path d="M63.9334 32.9665C63.9256 31.9357 63.0876 31.1057 62.0586 31.1057C62.0397 31.1059 62.0196 31.106 62.0001 31.106C59.7059 31.106 57.5991 29.7907 56.6242 27.7456C56.3131 27.0926 55.6542 26.6774 54.9319 26.6774C54.9272 26.6774 54.9225 26.6774 54.918 26.6774L49.4512 26.7177V3.12524C49.4512 1.40212 48.0494 0.000244141 46.3262 0.000244141H3.125C1.40188 0.000244141 0 1.40212 0 3.12524V60.875C0 62.5981 1.40188 64 3.125 64L47.6841 64.0001C47.7236 64.0001 47.8555 63.991 47.8725 63.9887C48.1365 63.9611 48.3959 63.8782 48.632 63.7385L52.8896 61.2182C56.2955 59.2021 59.1239 56.3292 61.069 52.9104C63.0159 49.4881 64.0294 45.6044 63.9995 41.679L63.9334 32.9665ZM3.75 3.75024H45.7011V26.7455L39.8996 26.7884C39.1714 26.7937 38.5121 27.2202 38.2089 27.8821C37.2592 29.9544 35.1523 31.3044 32.8411 31.3215C32.3438 31.3251 31.8683 31.5262 31.5193 31.8806C31.1702 32.2349 30.9761 32.7134 30.98 33.2107L31.0461 41.9231C31.0759 45.8484 32.148 49.7167 34.1466 53.1097C35.8136 55.9396 38.092 58.3777 40.7979 60.2502L3.75 60.25V3.75024ZM50.9794 57.9911L47.6608 59.9555L44.3126 58.0402C38.4928 54.711 34.8463 48.5244 34.796 41.8945L34.7426 34.8746C37.3374 34.344 39.627 32.7715 41.0321 30.53L53.841 30.4354C55.2801 32.6565 57.5931 34.1949 60.1963 34.6869L60.2494 41.7072C60.2998 48.3369 56.7476 54.5765 50.9794 57.9911Z" fill="black"/>
<path d="M51.6501 39.8493L46.334 45.5018L44.4701 43.2123C43.8164 42.4091 42.6352 42.2881 41.8322 42.942C41.0291 43.5958 40.9081 44.7768 41.5619 45.5799L44.7781 49.5305C45.1194 49.9498 45.625 50.2013 46.1652 50.2205C46.1877 50.2214 46.21 50.2218 46.2324 50.2218C46.7485 50.2218 47.2431 50.0088 47.5981 49.6313L54.3819 42.4183C55.0914 41.6639 55.055 40.4773 54.3006 39.7679C53.546 39.0585 52.3596 39.0949 51.6501 39.8493Z" fill="#126DFB"/>
</g>
<defs>
<clipPath id="clip0_733_1675">
<rect width="64" height="64" fill="white"/>
</clipPath>
</defs>
</svg>
