<svg width="80" height="65" viewBox="0 0 80 65" fill="none" xmlns="http://www.w3.org/2000/svg">
<path d="M30.4944 26.8744H11.8373C10.543 26.8744 9.49359 27.9238 9.49359 29.2181C9.49359 30.5125 10.543 31.5619 11.8373 31.5619H30.4944C31.7887 31.5619 32.8381 30.5125 32.8381 29.2181C32.8381 27.9238 31.7887 26.8744 30.4944 26.8744Z" fill="black"/>
<path d="M76.5669 0H44.6875C42.888 0 41.245 0.680312 40 1.79609C38.755 0.680312 37.112 0 35.3125 0H3.43313C1.50797 0 0 1.71578 0 3.90625V60.4794C0 62.6333 1.75234 64.3856 3.90625 64.3856H76.0938C78.2477 64.3856 80 62.6333 80 60.4794V3.90625C80 1.71578 78.492 0 76.5669 0ZM44.6875 4.6875H75.3125V50.3108H42.3438V7.03125C42.3438 5.73875 43.3952 4.6875 44.6875 4.6875ZM4.6875 4.6875H35.3125C36.6048 4.6875 37.6562 5.73891 37.6562 7.03125V50.3108H4.6875V4.6875ZM75.3125 59.6981H4.6875V54.9983H75.3125V59.6981Z" fill="black"/>
<path d="M49.5056 34.5308H68.1626C69.457 34.5308 70.5064 33.4814 70.5064 32.187C70.5064 30.8926 69.457 29.8433 68.1626 29.8433H49.5056C48.2112 29.8433 47.1619 30.8926 47.1619 32.187C47.1619 33.4814 48.2112 34.5308 49.5056 34.5308Z" fill="black"/>
<path d="M30.4944 39.2189H11.8373C10.543 39.2189 9.49359 40.2683 9.49359 41.5627C9.49359 42.8571 10.543 43.9064 11.8373 43.9064H30.4944C31.7887 43.9064 32.8381 42.8571 32.8381 41.5627C32.8381 40.2683 31.7887 39.2189 30.4944 39.2189Z" fill="black"/>
<path d="M49.5056 43.9064H68.1626C69.457 43.9064 70.5064 42.8571 70.5064 41.5627C70.5064 40.2683 69.457 39.2189 68.1626 39.2189H49.5056C48.2112 39.2189 47.1619 40.2683 47.1619 41.5627C47.1619 42.8571 48.2112 43.9064 49.5056 43.9064Z" fill="black"/>
<path d="M17.3265 23.4054C17.7842 23.8631 18.384 24.092 18.9837 24.092C19.5834 24.092 20.1834 23.8631 20.6409 23.4054L27.6722 16.3742C28.5875 15.459 28.5875 13.975 27.6722 13.0597C26.757 12.1445 25.2729 12.1445 24.3576 13.0597L18.9836 18.4337L16.8125 16.2623C15.8973 15.3472 14.4133 15.3472 13.4979 16.2623C12.5826 17.1775 12.5826 18.6615 13.4979 19.5768L17.3265 23.4054Z" fill="#126DFB"/>
<path d="M53.6553 24.393C54.113 24.8506 54.7128 25.0795 55.3125 25.0795C55.9122 25.0795 56.5122 24.8506 56.9697 24.393L58.8281 22.5345L60.6866 24.393C61.1442 24.8506 61.7441 25.0795 62.3438 25.0795C62.9435 25.0795 63.5435 24.8506 64.001 24.393C64.9163 23.4778 64.9163 21.9937 64.001 21.0784L62.1425 19.22L64.001 17.3616C64.9163 16.4464 64.9163 14.9623 64.001 14.047C63.0858 13.1319 61.6017 13.1319 60.6864 14.047L58.8281 15.9056L56.9697 14.0472C56.0545 13.132 54.5705 13.132 53.6552 14.0472C52.7399 14.9623 52.7399 16.4464 53.6552 17.3617L55.5136 19.2201L53.6552 21.0786C52.7399 21.9937 52.7399 23.4778 53.6553 24.393Z" fill="#126DFB"/>
</svg>
