<svg width="65" height="65" viewBox="0 0 65 65" fill="none" xmlns="http://www.w3.org/2000/svg">
<path d="M63.0954 24.7917H55.3843V1.90429C55.3843 0.852615 54.5317 0 53.48 0H23.4659C22.9656 0 22.4728 0.203759 22.1191 0.558085L10.1735 12.5036C9.81914 12.8573 9.61577 13.3501 9.61539 13.8504V25.2119H1.90429C0.852613 25.2119 0 26.0646 0 27.1162V47.0084C0 48.06 0.852613 48.9126 1.90429 48.9126H4.46619C6.06909 48.9126 7.58148 49.6142 8.61627 50.8385L16.8337 60.5479C16.8738 60.608 16.9167 60.6668 16.9645 60.7233L18.9216 63.0362C19.8847 64.1701 21.2319 64.8607 22.7149 64.9809C24.1834 65.1027 25.6409 64.6383 26.7728 63.6736C27.752 62.8418 28.3997 61.7235 28.6359 60.4788C30.04 60.565 31.4406 60.1343 32.5833 59.168C33.5308 58.3625 34.1412 57.3054 34.4001 56.1769C35.9592 56.3333 37.5673 55.8228 38.7661 54.6886C40.1537 54.8674 41.4527 54.9485 42.663 54.9485C50.0913 54.9484 54.2334 51.9563 55.7592 50.5629H63.0954C64.1471 50.5629 64.9997 49.7103 64.9997 48.6586V26.696C64.9997 25.6443 64.1471 24.7917 63.0954 24.7917ZM21.5616 6.50151V11.946H16.1171L21.5616 6.50151ZM13.424 15.7546H23.4659C24.5176 15.7546 25.3702 14.902 25.3702 13.8503V3.80859H51.5757V24.7917H49.2817C46.3232 24.7917 43.3693 24.4181 40.5026 23.6811C39.1643 23.3649 36.9739 22.6423 35.6026 22.7021C33.3225 22.69 31.1302 23.6316 29.4963 25.2118H13.4241L13.424 15.7546ZM33.6021 51.7782C33.5616 51.7306 31.5343 49.3509 31.5343 49.3509C30.8495 48.5526 29.6474 48.4608 28.8491 49.1455C28.0508 49.8303 27.9589 51.0325 28.6437 51.8307L30.3186 53.7831C30.9472 54.5231 30.8564 55.6371 30.117 56.2658C29.3769 56.8946 28.2629 56.8037 27.6336 56.0634C27.5807 56.0012 25.9562 54.1067 25.9562 54.1067C25.2765 53.3042 24.075 53.2045 23.2723 53.8842C22.4697 54.5638 22.3702 55.7654 23.0499 56.568L24.5079 58.2896C25.1358 58.9979 25.0408 60.1729 24.307 60.7707C23.6322 61.3695 22.5285 61.3097 21.9116 60.6661L19.8819 58.254L11.5242 48.3788C9.76506 46.2975 7.1925 45.1038 4.46619 45.1038H3.80858V29.0204H25.1913L22.3266 31.5548C20.5169 33.0367 20.3539 35.9749 21.9877 37.649C23.51 39.2732 25.6609 40.2048 27.8889 40.2048C29.8165 40.2048 31.6851 39.5139 33.1471 38.2622L35.0696 36.624L42.37 45.3412C42.9986 46.0813 42.9078 47.1954 42.1684 47.824C41.4284 48.4526 40.3144 48.3621 39.685 47.6217C39.6271 47.5536 37.1261 44.6096 37.1261 44.6096C36.4444 43.8088 35.2425 43.7124 34.4417 44.394C33.6409 45.0757 33.5443 46.2776 34.226 47.0784L36.2857 49.4978C36.9174 50.2071 36.8112 51.3867 36.0854 51.9792C35.3445 52.608 34.2303 52.518 33.6021 51.7782ZM61.1911 46.7543H54.9705C54.3931 46.7543 53.8712 46.9865 53.5102 47.4361C53.4183 47.5385 52.3034 48.747 50.002 49.7452C48.2797 50.4922 46.3113 50.9374 44.1683 51.0809C46.8494 49.2784 47.388 45.4641 45.3626 42.9824L39.3779 35.8365H41.8943C42.946 35.8365 43.7986 34.9839 43.7986 33.9322C43.7986 32.8805 42.946 32.0279 41.8943 32.0279H35.2928C34.8435 32.0313 34.402 32.1891 34.0578 32.4827L30.6736 35.3661C29.8977 36.0304 28.9087 36.3962 27.8889 36.3962C26.6923 36.3962 25.5833 35.9162 24.7667 35.0448C24.5873 34.8163 24.6191 34.6076 24.8356 34.4202L32.5042 27.6357C33.3727 26.9099 34.4721 26.5107 35.6024 26.5107C36.4491 26.4599 38.7104 27.1871 39.5538 27.3698C42.7306 28.1865 46.0034 28.6003 49.2816 28.6003H61.1911V46.7543Z" fill="black"/>
<path d="M31.083 11.4255H45.8628C46.9145 11.4255 47.7671 10.5729 47.7671 9.52124C47.7671 8.46956 46.9145 7.61694 45.8628 7.61694H31.083C30.0313 7.61694 29.1787 8.46956 29.1787 9.52124C29.1787 10.5729 30.0313 11.4255 31.083 11.4255Z" fill="#126DFB"/>
<path d="M31.083 19.0427H45.8628C46.9145 19.0427 47.7671 18.19 47.7671 17.1384C47.7671 16.0867 46.9145 15.2341 45.8628 15.2341H31.083C30.0313 15.2341 29.1787 16.0867 29.1787 17.1384C29.1787 18.19 30.0313 19.0427 31.083 19.0427Z" fill="#126DFB"/>
</svg>
