<svg width="25" height="25" viewBox="0 0 25 25" fill="none" xmlns="http://www.w3.org/2000/svg">
<mask id="mask0_993_892" style="mask-type:luminance" maskUnits="userSpaceOnUse" x="0" y="0" width="25" height="25">
<path d="M25 0H0V25H25V0Z" fill="white"/>
</mask>
<g mask="url(#mask0_993_892)">
<path d="M13.3361 12.073L18.9621 20.1201H16.6531L12.0623 13.5537L11.3883 12.5893L6.02539 4.91821H8.33431L12.6621 11.1091L13.3361 12.073Z" fill="black"/>
<path d="M22.2987 0H2.7013C1.20945 0 0 1.20945 0 2.7013V22.2987C0 23.7905 1.20945 25 2.7013 25H22.2987C23.7905 25 25 23.7905 25 22.2987V2.7013C25 1.20945 23.7905 0 22.2987 0ZM15.9458 21.2005L11.3001 14.4393L5.48371 21.2005H3.98044L10.6326 13.4682L3.98044 3.78667H9.05421L13.4533 10.1891L18.9611 3.78667H20.4643L14.121 11.1603L21.0195 21.2005H15.9458Z" fill="black"/>
</g>
</svg>
