<svg width="25" height="25" viewBox="0 0 25 25" fill="none" xmlns="http://www.w3.org/2000/svg">
<mask id="mask0_993_872" style="mask-type:luminance" maskUnits="userSpaceOnUse" x="0" y="0" width="25" height="25">
<path d="M25 0H0V25H25V0Z" fill="white"/>
</mask>
<g mask="url(#mask0_993_872)">
<path d="M21.875 0H3.125C1.40156 0 0 1.40156 0 3.125V21.875C0 23.5984 1.40156 25 3.125 25H21.875C23.5984 25 25 23.5984 25 21.875V3.125C25 1.40156 23.5984 0 21.875 0Z" fill="#0060BF"/>
<path d="M21.0938 12.5H17.1875V9.375C17.1875 8.5125 17.8875 8.59375 18.75 8.59375H20.3125V4.6875H17.1875C14.5985 4.6875 12.5 6.78596 12.5 9.375V12.5H9.375V16.4062H12.5V25H17.1875V16.4062H19.5312L21.0938 12.5Z" fill="#FAFAFA"/>
</g>
</svg>
