<svg width="25" height="25" viewBox="0 0 25 25" fill="none" xmlns="http://www.w3.org/2000/svg">
<mask id="mask0_993_882" style="mask-type:luminance" maskUnits="userSpaceOnUse" x="0" y="0" width="25" height="25">
<path d="M24.8588 0.0976562H0.244141V24.7123H24.8588V0.0976562Z" fill="white"/>
</mask>
<g mask="url(#mask0_993_882)">
<path d="M1.78357 1.7713C-0.150729 3.78048 0.245157 5.91477 0.245157 12.3987C0.245157 17.7832 -0.694301 23.1809 4.22247 24.4516C5.75781 24.8465 19.3615 24.8465 20.8947 24.4496C22.9419 23.9214 24.6075 22.2609 24.8352 19.3657C24.867 18.9615 24.867 5.84298 24.8341 5.43068C24.5921 2.34667 22.6937 0.569294 20.1922 0.209305C19.6189 0.126231 19.5041 0.101617 16.5626 0.0964881C6.12908 0.101617 3.84197 -0.362985 1.78357 1.7713Z" fill="url(#paint0_linear_993_882)"/>
<path d="M12.5486 3.31639C8.82459 3.31639 5.28828 2.98511 3.93755 6.45167C3.37962 7.88342 3.46065 9.74286 3.46065 12.4054C3.46065 14.7417 3.38578 16.9375 3.93755 18.3579C5.28521 21.8266 8.85019 21.4943 12.5465 21.4943C16.1126 21.4943 19.7894 21.8655 21.1565 18.3579C21.7154 16.9118 21.6334 15.0801 21.6334 12.4054C21.6334 8.85467 21.8293 6.56244 20.1073 4.84147C18.3638 3.09793 16.0059 3.31639 12.5445 3.31639H12.5486ZM11.7342 4.95428C19.5022 4.94197 20.4909 4.07841 19.9453 16.0749C19.7514 20.3179 16.5208 19.8523 12.5496 19.8523C5.30879 19.8523 5.1006 19.6451 5.1006 12.4012C5.1006 5.07326 5.67493 4.95839 11.7342 4.95223V4.95428ZM17.3997 6.46296C16.7977 6.46296 16.3095 6.95115 16.3095 7.55318C16.3095 8.15522 16.7977 8.64338 17.3997 8.64338C18.0017 8.64338 18.4899 8.15522 18.4899 7.55318C18.4899 6.95115 18.0017 6.46296 17.3997 6.46296ZM12.5486 7.73779C9.97123 7.73779 7.88204 9.82795 7.88204 12.4054C7.88204 14.9827 9.97123 17.0718 12.5486 17.0718C15.126 17.0718 17.2141 14.9827 17.2141 12.4054C17.2141 9.82795 15.126 7.73779 12.5486 7.73779ZM12.5486 9.37571C16.5536 9.37571 16.5587 15.435 12.5486 15.435C8.54459 15.435 8.53844 9.37571 12.5486 9.37571Z" fill="white"/>
</g>
<defs>
<linearGradient id="paint0_linear_993_882" x1="1.83077" y1="23.1389" x2="24.7075" y2="3.33944" gradientUnits="userSpaceOnUse">
<stop stop-color="#FFDD55"/>
<stop offset="0.5" stop-color="#FF543E"/>
<stop offset="1" stop-color="#C837AB"/>
</linearGradient>
</defs>
</svg>
