<svg width="25" height="25" viewBox="0 0 25 25" fill="none" xmlns="http://www.w3.org/2000/svg">
<mask id="mask0_993_902" style="mask-type:luminance" maskUnits="userSpaceOnUse" x="0" y="0" width="25" height="25">
<path d="M25 0H0V25H25V0Z" fill="white"/>
</mask>
<g mask="url(#mask0_993_902)">
<path d="M22.6804 0H2.3196C1.03852 0 0 1.03852 0 2.3196V22.6804C0 23.9615 1.03852 25 2.3196 25H22.6804C23.9615 25 25 23.9615 25 22.6804V2.3196C25 1.03852 23.9615 0 22.6804 0Z" fill="#0B63BD"/>
<path d="M9.00599 6.81817C9.00599 7.23958 8.88103 7.65154 8.64691 8.00192C8.41278 8.35233 8.08003 8.62542 7.6907 8.78667C7.30137 8.94796 6.87295 8.99012 6.45961 8.90792C6.04632 8.82571 5.66666 8.62279 5.3687 8.32479C5.0707 8.02683 4.86778 7.64717 4.78557 7.23387C4.70337 6.82054 4.74553 6.39212 4.90682 6.00279C5.06807 5.61346 5.34116 5.28071 5.69157 5.04658C6.04195 4.81246 6.45391 4.6875 6.87532 4.6875C7.44041 4.6875 7.98236 4.912 8.38191 5.31154C8.78149 5.71112 9.00599 6.25308 9.00599 6.81817Z" fill="white"/>
<path d="M8.52285 10.3692V19.7826C8.52322 19.852 8.50985 19.9209 8.48351 19.9851C8.45722 20.0494 8.41847 20.1078 8.36947 20.157C8.32051 20.2063 8.26231 20.2454 8.19818 20.272C8.13406 20.2987 8.06531 20.3124 7.99585 20.3124H5.7501C5.68064 20.3126 5.61185 20.299 5.54768 20.2726C5.48347 20.2461 5.42514 20.2072 5.37606 20.158C5.32693 20.1089 5.28801 20.0506 5.26156 19.9864C5.23506 19.9222 5.22151 19.8534 5.22168 19.784V10.3692C5.22168 10.2291 5.27735 10.0947 5.37647 9.99557C5.47556 9.89649 5.60997 9.84082 5.7501 9.84082H7.99585C8.13572 9.8412 8.26976 9.89703 8.36856 9.99607C8.46735 10.0951 8.52285 10.2293 8.52285 10.3692Z" fill="white"/>
<path d="M20.2617 15.2698V19.8266C20.2619 19.8904 20.2494 19.9537 20.2251 20.0127C20.2008 20.0717 20.165 20.1254 20.1198 20.1705C20.0747 20.2157 20.021 20.2514 19.962 20.2758C19.903 20.3002 19.8398 20.3126 19.7759 20.3124H17.3611C17.2973 20.3126 17.234 20.3002 17.175 20.2758C17.116 20.2514 17.0623 20.2157 17.0172 20.1705C16.972 20.1254 16.9363 20.0717 16.9119 20.0127C16.8876 19.9537 16.8751 19.8904 16.8753 19.8266V15.4104C16.8753 14.7513 17.0685 12.524 15.1523 12.524C13.6679 12.524 13.3654 14.0482 13.3057 14.7329V19.8266C13.3057 19.9542 13.2555 20.0767 13.166 20.1676C13.0764 20.2585 12.9546 20.3105 12.827 20.3124H10.4946C10.4309 20.3124 10.3678 20.2998 10.309 20.2754C10.2501 20.2509 10.1966 20.2152 10.1516 20.17C10.1066 20.1249 10.071 20.0713 10.0467 20.0124C10.0225 19.9535 10.0101 19.8903 10.0103 19.8266V10.328C10.0101 10.2643 10.0225 10.2012 10.0467 10.1422C10.071 10.0833 10.1066 10.0297 10.1516 9.98461C10.1966 9.93949 10.2501 9.90365 10.309 9.87924C10.3678 9.85482 10.4309 9.84224 10.4946 9.84224H12.827C12.9559 9.84224 13.0794 9.8934 13.1705 9.98453C13.2616 10.0756 13.3128 10.1992 13.3128 10.328V11.149C13.864 10.3223 14.6807 9.68457 16.4236 9.68457C20.2844 9.68457 20.2617 13.2897 20.2617 15.2698Z" fill="white"/>
</g>
</svg>
