<svg width="80" height="80" viewBox="0 0 80 80" fill="none" xmlns="http://www.w3.org/2000/svg">
<rect width="80" height="80" rx="20" fill="url(#paint0_linear_737_4031)"/>
<g clip-path="url(#clip0_737_4031)">
<path d="M39.9996 35.9183C37.749 35.9183 35.918 37.7494 35.918 40C35.918 42.2506 37.749 44.0816 39.9996 44.0816C42.2502 44.0816 44.0812 42.2506 44.0812 40C44.0812 37.7494 42.2502 35.9183 39.9996 35.9183Z" fill="white"/>
<path d="M26.9388 20H21.2245C20.5483 20 20 20.5483 20 21.2245V26.9388C20 27.615 20.5483 28.1632 21.2245 28.1632C21.9007 28.1632 22.4489 27.6149 22.4489 26.9388V22.449H26.9387C27.6149 22.449 28.1631 21.9007 28.1631 21.2245C28.1633 20.5483 27.615 20 26.9388 20Z" fill="white"/>
<path d="M26.9388 57.551H22.449V53.0612C22.449 52.385 21.9007 51.8368 21.2245 51.8368C20.5483 51.8367 20 52.385 20 53.0612V58.7755C20 59.4517 20.5483 60 21.2245 60H26.9388C27.615 60 28.1632 59.4517 28.1632 58.7755C28.1632 58.0994 27.615 57.551 26.9388 57.551Z" fill="white"/>
<path d="M58.7747 20H53.0604C52.3841 20 51.8359 20.5483 51.8359 21.2245C51.8359 21.9007 52.3842 22.4489 53.0604 22.4489H57.5502V26.9387C57.5502 27.6149 58.0984 28.1631 58.7746 28.1631C59.4508 28.1631 59.9991 27.6148 59.9991 26.9387V21.2245C59.9992 20.5483 59.4509 20 58.7747 20Z" fill="white"/>
<path d="M58.7746 51.8367C58.0984 51.8367 57.5502 52.385 57.5502 53.0611V57.5509H53.0604C52.3841 57.5509 51.8359 58.0992 51.8359 58.7753C51.8359 59.4515 52.3841 60 53.0603 60H58.7746C59.4509 60 59.9991 59.4517 59.9991 58.7755V53.0612C59.9991 52.3849 59.4509 51.8367 58.7746 51.8367Z" fill="white"/>
<path d="M59.8354 39.3869C55.8626 32.5195 48.4437 27.9375 40 27.9375C31.5511 27.9375 24.1348 32.5238 20.1646 39.3869C19.9451 39.7663 19.9451 40.2338 20.1646 40.6131C24.1373 47.4805 31.5562 52.0625 40 52.0625C48.4488 52.0625 55.8651 47.4763 59.8354 40.6131C60.0548 40.2338 60.0548 39.7662 59.8354 39.3869ZM40 48.1633C35.4987 48.1633 31.8367 44.5013 31.8367 40C31.8367 35.4988 35.4987 31.8367 40 31.8367C44.5012 31.8367 48.1632 35.4988 48.1632 40C48.1632 44.5013 44.5012 48.1633 40 48.1633Z" fill="white"/>
</g>
<defs>
<linearGradient id="paint0_linear_737_4031" x1="0" y1="40" x2="80" y2="40" gradientUnits="userSpaceOnUse">
<stop stop-color="#0035E5"/>
<stop offset="0.7" stop-color="#298CFF"/>
</linearGradient>
<clipPath id="clip0_737_4031">
<rect width="40" height="40" fill="white" transform="translate(20 20)"/>
</clipPath>
</defs>
</svg>
