<svg width="80" height="80" viewBox="0 0 80 80" fill="none" xmlns="http://www.w3.org/2000/svg">
<path d="M0 20C0 8.95431 8.95431 0 20 0H60C71.0457 0 80 8.95431 80 20V60C80 71.0457 71.0457 80 60 80H20C8.95431 80 0 71.0457 0 60V20Z" fill="url(#paint0_linear_737_3992)"/>
<path fill-rule="evenodd" clip-rule="evenodd" d="M32.7934 25.7509C34.8351 25.4257 36.625 23.7271 36.625 21.2912C36.625 20.5524 37.2243 19.953 37.9631 19.953H42.0377C42.7766 19.953 43.3758 20.5524 43.3758 21.2912C43.3758 25.3056 48.2374 27.3176 51.0749 24.4801C51.5971 23.9578 52.4467 23.9578 52.9689 24.4801L55.8498 27.3633C56.372 27.8855 56.372 28.7328 55.8498 29.255C53.0123 32.0925 55.0267 36.954 59.0387 36.954C59.78 36.954 60.3768 37.5533 60.3768 38.2921V42.3667C60.3768 43.1056 59.78 43.7048 59.0387 43.7048C55.0267 43.7048 53.0123 48.5664 55.8498 51.4039C56.372 51.9262 56.372 52.7757 55.8498 53.298L52.9689 56.1788C52.4467 56.7011 51.5971 56.7011 51.0749 56.1788C48.2374 53.3413 43.3758 55.3557 43.3758 59.3677C43.3758 60.109 42.7766 60.7058 42.0377 60.7058H37.9631C37.2243 60.7058 36.625 60.109 36.625 59.3677C36.625 55.3509 31.7659 53.3389 28.926 56.1788C28.4037 56.7011 27.5565 56.7011 27.0343 56.1788L24.151 53.298C23.6288 52.7757 23.6288 51.9262 24.151 51.4039C26.9886 48.5664 24.9766 43.7048 20.9621 43.7048C20.2233 43.7048 19.624 43.1056 19.624 42.3667V38.2921C19.624 37.5533 20.2233 36.954 20.9621 36.954C22.4632 36.954 23.6844 36.2743 24.4766 35.2748H29.4627C28.7243 36.8059 28.3102 38.5207 28.3102 40.3294C28.3102 46.7665 33.5605 52.0196 40.0004 52.0196C46.4375 52.0196 51.6906 46.7665 51.6906 40.3294C51.6906 33.8895 46.4375 28.6392 40.0004 28.6392C38.1498 28.6392 36.3975 29.0728 34.8397 29.8435L32.7934 25.7509ZM37.936 41.5457L37.8468 34.6539C37.8449 34.4989 37.905 34.3496 38.0139 34.2393C38.1227 34.1291 38.2712 34.0669 38.4263 34.0669H41.3963C41.7133 34.0669 41.9715 34.3218 41.9757 34.6389L42.0649 41.5457H45.2966L40.0004 46.5919L34.7042 41.5457H37.936ZM26.0199 20.0962C26.2657 19.6046 26.7682 19.2941 27.3177 19.2941C27.8674 19.2941 28.3698 19.6046 28.6156 20.0962L34.551 31.9669C34.7759 32.4168 34.7519 32.951 34.4875 33.3787C34.2231 33.8066 33.756 34.0669 33.2532 34.0669H21.3824C20.8795 34.0669 20.4124 33.8066 20.1481 33.3787C19.8836 32.951 19.8596 32.4168 20.0845 31.9669L26.0199 20.0962ZM27.3177 30.3771C26.8416 30.3771 26.455 30.7637 26.455 31.2399C26.455 31.716 26.8416 32.1026 27.3177 32.1026C27.7939 32.1026 28.1805 31.716 28.1805 31.2399C28.1805 30.7637 27.7939 30.3771 27.3177 30.3771ZM26.7138 22.9476V28.895C26.7138 29.2282 26.9844 29.4989 27.3177 29.4989C27.6511 29.4989 27.9216 29.2282 27.9216 28.895V22.9476C27.9216 22.6143 27.6511 22.3437 27.3177 22.3437C26.9844 22.3437 26.7138 22.6143 26.7138 22.9476Z" fill="white"/>
<defs>
<linearGradient id="paint0_linear_737_3992" x1="0" y1="40" x2="80" y2="40" gradientUnits="userSpaceOnUse">
<stop stop-color="#0035E5"/>
<stop offset="0.7" stop-color="#298CFF"/>
</linearGradient>
</defs>
</svg>
