<svg width="80" height="80" viewBox="0 0 80 80" fill="none" xmlns="http://www.w3.org/2000/svg">
<rect width="80" height="80" rx="20" fill="url(#paint0_linear_737_4053)"/>
<path fill-rule="evenodd" clip-rule="evenodd" d="M57.9769 33.125V55.125C57.9769 56.2195 57.5427 57.2686 56.7686 58.0414C55.9944 58.8155 54.9452 59.25 53.8507 59.25H31.8441C30.7497 59.25 29.7004 58.8155 28.9263 58.0414C28.1521 57.2686 27.7179 56.2195 27.7179 55.125V45.3185C28.3879 45.4381 29.0776 45.5 29.781 45.5C36.2337 45.5 41.472 40.2626 41.472 33.8125C41.472 27.3624 36.2337 22.125 29.781 22.125C29.4254 22.125 29.0736 22.1415 28.7278 22.1717C29.4843 21.3014 30.6003 20.75 31.8441 20.75H45.5982V29C45.5982 30.0945 46.0325 31.1436 46.8066 31.9164C47.5808 32.6905 48.63 33.125 49.7245 33.125H57.9769ZM35.9704 52.375V51C35.9704 50.241 35.3534 49.625 34.5949 49.625C33.8365 49.625 33.2195 50.241 33.2195 51V52.375C33.2195 53.134 33.8365 53.75 34.5949 53.75C35.3534 53.75 35.9704 53.134 35.9704 52.375ZM41.472 52.375V46.875C41.472 46.116 40.855 45.5 40.0966 45.5C39.3382 45.5 38.7212 46.116 38.7212 46.875V52.375C38.7212 53.134 39.3382 53.75 40.0966 53.75C40.855 53.75 41.472 53.134 41.472 52.375ZM46.9737 52.375V48.25C46.9737 47.491 46.3567 46.875 45.5982 46.875C44.8398 46.875 44.2228 47.491 44.2228 48.25V52.375C44.2228 53.134 44.8398 53.75 45.5982 53.75C46.3567 53.75 46.9737 53.134 46.9737 52.375ZM52.4753 52.375V42.75C52.4753 41.991 51.8583 41.375 51.0999 41.375C50.3414 41.375 49.7245 41.991 49.7245 42.75V52.375C49.7245 53.134 50.3414 53.75 51.0999 53.75C51.8583 53.75 52.4753 53.134 52.4753 52.375ZM48.3491 20.7761C49.3374 20.8889 50.2589 21.3564 50.9348 22.1003L56.9041 28.6631C57.3502 29.1554 57.6685 29.7425 57.8374 30.375H49.7245C49.359 30.375 49.0093 30.2306 48.7519 29.9721C48.4945 29.715 48.3491 29.3644 48.3491 29V20.7761ZM38.6151 35.1875C37.9529 39.4679 34.2472 42.75 29.781 42.75C24.8472 42.75 20.8408 38.7446 20.8408 33.8125C20.8408 29.3479 24.1241 25.6423 28.4056 24.9809V32.4375C28.4056 33.9569 29.6376 35.1875 31.1564 35.1875H38.6151ZM31.1564 24.9809C34.9899 25.5735 38.0236 28.6054 38.6151 32.4375H31.1564V24.9809Z" fill="white"/>
<defs>
<linearGradient id="paint0_linear_737_4053" x1="0" y1="40" x2="80" y2="40" gradientUnits="userSpaceOnUse">
<stop stop-color="#0035E5"/>
<stop offset="0.7" stop-color="#298CFF"/>
</linearGradient>
</defs>
</svg>
