<svg width="80" height="80" viewBox="0 0 80 80" fill="none" xmlns="http://www.w3.org/2000/svg">
<rect width="80" height="80" rx="20" fill="url(#paint0_linear_737_4017)"/>
<g clip-path="url(#clip0_737_4017)">
<path d="M61.5499 31.3728L57.1691 27.6179C56.7823 27.2865 56.2545 27.2126 55.7915 27.4256C55.3287 27.6385 55.0412 28.0871 55.0412 28.5967V29.7734H50.3125C47.4648 29.7734 45.1562 32.0819 45.1562 34.9297V36.5974C45.1947 36.6718 45.2312 36.7474 45.2649 36.8245C45.7109 36.6487 46.1906 36.5568 46.6844 36.5568C47.7175 36.5568 48.6888 36.9592 49.4192 37.6899L50.3125 38.5832V34.9297H55.0411V36.1064C55.0411 36.6159 55.3287 37.0646 55.7914 37.2775C55.9668 37.3581 56.1513 37.3976 56.334 37.3976C56.6337 37.3976 56.9287 37.2911 57.169 37.0851L61.5498 33.3302C61.8359 33.085 62 32.7284 62 32.3515C62 31.9747 61.8359 31.6181 61.5499 31.3728Z" fill="white"/>
<path d="M33.3156 36.5568C33.8095 36.5568 34.2891 36.6487 34.7351 36.8245C34.7688 36.7474 34.8053 36.6718 34.8438 36.5974V34.9297C34.8438 32.0819 32.5352 29.7734 29.6875 29.7734H24.9589V28.5967C24.9589 28.0871 24.6713 27.6385 24.2086 27.4256C23.7455 27.2126 23.2178 27.2865 22.831 27.6179L18.4501 31.3728C18.1641 31.6181 18 31.9747 18 32.3515C18 32.7284 18.1641 33.085 18.4501 33.3303L22.8309 37.0851C23.0713 37.2911 23.3662 37.3977 23.6659 37.3977C23.8487 37.3977 24.0332 37.3582 24.2085 37.2776C24.6713 37.0647 24.9588 36.616 24.9588 36.1065V34.9297H29.6875V38.583L30.5811 37.6895C31.3115 36.959 32.2826 36.5568 33.3156 36.5568Z" fill="white"/>
<path d="M41.719 34.5C42.0143 34.5 42.3019 34.5333 42.5784 34.5963V24.9589H43.7551C44.2647 24.9589 44.7134 24.6713 44.9262 24.2086C45.1392 23.7456 45.0654 23.2179 44.7339 22.831L40.979 18.4501C40.7338 18.1641 40.3771 18 40.0003 18C39.6235 18 39.2667 18.1641 39.0215 18.4501L35.2666 22.8309C34.935 23.2178 34.8613 23.7456 35.0743 24.2085C35.2871 24.6713 35.7359 24.9588 36.2453 24.9588H37.4222V34.5962C37.6986 34.5333 37.9863 34.4999 38.2815 34.4999H41.719V34.5Z" fill="white"/>
<path d="M51.1719 46.5312H50.7624C50.5221 45.6665 50.1791 44.8391 49.7364 44.0564L50.0266 43.7663C50.2682 43.5246 50.4042 43.1966 50.4042 42.8548C50.4042 42.5129 50.2684 42.185 50.0266 41.9433L47.5958 39.5126C47.3542 39.2708 47.0263 39.135 46.6844 39.135C46.3425 39.135 46.0146 39.2708 45.7729 39.5126L45.4827 39.8028C44.7001 39.36 43.8728 39.017 43.0079 38.7768V38.3672C43.0079 37.6553 42.4307 37.0781 41.7188 37.0781H38.2813C37.5694 37.0781 36.9923 37.6553 36.9923 38.3672V38.7767C36.1274 39.017 35.3002 39.3599 34.5174 39.8027L34.2273 39.5125C33.9856 39.2707 33.6577 39.1349 33.3158 39.1349C32.9738 39.1349 32.6461 39.2706 32.4042 39.5125L29.9736 41.9432C29.7318 42.185 29.5961 42.5129 29.5961 42.8547C29.5961 43.1966 29.7319 43.5245 29.9737 43.7661L30.2638 44.0563C29.821 44.839 29.4781 45.6662 29.2378 46.5312H28.8281C28.1162 46.5312 27.5391 47.1083 27.5391 47.8202V51.2577C27.5391 51.9696 28.1162 52.5468 28.8281 52.5468H29.2375C29.4778 53.4117 29.8208 54.2389 30.2635 55.0217L29.9734 55.3118C29.7317 55.5535 29.5958 55.8814 29.5958 56.2233C29.5958 56.5651 29.7316 56.893 29.9733 57.1347L32.404 59.5655C32.6457 59.8072 32.9736 59.9431 33.3155 59.9431C33.6575 59.9431 33.9853 59.8073 34.2271 59.5655L34.5172 59.2753C35.2999 59.7181 36.1271 60.0611 36.9921 60.3013V60.7109C36.9921 61.4228 37.5693 62 38.2812 62H41.7187C42.4306 62 43.0077 61.4228 43.0077 60.7109V60.3014C43.8725 60.0612 44.6999 59.7182 45.4826 59.2755L45.7727 59.5656C46.0144 59.8073 46.3424 59.9433 46.6842 59.9433C47.0261 59.9433 47.354 59.8075 47.5957 59.5656L50.0264 57.1349C50.2682 56.8932 50.404 56.5653 50.404 56.2235C50.404 55.8816 50.2682 55.5537 50.0264 55.3119L49.7362 55.0218C50.179 54.2392 50.522 53.4118 50.7622 52.547H51.1719C51.8838 52.547 52.4609 51.9698 52.4609 51.2579V47.8204C52.4609 47.1084 51.8838 46.5312 51.1719 46.5312ZM40.0006 53.8359C40.0006 53.8359 40.0004 53.8359 40.0003 53.8359C40.0001 53.8359 40.0001 53.8359 39.9999 53.8359C37.6268 53.8359 35.703 51.9121 35.703 49.5391C35.703 47.166 37.6268 45.2422 39.9999 45.2422H40.0003C40.0003 45.2422 40.0004 45.2422 40.0006 45.2422C42.3737 45.2422 44.2975 47.166 44.2975 49.5391C44.2975 51.9121 42.3737 53.8359 40.0006 53.8359Z" fill="white"/>
</g>
<defs>
<linearGradient id="paint0_linear_737_4017" x1="0" y1="40" x2="80" y2="40" gradientUnits="userSpaceOnUse">
<stop stop-color="#0035E5"/>
<stop offset="0.7" stop-color="#298CFF"/>
</linearGradient>
<clipPath id="clip0_737_4017">
<rect width="44" height="44" fill="white" transform="translate(18 18)"/>
</clipPath>
</defs>
</svg>
