<svg width="80" height="80" viewBox="0 0 80 80" fill="none" xmlns="http://www.w3.org/2000/svg">
<rect width="80" height="80" rx="20" fill="url(#paint0_linear_737_4003)"/>
<g clip-path="url(#clip0_737_4003)">
<path d="M21.9531 43.9531H19.2891C18.5766 43.9531 18 44.5297 18 45.2422V60.7109C18 61.4234 18.5766 62 19.2891 62H21.9531C24.0856 62 25.8203 60.2653 25.8203 58.1328V47.8203C25.8203 45.6879 24.0856 43.9531 21.9531 43.9531Z" fill="white"/>
<path d="M47.8203 18C40.0085 18 33.6406 24.3679 33.6406 32.1797C33.6406 35.5828 34.8523 38.7023 36.8633 41.1515C38.4875 41.6155 40.0085 42.4405 41.2976 43.575C41.54 43.7568 41.6769 43.7547 41.9421 43.7812H46.5312C48.3102 43.7812 49.8828 44.6577 50.7852 46.05C57.1789 44.6835 62 38.9859 62 32.1797C62 24.3679 55.6321 18 47.8203 18ZM49.1352 38.3929H49.1094V39.9141C49.1094 40.6359 48.5423 41.2031 47.8203 41.2031C47.0984 41.2031 46.5312 40.6359 46.5312 39.9141V38.3929C45.6805 38.1093 44.8812 37.5679 44.1852 36.7172C43.7211 36.1757 43.7985 35.3765 44.3399 34.9125C44.8813 34.4484 45.7063 34.5258 46.1445 35.0672C46.8407 35.8922 47.6141 36.2016 48.2586 35.9694C48.7742 35.789 49.1094 35.2991 49.1094 34.7578C49.1094 34.0359 48.5423 33.4688 47.8203 33.4688C45.6805 33.4688 43.9531 31.7413 43.9531 29.6016C43.9531 28.0546 44.8813 26.6366 46.325 26.0437C46.3766 26.018 46.4539 26.018 46.5312 25.9921V24.4453C46.5312 23.7234 47.0984 23.1562 47.8203 23.1562C48.5423 23.1562 49.1094 23.7234 49.1094 24.4453V25.9921C49.7797 26.2242 50.4242 26.5594 51.0172 27.1265C51.5328 27.6163 51.5328 28.4413 51.043 28.957C50.5531 29.4727 49.7281 29.4727 49.2124 28.9828C48.5937 28.3898 47.8977 28.1578 47.3305 28.4155C46.8406 28.6219 46.5312 29.0859 46.5312 29.6016C46.5312 30.3234 47.0984 30.8906 47.8203 30.8906C49.9602 30.8906 51.6875 32.618 51.6875 34.7578C51.6875 36.382 50.6562 37.8258 49.1352 38.3929Z" fill="white"/>
<path d="M61.6133 46.4538C61.4585 46.1961 61.2524 45.9897 61.0203 45.8093C60.0711 44.9789 58.4719 45.0574 57.5399 46.0672L51.6875 52.8219L51.507 53.0279C50.7852 53.8272 49.7539 54.2655 48.6711 54.2655H38.582C37.8601 54.2655 37.293 53.6983 37.293 52.9765C37.293 52.2545 37.8601 51.6874 38.582 51.6874H46.5312C47.9492 51.6874 49.1094 50.5272 49.1094 49.1093V49.0835C49.0836 47.6655 47.9492 46.5312 46.5312 46.5312H41.7789C41.0058 46.5312 40.1773 46.2473 39.5102 45.6804C36.3649 42.9218 31.7758 42.7412 28.3984 45.0875V60.9429C30.9508 61.639 33.5805 62 36.2359 62H47.8203C50.6562 62 53.3375 60.6593 55.0391 58.3905L61.2266 50.1405C62.1294 48.9555 62.1975 47.3305 61.6133 46.4538Z" fill="white"/>
</g>
<defs>
<linearGradient id="paint0_linear_737_4003" x1="0" y1="40" x2="80" y2="40" gradientUnits="userSpaceOnUse">
<stop stop-color="#0035E5"/>
<stop offset="0.7" stop-color="#298CFF"/>
</linearGradient>
<clipPath id="clip0_737_4003">
<rect width="44" height="44" fill="white" transform="translate(18 18)"/>
</clipPath>
</defs>
</svg>
