<svg width="80" height="80" viewBox="0 0 80 80" fill="none" xmlns="http://www.w3.org/2000/svg">
<rect width="80" height="80" rx="20" fill="url(#paint0_linear_739_5469)"/>
<g clip-path="url(#clip0_739_5469)">
<path d="M24.0647 47.6108C22.9227 45.2244 22.3438 42.6637 22.3438 40C22.3438 30.2643 30.2643 22.3438 40 22.3438C43.868 22.3438 47.5455 23.5799 50.5831 25.864L47.6606 26.2488C47.019 26.3332 46.5673 26.9219 46.6517 27.5635C46.7362 28.2052 47.3248 28.6569 47.9665 28.5724L53.4664 27.8484C54.1081 27.7639 54.5598 27.1752 54.4753 26.5336L53.7512 21.0338C53.6667 20.3921 53.078 19.9404 52.4364 20.0248H52.4363C51.7947 20.1093 51.343 20.698 51.4274 21.3396L51.7532 23.8141C48.3585 21.338 44.2823 20 40 20C34.6578 20 29.6354 22.0803 25.8578 25.8578C22.0804 29.6354 20 34.6578 20 40C20 43.0167 20.6563 45.9177 21.9506 48.6225C22.23 49.2063 22.9297 49.4531 23.5135 49.1738C24.0973 48.8944 24.3441 48.1946 24.0647 47.6108Z" fill="white"/>
<path d="M50.8392 38.2523L51.425 37.9141C51.9855 37.5905 52.1776 36.8738 51.8539 36.3134L49.1196 31.5773C48.796 31.0168 48.0793 30.8247 47.5188 31.1484L46.9329 31.4866C45.5876 32.2634 43.906 31.2924 43.906 29.739V29.0625C43.906 28.4153 43.3813 27.8906 42.7341 27.8906H37.2654C36.6182 27.8906 36.0935 28.4153 36.0935 29.0625V29.739C36.0935 31.2924 34.4118 32.2633 33.0665 31.4866L32.4807 31.1484C31.9202 30.8248 31.2035 31.0168 30.8799 31.5773L28.1455 36.3134C27.8219 36.8738 28.0139 37.5905 28.5744 37.9141L29.1603 38.2523C30.5056 39.0291 30.5056 40.9709 29.1603 41.7476L28.5744 42.0858C28.0139 42.4094 27.8218 43.1261 28.1455 43.6866L30.8799 48.4227C31.2035 48.9831 31.9202 49.1752 32.4807 48.8516L33.0665 48.5133C34.4118 47.7366 36.0935 48.7075 36.0935 50.2609V50.9375C36.0935 51.5847 36.6182 52.1094 37.2654 52.1094H42.7341C43.3813 52.1094 43.906 51.5847 43.906 50.9375V50.261C43.906 48.7076 45.5876 47.7367 46.9329 48.5134L47.5188 48.8516C48.0793 49.1752 48.796 48.9832 49.1196 48.4227L51.8539 43.6866C52.1775 43.1262 51.9855 42.4095 51.425 42.0859L50.8392 41.7477C49.4939 40.9709 49.4939 39.0291 50.8392 38.2523ZM39.9997 44.4922C37.5188 44.4922 35.5075 42.4809 35.5075 40C35.5075 37.5191 37.5188 35.5078 39.9997 35.5078C42.4807 35.5078 44.4919 37.5191 44.4919 40C44.4919 42.4809 42.4807 44.4922 39.9997 44.4922Z" fill="white"/>
<path d="M58.0485 31.3775C57.7691 30.7937 57.0695 30.5469 56.4856 30.8263C55.9019 31.1056 55.6551 31.8053 55.9344 32.3891C57.0764 34.7756 57.6554 37.3363 57.6554 40C57.6554 49.7357 49.7348 57.6563 39.9991 57.6563C36.1312 57.6563 32.4536 56.4201 29.416 54.136L32.3385 53.7513C32.9802 53.6668 33.4319 53.0781 33.3474 52.4365C33.263 51.7948 32.6743 51.3431 32.0327 51.4276L26.5327 52.1516C25.8911 52.2361 25.4394 52.8248 25.5238 53.4664L26.248 58.9663C26.3324 59.6079 26.9211 60.0596 27.5627 59.9752C28.2044 59.8907 28.6562 59.302 28.5717 58.6604L28.2459 56.1859C31.6406 58.662 35.7168 60 39.9991 60C45.3413 60 50.3637 57.9197 54.1413 54.1422C57.9187 50.3646 59.9991 45.3422 59.9991 40C59.9991 36.9833 59.3429 34.0823 58.0485 31.3775Z" fill="white"/>
</g>
<defs>
<linearGradient id="paint0_linear_739_5469" x1="0" y1="40" x2="80" y2="40" gradientUnits="userSpaceOnUse">
<stop stop-color="#0035E5"/>
<stop offset="0.7" stop-color="#298CFF"/>
</linearGradient>
<clipPath id="clip0_739_5469">
<rect width="40" height="40" fill="white" transform="translate(20 20)"/>
</clipPath>
</defs>
</svg>
