<svg width="80" height="80" viewBox="0 0 80 80" fill="none" xmlns="http://www.w3.org/2000/svg">
<rect width="80" height="80" rx="20" fill="url(#paint0_linear_739_4830)"/>
<g clip-path="url(#clip0_739_4830)">
<path d="M29.6875 38.7969C23.2904 38.7969 18.0859 44.0013 18.0859 50.3984C18.0859 56.7955 23.2904 62 29.6875 62C36.0846 62 41.2891 56.7955 41.2891 50.3984C41.2891 44.0013 36.0846 38.7969 29.6875 38.7969ZM34.8099 48.9896L28.7943 55.0052C28.5426 55.2569 28.2127 55.3828 27.8828 55.3828C27.5529 55.3828 27.223 55.2569 26.9714 55.0052L24.3932 52.4271C23.8898 51.9237 23.8898 51.1075 24.3932 50.6041C24.8966 50.1008 25.7128 50.1008 26.2162 50.6041L27.8828 52.2708L32.987 47.1666C33.4903 46.6633 34.3066 46.6633 34.81 47.1666C35.3133 47.67 35.3133 48.4862 34.8099 48.9896Z" fill="white"/>
<path d="M52.0312 29.1719C51.3193 29.1719 50.7422 28.5947 50.7422 27.8828V18H32.2656C30.1333 18 28.3984 19.7348 28.3984 21.8672V36.278C28.8231 36.2395 29.2529 36.2188 29.6875 36.2188C34.0813 36.2188 38.0146 38.2276 40.6175 41.375H54.6094C55.3213 41.375 55.8984 41.9522 55.8984 42.6641C55.8984 43.376 55.3213 43.9531 54.6094 43.9531H42.3158C43.1216 45.5254 43.6412 47.2673 43.808 49.1094H54.6094C55.3213 49.1094 55.8984 49.6865 55.8984 50.3984C55.8984 51.1103 55.3213 51.6875 54.6094 51.6875H43.808C43.4225 55.9448 41.1479 59.6647 37.8308 62H58.0469C60.1792 62 61.9141 60.2652 61.9141 58.1328V29.1719H52.0312ZM54.6094 36.2188H35.7031C34.9912 36.2188 34.4141 35.6416 34.4141 34.9297C34.4141 34.2178 34.9912 33.6406 35.7031 33.6406H54.6094C55.3213 33.6406 55.8984 34.2178 55.8984 34.9297C55.8984 35.6416 55.3213 36.2188 54.6094 36.2188Z" fill="white"/>
<path d="M53.3203 18.7549V26.5938H61.1588L53.3203 18.7549Z" fill="white"/>
</g>
<defs>
<linearGradient id="paint0_linear_739_4830" x1="0" y1="40" x2="80" y2="40" gradientUnits="userSpaceOnUse">
<stop stop-color="#0035E5"/>
<stop offset="0.7" stop-color="#298CFF"/>
</linearGradient>
<clipPath id="clip0_739_4830">
<rect width="44" height="44" fill="white" transform="translate(18 18)"/>
</clipPath>
</defs>
</svg>
