<svg width="80" height="80" viewBox="0 0 80 80" fill="none" xmlns="http://www.w3.org/2000/svg">
<rect width="80" height="80" rx="20" fill="url(#paint0_linear_739_5491)"/>
<path d="M22.9863 42.2901C22.3314 41.1693 21.9405 39.6556 21.9405 38.2408C21.9405 35.5506 24.0149 33.3619 26.5648 33.3619C29.1146 33.3619 31.189 35.5506 31.189 38.2408C31.189 41.2903 29.5683 44.5312 26.5648 44.5312C25.0804 44.5312 23.8431 43.7562 22.9863 42.2901ZM31.1752 46.2035H21.9543C19.0932 46.2035 16.7656 48.3831 16.7656 51.0622V56.2494C16.7656 57.617 17.8783 58.7297 19.246 58.7297H33.8835C35.2512 58.7297 36.3639 57.617 36.3639 56.2494V51.0622C36.3639 48.3831 34.0362 46.2035 31.1752 46.2035ZM25.6231 29.217C25.6815 29.8099 26.1811 30.2529 26.7647 30.2529C26.8024 30.2529 26.8405 30.251 26.8787 30.2473L30.1531 29.9245C30.7843 29.8623 31.2455 29.3001 31.1833 28.669C31.1211 28.0378 30.5589 27.5761 29.9278 27.6387L29.3361 27.697C33.4496 23.2668 39.7258 21.4756 45.6852 23.2234C46.2939 23.4018 46.9319 23.0532 47.1104 22.4446C47.2889 21.836 46.9402 21.1979 46.3316 21.0194C42.5228 19.9025 38.5354 20.0362 34.8004 21.4064C32.0309 22.4224 29.5941 24.0445 27.6299 26.1619L27.5861 25.7173C27.5239 25.0861 26.9618 24.6241 26.3306 24.687C25.6993 24.7492 25.2381 25.3114 25.3003 25.9426L25.6231 29.217V29.217ZM58.2238 45.7672C58.1563 45.4701 57.9736 45.2122 57.7157 45.0499C57.458 44.8877 57.1463 44.8345 56.8493 44.9019L53.64 45.6317C53.0216 45.7723 52.6342 46.3876 52.7748 47.0062C52.9155 47.6247 53.531 48.0121 54.1493 47.8714L54.6604 47.7552C51.3219 52.4135 45.6532 55.04 39.8399 54.4289C39.2089 54.3635 38.6441 54.8203 38.5778 55.4511C38.5116 56.0819 38.9692 56.647 39.6 56.7132C40.238 56.7802 40.874 56.813 41.5067 56.813C47.5014 56.813 53.1605 53.8591 56.601 48.9892L56.7139 49.4857C56.8351 50.0185 57.3084 50.3798 57.8327 50.3798C57.917 50.3798 58.0027 50.3704 58.0883 50.351C58.7068 50.2104 59.0942 49.595 58.9536 48.9765L58.2238 45.7672ZM64.2343 32.7722C64.2343 38.4556 59.6106 43.0793 53.9271 43.0793C48.2437 43.0793 43.6201 38.4556 43.6201 32.7722C43.6201 27.0889 48.2438 22.4652 53.9271 22.4652C59.6105 22.4652 64.2343 27.0889 64.2343 32.7722ZM57.6577 35.0521C57.6577 32.3778 55.4693 31.921 54.1618 31.6482C54.1601 31.6478 54.1585 31.6477 54.1567 31.6474V31.6471C52.6268 31.3235 52.4936 31.1633 52.4936 30.4897C52.4936 29.8765 53.1501 29.3585 53.9271 29.3585C54.461 29.3585 54.9494 29.5954 55.2019 29.9766C55.5521 30.5054 56.2647 30.6502 56.7936 30.3C57.3223 29.9498 57.4671 29.2372 57.1169 28.7084C56.6489 28.0018 55.9148 27.4821 55.0756 27.2308V26.8049C55.0756 26.1707 54.5614 25.6565 53.9271 25.6565C53.2929 25.6565 52.7787 26.1707 52.7787 26.8049V27.2286C51.2821 27.6748 50.1967 28.9677 50.1967 30.4898C50.1967 33.1572 52.3781 33.6186 53.6895 33.8961C53.6906 33.8961 53.6915 33.8965 53.6925 33.8967C55.2271 34.2171 55.3608 34.3773 55.3608 35.0522C55.3608 35.667 54.7043 36.1863 53.9271 36.1863C53.3935 36.1863 52.9055 35.9491 52.6536 35.5671C52.3045 35.0376 51.5922 34.8915 51.0627 35.2406C50.5331 35.5897 50.3869 36.302 50.7361 36.8316C51.2036 37.5405 51.9383 38.0619 52.7787 38.3138V38.7369C52.7787 39.3711 53.2929 39.8854 53.9271 39.8854C54.5614 39.8854 55.0756 39.3711 55.0756 38.7369V38.3161C56.5722 37.8696 57.6577 36.5755 57.6577 35.0521Z" fill="white"/>
<defs>
<linearGradient id="paint0_linear_739_5491" x1="0" y1="40" x2="80" y2="40" gradientUnits="userSpaceOnUse">
<stop stop-color="#0035E5"/>
<stop offset="0.7" stop-color="#298CFF"/>
</linearGradient>
</defs>
</svg>
