<svg width="80" height="80" viewBox="0 0 80 80" fill="none" xmlns="http://www.w3.org/2000/svg">
<rect width="80" height="80" rx="20" fill="url(#paint0_linear_173_2027)"/>
<path d="M54.3057 55.2639C55.2242 54.0622 55.792 52.5799 55.792 50.9547C55.792 47.0208 52.591 43.8198 48.6558 43.8198C44.7205 43.8198 41.5195 47.0208 41.5195 50.9547C41.5195 54.8899 44.7205 58.0909 48.6558 58.0909C50.0707 58.0909 51.3838 57.6647 52.4934 56.9511L55.6655 60.1246C55.9062 60.3666 56.2238 60.4876 56.54 60.4876C56.8563 60.4876 57.1725 60.3666 57.4145 60.1246C57.8985 59.6419 57.8985 58.8582 57.4145 58.3756L54.3057 55.2639ZM43.9945 50.9547C43.9945 48.3848 46.0859 46.2934 48.6558 46.2934C51.2257 46.2934 53.317 48.3848 53.317 50.9547C53.317 53.5246 51.2257 55.6159 48.6558 55.6159C46.0859 55.6159 43.9945 53.5246 43.9945 50.9547Z" fill="white"/>
<path d="M39.4571 50.9546C39.4571 45.8836 43.5835 41.7572 48.6559 41.7572C52.0054 41.7572 54.9327 43.5626 56.5415 46.2439V23.8987C56.5415 22.1662 55.1252 20.75 53.3927 20.75H26.6077C24.8752 20.75 23.459 22.1662 23.459 23.8987V56.1012C23.459 57.8337 24.8752 59.25 26.6077 59.25H44.7055C41.6076 57.7691 39.4571 54.6121 39.4571 50.9546ZM31.0559 27.0434H48.9474C49.6307 27.0434 50.1849 27.5975 50.1849 28.2809C50.1849 28.9643 49.6307 29.5184 48.9474 29.5184H31.0559C30.3725 29.5184 29.8184 28.9643 29.8184 28.2809C29.8184 27.5975 30.3725 27.0434 31.0559 27.0434ZM31.0559 34.0201H48.9474C49.6307 34.0201 50.1849 34.5742 50.1849 35.2576C50.1849 35.941 49.6307 36.4951 48.9474 36.4951H31.0559C30.3725 36.4951 29.8184 35.941 29.8184 35.2576C29.8184 34.5742 30.3725 34.0201 31.0559 34.0201ZM29.817 42.2357C29.817 41.5524 30.3711 40.9982 31.0545 40.9982H40.0662C40.7496 40.9982 41.3037 41.5524 41.3037 42.2357C41.3037 42.9191 40.7496 43.4732 40.0662 43.4732H31.0545C30.3711 43.4732 29.817 42.9191 29.817 42.2357Z" fill="white"/>
<defs>
<linearGradient id="paint0_linear_173_2027" x1="0" y1="40" x2="80" y2="40" gradientUnits="userSpaceOnUse">
<stop stop-color="#0035E5"/>
<stop offset="0.7" stop-color="#298CFF"/>
</linearGradient>
</defs>
</svg>
