<svg width="80" height="80" viewBox="0 0 80 80" fill="none" xmlns="http://www.w3.org/2000/svg">
<rect width="80" height="80" rx="20" fill="url(#paint0_linear_739_6672)"/>
<g clip-path="url(#clip0_739_6672)">
<path d="M56.5006 42.75C56.5006 44.4857 55.0933 45.8929 53.3577 45.8929C51.6221 45.8929 50.2148 44.4857 50.2148 42.75C50.2148 41.0144 51.6221 39.6072 53.3577 39.6072C55.0933 39.6072 56.5006 41.0144 56.5006 42.75Z" fill="white"/>
<path d="M29.7857 42.75C29.7857 44.4857 28.3785 45.8929 26.6429 45.8929C24.9072 45.8929 23.5 44.4857 23.5 42.75C23.5 41.0144 24.9072 39.6072 26.6429 39.6072C28.3785 39.6072 29.7857 41.0144 29.7857 42.75Z" fill="white"/>
<path d="M43.1431 39.6072C43.1431 41.3428 41.7359 42.7501 40.0003 42.7501C38.2646 42.7501 36.8574 41.3428 36.8574 39.6072C36.8574 37.8716 38.2646 36.4644 40.0003 36.4644C41.7359 36.4644 43.1431 37.8716 43.1431 39.6072Z" fill="white"/>
<path d="M30.5933 60.8215C30.0711 60.1466 29.7872 59.3175 29.7857 58.4643V50.6072C29.7892 49.8122 29.9269 49.0235 30.1928 48.2742C30.0577 48.265 29.9238 48.25 29.7857 48.25H23.5C22.3966 48.247 21.3186 48.5796 20.4089 49.2038C18.9039 50.2277 18.0019 51.9296 18 53.75V56.8929C18.0027 58.4256 18.8954 59.8174 20.2873 60.4593C20.5597 60.5882 20.8471 60.6833 21.1429 60.7428V52.1786H22.7143V60.8215H30.5933Z" fill="white"/>
<path d="M31.3809 61.6066C31.3727 61.6007 31.366 61.5929 31.3574 61.5869V61.6066H31.3809Z" fill="white"/>
<path d="M47.9982 48.0244C47.577 47.238 46.9727 46.5643 46.2365 46.0602C46.1636 46.0061 46.0869 45.957 46.0071 45.9132C45.1446 45.3861 44.1537 45.1072 43.1431 45.1072H36.8574C33.8197 45.1072 31.3574 47.5694 31.3574 50.6072V58.4643C31.3574 59.766 32.4128 60.8215 33.7146 60.8215H34.5003V49.8215H36.0717V60.8215H43.9288V49.8215H45.5003V60.8215H46.286C47.5877 60.8215 48.6431 59.766 48.6431 58.4643V50.6072C48.6435 49.7064 48.4218 48.8194 47.9982 48.0244Z" fill="white"/>
<path d="M59.5929 49.2053C58.6829 48.5803 57.6037 48.247 56.4995 48.25H50.2138C50.0765 48.25 49.9426 48.265 49.8075 48.2742C50.073 49.0238 50.2104 49.8122 50.2138 50.6072V58.4643C50.2123 59.3175 49.9284 60.1466 49.4062 60.8215H57.2853V52.1786H58.8567V60.7428C59.1479 60.6845 59.4306 60.5905 59.6988 60.4631C61.0976 59.8247 61.9961 58.4302 61.9995 56.8929V53.75C61.9976 51.9304 61.0968 50.2297 59.5929 49.2053Z" fill="white"/>
<path d="M40.0007 28.6072C36.7876 28.6007 33.7932 30.2343 32.0595 32.9398C30.3258 35.6449 30.0925 39.0478 31.4403 41.9643H35.9244C34.7734 39.9832 35.2135 37.4618 36.9672 35.9875C38.7208 34.5135 41.2805 34.5135 43.0342 35.9875C44.7878 37.4618 45.2279 39.9832 44.0769 41.9643H48.5649C49.913 39.0471 49.6794 35.6433 47.9445 32.9378C46.21 30.2323 43.2145 28.5995 40.0007 28.6072Z" fill="white"/>
<path d="M58.8574 34.8928H54.6146L54.462 34.3028C54.1151 32.9527 53.575 31.6598 52.8594 30.4636L52.5449 29.938L55.5573 26.9202C55.7042 26.774 55.7867 26.5753 55.7867 26.3681C55.7867 26.161 55.7042 25.9622 55.5573 25.8164L52.2207 22.4787C51.9126 22.1848 51.4284 22.1848 51.1204 22.4787L48.1026 25.4965L47.577 25.1823C46.3792 24.466 45.0848 23.9262 43.7332 23.5786L43.1431 23.4252V19.1785C43.1431 18.7446 42.7913 18.3928 42.3574 18.3928H37.6431C37.2092 18.3928 36.8574 18.7446 36.8574 19.1785V23.4213L36.2674 23.574C34.9173 23.9212 33.624 24.4606 32.4274 25.1757L31.9018 25.4903L28.8848 22.4787C28.5763 22.1825 28.0895 22.1825 27.781 22.4787L24.4433 25.8153C24.2964 25.9618 24.2135 26.1606 24.2135 26.3677C24.2135 26.5753 24.2964 26.774 24.4433 26.9202L27.4611 29.938L27.1469 30.4636C26.431 31.6598 25.8912 32.9527 25.544 34.3028L25.3898 34.8928H21.1431C20.7092 34.8928 20.3574 35.2446 20.3574 35.6785V40.3928C20.3574 40.8267 20.7092 41.1785 21.1431 41.1785H22.2062C22.6727 39.8511 23.7094 38.8022 25.0314 38.3203C26.3535 37.8381 27.8217 37.9735 29.0333 38.6894C29.0206 38.4719 29.0003 38.2563 29.0003 38.0357C29.0003 31.9606 33.9252 27.0357 40.0003 27.0357C46.0754 27.0357 51.0003 31.9606 51.0003 38.0357C51.0003 38.2563 50.9799 38.4719 50.9673 38.6894C52.1789 37.9735 53.6471 37.8381 54.9691 38.3203C56.2912 38.8022 57.3278 39.8511 57.7943 41.1785H58.8574C59.2913 41.1785 59.6431 40.8267 59.6431 40.3928V35.6785C59.6431 35.2446 59.2913 34.8928 58.8574 34.8928Z" fill="white"/>
</g>
<defs>
<linearGradient id="paint0_linear_739_6672" x1="0" y1="40" x2="80" y2="40" gradientUnits="userSpaceOnUse">
<stop stop-color="#0035E5"/>
<stop offset="0.7" stop-color="#298CFF"/>
</linearGradient>
<clipPath id="clip0_739_6672">
<rect width="44" height="44" fill="white" transform="translate(18 18)"/>
</clipPath>
</defs>
</svg>
