<svg width="80" height="80" viewBox="0 0 80 80" fill="none" xmlns="http://www.w3.org/2000/svg">
<rect width="80" height="80" rx="20" fill="url(#paint0_linear_739_5479)"/>
<path d="M53.5515 28.0575C56.7834 28.0575 59.4077 25.4229 59.4077 22.1971C59.1171 14.4336 47.9901 14.435 47.6953 22.1972C47.6953 25.4229 50.3281 28.0575 53.5515 28.0575Z" fill="white"/>
<path d="M63.1287 32.0938C62.0992 30.1854 60.5634 28.6739 58.7239 27.6859C56.0873 30.3968 51.015 30.3958 48.3785 27.6858C45.6546 29.2074 42.0994 32.7564 44.0665 36.1133C44.8091 37.3462 46.1086 38.0808 47.5431 38.0808H59.5593C62.5468 38.1795 64.6207 34.6717 63.1287 32.0938Z" fill="white"/>
<path d="M26.4285 28.0575C29.6603 28.0575 32.2847 25.4229 32.2847 22.1971C31.9941 14.4336 20.8671 14.435 20.5723 22.1972C20.5723 25.4229 23.205 28.0575 26.4285 28.0575Z" fill="white"/>
<path d="M35.9128 36.1133C37.877 32.7552 34.3315 29.2089 31.6009 27.6859C28.9642 30.3968 23.8919 30.3958 21.2555 27.6858C18.5315 29.2074 14.9763 32.7564 16.9434 36.1133C17.6861 37.3462 18.9856 38.0808 20.4201 38.0808H32.4363C33.8792 38.0808 35.1787 37.3462 35.9128 36.1133Z" fill="white"/>
<path d="M34.1348 47.7392C34.1348 50.9649 36.7675 53.5995 39.991 53.5995C47.7498 53.3033 47.747 42.1685 39.9909 41.8789C36.7675 41.8789 34.1348 44.5051 34.1348 47.7392Z" fill="white"/>
<path d="M45.164 53.2282C42.5274 55.939 37.4551 55.938 34.8186 53.228C32.9875 54.2161 31.4433 55.7276 30.4138 57.636C28.9189 60.2134 31.0058 63.7214 33.9833 63.623L45.9994 63.623C48.9869 63.7217 51.0608 60.2139 49.5687 57.636C48.5393 55.7276 47.0036 54.2161 45.164 53.2282Z" fill="white"/>
<path d="M35.9653 29.0791C38.5728 28.3276 41.3996 28.3276 44.0071 29.0791C44.429 28.5977 44.8762 28.1502 45.3572 27.7364C41.9144 26.5205 38.0581 26.5289 34.6152 27.7364C35.1047 28.1418 35.5519 28.5893 35.9653 29.0791Z" fill="white"/>
<path d="M25.6466 42.8348C25.6466 41.7961 25.7563 40.7659 25.9757 39.7695H24.2543C24.0602 40.7744 23.959 41.7961 23.959 42.8348C23.959 47.7155 26.1952 52.3008 29.9249 55.2901C30.254 54.834 30.6253 54.4118 31.0134 54.0065C27.655 51.3213 25.6466 47.2174 25.6466 42.8348Z" fill="white"/>
<path d="M54.0077 39.7695C54.2271 40.7659 54.3368 41.7961 54.3368 42.8348C54.3368 47.2174 52.3285 51.3128 48.9785 54.0065C49.3666 54.4118 49.7295 54.834 50.067 55.2901C53.7968 52.2923 56.0245 47.7155 56.0245 42.8348C56.0245 41.7961 55.9232 40.7744 55.7292 39.7695H54.0077Z" fill="white"/>
<defs>
<linearGradient id="paint0_linear_739_5479" x1="0" y1="40" x2="80" y2="40" gradientUnits="userSpaceOnUse">
<stop stop-color="#0035E5"/>
<stop offset="0.7" stop-color="#298CFF"/>
</linearGradient>
</defs>
</svg>
