<svg width="80" height="80" viewBox="0 0 80 80" fill="none" xmlns="http://www.w3.org/2000/svg">
<rect width="80" height="80" rx="20" fill="url(#paint0_linear_739_4821)"/>
<g clip-path="url(#clip0_739_4821)">
<path d="M34.7578 25.7344C29.782 25.7344 25.7344 29.782 25.7344 34.7578C25.7344 39.7336 29.782 43.7812 34.7578 43.7812C39.7336 43.7812 43.7812 39.7336 43.7812 34.7578C43.7812 29.782 39.7336 25.7344 34.7578 25.7344ZM40.8259 33.0915L34.3805 39.5368C33.88 40.0374 33.0624 40.0423 32.557 39.5368L28.6898 35.6696C28.187 35.166 28.187 34.3496 28.6898 33.846C29.1934 33.3433 30.0098 33.3433 30.5134 33.846L33.4688 36.8023L39.0023 31.2679C39.5059 30.7652 40.3223 30.7652 40.8259 31.2679C41.3286 31.7715 41.3286 32.5879 40.8259 33.0915Z" fill="white"/>
<path d="M34.7581 18C43.9981 18 51.5159 25.5178 51.5159 34.7578C51.5159 38.9146 49.9939 42.7233 47.4785 45.6546C47.4784 45.6547 47.4784 45.6548 47.4783 45.655L49.6013 47.7781L50.513 46.8663C51.0157 46.3628 51.833 46.3636 52.3357 46.8663L61.6229 56.1536C62.1257 56.6572 62.1257 57.4727 61.6229 57.9763L57.9766 61.6226C57.473 62.1262 56.6566 62.1254 56.1539 61.6226L46.8667 52.3354C46.3631 51.8318 46.3631 51.0163 46.8667 50.5127L47.7784 49.601L45.6553 47.4779C45.6552 47.478 45.6551 47.4781 45.6549 47.4781C42.7236 49.9935 38.9149 51.5155 34.7581 51.5155C25.5181 51.5155 18.0003 43.9977 18.0003 34.7577C18.0003 25.5177 25.5181 18 34.7581 18ZM34.7581 46.3593C41.1553 46.3593 46.3596 41.155 46.3596 34.7578C46.3596 28.3606 41.1553 23.1562 34.7581 23.1562C28.3609 23.1562 23.1565 28.3606 23.1565 34.7578C23.1565 41.155 28.3609 46.3593 34.7581 46.3593Z" fill="white"/>
</g>
<defs>
<linearGradient id="paint0_linear_739_4821" x1="0" y1="40" x2="80" y2="40" gradientUnits="userSpaceOnUse">
<stop stop-color="#0035E5"/>
<stop offset="0.7" stop-color="#298CFF"/>
</linearGradient>
<clipPath id="clip0_739_4821">
<rect width="44" height="44" fill="white" transform="matrix(-1 0 0 1 62 18)"/>
</clipPath>
</defs>
</svg>
