<svg width="80" height="80" viewBox="0 0 80 80" fill="none" xmlns="http://www.w3.org/2000/svg">
<rect width="80" height="80" rx="20" fill="url(#paint0_linear_739_4808)"/>
<path d="M50.7813 40.9688C49.0383 40.9688 47.3345 41.4856 45.8853 42.4539C44.4361 43.4223 43.3066 44.7986 42.6396 46.4089C41.9726 48.0191 41.7981 49.791 42.1381 51.5005C42.4781 53.2099 43.3174 54.7802 44.5499 56.0126C45.7823 57.2451 47.3526 58.0844 49.062 58.4244C50.7715 58.7645 52.5434 58.5899 54.1537 57.9229C55.7639 57.2559 57.1402 56.1264 58.1086 54.6772C59.0769 53.228 59.5938 51.5242 59.5938 49.7812C59.5914 47.4447 58.6622 45.2046 57.0101 43.5524C55.3579 41.9003 53.1178 40.9711 50.7813 40.9688ZM55.0406 51.9065C54.9545 52.0792 54.8351 52.2332 54.6894 52.3598C54.5437 52.4863 54.3745 52.5829 54.1915 52.644C54.0084 52.7051 53.8151 52.7295 53.6226 52.7159C53.4301 52.7023 53.2422 52.6508 53.0696 52.5645L50.1321 51.0958C49.8865 50.9748 49.6797 50.7876 49.5349 50.5553C49.3901 50.3231 49.3131 50.055 49.3125 49.7812V45.375C49.3125 44.9855 49.4672 44.6119 49.7427 44.3364C50.0181 44.061 50.3917 43.9062 50.7813 43.9062C51.1708 43.9062 51.5444 44.061 51.8198 44.3364C52.0953 44.6119 52.25 44.9855 52.25 45.375V48.8736L54.3753 49.9355C54.5486 50.021 54.7033 50.1398 54.8306 50.2853C54.9579 50.4307 55.0553 50.5998 55.1171 50.7829C55.1789 50.966 55.2039 51.1595 55.1908 51.3523C55.1777 51.5451 55.1267 51.7335 55.0406 51.9065Z" fill="white"/>
<path d="M56.6562 26.2812C56.6562 25.1126 56.192 23.9919 55.3657 23.1656C54.5394 22.3392 53.4186 21.875 52.25 21.875H47.8438V20.4062C47.8438 20.0167 47.689 19.6431 47.4136 19.3677C47.1381 19.0922 46.7645 18.9375 46.375 18.9375C45.9855 18.9375 45.6119 19.0922 45.3364 19.3677C45.061 19.6431 44.9062 20.0167 44.9062 20.4062V21.875H31.6875V20.4062C31.6875 20.0167 31.5328 19.6431 31.2573 19.3677C30.9819 19.0922 30.6083 18.9375 30.2188 18.9375C29.8292 18.9375 29.4556 19.0922 29.1802 19.3677C28.9047 19.6431 28.75 20.0167 28.75 20.4062V21.875H24.3438C23.1751 21.875 22.0544 22.3392 21.2281 23.1656C20.4017 23.9919 19.9375 25.1126 19.9375 26.2812V30.6875H56.6562V26.2812Z" fill="white"/>
<path d="M50.7812 38.0312C52.8458 38.0283 54.8737 38.5759 56.6562 39.6175V33.625H19.9375V51.25C19.941 52.4175 20.4063 53.5363 21.2319 54.3618C22.0575 55.1874 23.1762 55.6528 24.3438 55.6562H40.6175C39.5759 53.8738 39.0283 51.8458 39.0312 49.7812C39.0355 46.6663 40.2748 43.6801 42.4775 41.4775C44.6801 39.2748 47.6663 38.0355 50.7812 38.0312ZM28.75 49.7812H25.8125C25.423 49.7812 25.0494 49.6265 24.7739 49.3511C24.4985 49.0756 24.3438 48.702 24.3438 48.3125C24.3438 47.923 24.4985 47.5494 24.7739 47.2739C25.0494 46.9985 25.423 46.8438 25.8125 46.8438H28.75C29.1395 46.8438 29.5131 46.9985 29.7886 47.2739C30.064 47.5494 30.2188 47.923 30.2188 48.3125C30.2188 48.702 30.064 49.0756 29.7886 49.3511C29.5131 49.6265 29.1395 49.7812 28.75 49.7812ZM28.75 42.4375H25.8125C25.423 42.4375 25.0494 42.2828 24.7739 42.0073C24.4985 41.7319 24.3438 41.3583 24.3438 40.9688C24.3438 40.5792 24.4985 40.2056 24.7739 39.9302C25.0494 39.6547 25.423 39.5 25.8125 39.5H28.75C29.1395 39.5 29.5131 39.6547 29.7886 39.9302C30.064 40.2056 30.2188 40.5792 30.2188 40.9688C30.2188 41.3583 30.064 41.7319 29.7886 42.0073C29.5131 42.2828 29.1395 42.4375 28.75 42.4375ZM37.5625 42.4375H34.625C34.2355 42.4375 33.8619 42.2828 33.5864 42.0073C33.311 41.7319 33.1562 41.3583 33.1562 40.9688C33.1562 40.5792 33.311 40.2056 33.5864 39.9302C33.8619 39.6547 34.2355 39.5 34.625 39.5H37.5625C37.952 39.5 38.3256 39.6547 38.6011 39.9302C38.8765 40.2056 39.0312 40.5792 39.0312 40.9688C39.0312 41.3583 38.8765 41.7319 38.6011 42.0073C38.3256 42.2828 37.952 42.4375 37.5625 42.4375Z" fill="white"/>
<defs>
<linearGradient id="paint0_linear_739_4808" x1="0" y1="40" x2="80" y2="40" gradientUnits="userSpaceOnUse">
<stop stop-color="#0035E5"/>
<stop offset="0.7" stop-color="#298CFF"/>
</linearGradient>
</defs>
</svg>
