<svg width="80" height="80" viewBox="0 0 80 80" fill="none" xmlns="http://www.w3.org/2000/svg">
<rect width="80" height="80" rx="20" fill="url(#paint0_linear_173_1984)"/>
<g clip-path="url(#clip0_173_1984)">
<path d="M35.3125 60C38.7689 60 41.445 59.6692 43.5916 58.9929C43.5461 58.7488 43.5156 58.4991 43.5156 58.2422C43.5156 57.0941 43.9929 56.0577 44.7559 55.3125C43.9929 54.5673 43.5156 53.5309 43.5156 52.3828C43.5156 51.2347 43.9929 50.1984 44.7559 49.4531C43.9929 48.7079 43.5156 47.6715 43.5156 46.5234C43.5156 45.3754 43.9929 44.339 44.7559 43.5938C43.9929 42.8485 43.5156 41.8121 43.5156 40.6641C43.5156 39.3079 44.1852 38.1125 45.2029 37.3654C44.5059 36.7273 43.7613 36.1554 42.98 35.6522C43.2974 35.2524 43.5156 34.7687 43.5156 34.2188C43.5156 32.9242 42.4664 31.875 41.1719 31.875H29.4531C28.1586 31.875 27.1094 32.9242 27.1094 34.2188C27.1094 34.7675 27.327 35.2496 27.6425 35.6488C23.093 38.5797 20 43.887 20 49.4531C20 58.9072 28.7723 60 35.3125 60ZM35.3 48.6246C33.3612 48.6246 31.7844 47.0477 31.7844 45.1089C31.7844 43.5785 32.7731 42.2873 34.1406 41.8054V40.0781C34.1406 39.4305 34.6649 38.9062 35.3125 38.9062C35.9601 38.9062 36.4844 39.4305 36.4844 40.0781V41.8134C37.8391 42.3019 38.8156 43.588 38.8156 45.1089C38.8156 45.7568 38.2913 46.2808 37.6437 46.2808C36.9958 46.2808 36.4719 45.7568 36.4719 45.1089C36.4719 44.4623 35.9464 43.9371 35.3 43.9371C34.6533 43.9371 34.1281 44.4623 34.1281 45.1089C34.1281 45.7556 34.6533 46.2808 35.3 46.2808C37.2385 46.2808 38.8156 47.858 38.8156 49.7964C38.8156 51.3174 37.8391 52.6035 36.4844 53.0923V54.1406C36.4844 54.7882 35.9601 55.3125 35.3125 55.3125C34.6649 55.3125 34.1406 54.7882 34.1406 54.1406V53.1C32.7731 52.6184 31.7844 51.3269 31.7844 49.7964C31.7844 49.1489 32.3083 48.6246 32.9562 48.6246C33.6038 48.6246 34.1281 49.1489 34.1281 49.7964C34.1281 50.4431 34.6533 50.9683 35.3 50.9683C35.9464 50.9683 36.4719 50.4431 36.4719 49.7964C36.4719 49.1498 35.9464 48.6246 35.3 48.6246Z" fill="white"/>
<path d="M58.2422 56.4844H47.6172C46.6464 56.4844 45.8594 57.2714 45.8594 58.2422C45.8594 59.213 46.6464 60 47.6172 60H58.2422C59.213 60 60 59.213 60 58.2422C60 57.2714 59.213 56.4844 58.2422 56.4844Z" fill="white"/>
<path d="M58.2422 50.625H47.6172C46.6464 50.625 45.8594 51.412 45.8594 52.3828C45.8594 53.3536 46.6464 54.1406 47.6172 54.1406H58.2422C59.213 54.1406 60 53.3536 60 52.3828C60 51.412 59.213 50.625 58.2422 50.625Z" fill="white"/>
<path d="M58.2422 44.7656H47.6172C46.6464 44.7656 45.8594 45.5527 45.8594 46.5234C45.8594 47.4942 46.6464 48.2812 47.6172 48.2812H58.2422C59.213 48.2812 60 47.4942 60 46.5234C60 45.5527 59.213 44.7656 58.2422 44.7656Z" fill="white"/>
<path d="M58.2422 38.9062H47.6172C46.6464 38.9062 45.8594 39.6933 45.8594 40.6641C45.8594 41.6348 46.6464 42.4219 47.6172 42.4219H58.2422C59.213 42.4219 60 41.6348 60 40.6641C60 39.6933 59.213 38.9062 58.2422 38.9062Z" fill="white"/>
<path d="M38.6124 22.3438C38.1268 20.9827 36.8384 20 35.3125 20C33.7848 20 32.4814 20.9796 31.9971 22.3438H28.2813C27.9047 22.3438 27.551 22.5244 27.3303 22.8302C27.1106 23.1357 27.0499 23.5294 27.1701 23.8864L28.9997 29.5312H41.6257L43.4549 23.8864C43.5752 23.5294 43.5144 23.1357 43.2947 22.8302C43.0741 22.5244 42.7204 22.3438 42.3438 22.3438H38.6124Z" fill="white"/>
</g>
<defs>
<linearGradient id="paint0_linear_173_1984" x1="0" y1="40" x2="80" y2="40" gradientUnits="userSpaceOnUse">
<stop stop-color="#0035E5"/>
<stop offset="0.7" stop-color="#298CFF"/>
</linearGradient>
<clipPath id="clip0_173_1984">
<rect width="40" height="40" fill="white" transform="translate(20 20)"/>
</clipPath>
</defs>
</svg>
