<svg width="80" height="80" viewBox="0 0 80 80" fill="none" xmlns="http://www.w3.org/2000/svg">
<rect width="80" height="80" rx="20" fill="url(#paint0_linear_739_6685)"/>
<g clip-path="url(#clip0_739_6685)">
<path d="M24.1211 19.3769C23.9909 19.3889 23.8668 19.4378 23.7634 19.5179C23.66 19.5979 23.5816 19.7057 23.5373 19.8288C23.493 19.9519 23.4848 20.085 23.5135 20.2126C23.5422 20.3402 23.6067 20.4569 23.6995 20.5491L28.3132 25.1575V26.6547L26.6536 28.3144H25.1618L20.548 23.7006C20.4517 23.6049 20.3292 23.5398 20.196 23.5136C20.0627 23.4874 19.9247 23.5013 19.7993 23.5534C19.674 23.6055 19.5668 23.6937 19.4914 23.8066C19.4161 23.9195 19.3758 24.0522 19.3758 24.188V29.6894C19.3772 29.8705 19.4501 30.0437 19.5785 30.1714L23.0147 33.6116C23.0789 33.6751 23.155 33.7254 23.2386 33.7595C23.3222 33.7936 23.4118 33.8109 23.5021 33.8104H28.7147L34.6176 39.7132L39.7161 34.6161L33.8146 28.7146V23.4979C33.8131 23.3168 33.7403 23.1436 33.6118 23.0158L30.1757 19.5743C30.0458 19.4465 29.8705 19.3754 29.6882 19.3768H24.1869C24.165 19.3758 24.143 19.3758 24.1211 19.3769ZM57.7992 19.3769C57.7178 19.3873 57.6385 19.4107 57.5656 19.4481L50.6946 22.8829C50.4617 22.999 50.3137 23.2377 50.3132 23.4979V25.9645L34.7868 41.491L38.5076 45.2159L54.0341 29.6894H56.5007C56.761 29.6889 56.9982 29.5408 57.1144 29.308L60.5546 22.4317C60.6852 22.1669 60.6324 21.8477 60.423 21.6395L58.3632 19.5743C58.2153 19.4259 58.0073 19.3538 57.7992 19.3769ZM45.3853 40.2852L40.2868 45.3837L46.1869 51.2839V56.5005C46.1871 56.5912 46.2052 56.681 46.2403 56.7646C46.2753 56.8483 46.3265 56.9242 46.391 56.988L49.8258 60.4241C49.8897 60.4883 49.9657 60.5393 50.0493 60.5741C50.133 60.6088 50.2227 60.6268 50.3133 60.6268H55.8146C55.951 60.6268 56.0844 60.5861 56.1976 60.5101C56.3109 60.434 56.399 60.326 56.4507 60.1997C56.5024 60.0734 56.5153 59.9346 56.4879 59.801C56.4605 59.6673 56.3939 59.5449 56.2966 59.4492L51.6896 54.8408V53.349L53.3479 51.684H54.8411L59.4535 56.2978C59.5498 56.3935 59.6723 56.4586 59.8055 56.4848C59.9388 56.511 60.0768 56.4971 60.2022 56.445C60.3275 56.3928 60.4347 56.3047 60.5101 56.1918C60.5854 56.0788 60.6257 55.9461 60.6258 55.8103V50.3144C60.6257 50.2238 60.6078 50.134 60.573 50.0504C60.5382 49.9667 60.4872 49.8908 60.423 49.8269L56.9868 46.3854C56.857 46.2576 56.6816 46.1866 56.4994 46.188H51.2881L45.3853 40.2852ZM32.4289 41.3715C32.2496 41.3743 32.0786 41.4471 31.9522 41.5742L30.3744 43.152L36.8466 49.6214L38.423 48.045C38.5511 47.9162 38.6229 47.7419 38.6229 47.5603C38.6229 47.3786 38.5511 47.2044 38.423 47.0755L32.927 41.5742C32.8619 41.5087 32.7842 41.4569 32.6986 41.4221C32.613 41.3873 32.5212 41.3701 32.4289 41.3715ZM29.4036 44.1228L20.838 52.6897C18.9737 54.554 18.8641 57.5317 20.6648 59.3324C22.4655 61.1331 25.4446 61.0236 27.3089 59.1592L35.8731 50.595L29.4036 44.1228Z" fill="white"/>
</g>
<defs>
<linearGradient id="paint0_linear_739_6685" x1="0" y1="40" x2="80" y2="40" gradientUnits="userSpaceOnUse">
<stop stop-color="#0035E5"/>
<stop offset="0.7" stop-color="#298CFF"/>
</linearGradient>
<clipPath id="clip0_739_6685">
<rect width="44" height="44" fill="white" transform="translate(18 18)"/>
</clipPath>
</defs>
</svg>
