<svg width="80" height="80" viewBox="0 0 80 80" fill="none" xmlns="http://www.w3.org/2000/svg">
<rect width="80" height="80" rx="20" fill="url(#paint0_linear_173_2037)"/>
<path d="M47.343 21.3343H44.1236C43.7219 21.3219 43.3767 21.0457 43.2764 20.6566C42.9713 19.0717 41.5572 17.9451 39.9441 18.0021C38.3213 17.9736 36.9141 19.1185 36.6119 20.7132C36.5074 21.0915 36.1568 21.3486 35.7646 21.3344H32.6582V26.9825H47.343V21.3343Z" fill="white"/>
<path d="M56.3801 59.4018V27.0387C56.3836 25.7599 55.3495 24.7203 54.0706 24.7168C54.012 24.7167 53.9534 24.7188 53.895 24.723H49.0376V27.6035C49.0376 28.0554 48.7553 28.6767 48.3034 28.6767H31.6418C31.1899 28.6767 30.9641 28.0554 30.9641 27.6035V24.7231H26.1068C24.8314 24.6295 23.7214 25.5876 23.6279 26.8632C23.6236 26.9217 23.6215 26.9803 23.6217 27.0389V59.4019C23.5902 60.8052 24.7023 61.9684 26.1056 61.9999C26.106 61.9999 26.1065 61.9999 26.1069 61.9999H53.8951C55.2984 61.9691 56.411 60.8064 56.3802 59.4031C56.3801 59.4026 56.3801 59.4022 56.3801 59.4018ZM35.426 51.9464L31.0205 56.0695C30.8797 56.238 30.675 56.3403 30.4558 56.3519C30.2198 56.3426 29.9968 56.2412 29.8345 56.0695L27.5189 53.6973C27.2111 53.3527 27.2363 52.825 27.5753 52.5113C27.9047 52.1884 28.4319 52.1884 28.7613 52.5113L30.4557 54.3186L34.2964 50.7039C34.6815 50.4381 35.2091 50.5348 35.4748 50.9199C35.6917 51.234 35.6716 51.6543 35.426 51.9464ZM35.426 42.9096L31.0205 47.0327C30.8797 47.2012 30.675 47.3035 30.4558 47.3151C30.2198 47.3058 29.9968 47.2044 29.8345 47.0327L27.5189 44.6605C27.2111 44.3159 27.2363 43.7882 27.5753 43.4745C27.9047 43.1516 28.4319 43.1516 28.7613 43.4745L30.4557 45.2818L34.2964 41.667C34.6815 41.4013 35.2091 41.498 35.4748 41.883C35.6917 42.1972 35.6716 42.6175 35.426 42.9096ZM35.426 33.8728L31.0205 37.9959C30.8797 38.1644 30.675 38.2667 30.4558 38.2782C30.2198 38.2689 29.9968 38.1675 29.8345 37.9959L27.5189 35.6237C27.2111 35.279 27.2363 34.7514 27.5753 34.4376C27.9047 34.1147 28.4319 34.1147 28.7613 34.4376L30.4557 36.245L34.2964 32.6302C34.6815 32.3645 35.2091 32.4611 35.4748 32.8462C35.6917 33.1604 35.6716 33.5807 35.426 33.8728ZM51.8617 55.2223H38.8712C38.4033 55.2223 38.024 54.8429 38.024 54.375C38.024 53.9072 38.4033 53.5278 38.8712 53.5278H51.8616C52.3295 53.5278 52.7088 53.9072 52.7088 54.375C52.7088 54.8429 52.3296 55.2223 51.8617 55.2223ZM51.8617 46.1854H38.8712C38.4033 46.1854 38.024 45.8061 38.024 45.3382C38.024 44.8703 38.4033 44.491 38.8712 44.491H51.8616C52.3295 44.491 52.7088 44.8703 52.7088 45.3382C52.7088 45.8061 52.3296 46.1854 51.8617 46.1854ZM51.8617 37.1486H38.8712C38.4033 37.1486 38.024 36.7693 38.024 36.3014C38.024 35.8335 38.4033 35.4542 38.8712 35.4542H51.8616C52.3295 35.4542 52.7088 35.8335 52.7088 36.3014C52.7088 36.7694 52.3296 37.1486 51.8617 37.1486Z" fill="white"/>
<defs>
<linearGradient id="paint0_linear_173_2037" x1="0" y1="40" x2="80" y2="40" gradientUnits="userSpaceOnUse">
<stop stop-color="#0035E5"/>
<stop offset="0.7" stop-color="#298CFF"/>
</linearGradient>
</defs>
</svg>
