<svg width="80" height="80" viewBox="0 0 80 80" fill="none" xmlns="http://www.w3.org/2000/svg">
<rect width="80" height="80" rx="20" fill="url(#paint0_linear_739_4851)"/>
<g clip-path="url(#clip0_739_4851)">
<path d="M61.5357 48.1464L57.3667 43.9771L48.7424 52.6014C47.2029 54.1408 45.2706 55.1446 43.1719 55.5202L48.6668 61.0152C49.17 61.5187 49.9865 61.5187 50.4897 61.0152L61.5357 49.9695C62.0392 49.466 62.0392 48.6496 61.5357 48.1464Z" fill="white"/>
<path d="M55.6692 42.0293C57.1224 40.5764 57.1227 38.2121 55.6712 36.7582C55.6695 36.7565 55.6678 36.7549 55.6662 36.7532C55.307 36.3943 54.8874 36.1177 54.4305 35.9327C54.8266 34.9307 54.9102 33.2361 53.598 31.9236C53.5946 31.9202 53.5912 31.9165 53.5875 31.9131C53.23 31.558 52.8131 31.2841 52.3592 31.1001C52.7554 30.0987 52.8393 28.4038 51.5277 27.0919C51.5267 27.0909 51.5261 27.0902 51.5254 27.0896C51.1659 26.73 50.7459 26.4528 50.2884 26.2678C50.6845 25.2657 50.7681 23.5708 49.4558 22.2583C49.4555 22.2583 49.4555 22.2579 49.4552 22.2579C49.4548 22.2576 49.4545 22.2573 49.4542 22.2569C48.0003 20.803 45.635 20.803 44.1811 22.2569L41.7369 24.7008L42.9867 25.9506C45.0693 28.0332 45.0693 31.4217 42.987 33.5043C42.2861 34.2049 41.425 34.6863 40.4864 34.9156C40.2619 35.8307 39.7932 36.6981 39.0792 37.4118C38.3793 38.1117 37.5196 38.5928 36.582 38.8224C36.3527 39.7597 35.8713 40.6197 35.1717 41.3193C34.4718 42.0192 33.6121 42.5003 32.6745 42.7299C32.4452 43.6671 31.9638 44.5272 31.2643 45.2271C30.2555 46.2355 28.9141 46.7914 27.4874 46.7914C26.0607 46.7914 24.7192 46.2359 23.7105 45.2268L22.4607 43.977L18.2917 48.1463C17.7882 48.6498 17.7882 49.4659 18.2917 49.9694L29.3374 61.0151C29.8409 61.5186 30.657 61.5183 31.1605 61.0151L39.0675 53.1085H41.2951C43.4201 53.1085 45.4178 52.2807 46.9203 50.7785L55.6692 42.0293Z" fill="white"/>
<path d="M25.533 43.4039C26.6119 44.4832 28.3616 44.4832 29.4405 43.4039C30.5197 42.325 30.5197 40.5757 29.4405 39.4964C30.5197 40.5757 32.269 40.5757 33.3483 39.4964C34.4272 38.4175 34.4272 36.6679 33.3483 35.589C34.4272 36.6679 36.1768 36.6679 37.2558 35.589C38.3347 34.51 38.3347 32.7604 37.2558 31.6815C38.3347 32.7604 40.0843 32.7604 41.1632 31.6815C42.2425 30.6022 42.2425 28.8529 41.1632 27.7737L35.6538 22.2643C34.5749 21.1853 32.8253 21.1853 31.7464 22.2643C30.6674 23.3432 30.6674 25.0928 31.7464 26.1717L32.4365 26.8623C31.3576 25.783 29.608 25.783 28.5291 26.8623C27.4502 27.9412 27.4502 29.6908 28.5291 30.7697L29.9098 32.1504C28.8309 31.0715 27.0812 31.0715 26.0023 32.1504C24.9231 33.2294 24.9231 34.979 26.0023 36.0579L27.383 37.439C26.3038 36.3597 24.5545 36.3597 23.4752 37.439C22.3963 38.5179 22.3963 40.2672 23.4752 41.3464L25.533 43.4039Z" fill="white"/>
<path d="M42.3583 20.4337C42.549 20.2431 42.7508 20.0678 42.9606 19.905L42.2066 19.151C41.8145 18.7586 41.2146 18.6616 40.7188 18.9093L37.5371 20.5002L39.9145 22.8779L42.3583 20.4337Z" fill="white"/>
</g>
<defs>
<linearGradient id="paint0_linear_739_4851" x1="0" y1="40" x2="80" y2="40" gradientUnits="userSpaceOnUse">
<stop stop-color="#0035E5"/>
<stop offset="0.7" stop-color="#298CFF"/>
</linearGradient>
<clipPath id="clip0_739_4851">
<rect width="44" height="44" fill="white" transform="translate(18 18)"/>
</clipPath>
</defs>
</svg>
