<svg width="80" height="80" viewBox="0 0 80 80" fill="none" xmlns="http://www.w3.org/2000/svg">
<rect width="80" height="80" rx="20" fill="url(#paint0_linear_739_5449)"/>
<path fill-rule="evenodd" clip-rule="evenodd" d="M29.877 50.2863L29.8753 44.5404H33.8621L33.8638 50.2863H29.877ZM29.877 33.4154V27.671H33.8638V33.4154H29.877ZM27.9633 50.2855L22.5029 50.2847C16.2835 50.2847 11.1953 45.1965 11.1953 38.9771C11.1936 32.7592 16.2819 27.671 22.5014 27.671H27.9633V33.4154L22.5029 33.4171C19.4431 33.4171 16.9414 35.9188 16.9414 38.9787C16.9397 42.037 19.4431 44.5404 22.5029 44.5404H27.9616L27.9633 50.2855ZM35.9714 30.8163C35.4432 30.8163 35.0145 30.3875 35.0145 29.8595C35.0145 29.3313 35.4432 28.9026 35.9714 28.9026H44.3254C44.8534 28.9026 45.2822 29.3313 45.2822 29.8595C45.2822 30.3875 44.8534 30.8163 44.3254 30.8163H35.9714ZM36.7811 34.3372C36.253 34.3372 35.8242 33.9084 35.8242 33.3804C35.8242 32.8523 36.253 32.4235 36.7811 32.4235H41.9509C42.4791 32.4235 42.9078 32.8523 42.9078 33.3804C42.9078 33.9084 42.4791 34.3372 41.9509 34.3372H36.7811ZM35.9662 37.8582C35.4381 37.8554 35.0116 37.4243 35.0145 36.8962C35.0172 36.3682 35.4483 35.9416 35.9764 35.9445L40.8853 35.9705C41.4134 35.9733 41.8399 36.4043 41.837 36.9325C41.8343 37.4605 41.4032 37.8871 40.8752 37.8842L35.9662 37.8582ZM36.7811 41.6961C36.253 41.6961 35.8242 41.2673 35.8242 40.7392C35.8242 40.211 36.253 39.7824 36.7811 39.7824H40.8215C41.3495 39.7824 41.7783 40.211 41.7783 40.7392C41.7783 41.2673 41.3495 41.6961 40.8215 41.6961H36.7811ZM35.9714 45.534C35.4432 45.534 35.0145 45.1052 35.0145 44.5771C35.0145 44.0489 35.4432 43.6202 35.9714 43.6202H41.889C42.417 43.6202 42.8458 44.0489 42.8458 44.5771C42.8458 45.1052 42.417 45.534 41.889 45.534H35.9714ZM36.7811 49.0549C36.253 49.0549 35.8242 48.6261 35.8242 48.098C35.8242 47.5699 36.253 47.1411 36.7811 47.1411H44.3254C44.8534 47.1411 45.2822 47.5699 45.2822 48.098C45.2822 48.6261 44.8534 49.0549 44.3254 49.0549H36.7811ZM56.4595 25.6365C63.829 25.6365 69.8017 31.6092 69.8017 38.9787C69.8017 46.3482 63.829 52.321 56.4595 52.321C49.09 52.321 43.1172 46.3482 43.1172 38.9787C43.1172 31.6092 49.09 25.6365 56.4595 25.6365ZM64.4212 46.8824C66.4342 44.8547 67.6777 42.0621 67.6777 38.9787C67.6777 32.7823 62.6558 27.7605 56.4595 27.7605C50.2632 27.7605 45.2412 32.7823 45.2412 38.9787C45.2412 42.0621 46.4848 44.8547 48.4978 46.8824C49.7621 43.7236 52.851 41.4917 56.4595 41.4917C60.0679 41.4917 63.1568 43.7236 64.4212 46.8824ZM56.4595 40.1642C54.0734 40.1642 52.1226 38.2134 52.1226 35.8273C52.1226 33.4414 54.0734 31.4904 56.4595 31.4904C58.8455 31.4904 60.7963 33.4414 60.7963 35.8273C60.7963 38.2134 58.8455 40.1642 56.4595 40.1642Z" fill="white"/>
<defs>
<linearGradient id="paint0_linear_739_5449" x1="0" y1="40" x2="80" y2="40" gradientUnits="userSpaceOnUse">
<stop stop-color="#0035E5"/>
<stop offset="0.7" stop-color="#298CFF"/>
</linearGradient>
</defs>
</svg>
