<svg width="80" height="80" viewBox="0 0 80 80" fill="none" xmlns="http://www.w3.org/2000/svg">
<rect width="80" height="80" rx="20" fill="url(#paint0_linear_739_5458)"/>
<path d="M25.7773 37.1211V30.8477H24.8535C21.0745 30.8477 18 33.9221 18 37.7012V58.2188C18 58.7401 18.3141 59.2101 18.7958 59.4097C18.9553 59.4758 19.1228 59.5078 19.2888 59.5078C19.6243 59.5078 19.954 59.3769 20.2006 59.1302L25.0008 54.3301H44.791C48.5701 54.3301 51.6445 51.2557 51.6445 47.4766V46.5527H35.209C30.0083 46.5527 25.7773 42.3218 25.7773 37.1211Z" fill="white"/>
<path d="M55.1465 20.4922H35.209C31.43 20.4922 28.3555 23.5666 28.3555 27.3457V37.1211C28.3555 40.9002 31.43 43.9746 35.209 43.9746H54.9993L59.7994 48.7747C60.046 49.0214 60.3757 49.1524 60.7111 49.1523C60.8772 49.1523 61.0447 49.1203 61.2041 49.0542C61.6858 48.8547 61.9999 48.3847 61.9999 47.8633V27.3457C62 23.5666 58.9256 20.4922 55.1465 20.4922ZM37.4111 33.4258C36.6885 33.4258 36.1534 32.8351 36.1221 32.1367C36.0909 31.4405 36.7369 30.8477 37.4111 30.8477C38.1338 30.8477 38.6689 31.4383 38.7002 32.1367C38.7314 32.8329 38.0854 33.4258 37.4111 33.4258ZM45.1777 33.4258C44.4551 33.4258 43.92 32.8351 43.8887 32.1367C43.8575 31.4405 44.5035 30.8477 45.1777 30.8477C45.9004 30.8477 46.4355 31.4383 46.4668 32.1367C46.498 32.8329 45.852 33.4258 45.1777 33.4258ZM52.9443 33.4258C52.2217 33.4258 51.6866 32.8351 51.6553 32.1367C51.6241 31.4405 52.2701 30.8477 52.9443 30.8477C53.667 30.8477 54.2021 31.4383 54.2334 32.1367C54.2646 32.8329 53.6186 33.4258 52.9443 33.4258Z" fill="white"/>
<defs>
<linearGradient id="paint0_linear_739_5458" x1="0" y1="40" x2="80" y2="40" gradientUnits="userSpaceOnUse">
<stop stop-color="#0035E5"/>
<stop offset="0.7" stop-color="#298CFF"/>
</linearGradient>
</defs>
</svg>
