<svg width="80" height="80" viewBox="0 0 80 80" fill="none" xmlns="http://www.w3.org/2000/svg">
<rect width="80" height="80" rx="20" fill="url(#paint0_linear_739_4841)"/>
<g clip-path="url(#clip0_739_4841)">
<path d="M59.1452 18H31.1673C29.593 18 28.3125 19.2805 28.3125 20.8548V28.0358C28.3125 29.6102 29.593 30.8906 31.1673 30.8906H59.1452C60.7195 30.8906 62 29.6102 62 28.0358V20.8548C62 19.2805 60.7195 18 59.1452 18ZM34.7578 25.7344C34.0462 25.7344 33.4688 25.1569 33.4688 24.4453C33.4688 23.7337 34.0462 23.1562 34.7578 23.1562C35.4694 23.1562 36.0469 23.7337 36.0469 24.4453C36.0469 25.1569 35.4694 25.7344 34.7578 25.7344ZM55.5547 25.7344H39.9141C39.2025 25.7344 38.625 25.1569 38.625 24.4453C38.625 23.7337 39.2025 23.1562 39.9141 23.1562H55.5547C56.2663 23.1562 56.8438 23.7337 56.8438 24.4453C56.8438 25.1569 56.2663 25.7344 55.5547 25.7344Z" fill="white"/>
<path d="M59.1452 49.1094H31.1673C29.593 49.1094 28.3125 50.3898 28.3125 51.9642V59.1452C28.3125 60.7195 29.593 62 31.1673 62H59.1452C60.7195 62 62 60.7195 62 59.1452V51.9642C62 50.3898 60.7195 49.1094 59.1452 49.1094ZM34.7578 56.8438C34.0462 56.8438 33.4688 56.2663 33.4688 55.5547C33.4688 54.8431 34.0462 54.2656 34.7578 54.2656C35.4694 54.2656 36.0469 54.8431 36.0469 55.5547C36.0469 56.2663 35.4694 56.8438 34.7578 56.8438ZM55.5547 56.8438H39.9141C39.2025 56.8438 38.625 56.2663 38.625 55.5547C38.625 54.8431 39.2025 54.2656 39.9141 54.2656H55.5547C56.2663 54.2656 56.8438 54.8431 56.8438 55.5547C56.8438 56.2663 56.2663 56.8438 55.5547 56.8438Z" fill="white"/>
<path d="M19.2891 23.1529C19.6191 23.1529 19.9491 23.0269 20.2009 22.7751L20.573 22.4027V29.6876C20.573 30.3995 21.1501 30.9766 21.862 30.9766C22.5739 30.9766 23.1511 30.3995 23.1511 29.6876V22.4026L23.5233 22.775C24.0265 23.2784 24.8428 23.2787 25.3463 22.7756C25.8499 22.2724 25.8501 21.4561 25.3469 20.9526L22.7738 18.3779C22.2935 17.8792 21.4304 17.8793 20.9502 18.3779L18.3773 20.9526C17.874 21.4561 17.8743 22.2723 18.3779 22.7756C18.6296 23.0272 18.9593 23.1529 19.2891 23.1529Z" fill="white"/>
<path d="M59.7987 41.7133L59.4266 42.0857V34.8008C59.4266 34.0889 58.8494 33.5117 58.1375 33.5117C57.4256 33.5117 56.8484 34.0889 56.8484 34.8008V42.0857L56.4763 41.7133C55.9731 41.2099 55.1568 41.2097 54.6533 41.7127C54.1497 42.216 54.1494 43.0322 54.6527 43.5358L57.2256 46.1105C57.7083 46.6077 58.5626 46.6132 59.0492 46.1105L61.6222 43.5358C62.1254 43.0322 62.1252 42.2161 61.6216 41.7127C61.1182 41.2094 60.3019 41.2098 59.7987 41.7133Z" fill="white"/>
<path d="M48.8327 46.4436C50.407 46.4436 51.6875 45.1631 51.6875 43.5888V36.4078C51.6875 34.8334 50.407 33.553 48.8327 33.553H20.8548C19.2805 33.553 18 34.8334 18 36.4078V43.5888C18 45.1631 19.2805 46.4436 20.8548 46.4436H48.8327ZM24.4453 41.2874C23.7337 41.2874 23.1562 40.7107 23.1562 39.9983C23.1562 39.2867 23.7337 38.7092 24.4453 38.7092C25.1569 38.7092 25.7344 39.2867 25.7344 39.9983C25.7344 40.7107 25.1569 41.2874 24.4453 41.2874ZM29.6016 41.2874C28.89 41.2874 28.3125 40.7099 28.3125 39.9983C28.3125 39.2867 28.89 38.7092 29.6016 38.7092H45.2422C45.9538 38.7092 46.5312 39.2867 46.5312 39.9983C46.5312 40.7099 45.9538 41.2874 45.2422 41.2874H29.6016Z" fill="white"/>
</g>
<defs>
<linearGradient id="paint0_linear_739_4841" x1="0" y1="40" x2="80" y2="40" gradientUnits="userSpaceOnUse">
<stop stop-color="#0035E5"/>
<stop offset="0.7" stop-color="#298CFF"/>
</linearGradient>
<clipPath id="clip0_739_4841">
<rect width="44" height="44" fill="white" transform="translate(18 18)"/>
</clipPath>
</defs>
</svg>
