<svg width="80" height="80" viewBox="0 0 80 80" fill="none" xmlns="http://www.w3.org/2000/svg">
<rect width="80" height="80" rx="20" fill="url(#paint0_linear_173_1997)"/>
<path d="M52.8329 19.8333H27.1663C26.727 19.8383 26.3041 20.001 25.9746 20.2916C27.282 20.7516 28.4323 21.5726 29.2922 22.6596C30.1521 23.7466 30.6863 25.0551 30.8329 26.4333C30.861 26.6769 30.861 26.9229 30.8329 27.1666V58.3332C30.8321 58.6839 30.9318 59.0275 31.1203 59.3232C31.3087 59.6189 31.578 59.8543 31.8963 60.0016C32.2153 60.1484 32.5697 60.2006 32.9174 60.1518C33.2652 60.1031 33.5916 59.9555 33.8579 59.7266L39.0829 55.2533L44.3079 59.7266C44.64 60.0106 45.0626 60.1667 45.4996 60.1667C45.9366 60.1667 46.3592 60.0106 46.6913 59.7266L51.9163 55.2533L57.1413 59.7266C57.4734 60.0106 57.896 60.1666 58.3329 60.1666C58.5982 60.1647 58.8602 60.1086 59.1029 60.0016C59.4212 59.8543 59.6905 59.6189 59.879 59.3232C60.0674 59.0275 60.1671 58.6839 60.1663 58.3332V27.1666C60.1663 25.2217 59.3937 23.3564 58.0184 21.9811C56.6431 20.6059 54.7779 19.8333 52.8329 19.8333ZM50.9996 45.4999H39.9996C39.5134 45.4999 39.0471 45.3068 38.7032 44.9629C38.3594 44.6191 38.1663 44.1528 38.1663 43.6666C38.1663 43.1804 38.3594 42.714 38.7032 42.3702C39.0471 42.0264 39.5134 41.8333 39.9996 41.8333H50.9996C51.4858 41.8333 51.9522 42.0264 52.296 42.3702C52.6398 42.714 52.8329 43.1804 52.8329 43.6666C52.8329 44.1528 52.6398 44.6191 52.296 44.9629C51.9522 45.3068 51.4858 45.4999 50.9996 45.4999ZM50.9996 38.1666H39.9996C39.5134 38.1666 39.0471 37.9734 38.7032 37.6296C38.3594 37.2858 38.1663 36.8195 38.1663 36.3333C38.1663 35.847 38.3594 35.3807 38.7032 35.0369C39.0471 34.6931 39.5134 34.4999 39.9996 34.4999H50.9996C51.4858 34.4999 51.9522 34.6931 52.296 35.0369C52.6398 35.3807 52.8329 35.847 52.8329 36.3333C52.8329 36.8195 52.6398 37.2858 52.296 37.6296C51.9522 37.9734 51.4858 38.1666 50.9996 38.1666ZM50.9996 30.8333H39.9996C39.5134 30.8333 39.0471 30.6401 38.7032 30.2963C38.3594 29.9525 38.1663 29.4861 38.1663 28.9999C38.1663 28.5137 38.3594 28.0474 38.7032 27.7036C39.0471 27.3597 39.5134 27.1666 39.9996 27.1666H50.9996C51.4858 27.1666 51.9522 27.3597 52.296 27.7036C52.6398 28.0474 52.8329 28.5137 52.8329 28.9999C52.8329 29.4861 52.6398 29.9525 52.296 30.2963C51.9522 30.6401 51.4858 30.8333 50.9996 30.8333Z" fill="white"/>
<path d="M27.1673 41.8335V27.1669C27.2646 26.1944 26.9715 25.2231 26.3526 24.4667C25.7338 23.7104 24.8398 23.2308 23.8673 23.1335C22.8949 23.0363 21.9236 23.3293 21.1672 23.9482C20.4108 24.5671 19.9312 25.4611 19.834 26.4335V27.1669V40.0002C19.834 40.4864 20.0271 40.9527 20.371 41.2966C20.7148 41.6404 21.1811 41.8335 21.6673 41.8335H27.1673Z" fill="white"/>
<defs>
<linearGradient id="paint0_linear_173_1997" x1="0" y1="40" x2="80" y2="40" gradientUnits="userSpaceOnUse">
<stop stop-color="#0035E5"/>
<stop offset="0.7" stop-color="#298CFF"/>
</linearGradient>
</defs>
</svg>
