<svg width="80" height="80" viewBox="0 0 80 80" fill="none" xmlns="http://www.w3.org/2000/svg">
<rect width="80" height="80" rx="20" fill="url(#paint0_linear_739_6694)"/>
<path d="M48.2647 23.3884L31.043 31.021L38.9592 34.5296L56.1808 26.8968L48.2647 23.3884Z" fill="white"/>
<path d="M28.4706 29.8818L45.6925 22.2492L39.8016 19.6386C39.5357 19.5208 39.2482 19.46 38.9574 19.46C38.6667 19.46 38.3791 19.5208 38.1133 19.6386L21.7363 26.8971L28.4706 29.8818Z" fill="white"/>
<path d="M37.9174 36.3467L20.209 28.498V48.9869C20.209 49.3902 20.3262 49.7848 20.5462 50.1229C20.7661 50.4609 21.0795 50.7278 21.4482 50.8912L37.9173 58.1902L37.9174 36.3467Z" fill="white"/>
<path d="M40 50.4167V58.1907L42.2319 57.2014C40.7801 55.2375 39.9977 52.8591 40 50.4167Z" fill="white"/>
<path d="M51.4583 38.9583C53.6786 38.9564 55.851 39.6036 57.7083 40.8203V28.498L40 36.3467V50.4167C40.0034 47.3788 41.2117 44.4663 43.3598 42.3182C45.5079 40.1701 48.4204 38.9617 51.4583 38.9583Z" fill="white"/>
<path d="M51.459 41.0417C49.6048 41.0417 47.7922 41.5916 46.2505 42.6217C44.7088 43.6519 43.5072 45.116 42.7976 46.8291C42.088 48.5421 41.9024 50.4271 42.2641 52.2457C42.6259 54.0643 43.5187 55.7348 44.8299 57.0459C46.141 58.357 47.8114 59.2499 49.63 59.6116C51.4486 59.9733 53.3336 59.7877 55.0466 59.0781C56.7597 58.3685 58.2239 57.1669 59.254 55.6252C60.2842 54.0835 60.834 52.2709 60.834 50.4167C60.834 47.9303 59.8463 45.5458 58.0881 43.7876C56.33 42.0295 53.9454 41.0417 51.459 41.0417ZM56.3621 49.0699L51.1538 54.2782C51.0571 54.3749 50.9423 54.4517 50.8159 54.504C50.6896 54.5564 50.5541 54.5833 50.4173 54.5833C50.2806 54.5833 50.1451 54.5564 50.0187 54.504C49.8924 54.4517 49.7776 54.3749 49.6809 54.2782L47.0767 51.674C46.885 51.4779 46.7785 51.2142 46.78 50.94C46.7816 50.6658 46.8912 50.4033 47.0851 50.2095C47.279 50.0156 47.5415 49.906 47.8156 49.9044C48.0898 49.9028 48.3535 50.0094 48.5496 50.201L50.4173 52.0684L54.8892 47.5968C54.9855 47.4983 55.1004 47.4198 55.2272 47.366C55.3541 47.3121 55.4903 47.284 55.6281 47.2832C55.7659 47.2824 55.9025 47.309 56.03 47.3614C56.1574 47.4137 56.2732 47.4909 56.3707 47.5883C56.4681 47.6857 56.5452 47.8015 56.5976 47.929C56.65 48.0564 56.6765 48.193 56.6757 48.3308C56.6749 48.4686 56.6468 48.6049 56.593 48.7317C56.5391 48.8586 56.4607 48.9735 56.3621 49.0698V49.0699Z" fill="white"/>
<defs>
<linearGradient id="paint0_linear_739_6694" x1="0" y1="40" x2="80" y2="40" gradientUnits="userSpaceOnUse">
<stop stop-color="#0035E5"/>
<stop offset="0.7" stop-color="#298CFF"/>
</linearGradient>
</defs>
</svg>
