<svg width="80" height="80" viewBox="0 0 80 80" fill="none" xmlns="http://www.w3.org/2000/svg">
<rect width="80" height="80" rx="20" fill="url(#paint0_linear_739_4863)"/>
<path fill-rule="evenodd" clip-rule="evenodd" d="M49.7759 45.2182L54.4185 53.2596L56.0041 51.6741L54.5037 48.2958C55.7686 46.4117 56.6766 44.2681 57.1297 41.961L60.577 40.634V36.5212L57.1306 35.1947C56.6773 32.8872 55.7696 30.7427 54.5042 28.8585L56.0041 25.4812L53.0959 22.5731L49.7176 24.0735C47.8335 22.8086 45.6899 21.9006 43.3828 21.4475L42.0557 18H37.943L36.6161 21.4473C34.3089 21.9004 32.1653 22.8085 30.2812 24.0733L26.903 22.5729L23.9948 25.4811L25.495 28.8591C24.2299 30.7432 23.322 32.8871 22.8689 35.1944L19.4219 36.5212V40.634L22.8684 41.9606C23.3217 44.268 24.2294 46.4126 25.4947 48.2968L23.9948 51.6741L25.5803 53.2596L30.223 45.2182C28.9348 43.3255 28.1817 41.0396 28.1817 38.5776C28.1817 32.0509 33.4727 26.7598 39.9994 26.7598C46.5261 26.7598 51.8172 32.0509 51.8172 38.5776C51.8172 41.0396 51.0641 43.3255 49.7759 45.2182ZM42.6455 37.3425L54.2354 57.4169C54.7887 58.3752 54.7887 59.514 54.2354 60.4723C53.6821 61.4306 52.6959 62 51.5894 62H28.4095C27.3029 62 26.3167 61.4305 25.7635 60.4723C25.2102 59.5141 25.2102 58.3752 25.7635 57.4169L37.3534 37.3425C37.9067 36.3843 38.8929 35.8148 39.9994 35.8148C41.1059 35.8148 42.0922 36.3843 42.6455 37.3425ZM39.9994 55.9937C39.1579 55.9937 38.4755 56.676 38.4755 57.5177C38.4755 58.3593 39.1578 59.0416 39.9994 59.0416C40.8411 59.0416 41.5234 58.3593 41.5234 57.5177C41.5234 56.676 40.841 55.9937 39.9994 55.9937ZM39.9995 53.2735C39.3594 53.2735 38.8338 52.7666 38.8107 52.1269L38.51 43.8002C38.4979 43.4653 38.6099 43.1726 38.8425 42.9314C39.0752 42.6902 39.3636 42.5677 39.6987 42.5677H40.3C40.6352 42.5677 40.9236 42.6903 41.1562 42.9314C41.3889 43.1726 41.5009 43.4653 41.4888 43.8002L41.1881 52.1269C41.1651 52.7665 40.6396 53.2735 39.9995 53.2735Z" fill="white"/>
<defs>
<linearGradient id="paint0_linear_739_4863" x1="0" y1="40" x2="80" y2="40" gradientUnits="userSpaceOnUse">
<stop stop-color="#0035E5"/>
<stop offset="0.7" stop-color="#298CFF"/>
</linearGradient>
</defs>
</svg>
