<svg width="80" height="80" viewBox="0 0 80 80" fill="none" xmlns="http://www.w3.org/2000/svg">
<rect width="80" height="80" rx="20" fill="url(#paint0_linear_173_2017)"/>
<g clip-path="url(#clip0_173_2017)">
<path d="M53.8815 40.0676C53.8815 32.607 47.6542 26.5376 40.0008 26.5376C32.3464 26.5376 26.1191 32.607 26.1191 40.0676C26.1191 47.5283 32.3463 53.5986 40.0008 53.5986C47.6542 53.5986 53.8815 47.5283 53.8815 40.0676ZM38.7086 48.0169V46.7124C37.7818 46.7124 36.8627 46.6352 35.76 45.8688C35.1734 45.4613 35.0287 44.6557 35.4362 44.0698C35.8436 43.4839 36.6482 43.3383 37.2348 43.7458C37.5837 43.9888 37.9835 44.1241 38.3599 44.1276H41.4678C41.4747 44.1276 41.4808 44.1284 41.4877 44.1284C42.2396 44.1284 42.8659 43.5173 42.8659 42.7438C42.8659 41.9812 42.2474 41.3601 41.4877 41.3601H38.5141C36.3287 41.3601 34.5508 39.5799 34.5508 37.3915C34.5508 35.3829 36.072 33.4229 38.7088 33.4229V32.1193C38.7088 31.4058 39.2868 30.8269 40.001 30.8269C40.7142 30.8269 41.2931 31.4058 41.2931 32.1193V33.4229C42.685 33.4229 43.8714 33.9977 44.7146 34.8997C45.2022 35.4209 45.1746 36.2386 44.6534 36.7263C44.1323 37.214 43.3148 37.1863 42.8273 36.6651C42.4414 36.2523 41.9151 36.0129 41.3819 36.0077H38.5134C37.754 36.0077 37.1352 36.6263 37.1352 37.3915C37.1352 38.1548 37.7537 38.7752 38.5143 38.7752H41.4878C43.6724 38.7752 45.4503 40.5561 45.4503 42.7438C45.4503 44.7746 43.9071 46.7124 41.2931 46.7124V48.0169C41.2931 48.7302 40.7142 49.3092 40.001 49.3092C39.2866 49.3092 38.7086 48.7302 38.7086 48.0169Z" fill="white"/>
<path d="M28.0558 55.7118L27.3532 50.7471C27.2532 50.0404 26.5986 49.5472 25.8926 49.6486C25.1859 49.7485 24.6941 50.4025 24.7941 51.1092L24.9515 52.221C23.6098 50.5652 22.5414 48.6876 21.8013 46.664C16.5626 32.3407 29.2143 17.8951 43.9651 21.0417C44.663 21.1902 45.3497 20.7455 45.4987 20.0474C45.6477 19.3494 45.2025 18.6628 44.5045 18.5139C27.8478 14.9601 13.4003 31.2196 19.374 47.5518C20.2109 49.8402 21.4185 51.9646 22.9355 53.839L21.6868 53.5992C20.9856 53.4647 20.3084 53.9235 20.1738 54.6244C20.0391 55.3254 20.4982 56.0027 21.199 56.1374L26.4221 57.1408C27.3455 57.4015 28.1833 56.6112 28.0558 55.7118Z" fill="white"/>
<path d="M60.626 32.4482C59.7891 30.1598 58.5815 28.0354 57.0645 26.161L58.3133 26.4009C59.0138 26.5353 59.6916 26.0765 59.8263 25.3756C59.961 24.6746 59.5019 23.9973 58.801 23.8626L53.5769 22.859C52.6482 22.5976 51.8176 23.3945 51.9443 24.2882L52.6469 29.253C52.7472 29.9618 53.4037 30.4518 54.1075 30.3514C54.8142 30.2515 55.306 29.5975 55.2059 28.8908L55.0486 27.779C56.3903 29.4348 57.4587 31.3124 58.1987 33.336C63.4372 47.6585 50.7872 62.1058 36.0349 58.9584C35.3372 58.8095 34.6503 59.2546 34.5014 59.9526C34.3524 60.6506 34.7976 61.3372 35.4956 61.4862C52.152 65.0401 66.5997 48.7806 60.626 32.4482Z" fill="white"/>
</g>
<defs>
<linearGradient id="paint0_linear_173_2017" x1="0" y1="40" x2="80" y2="40" gradientUnits="userSpaceOnUse">
<stop stop-color="#0035E5"/>
<stop offset="0.7" stop-color="#298CFF"/>
</linearGradient>
<clipPath id="clip0_173_2017">
<rect width="44" height="44" fill="white" transform="translate(18 18)"/>
</clipPath>
</defs>
</svg>
