<svg width="80" height="80" viewBox="0 0 80 80" fill="none" xmlns="http://www.w3.org/2000/svg">
<rect width="80" height="80" rx="20" fill="url(#paint0_linear_739_6727)"/>
<path d="M46.2507 36.3542C39.6444 36.3542 34.2715 41.7292 34.2715 48.3333C34.2715 54.9375 39.6444 60.3125 46.2507 60.3125C52.8569 60.3125 58.2298 54.9375 58.2298 48.3333C58.2298 41.7292 52.8569 36.3542 46.2507 36.3542ZM50.3236 49.8958H46.2507C45.3881 49.8958 44.6882 49.1958 44.6882 48.3333V44.0938C44.6882 43.2312 45.3881 42.5312 46.2507 42.5312C47.1131 42.5312 47.8132 43.2312 47.8132 44.0938V46.7708H50.3236C51.1861 46.7708 51.8861 47.4708 51.8861 48.3333C51.8861 49.1958 51.1861 49.8958 50.3236 49.8958ZM48.334 19.6875H27.5007C24.334 19.6875 21.7715 22.25 21.7715 25.4167V52.5C21.7715 55.6667 24.334 58.2292 27.5007 58.2292H34.8757C32.5423 55.5833 31.1465 52.125 31.1465 48.3333C31.1465 40 37.9173 33.2292 46.2507 33.2292C49.1257 33.2292 51.7923 34.0208 54.0631 35.4375V25.4167C54.0631 22.25 51.5007 19.6875 48.334 19.6875ZM31.6673 41.5625H29.584C28.7298 41.5625 28.0215 40.8542 28.0215 40C28.0215 39.1458 28.7298 38.4375 29.584 38.4375H31.6673C32.5215 38.4375 33.2298 39.1458 33.2298 40C33.2298 40.8542 32.5215 41.5625 31.6673 41.5625ZM37.9173 35.3125H29.584C28.7298 35.3125 28.0215 34.6042 28.0215 33.75C28.0215 32.8958 28.7298 32.1875 29.584 32.1875H37.9173C38.7715 32.1875 39.4798 32.8958 39.4798 33.75C39.4798 34.6042 38.7715 35.3125 37.9173 35.3125ZM46.2507 29.0625H29.584C28.7298 29.0625 28.0215 28.3542 28.0215 27.5C28.0215 26.6458 28.7298 25.9375 29.584 25.9375H46.2507C47.1048 25.9375 47.8132 26.6458 47.8132 27.5C47.8132 28.3542 47.1048 29.0625 46.2507 29.0625Z" fill="white"/>
<defs>
<linearGradient id="paint0_linear_739_6727" x1="0" y1="40" x2="80" y2="40" gradientUnits="userSpaceOnUse">
<stop stop-color="#0035E5"/>
<stop offset="0.7" stop-color="#298CFF"/>
</linearGradient>
</defs>
</svg>
