<svg width="80" height="80" viewBox="0 0 80 80" fill="none" xmlns="http://www.w3.org/2000/svg">
<rect width="80" height="80" rx="20" fill="url(#paint0_linear_739_5436)"/>
<g clip-path="url(#clip0_739_5436)">
<mask id="mask0_739_5436" style="mask-type:luminance" maskUnits="userSpaceOnUse" x="18" y="18" width="44" height="44">
<path d="M18 18H62V62H18V18Z" fill="white"/>
</mask>
<g mask="url(#mask0_739_5436)">
<path d="M45.5007 32.6666C45.5007 36.7166 42.2173 39.9999 38.1673 39.9999C34.1172 39.9999 30.834 36.7166 30.834 32.6666C30.834 28.6165 34.1172 25.3333 38.1673 25.3333C42.2173 25.3333 45.5007 28.6165 45.5007 32.6666Z" fill="white"/>
<path d="M39.3641 41.8883C38.97 41.852 38.5708 41.8333 38.1673 41.8333C31.0797 41.8333 25.334 47.5789 25.334 54.6666H36.334V45.4999C36.334 43.6921 37.6424 42.1897 39.3641 41.8883Z" fill="white"/>
<path d="M45.4993 52.8333V42.3833C45.4993 42.0795 45.7456 41.8333 46.0493 41.8333H48.616C48.9198 41.8333 49.166 42.0795 49.166 42.3833V52.8333H50.9993V47.8833C50.9993 47.5795 51.2456 47.3333 51.5493 47.3333H54.116C54.4198 47.3333 54.666 47.5795 54.666 47.8833V52.8333H55.9494C56.2531 52.8333 56.4993 53.0795 56.4993 53.3833V54.1166C56.4993 54.4204 56.2531 54.6666 55.9494 54.6666H38.716C38.4122 54.6666 38.166 54.4204 38.166 54.1166V53.3833C38.166 53.0795 38.4122 52.8333 38.716 52.8333H39.9993V46.0499C39.9993 45.7461 40.2456 45.4999 40.5493 45.4999H43.116C43.4198 45.4999 43.666 45.7461 43.666 46.0499V52.8333H45.4993Z" fill="white"/>
<path fill-rule="evenodd" clip-rule="evenodd" d="M18 25.3333C18 21.2832 21.2832 18 25.3333 18H54.6667C58.7167 18 62 21.2832 62 25.3333V54.6667C62 58.7167 58.7167 62 54.6667 62H25.3333C21.2832 62 18 58.7167 18 54.6667V25.3333ZM25.3333 21.6667C23.3083 21.6667 21.6667 23.3083 21.6667 25.3333V54.6667C21.6667 56.6918 23.3083 58.3333 25.3333 58.3333H54.6667C56.6918 58.3333 58.3333 56.6918 58.3333 54.6667V25.3333C58.3333 23.3083 56.6918 21.6667 54.6667 21.6667H25.3333Z" fill="white"/>
</g>
</g>
<defs>
<linearGradient id="paint0_linear_739_5436" x1="0" y1="40" x2="80" y2="40" gradientUnits="userSpaceOnUse">
<stop stop-color="#0035E5"/>
<stop offset="0.7" stop-color="#298CFF"/>
</linearGradient>
<clipPath id="clip0_739_5436">
<rect width="44" height="44" fill="white" transform="translate(18 18)"/>
</clipPath>
</defs>
</svg>
