<svg width="76" height="12" viewBox="0 0 76 12" fill="none" xmlns="http://www.w3.org/2000/svg">
<path d="M6.59424 3.48959C6.53553 2.96852 6.29334 2.56487 5.86768 2.27865C5.44201 1.98876 4.90627 1.84382 4.26043 1.84382C3.79807 1.84382 3.3981 1.91721 3.0605 2.06399C2.72291 2.2071 2.46054 2.40525 2.27339 2.65845C2.08992 2.90797 1.99818 3.19236 1.99818 3.51161C1.99818 3.77948 2.06056 4.01066 2.18533 4.20514C2.31376 4.39963 2.48072 4.56292 2.68621 4.69502C2.89537 4.82346 3.11921 4.93171 3.35773 5.01978C3.59625 5.10417 3.82559 5.17389 4.04577 5.22894L5.14662 5.51516C5.50623 5.60323 5.87501 5.72249 6.25297 5.87294C6.63093 6.02339 6.98137 6.22154 7.30429 6.4674C7.62721 6.71325 7.88774 7.01782 8.08589 7.3811C8.28772 7.74438 8.38863 8.17922 8.38863 8.68561C8.38863 9.32411 8.2235 9.89105 7.89324 10.3864C7.56666 10.8818 7.09146 11.2726 6.46764 11.5588C5.84749 11.8451 5.09708 11.9882 4.2164 11.9882C3.37241 11.9882 2.64218 11.8542 2.0257 11.5864C1.40922 11.3185 0.926684 10.9387 0.578081 10.447C0.229477 9.95159 0.0368283 9.36447 0.00013322 8.68561H1.70645C1.73948 9.09293 1.87158 9.43236 2.10276 9.7039C2.33761 9.97178 2.63667 10.1718 2.99996 10.3039C3.36691 10.4323 3.76872 10.4965 4.20539 10.4965C4.68609 10.4965 5.11359 10.4213 5.48788 10.2708C5.86584 10.1167 6.16307 9.90389 6.37957 9.63235C6.59607 9.35713 6.70432 9.03605 6.70432 8.6691C6.70432 8.33518 6.60892 8.0618 6.4181 7.84897C6.23096 7.63613 5.97593 7.46 5.65301 7.32056C5.33376 7.18112 4.97232 7.05819 4.56867 6.95177L3.23664 6.58849C2.33394 6.34263 1.61839 5.98119 1.08998 5.50415C0.565237 5.02711 0.302868 4.39596 0.302868 3.61068C0.302868 2.96118 0.479004 2.39424 0.831277 1.90987C1.18355 1.42549 1.66059 1.04937 2.26238 0.781494C2.86418 0.50995 3.54304 0.374178 4.29896 0.374178C5.06222 0.374178 5.73557 0.508115 6.31903 0.77599C6.90615 1.04386 7.3685 1.41265 7.7061 1.88235C8.04369 2.34837 8.21983 2.88412 8.23451 3.48959H6.59424ZM12.5944 11.9882C12.0586 11.9882 11.5743 11.8891 11.1413 11.6909C10.7083 11.4891 10.3652 11.1974 10.112 10.8158C9.86243 10.4341 9.73767 9.96627 9.73767 9.41218C9.73767 8.93514 9.8294 8.5425 10.0129 8.23426C10.1964 7.92603 10.444 7.682 10.756 7.5022C11.0679 7.32239 11.4165 7.18662 11.8018 7.09488C12.1871 7.00314 12.5797 6.93342 12.9797 6.88572C13.4861 6.82701 13.8971 6.7793 14.2126 6.74261C14.5282 6.70224 14.7576 6.63803 14.9007 6.54996C15.0438 6.46189 15.1153 6.31878 15.1153 6.12063V6.0821C15.1153 5.60139 14.9796 5.22894 14.708 4.96473C14.4401 4.70053 14.0402 4.56843 13.5081 4.56843C12.954 4.56843 12.5173 4.69135 12.1981 4.93721C11.8825 5.1794 11.6642 5.44911 11.5431 5.74634L9.99637 5.39407C10.1798 4.88033 10.4477 4.46568 10.8 4.1501C11.1559 3.83085 11.5651 3.59968 12.0274 3.45656C12.4898 3.30978 12.976 3.23639 13.4861 3.23639C13.8237 3.23639 14.1814 3.27676 14.5594 3.35749C14.941 3.43455 15.297 3.57766 15.6272 3.78682C15.9612 3.99598 16.2345 4.29505 16.4474 4.68402C16.6602 5.06931 16.7666 5.5702 16.7666 6.18668V11.801H15.1594V10.6451H15.0933C14.9869 10.858 14.8273 11.0671 14.6144 11.2726C14.4016 11.4781 14.1282 11.6487 13.7943 11.7845C13.4604 11.9203 13.0604 11.9882 12.5944 11.9882ZM12.9522 10.6671C13.4072 10.6671 13.7961 10.5772 14.1191 10.3974C14.4456 10.2176 14.6933 9.98278 14.8621 9.69289C15.0346 9.39933 15.1208 9.08559 15.1208 8.75166V7.66182C15.0621 7.72053 14.9484 7.77558 14.7796 7.82695C14.6144 7.87465 14.4255 7.91685 14.2126 7.95355C13.9998 7.98657 13.7925 8.01776 13.5907 8.04712C13.3888 8.07281 13.22 8.09482 13.0843 8.11317C12.765 8.15353 12.4733 8.22142 12.2091 8.31683C11.9485 8.41224 11.7394 8.54984 11.5816 8.72965C11.4275 8.90578 11.3504 9.14063 11.3504 9.43419C11.3504 9.84151 11.5009 10.1497 11.8018 10.3589C12.1027 10.5644 12.4861 10.6671 12.9522 10.6671ZM20.4495 0.528298V11.801H18.8037V0.528298H20.4495ZM26.1524 11.9717C25.3194 11.9717 24.602 11.7937 24.0002 11.4377C23.4021 11.0781 22.9397 10.5736 22.6131 9.92407C22.2902 9.2709 22.1287 8.50581 22.1287 7.62879C22.1287 6.76279 22.2902 5.99953 22.6131 5.33902C22.9397 4.67851 23.3947 4.16295 23.9782 3.79232C24.5653 3.4217 25.2515 3.23639 26.0368 3.23639C26.5138 3.23639 26.9762 3.31529 27.4238 3.47308C27.8715 3.63087 28.2733 3.87856 28.6293 4.21615C28.9852 4.55375 29.2659 4.99225 29.4714 5.53167C29.6769 6.06742 29.7797 6.71876 29.7797 7.48568V8.06914H23.059V6.83618H28.1669C28.1669 6.40318 28.0789 6.01972 27.9027 5.68579C27.7266 5.3482 27.4789 5.08216 27.1596 4.88767C26.8441 4.69319 26.4734 4.59595 26.0478 4.59595C25.5854 4.59595 25.1818 4.7097 24.8368 4.93721C24.4956 5.16105 24.2314 5.45461 24.0442 5.81789C23.8608 6.1775 23.769 6.56831 23.769 6.9903V7.95355C23.769 8.51865 23.8681 8.99936 24.0662 9.39566C24.2681 9.79197 24.5488 10.0947 24.9084 10.3039C25.268 10.5094 25.6882 10.6121 26.1689 10.6121C26.4808 10.6121 26.7652 10.5681 27.022 10.48C27.2789 10.3883 27.5009 10.2525 27.6881 10.0727C27.8752 9.89288 28.0183 9.67088 28.1174 9.40667L29.6751 9.68739C29.5503 10.1461 29.3265 10.5479 29.0036 10.8928C28.6843 11.2341 28.2825 11.5001 27.7981 11.6909C27.3174 11.8781 26.7688 11.9717 26.1524 11.9717ZM37.7861 5.41058L36.2945 5.67478C36.2321 5.48397 36.133 5.30233 35.9972 5.12986C35.8651 4.95739 35.6853 4.81612 35.4578 4.70603C35.2303 4.59595 34.9459 4.5409 34.6047 4.5409C34.1386 4.5409 33.7497 4.64549 33.4377 4.85465C33.1258 5.06014 32.9699 5.32618 32.9699 5.65277C32.9699 5.93532 33.0745 6.16283 33.2836 6.33529C33.4928 6.50776 33.8304 6.64904 34.2964 6.75912L35.6395 7.06736C36.4174 7.24717 36.9972 7.52421 37.3788 7.8985C37.7604 8.27279 37.9512 8.759 37.9512 9.35713C37.9512 9.86353 37.8045 10.3149 37.5109 10.7112C37.221 11.1038 36.8155 11.4121 36.2945 11.6359C35.7771 11.8597 35.1771 11.9717 34.4946 11.9717C33.5478 11.9717 32.7754 11.7698 32.1773 11.3662C31.5791 10.9589 31.2122 10.3809 31.0764 9.63235L32.6672 9.39016C32.7662 9.80481 32.9699 10.1186 33.2781 10.3314C33.5864 10.5405 33.9882 10.6451 34.4836 10.6451C35.023 10.6451 35.4541 10.5332 35.7771 10.3094C36.1 10.0819 36.2614 9.80481 36.2614 9.47823C36.2614 9.21402 36.1624 8.99202 35.9642 8.81221C35.7697 8.63241 35.4707 8.49663 35.067 8.4049L33.6359 8.09115C32.847 7.91135 32.2635 7.62513 31.8855 7.23249C31.5113 6.83985 31.3241 6.34263 31.3241 5.74083C31.3241 5.24178 31.4636 4.80511 31.7424 4.43082C32.0213 4.05653 32.4066 3.7648 32.8983 3.55564C33.39 3.34281 33.9533 3.23639 34.5881 3.23639C35.5018 3.23639 36.2211 3.43455 36.7458 3.83085C37.2706 4.22349 37.6173 4.75007 37.7861 5.41058ZM43.6294 3.34648V4.6675H38.8517V3.34648H43.6294ZM40.1617 11.801V2.36672C40.1617 1.83831 40.2773 1.39981 40.5085 1.0512C40.7396 0.69893 41.0461 0.43656 41.4277 0.264093C41.8093 0.0879567 42.224 -0.000111729 42.6716 -0.000111729C43.0019 -0.000111729 43.2845 0.0274098 43.5193 0.0824529C43.7541 0.133826 43.9284 0.181529 44.0422 0.225563L43.6569 1.55759C43.5798 1.53558 43.4808 1.50989 43.3597 1.48054C43.2386 1.44751 43.0918 1.431 42.9193 1.431C42.5194 1.431 42.2331 1.53007 42.0607 1.72823C41.8919 1.92638 41.8075 2.2126 41.8075 2.58689V11.801H40.1617ZM48.4007 11.9717C47.6081 11.9717 46.9164 11.79 46.3256 11.4267C45.7348 11.0635 45.2761 10.5552 44.9495 9.90206C44.6229 9.24888 44.4596 8.48563 44.4596 7.61228C44.4596 6.73527 44.6229 5.96834 44.9495 5.3115C45.2761 4.65466 45.7348 4.1446 46.3256 3.78132C46.9164 3.41804 47.6081 3.23639 48.4007 3.23639C49.1933 3.23639 49.885 3.41804 50.4758 3.78132C51.0666 4.1446 51.5253 4.65466 51.8519 5.3115C52.1785 5.96834 52.3418 6.73527 52.3418 7.61228C52.3418 8.48563 52.1785 9.24888 51.8519 9.90206C51.5253 10.5552 51.0666 11.0635 50.4758 11.4267C49.885 11.79 49.1933 11.9717 48.4007 11.9717ZM48.4062 10.5901C48.9199 10.5901 49.3456 10.4543 49.6832 10.1828C50.0208 9.91123 50.2703 9.54978 50.4318 9.09843C50.5969 8.64708 50.6795 8.14987 50.6795 7.60678C50.6795 7.06736 50.5969 6.57198 50.4318 6.12063C50.2703 5.66561 50.0208 5.30049 49.6832 5.02528C49.3456 4.75007 48.9199 4.61246 48.4062 4.61246C47.8888 4.61246 47.4595 4.75007 47.1182 5.02528C46.7806 5.30049 46.5293 5.66561 46.3641 6.12063C46.2027 6.57198 46.1219 7.06736 46.1219 7.60678C46.1219 8.14987 46.2027 8.64708 46.3641 9.09843C46.5293 9.54978 46.7806 9.91123 47.1182 10.1828C47.4595 10.4543 47.8888 10.5901 48.4062 10.5901ZM54.0238 11.801V3.34648H55.6145V4.68952H55.7026C55.8567 4.2345 56.1283 3.87672 56.5172 3.61619C56.9099 3.35198 57.3539 3.21988 57.8493 3.21988C57.952 3.21988 58.0731 3.22355 58.2125 3.23089C58.3557 3.23823 58.4676 3.2474 58.5483 3.25841V4.83263C58.4823 4.81428 58.3648 4.7941 58.196 4.77208C58.0272 4.7464 57.8584 4.73355 57.6896 4.73355C57.3007 4.73355 56.9539 4.81612 56.6493 4.98125C56.3484 5.1427 56.1099 5.36838 55.9338 5.65827C55.7576 5.94449 55.6696 6.27108 55.6696 6.63803V11.801H54.0238ZM63.076 11.9717C62.2577 11.9717 61.5532 11.7863 60.9624 11.4157C60.3753 11.0414 59.9239 10.5259 59.6084 9.86903C59.2928 9.21219 59.135 8.45994 59.135 7.61228C59.135 6.75362 59.2965 5.99586 59.6194 5.33902C59.9423 4.67851 60.3973 4.16295 60.9844 3.79232C61.5716 3.4217 62.2633 3.23639 63.0595 3.23639C63.7017 3.23639 64.2741 3.35565 64.7769 3.59417C65.2796 3.82902 65.6851 4.15928 65.9933 4.58494C66.3052 5.0106 66.4905 5.50782 66.5492 6.07659H64.9475C64.8594 5.68029 64.6576 5.33902 64.342 5.0528C64.0301 4.76658 63.6118 4.62347 63.0871 4.62347C62.6284 4.62347 62.2266 4.74456 61.8816 4.98675C61.5404 5.22527 61.2743 5.56653 61.0835 6.01054C60.8927 6.45088 60.7973 6.97195 60.7973 7.57375C60.7973 8.19023 60.8909 8.72231 61.078 9.16999C61.2651 9.61767 61.5294 9.96444 61.8706 10.2103C62.2155 10.4562 62.621 10.5791 63.0871 10.5791C63.399 10.5791 63.6815 10.5222 63.9347 10.4084C64.1916 10.291 64.4062 10.1241 64.5787 9.90756C64.7548 9.69106 64.8778 9.43052 64.9475 9.12595H66.5492C66.4905 9.67271 66.3126 10.1608 66.0153 10.5901C65.7181 11.0194 65.32 11.357 64.8209 11.6029C64.3255 11.8487 63.7439 11.9717 63.076 11.9717ZM71.7981 11.9717C70.9651 11.9717 70.2477 11.7937 69.6459 11.4377C69.0478 11.0781 68.5854 10.5736 68.2588 9.92407C67.9359 9.2709 67.7744 8.50581 67.7744 7.62879C67.7744 6.76279 67.9359 5.99953 68.2588 5.33902C68.5854 4.67851 69.0404 4.16295 69.6239 3.79232C70.211 3.4217 70.8972 3.23639 71.6825 3.23639C72.1595 3.23639 72.6219 3.31529 73.0695 3.47308C73.5172 3.63087 73.919 3.87856 74.275 4.21615C74.6309 4.55375 74.9116 4.99225 75.1171 5.53167C75.3226 6.06742 75.4254 6.71876 75.4254 7.48568V8.06914H68.7047V6.83618H73.8126C73.8126 6.40318 73.7245 6.01972 73.5484 5.68579C73.3723 5.3482 73.1246 5.08216 72.8053 4.88767C72.4898 4.69319 72.1191 4.59595 71.6935 4.59595C71.2311 4.59595 70.8275 4.7097 70.4825 4.93721C70.1413 5.16105 69.8771 5.45461 69.6899 5.81789C69.5064 6.1775 69.4147 6.56831 69.4147 6.9903V7.95355C69.4147 8.51865 69.5138 8.99936 69.7119 9.39566C69.9138 9.79197 70.1945 10.0947 70.5541 10.3039C70.9137 10.5094 71.3339 10.6121 71.8146 10.6121C72.1265 10.6121 72.4109 10.5681 72.6677 10.48C72.9246 10.3883 73.1466 10.2525 73.3337 10.0727C73.5209 9.89288 73.664 9.67088 73.7631 9.40667L75.3208 9.68739C75.196 10.1461 74.9722 10.5479 74.6493 10.8928C74.33 11.2341 73.9282 11.5001 73.4438 11.6909C72.9631 11.8781 72.4145 11.9717 71.7981 11.9717Z" fill="#00A1E0"/>
</svg>
