<svg width="60" height="60" viewBox="0 0 60 60" fill="none" xmlns="http://www.w3.org/2000/svg">
<path d="M0 12C0 5.37258 5.37258 0 12 0H48C54.6274 0 60 5.37258 60 12V48C60 54.6274 54.6274 60 48 60H12C5.37258 60 0 54.6274 0 48V12Z" fill="#F2F6FD"/>
<g clip-path="url(#clip0_1103_3439)">
<path opacity="0.2" d="M36.4688 18.1406V41.8594H31.0781V34.3125H24.6094V41.8594H19.2188V18.1406H36.4688Z" fill="#126DFB"/>
<path d="M46.1719 40.7812H44.0156V25.6875C44.3016 25.6875 44.5758 25.5739 44.778 25.3717C44.9802 25.1695 45.0938 24.8953 45.0938 24.6094C45.0938 24.3234 44.9802 24.0492 44.778 23.847C44.5758 23.6448 44.3016 23.5312 44.0156 23.5312H37.5469V19.2188C37.8328 19.2188 38.107 19.1052 38.3092 18.903C38.5114 18.7008 38.625 18.4266 38.625 18.1406C38.625 17.8547 38.5114 17.5805 38.3092 17.3783C38.107 17.1761 37.8328 17.0625 37.5469 17.0625H18.1406C17.8547 17.0625 17.5805 17.1761 17.3783 17.3783C17.1761 17.5805 17.0625 17.8547 17.0625 18.1406C17.0625 18.4266 17.1761 18.7008 17.3783 18.903C17.5805 19.1052 17.8547 19.2188 18.1406 19.2188V40.7812H15.9844C15.6984 40.7812 15.4242 40.8948 15.222 41.097C15.0198 41.2992 14.9063 41.5734 14.9062 41.8594C14.9062 42.1453 15.0198 42.4195 15.222 42.6217C15.4242 42.8239 15.6984 42.9375 15.9844 42.9375H46.1719C46.4578 42.9375 46.732 42.8239 46.9342 42.6217C47.1364 42.4195 47.25 42.1453 47.25 41.8594C47.25 41.5734 47.1364 41.2992 46.9342 41.097C46.732 40.8948 46.4578 40.7812 46.1719 40.7812ZM41.8594 25.6875V40.7812H37.5469V25.6875H41.8594ZM20.2969 19.2188H35.3906V40.7812H32.1562V34.3125C32.1562 34.0266 32.0427 33.7523 31.8405 33.5501C31.6383 33.348 31.3641 33.2344 31.0781 33.2344H24.6094C24.3234 33.2344 24.0492 33.348 23.847 33.5501C23.6448 33.7523 23.5312 34.0266 23.5312 34.3125V40.7812H20.2969V19.2188ZM30 40.7812H25.6875V35.3906H30V40.7812ZM22.4531 23.5312C22.4531 23.2453 22.5667 22.9711 22.7689 22.7689C22.9711 22.5667 23.2453 22.4531 23.5312 22.4531H25.6875C25.9734 22.4531 26.2477 22.5667 26.4498 22.7689C26.652 22.9711 26.7656 23.2453 26.7656 23.5312C26.7656 23.8172 26.652 24.0914 26.4498 24.2936C26.2477 24.4958 25.9734 24.6094 25.6875 24.6094H23.5312C23.2453 24.6094 22.9711 24.4958 22.7689 24.2936C22.5667 24.0914 22.4531 23.8172 22.4531 23.5312ZM28.9219 23.5312C28.9219 23.2453 29.0355 22.9711 29.2377 22.7689C29.4398 22.5667 29.7141 22.4531 30 22.4531H32.1562C32.4422 22.4531 32.7164 22.5667 32.9186 22.7689C33.1208 22.9711 33.2344 23.2453 33.2344 23.5312C33.2344 23.8172 33.1208 24.0914 32.9186 24.2936C32.7164 24.4958 32.4422 24.6094 32.1562 24.6094H30C29.7141 24.6094 29.4398 24.4958 29.2377 24.2936C29.0355 24.0914 28.9219 23.8172 28.9219 23.5312ZM22.4531 28.9219C22.4531 28.6359 22.5667 28.3617 22.7689 28.1595C22.9711 27.9573 23.2453 27.8438 23.5312 27.8438H25.6875C25.9734 27.8438 26.2477 27.9573 26.4498 28.1595C26.652 28.3617 26.7656 28.6359 26.7656 28.9219C26.7656 29.2078 26.652 29.482 26.4498 29.6842C26.2477 29.8864 25.9734 30 25.6875 30H23.5312C23.2453 30 22.9711 29.8864 22.7689 29.6842C22.5667 29.482 22.4531 29.2078 22.4531 28.9219ZM28.9219 28.9219C28.9219 28.6359 29.0355 28.3617 29.2377 28.1595C29.4398 27.9573 29.7141 27.8438 30 27.8438H32.1562C32.4422 27.8438 32.7164 27.9573 32.9186 28.1595C33.1208 28.3617 33.2344 28.6359 33.2344 28.9219C33.2344 29.2078 33.1208 29.482 32.9186 29.6842C32.7164 29.8864 32.4422 30 32.1562 30H30C29.7141 30 29.4398 29.8864 29.2377 29.6842C29.0355 29.482 28.9219 29.2078 28.9219 28.9219Z" fill="#126DFB"/>
</g>
<defs>
<clipPath id="clip0_1103_3439">
<rect width="34.5" height="34.5" fill="white" transform="translate(12.75 12.75)"/>
</clipPath>
</defs>
</svg>
