<svg width="60" height="60" viewBox="0 0 60 60" fill="none" xmlns="http://www.w3.org/2000/svg">
<path d="M0 12C0 5.37258 5.37258 0 12 0H48C54.6274 0 60 5.37258 60 12V48C60 54.6274 54.6274 60 48 60H12C5.37258 60 0 54.6274 0 48V12Z" fill="#F2F6FD"/>
<path opacity="0.2" d="M41.8513 37.2881C41.6419 38.8527 40.8714 40.2881 39.683 41.3273C38.4946 42.3665 36.9693 42.9386 35.3906 42.9374C30.5297 42.9374 25.8679 41.0064 22.4307 37.5692C18.9935 34.1321 17.0625 29.4702 17.0625 24.6093C17.0613 23.0307 17.6335 21.5053 18.6726 20.3169C19.7118 19.1285 21.1472 18.358 22.7119 18.1486C22.9432 18.1212 23.1772 18.1693 23.3788 18.2859C23.5804 18.4026 23.7389 18.5813 23.8304 18.7955L26.678 25.1565C26.748 25.3198 26.7765 25.498 26.761 25.675C26.7454 25.8521 26.6864 26.0225 26.5891 26.1712L23.7091 29.5956C23.607 29.7498 23.5466 29.9278 23.5338 30.1123C23.5211 30.2968 23.5564 30.4814 23.6364 30.6482C24.7509 32.9297 27.1093 35.2598 29.3976 36.3636C29.5652 36.4432 29.7507 36.4777 29.9358 36.4638C30.1208 36.4498 30.299 36.3879 30.4528 36.2841L33.822 33.4135C33.9713 33.3142 34.143 33.2537 34.3216 33.2374C34.5002 33.2212 34.68 33.2498 34.8448 33.3206L41.2004 36.1682C41.4156 36.2591 41.5954 36.4175 41.7128 36.6195C41.8302 36.8214 41.8788 37.0561 41.8513 37.2881Z" fill="#126DFB"/>
<path d="M32.1926 18.9398C32.2292 18.8029 32.2924 18.6747 32.3786 18.5623C32.4648 18.4499 32.5723 18.3556 32.695 18.2847C32.8176 18.2139 32.953 18.1679 33.0934 18.1494C33.2339 18.1309 33.3765 18.1403 33.5134 18.177C35.512 18.6985 37.3355 19.7433 38.7961 21.2039C40.2567 22.6644 41.3015 24.488 41.823 26.4866C41.8597 26.6234 41.869 26.7661 41.8506 26.9066C41.8321 27.047 41.7861 27.1824 41.7153 27.305C41.6444 27.4277 41.5501 27.5352 41.4377 27.6214C41.3253 27.7075 41.1971 27.7707 41.0602 27.8073C40.9692 27.8313 40.8754 27.8435 40.7813 27.8437C40.5437 27.8437 40.3128 27.7652 40.1244 27.6205C39.936 27.4757 39.8007 27.2728 39.7395 27.0432C39.3142 25.4116 38.4615 23.923 37.2692 22.7307C36.077 21.5385 34.5883 20.6858 32.9568 20.2605C32.8198 20.224 32.6914 20.1609 32.5789 20.0748C32.4663 19.9887 32.3719 19.8812 32.3009 19.7585C32.2299 19.6359 32.1838 19.5004 32.1653 19.3599C32.1467 19.2194 32.156 19.0766 32.1926 18.9398ZM31.8786 24.573C33.7371 25.0689 34.9311 26.2629 35.427 28.1213C35.4882 28.3509 35.6235 28.5538 35.8119 28.6986C36.0003 28.8434 36.2312 28.9218 36.4688 28.9218C36.5629 28.9217 36.6567 28.9094 36.7477 28.8855C36.8846 28.8489 37.0128 28.7857 37.1252 28.6995C37.2376 28.6133 37.3319 28.5058 37.4028 28.3832C37.4736 28.2605 37.5196 28.1251 37.5381 27.9847C37.5565 27.8443 37.5472 27.7016 37.5105 27.5648C36.8205 24.9826 35.0173 23.1795 32.4352 22.4895C32.1589 22.4157 31.8647 22.4546 31.6171 22.5978C31.3695 22.741 31.189 22.9766 31.1152 23.2529C31.0414 23.5292 31.0804 23.8235 31.2235 24.0711C31.3667 24.3186 31.6024 24.4992 31.8786 24.573ZM42.9213 37.4229C42.681 39.249 41.7842 40.9252 40.3984 42.1384C39.0126 43.3516 37.2325 44.0189 35.3906 44.0156C24.6902 44.0156 15.9844 35.3097 15.9844 24.6093C15.9811 22.7675 16.6484 20.9874 17.8616 19.6016C19.0748 18.2158 20.751 17.3189 22.5771 17.0786C23.0389 17.0223 23.5065 17.1167 23.9102 17.348C24.3139 17.5792 24.6319 17.9348 24.8169 18.3616L27.6632 24.7158V24.732C27.8048 25.0587 27.8633 25.4155 27.8334 25.7703C27.8036 26.1252 27.6863 26.4671 27.492 26.7656C27.4678 26.802 27.4422 26.8357 27.4152 26.8694L24.6094 30.1954C25.6188 32.2465 27.7643 34.3731 29.8423 35.3852L33.1225 32.5942C33.1547 32.5671 33.1885 32.5419 33.2236 32.5187C33.5218 32.3198 33.8649 32.1984 34.2219 32.1655C34.5789 32.1325 34.9384 32.1891 35.268 32.3301L35.2855 32.3382L41.6343 35.1831C42.0619 35.3674 42.4184 35.6852 42.6504 36.0889C42.8824 36.4926 42.9774 36.9606 42.9213 37.4229ZM40.7813 37.1533H40.7664L34.4325 34.3165L31.1509 37.1075C31.1192 37.1346 31.0859 37.1598 31.0512 37.183C30.7409 37.39 30.3822 37.513 30.0102 37.5399C29.6381 37.5668 29.2655 37.4968 28.9286 37.3366C26.4045 36.117 23.8884 33.6198 22.6674 31.1226C22.5057 30.7882 22.4332 30.4176 22.4568 30.047C22.4804 29.6763 22.5994 29.3179 22.8022 29.0068C22.825 28.9702 22.8507 28.9355 22.879 28.903L25.6875 25.5729L22.8574 19.2389C22.8569 19.2336 22.8569 19.2281 22.8574 19.2228C21.5506 19.3932 20.3506 20.0343 19.4824 21.0258C18.6141 22.0174 18.1371 23.2914 18.1406 24.6093C18.1456 29.1828 19.9646 33.5675 23.1986 36.8014C26.4325 40.0353 30.8172 41.8544 35.3906 41.8593C36.7078 41.8639 37.9815 41.3885 38.9736 40.5221C39.9657 39.6558 40.6083 38.4577 40.7813 37.152V37.1533Z" fill="#126DFB"/>
</svg>
