<svg width="80" height="80" viewBox="0 0 80 80" fill="none" xmlns="http://www.w3.org/2000/svg">
<path d="M19.9993 75.3333H6.66602C5.66602 75.3333 4.66602 74.3333 4.66602 73.3333V60C4.66602 59 5.66602 58 6.66602 58C7.66602 58 8.66601 59 8.66601 60V71.3333H19.9993C20.9993 71.3333 21.9993 72.3333 21.9993 73.3333C21.9993 74.3333 20.9993 75.3333 19.9993 75.3333Z" fill="black"/>
<path d="M73.3333 22C72.3333 22 71.3333 21 71.3333 20V8.66663H60C59 8.66663 58 7.66663 58 6.66663C58 5.66663 59 4.66663 60 4.66663H73.3333C74.3333 4.66663 75.3333 5.66663 75.3333 6.66663V20C75.3333 21 74.3333 22 73.3333 22Z" fill="black"/>
<path d="M40 19C28.4206 19 19 28.4206 19 40C19 51.5793 28.4206 60.9999 40 60.9999C51.5793 60.9999 60.9999 51.5793 60.9999 40C60.9999 28.4206 51.5793 19 40 19ZM40 56.0575C31.1459 56.0575 23.9424 48.854 23.9424 40C23.9424 31.1459 31.1459 23.9424 40 23.9424C48.854 23.9424 56.0575 31.1459 56.0575 40C56.0575 48.854 48.854 56.0575 40 56.0575Z" fill="#126DFB"/>
<path d="M41.323 37.5288H38.7291C37.8732 37.5288 37.1768 36.8301 37.1768 35.9688C37.1768 35.1757 37.8197 34.5303 38.6098 34.5303H42.6465C44.0112 34.5303 45.1177 33.4239 45.1177 32.0591C45.1177 30.6943 44.0112 29.5879 42.6465 29.5879H42.4708V29.4123C42.4708 28.0475 41.3644 26.941 39.9996 26.941C38.6348 26.941 37.5284 28.0475 37.5284 29.4123V29.6816C34.5265 30.1975 32.2344 32.8198 32.2344 35.9714C32.2344 39.5555 35.1479 42.4714 38.7291 42.4714H41.323C42.1499 42.4714 42.8224 43.144 42.8224 43.9706C42.8224 44.7971 42.1499 45.4698 41.323 45.4698H37.3526C35.9878 45.4698 34.8814 46.5762 34.8814 47.941C34.8814 49.3058 35.9878 50.4122 37.3526 50.4122H37.5284V50.5878C37.5284 51.9526 38.6348 53.0591 39.9996 53.0591C41.3644 53.0591 42.4708 51.9526 42.4708 50.5878V50.3078C45.4768 49.7646 47.7649 47.1306 47.7649 43.9706C47.7649 40.4184 44.8752 37.5288 41.323 37.5288Z" fill="#126DFB"/>
<path d="M6.66602 22C5.66602 22 4.66602 21 4.66602 20V6.66663C4.66602 5.66663 5.66602 4.66663 6.66602 4.66663H19.9993C20.9993 4.66663 21.9993 5.66663 21.9993 6.66663C21.9993 7.66663 20.9993 8.66663 19.9993 8.66663H8.66601V20C8.66601 21 7.66602 22 6.66602 22Z" fill="black"/>
<path d="M73.3333 75.3333H60C59 75.3333 58 74.3333 58 73.3333C58 72.3333 59 71.3333 60 71.3333H71.3333V60C71.3333 59 72.3333 58 73.3333 58C74.3333 58 75.3333 59 75.3333 60V73.3333C75.3333 74.3333 74.3333 75.3333 73.3333 75.3333Z" fill="black"/>
</svg>
