<svg width="70" height="70" viewBox="0 0 70 70" fill="none" xmlns="http://www.w3.org/2000/svg">
<path d="M18.4934 11.1576V20.4155L9.3146 26.0733C8.35062 26.6677 8.05102 27.9313 8.64489 28.8952C9.03262 29.5244 9.70446 29.8704 10.3929 29.8704C10.7598 29.8704 11.1315 29.7716 11.4669 29.5649L14.8143 27.5019V55.651C13.6869 55.6569 12.7748 56.5728 12.7748 57.7018C12.7748 58.8302 13.6869 59.7461 14.8143 59.7525H55.1837C56.3111 59.7461 57.2233 58.8308 57.2233 57.7018C57.2233 56.5722 56.3111 55.6569 55.1837 55.651V27.5019L58.5312 29.5649C59.4957 30.1593 60.7588 29.8592 61.3532 28.8952C61.9476 27.9313 61.6474 26.6677 60.6835 26.0733L37.3964 11.7194C35.9176 10.8078 34.0805 10.8078 32.6016 11.7194L29.5276 13.6142V11.1576C29.5276 9.09932 27.8491 7.42505 25.786 7.42505H22.2351C20.1715 7.42505 18.4934 9.09932 18.4934 11.1576ZM36.8773 55.6505H33.1208V46.2596C33.1208 45.7132 33.5731 45.2689 34.1296 45.2689H35.869C36.425 45.2689 36.8773 45.7132 36.8773 46.2596V55.6505ZM51.0822 55.6505H40.9789V46.2596C40.9789 43.4515 38.6867 41.1673 35.869 41.1673H34.1296C31.3119 41.1673 29.0192 43.4515 29.0192 46.2596V55.6505H18.9159V24.9736L34.7539 15.2111C34.9029 15.1192 35.0957 15.1192 35.2442 15.2111L51.0822 24.9736V55.6505ZM25.426 11.5266V16.1425L22.595 17.8878V11.5266H25.426Z" fill="#126DFB"/>
<path d="M29.043 26.672V33.0924C29.043 34.5952 30.2654 35.8182 31.7688 35.8182H38.2293C39.7321 35.8182 40.9551 34.5952 40.9551 33.0924V26.672C40.9551 25.1691 39.7321 23.9467 38.2293 23.9467H31.7688C30.2654 23.9467 29.043 25.1691 29.043 26.672ZM33.1445 28.0482H36.8536V31.7161H33.1445V28.0482Z" fill="#126DFB"/>
<path d="M2.05078 20.5158C3.18352 20.5158 4.10156 19.5978 4.10156 18.465V8.59779C4.10156 6.1187 6.11656 4.10156 8.59406 4.10156H18.456C19.5887 4.10156 20.5067 3.18352 20.5067 2.05078C20.5067 0.918045 19.5887 0 18.456 0H8.59406C3.85536 0 0 3.85696 0 8.59779V18.465C0 19.5978 0.918045 20.5158 2.05078 20.5158Z" fill="black"/>
<path d="M67.9501 49.4841C66.8174 49.4841 65.8993 50.4022 65.8993 51.5349V61.4022C65.8993 63.8813 63.8843 65.8984 61.4068 65.8984H51.5449C50.4122 65.8984 49.4941 66.8164 49.4941 67.9492C49.4941 69.0819 50.4122 70 51.5449 70H61.4068C66.1455 70 70.0009 66.143 70.0009 61.4022V51.5349C70.0009 50.4022 69.0828 49.4841 67.9501 49.4841Z" fill="black"/>
<path d="M18.4702 65.8984H8.60773C6.13077 65.8984 4.11523 63.8813 4.11523 61.4022V51.5349C4.11523 50.4022 3.19719 49.4841 2.06445 49.4841C0.932251 49.4841 0.0136719 50.4022 0.0136719 51.5349V61.4022C0.0136719 66.143 3.86903 70 8.60773 70H18.4702C19.6029 70 20.521 69.0819 20.521 67.9492C20.521 66.8164 19.6029 65.8984 18.4702 65.8984Z" fill="black"/>
<path d="M51.5293 4.10156H61.3912C63.8687 4.10156 65.8837 6.1187 65.8837 8.59779V18.465C65.8837 19.5978 66.8023 20.5158 67.9345 20.5158C69.0672 20.5158 69.9853 19.5978 69.9853 18.465V8.59779C69.9853 3.85696 66.1304 0 61.3912 0H51.5293C50.3966 0 49.4785 0.918045 49.4785 2.05078C49.4785 3.18352 50.3966 4.10156 51.5293 4.10156Z" fill="black"/>
</svg>
