<svg width="80" height="80" viewBox="0 0 80 80" fill="none" xmlns="http://www.w3.org/2000/svg">
<path d="M71.2505 9.0625H64.1792C63.5991 9.0625 63.0427 9.29297 62.6324 9.7032C62.2222 10.1134 61.9917 10.6698 61.9917 11.25C61.9917 11.8302 62.2222 12.3866 62.6324 12.7968C63.0427 13.207 63.5991 13.4375 64.1792 13.4375H65.9692L61.7505 17.6575C61.3627 18.0719 61.1511 18.6208 61.1605 19.1882C61.1698 19.7557 61.3993 20.2973 61.8005 20.6987C62.2018 21.1001 62.7433 21.3299 63.3108 21.3394C63.8782 21.349 64.4272 21.1376 64.8417 20.75L69.063 16.53V18.32C69.063 18.9002 69.2935 19.4566 69.7037 19.8668C70.1139 20.277 70.6703 20.5075 71.2505 20.5075C71.8307 20.5075 72.3871 20.277 72.7973 19.8668C73.2075 19.4566 73.438 18.9002 73.438 18.32V11.25C73.4377 10.6699 73.2071 10.1137 72.7969 9.70357C72.3868 9.29341 71.8306 9.06283 71.2505 9.0625Z" fill="#126DFB"/>
<path d="M78.0702 52.5363L70.9377 41.8375V38.75C70.9377 38.1698 70.7072 37.6134 70.297 37.2032C69.8868 36.793 69.3304 36.5625 68.7502 36.5625H64.0002C64.4452 35.6025 64.6784 34.5581 64.684 33.5C64.6847 31.2788 64.0231 29.1077 62.7838 27.2644C61.5445 25.421 59.7837 23.989 57.7264 23.1513C57.4124 21.4941 56.727 19.9296 55.7217 18.5752C54.7164 17.2208 53.4173 16.1118 51.922 15.3314C50.4268 14.551 48.7741 14.1194 47.0882 14.0692C45.4022 14.0189 43.7268 14.3513 42.1877 15.0413V7.78126L43.4527 9.04626C43.8652 9.44481 44.4177 9.66541 44.9913 9.66054C45.5648 9.65568 46.1135 9.42573 46.5192 9.02023C46.9248 8.61473 47.155 8.06613 47.1601 7.49257C47.1652 6.91902 46.9448 6.36641 46.5464 5.95376L41.5464 0.953757C41.1363 0.543855 40.5801 0.313599 40.0002 0.313599C39.4203 0.313599 38.8641 0.543855 38.4539 0.953757L33.4539 5.95376C33.0556 6.36641 32.8352 6.91902 32.8403 7.49257C32.8454 8.06613 33.0755 8.61473 33.4812 9.02023C33.8869 9.42573 34.4356 9.65568 35.0091 9.66054C35.5827 9.66541 36.1352 9.44481 36.5477 9.04626L37.8127 7.78126V15.0413C36.2734 14.3506 34.5976 14.0177 32.9112 14.0676C31.2248 14.1175 29.5716 14.5489 28.0759 15.3293C26.5801 16.1098 25.2807 17.2191 24.2751 18.5738C23.2696 19.9286 22.5841 21.4936 22.2702 23.1513C20.213 23.989 18.4522 25.421 17.2129 27.2644C15.9736 29.1077 15.312 31.2788 15.3127 33.5V33.5738C15.3192 34.6065 15.5477 35.6258 15.9827 36.5625H11.2502C10.67 36.5625 10.1136 36.793 9.7034 37.2032C9.29316 37.6134 9.06269 38.1698 9.06269 38.75C9.04786 42.9208 9.8839 47.0508 11.5197 50.8875C13.1555 54.7241 15.5567 58.1868 18.5764 61.0638C19.5341 62.0108 20.2919 63.1405 20.8049 64.3859C21.3179 65.6313 21.5755 66.9669 21.5627 68.3138V77.5C21.563 78.0801 21.7936 78.6363 22.2038 79.0464C22.6139 79.4566 23.1701 79.6872 23.7502 79.6875H51.2502C51.8303 79.6872 52.3865 79.4566 52.7966 79.0464C53.2068 78.6363 53.4374 78.0801 53.4377 77.5V75.8238C54.0569 75.8995 54.6801 75.9374 55.304 75.9375H62.5002C65.0686 75.9345 67.5309 74.9129 69.347 73.0968C71.1631 71.2807 72.1847 68.8184 72.1877 66.25V58.7388L77.3752 55.625C77.629 55.4727 77.8493 55.2705 78.0227 55.0306C78.1961 54.7908 78.319 54.5182 78.3839 54.2294C78.4489 53.9407 78.4546 53.6417 78.4007 53.3507C78.3468 53.0596 78.2343 52.7826 78.0702 52.5363ZM46.7502 18.4375C48.4952 18.437 50.1735 19.1075 51.4377 20.3103C52.7019 21.5131 53.4551 23.1559 53.5415 24.8988C53.565 25.3654 53.7373 25.8122 54.0331 26.1738C54.3288 26.5355 54.7326 26.793 55.1852 26.9088C56.6568 27.2852 57.9604 28.1426 58.889 29.3447C59.8175 30.5469 60.3177 32.0248 60.3102 33.5438C60.2779 34.3691 59.922 35.1486 59.3194 35.7136C58.7168 36.2785 57.916 36.5835 57.0902 36.5625H42.1877V20.2038C43.4369 19.0696 45.063 18.4401 46.7502 18.4375ZM19.6877 33.5C19.6877 31.988 20.1916 30.5191 21.1198 29.3254C22.0479 28.1318 23.3473 27.2814 24.8127 26.9088C25.2653 26.793 25.6691 26.5355 25.9648 26.1738C26.2606 25.8122 26.4329 25.3654 26.4564 24.8988C26.5192 23.6125 26.9463 22.3706 27.6879 21.3178C28.4295 20.265 29.4552 19.4448 30.6452 18.9526C31.8353 18.4605 33.1407 18.3169 34.4093 18.5384C35.6779 18.7599 36.8573 19.3375 37.8102 20.2038V36.5625H22.9077C22.0849 36.5843 21.2864 36.2821 20.6842 35.721C20.0819 35.1599 19.7241 34.3848 19.6877 33.5625V33.5ZM68.8752 55.625C68.5512 55.8191 68.2831 56.0939 68.0969 56.4225C67.9107 56.7511 67.8128 57.1223 67.8127 57.5V66.25C67.811 67.6585 67.2508 69.0088 66.2549 70.0047C65.2589 71.0006 63.9087 71.5609 62.5002 71.5625H55.304C53.9092 71.5665 52.5275 71.2937 51.2388 70.7601C49.9502 70.2265 48.7801 69.4426 47.7964 68.4538C47.3864 68.0437 46.8302 67.8133 46.2502 67.8133C45.6702 67.8133 45.114 68.0437 44.7039 68.4538C44.2939 68.8639 44.0635 69.4201 44.0635 70C44.0635 70.58 44.2939 71.1362 44.7039 71.5463C45.9641 72.8105 47.4403 73.8392 49.0627 74.5838V75.3125H25.9377V68.3125C25.9501 66.3756 25.5731 64.4561 24.829 62.6678C24.085 60.8795 22.9891 59.259 21.6064 57.9025C16.9157 53.4356 14.0385 47.3946 13.5264 40.9375H66.5627V42.5C66.5627 42.932 66.6906 43.3543 66.9302 43.7138L73.1577 53.055L68.8752 55.625Z" fill="black"/>
<path d="M8.75 9.0625H15.8212C16.4014 9.0625 16.9578 9.29297 17.368 9.7032C17.7783 10.1134 18.0088 10.6698 18.0088 11.25C18.0088 11.8302 17.7783 12.3866 17.368 12.7968C16.9578 13.207 16.4014 13.4375 15.8212 13.4375H14.0313L18.25 17.6575C18.6378 18.0719 18.8494 18.6208 18.84 19.1882C18.8307 19.7557 18.6012 20.2973 18.1999 20.6987C17.7987 21.1001 17.2572 21.3299 16.6897 21.3394C16.1223 21.349 15.5733 21.1376 15.1588 20.75L10.9375 16.5313V18.3212C10.9375 18.9014 10.707 19.4578 10.2968 19.868C9.88656 20.2783 9.33016 20.5087 8.75 20.5087C8.16984 20.5087 7.61344 20.2783 7.2032 19.868C6.79297 19.4578 6.5625 18.9014 6.5625 18.3212V11.25C6.56283 10.6699 6.79341 10.1137 7.20357 9.70357C7.61373 9.29341 8.16994 9.06283 8.75 9.0625Z" fill="#126DFB"/>
</svg>
