<svg width="70" height="70" viewBox="0 0 70 70" fill="none" xmlns="http://www.w3.org/2000/svg">
<path d="M17.4258 35.0001C17.4258 44.6926 25.311 52.5762 35.0022 52.5762C44.6949 52.5762 52.5786 44.6926 52.5786 35.0001C52.5786 25.3075 44.6949 17.424 35.0022 17.424C25.311 17.424 17.4258 25.3075 17.4258 35.0001ZM47.9934 35.0001C47.9934 42.1643 42.1665 47.9911 35.0022 47.9911C27.8394 47.9911 22.0109 42.1643 22.0109 35.0001C22.0109 27.8359 27.8394 22.009 35.0022 22.009C42.1665 22.009 47.9934 27.8359 47.9934 35.0001Z" fill="#126DFB"/>
<path d="M29.4586 31.9464L26.2168 35.1881L33.5691 42.5404L43.7872 32.3225L40.5454 29.0807L33.5691 36.0568L29.4586 31.9464Z" fill="#126DFB"/>
<path d="M70.0007 34.6955L62.511 29.0776L55.0213 34.6955L57.7736 38.3612L60.1069 36.6116C59.5427 45.5662 54.3973 53.4903 46.2988 57.5254L48.3407 61.6269C58.057 56.7889 64.1857 47.225 64.703 36.4526L67.2484 38.3612L70.0007 34.6955Z" fill="black"/>
<path d="M38.3619 12.2269L36.6126 9.89404C45.4795 10.5114 53.4948 15.6101 57.5264 23.7015L61.6279 21.6597C56.7898 11.9435 47.2258 5.81495 36.4532 5.2976L38.3619 2.75227L34.6946 0L29.0781 7.48957L34.6947 14.9791L38.3619 12.2269Z" fill="black"/>
<path d="M12.2271 31.6387L9.89384 33.3884C10.458 24.4341 15.6036 16.5124 23.7049 12.4745L21.6601 8.37305C11.9437 13.2111 5.81504 22.7749 5.29768 33.5473L2.75231 31.6387L0 35.3044L7.48969 40.9223L14.9794 35.3044L12.2271 31.6387Z" fill="black"/>
<path d="M31.6371 57.7731L33.3851 60.1034C24.5142 59.4821 16.5085 54.3896 12.4756 46.2955L8.37109 48.3433C13.212 58.0563 22.7771 64.1847 33.5467 64.7024L31.6372 67.2478L35.3059 70L40.9224 62.5104L35.3059 55.0209L31.6371 57.7731Z" fill="black"/>
</svg>
