<svg width="80" height="80" viewBox="0 0 80 80" fill="none" xmlns="http://www.w3.org/2000/svg">
<path d="M65.5537 48.3741L58.4721 41.1563L58.6197 41.0059C60.3371 39.2558 60.3375 36.4079 58.622 34.6567C58.6201 34.6546 58.6181 34.6526 58.6161 34.6506C58.1916 34.2183 57.6957 33.8851 57.1557 33.6627C57.6235 32.457 57.725 30.4162 56.1718 28.8331C56.1679 28.8291 56.1639 28.825 56.1595 28.8206C55.737 28.3928 55.2443 28.0628 54.7079 27.8416C55.1749 26.6378 55.2768 24.5954 53.7252 23.0132C53.724 23.0124 53.7232 23.0112 53.7224 23.0103C53.2975 22.5773 52.8012 22.2437 52.2605 22.0205C52.4616 21.5009 52.5672 20.9425 52.5672 20.3671C52.5672 19.1673 52.1086 18.0396 51.2766 17.1912C51.2762 17.1908 51.2762 17.1904 51.2758 17.1904C51.2754 17.19 51.275 17.1896 51.2746 17.1892C49.5564 15.4379 46.7607 15.4379 45.0424 17.1892L44.8952 17.3396L42.7089 15.1112C42.2455 14.6385 41.5365 14.5217 40.9506 14.8201L35.3745 17.6619C33.6674 16.2927 31.1597 16.3769 29.547 18.0149C29.5442 18.0173 29.5418 18.0202 29.5391 18.0226C29.1701 18.3986 28.0002 19.7346 28.2933 21.8389C27.5542 22.0318 26.8548 22.4216 26.2776 23.0099C26.2772 23.0107 26.2764 23.0112 26.276 23.0116C26.276 23.012 26.276 23.012 26.2756 23.012C24.7244 24.593 24.8216 26.6265 25.2933 27.8416C24.7561 28.0628 24.2626 28.3928 23.8397 28.821C23.8357 28.825 23.8317 28.8291 23.8278 28.8331C22.2769 30.4141 22.3741 32.4477 22.8455 33.6627C22.3055 33.8851 21.8092 34.2175 21.3847 34.6498C21.3819 34.6522 21.3795 34.6546 21.3772 34.6575C19.6593 36.412 19.6577 39.2502 21.3803 41.0059L21.5279 41.1563L14.4463 48.3741C13.8512 48.9806 13.8512 49.9636 14.4463 50.5702C15.041 51.1767 16.0059 51.1763 16.6006 50.5702L24.0575 42.9699C25.185 43.3103 27.0004 43.2966 28.4302 41.8393C28.4326 41.8368 28.4354 41.834 28.4377 41.8312C29.1915 41.0605 29.6359 40.0597 29.7101 38.9845C30.7677 38.9085 31.7524 38.4532 32.5094 37.6817C32.5098 37.6813 32.5102 37.6809 32.5106 37.6804C32.511 37.68 32.511 37.68 32.5114 37.6796C33.2691 36.9073 33.7154 35.9029 33.7896 34.8241C34.8092 34.7501 35.8082 34.3182 36.5862 33.5261C36.5889 33.5236 36.5913 33.5212 36.5937 33.5188C37.3705 32.7254 37.7938 31.7077 37.8668 30.6689C38.9241 30.5933 39.9084 30.1392 40.6661 29.3681C40.6685 29.3656 40.6709 29.3632 40.6729 29.3608C42.0991 27.9047 42.1142 26.06 41.7793 24.9072L47.1974 19.3849C47.7275 18.8446 48.5904 18.8446 49.1204 19.3849C49.1212 19.3857 49.1216 19.3861 49.1224 19.3869C49.6536 19.9283 49.654 20.805 49.1224 21.3468L45.4872 25.0519C44.8921 25.6585 44.8921 26.6415 45.4872 27.248C46.0818 27.8541 47.0463 27.8546 47.6414 27.248L49.6508 25.2003C50.182 24.665 51.0374 24.6658 51.5674 25.2052C51.5686 25.2064 51.5698 25.2076 51.571 25.2088C52.101 25.7499 52.1014 26.6261 51.5698 27.168L48.7133 30.0793C48.1187 30.6859 48.1187 31.6689 48.7133 32.2754C49.3084 32.8819 50.2729 32.8815 50.868 32.2754L52.0927 31.0271C52.6239 30.4857 53.484 30.4849 54.0156 31.0271C54.0184 31.03 54.0212 31.0324 54.024 31.0352C54.5484 31.5767 54.5476 32.4489 54.0176 32.9891L51.1612 35.9005C50.5665 36.5066 50.5661 37.49 51.1612 38.0965C51.7559 38.7027 52.7207 38.7027 53.3158 38.0965L54.5449 36.8434C55.0765 36.3068 55.933 36.3077 56.4634 36.8483C56.4638 36.8483 56.4642 36.8487 56.4642 36.8491C56.4646 36.8491 56.465 36.8495 56.4654 36.8499C56.9955 37.3905 56.9955 38.2696 56.4654 38.8102L46.1255 49.3486C44.9254 50.5718 43.3297 51.2454 41.6321 51.2458C41.6317 51.2458 41.6317 51.2458 41.631 51.2458H38.3683C37.964 51.2458 37.5764 51.4092 37.2911 51.7007L27.5003 61.6795C26.9056 62.2856 26.9056 63.269 27.5003 63.8752C28.0954 64.4821 29.0602 64.4817 29.6549 63.8752L38.9995 54.3513H41.0005L50.3451 63.8752C50.9402 64.4817 51.905 64.4817 52.4997 63.8752C53.0944 63.269 53.0944 62.286 52.4997 61.6795L44.7734 53.805C46.0775 53.3352 47.2732 52.5709 48.2801 51.5447L56.3178 43.3524L63.3994 50.5702C63.9941 51.1767 64.959 51.1763 65.5537 50.5702C66.1488 49.9636 66.1488 48.9806 65.5537 48.3741ZM41.331 18.0986L42.741 19.5353L40 22.329L37.6764 19.9607L41.331 18.0986ZM26.2776 39.6416C26.2756 39.6436 26.2736 39.6456 26.2716 39.6476C25.7444 40.1806 24.887 40.1887 24.3522 39.6436L23.535 38.8102C23.0038 38.2688 23.003 37.3921 23.5346 36.8499C23.535 36.8495 23.5354 36.8491 23.5358 36.8491C23.5358 36.8487 23.5362 36.8483 23.5366 36.8483C24.0678 36.3068 24.9279 36.306 25.4595 36.8479L26.2776 37.6813C26.8088 38.2227 26.8092 39.0997 26.2776 39.6416ZM30.3567 35.484C30.3563 35.4844 30.3555 35.4852 30.3551 35.4856C29.8239 36.027 28.9638 36.0278 28.4318 35.4856L25.9824 32.9891C25.4524 32.4489 25.4516 31.5767 25.976 31.0352C25.9788 31.0328 25.9816 31.03 25.9844 31.0271C26.5152 30.4857 27.3753 30.4853 27.9073 31.0271L30.3567 33.5236C30.8879 34.0651 30.8887 34.9417 30.3567 35.484ZM34.4363 31.326C34.4359 31.3264 34.4359 31.3264 34.4355 31.3268C34.4351 31.3272 34.4347 31.3276 34.4343 31.3276C33.9043 31.8682 33.0414 31.8682 32.5114 31.3276L28.4298 27.168C27.8986 26.6265 27.8982 25.7499 28.4298 25.208C28.4306 25.2072 28.431 25.2068 28.4318 25.206C28.9614 24.6662 29.8231 24.6658 30.3535 25.2048L34.4363 29.3656V29.366C34.9667 29.9067 34.9663 30.7857 34.4363 31.326ZM38.5158 27.168C38.5154 27.1684 38.515 27.1688 38.5146 27.1692C38.5143 27.1692 38.5143 27.1696 38.5139 27.17C37.9826 27.7114 37.1225 27.7118 36.5905 27.17L31.6937 22.1786C31.1621 21.6371 31.1633 20.7633 31.6897 20.2223C31.6917 20.2203 31.6937 20.2187 31.6957 20.2166C32.2265 19.6752 33.0866 19.6744 33.6186 20.2166L38.5154 25.2076C39.0471 25.7491 39.0475 26.6261 38.5158 27.168Z" fill="#126DFB"/>
<path d="M19.9993 75.3333H6.66602C5.66602 75.3333 4.66602 74.3333 4.66602 73.3333V60C4.66602 59 5.66602 58 6.66602 58C7.66602 58 8.66601 59 8.66601 60V71.3333H19.9993C20.9993 71.3333 21.9993 72.3333 21.9993 73.3333C21.9993 74.3333 20.9993 75.3333 19.9993 75.3333Z" fill="black"/>
<path d="M73.3333 22C72.3333 22 71.3333 21 71.3333 20V8.66663H60C59 8.66663 58 7.66663 58 6.66663C58 5.66663 59 4.66663 60 4.66663H73.3333C74.3333 4.66663 75.3333 5.66663 75.3333 6.66663V20C75.3333 21 74.3333 22 73.3333 22Z" fill="black"/>
<path d="M6.66602 22C5.66602 22 4.66602 21 4.66602 20V6.66663C4.66602 5.66663 5.66602 4.66663 6.66602 4.66663H19.9993C20.9993 4.66663 21.9993 5.66663 21.9993 6.66663C21.9993 7.66663 20.9993 8.66663 19.9993 8.66663H8.66601V20C8.66601 21 7.66602 22 6.66602 22Z" fill="black"/>
<path d="M73.3333 75.3333H60C59 75.3333 58 74.3333 58 73.3333C58 72.3333 59 71.3333 60 71.3333H71.3333V60C71.3333 59 72.3333 58 73.3333 58C74.3333 58 75.3333 59 75.3333 60V73.3333C75.3333 74.3333 74.3333 75.3333 73.3333 75.3333Z" fill="black"/>
</svg>
