<svg width="70" height="70" viewBox="0 0 70 70" fill="none" xmlns="http://www.w3.org/2000/svg">
<path d="M2.05078 70H22.9793C24.1119 70 25.0301 69.0818 25.0301 67.9492V65.6644C25.0301 60.9234 22.38 56.7897 18.4836 54.6666C19.8674 53.1974 20.7182 51.2207 20.7182 49.0479C20.7182 44.5246 17.0383 40.8447 12.5151 40.8447C7.9919 40.8447 4.31197 44.5246 4.31197 49.0479C4.31197 51.2207 5.16277 53.1974 6.54664 54.6666C2.65002 56.7897 0 60.9234 0 65.6644V67.9492C0 69.0818 0.918203 70 2.05078 70ZM8.41354 49.0479C8.41354 46.7863 10.2535 44.9463 12.5151 44.9463C14.7767 44.9463 16.6167 46.7863 16.6167 49.0479C16.6167 51.3095 14.7767 53.1494 12.5151 53.1494C10.2535 53.1494 8.41354 51.3095 8.41354 49.0479ZM12.5151 57.251C16.9088 57.251 20.9285 60.6953 20.9285 65.8984H4.10156C4.10156 60.7224 8.09785 57.251 12.5151 57.251Z" fill="black"/>
<path d="M63.4541 54.6666C64.838 53.1974 65.6888 51.2207 65.6888 49.0479C65.6888 44.5246 62.0089 40.8447 57.4857 40.8447C52.9625 40.8447 49.2825 44.5246 49.2825 49.0479C49.2825 51.2207 50.1333 53.1974 51.5172 54.6666C47.6207 56.7897 44.9707 60.9232 44.9707 65.6644V67.9492C44.9707 69.0818 45.8889 70 47.0215 70H67.9498C69.0824 70 70.0006 69.0818 70.0006 67.9492V65.6644C70.0006 60.9234 67.3506 56.7897 63.4541 54.6666ZM53.384 49.0479C53.384 46.7863 55.2239 44.9463 57.4855 44.9463C59.7471 44.9463 61.5871 46.7863 61.5871 49.0479C61.5871 51.3095 59.7471 53.1494 57.4855 53.1494C55.2239 53.1494 53.384 51.3095 53.384 49.0479ZM65.8991 65.8984H49.0721C49.0721 60.7224 53.0684 57.251 57.4855 57.251C61.8791 57.251 65.8991 60.6949 65.8991 65.8984Z" fill="black"/>
<path d="M47.5144 27.1045V24.8196C47.5144 20.0787 44.8644 15.945 40.9679 13.8219C42.3517 12.3527 43.2025 10.376 43.2025 8.20312C43.2025 3.67992 39.5225 0 34.9993 0C30.4761 0 26.7962 3.67992 26.7962 8.20312C26.7962 10.376 27.647 12.3527 29.0309 13.8219C25.1344 15.945 22.4844 20.0787 22.4844 24.8196V27.1045C22.4844 28.2371 23.4026 29.1553 24.5352 29.1553H45.4637C46.5962 29.1553 47.5144 28.2371 47.5144 27.1045ZM30.8978 8.20312C30.8978 5.94152 32.7377 4.10156 34.9993 4.10156C37.2609 4.10156 39.1009 5.94152 39.1009 8.20312C39.1009 10.4647 37.2609 12.3047 34.9993 12.3047C32.7377 12.3047 30.8978 10.4647 30.8978 8.20312ZM43.4129 25.0537H26.5858C26.5858 19.8777 30.5821 16.4062 34.9993 16.4062C39.3928 16.4062 43.4129 19.8502 43.4129 25.0537Z" fill="black"/>
<path d="M43.2858 51.8232C40.6066 52.7034 37.7813 53.1495 34.8889 53.1495C32.0977 53.1495 29.3646 52.7326 26.7654 51.9105C25.6852 51.5694 24.5331 52.1676 24.1917 53.2474C23.8502 54.3272 24.4487 55.4796 25.5285 55.8211C28.5282 56.7698 31.6775 57.2509 34.8887 57.2509C38.2169 57.2509 41.4727 56.7357 44.5658 55.7198C45.6419 55.3664 46.2276 54.2074 45.8742 53.1314C45.5208 52.0554 44.362 51.4695 43.2858 51.8232Z" fill="#126DFB"/>
<path d="M16.0967 16.9955C13.8319 19.1787 11.9065 21.7168 10.374 24.5393C8.78585 27.4644 7.68499 30.5715 7.10202 33.7744C6.87356 35.0296 7.83674 36.1927 9.12204 36.1927C10.0938 36.1927 10.9571 35.4989 11.1373 34.5089C11.6423 31.7344 12.5982 29.0386 13.9784 26.4965C15.3105 24.0433 16.9808 21.8402 18.9432 19.9486C19.7586 19.1626 19.7825 17.8643 18.9965 17.0488C18.2104 16.2334 16.9123 16.2095 16.0967 16.9955Z" fill="#126DFB"/>
<path d="M53.9037 16.9954C53.0882 16.2093 51.7899 16.2333 51.0039 17.0487C50.2179 17.8643 50.2417 19.1625 51.0573 19.9485C53.0197 21.8402 54.6902 24.0431 56.0221 26.4964C57.4024 29.0387 58.3582 31.7345 58.8632 34.5088C59.0658 35.6218 60.1322 36.362 61.248 36.1591C62.3623 35.9564 63.1012 34.8885 62.8985 33.7743C62.3155 30.5714 61.2146 27.4644 59.6265 24.5393C58.094 21.7167 56.1686 19.1785 53.9037 16.9954Z" fill="#126DFB"/>
</svg>
