<svg width="70" height="69" viewBox="0 0 70 69" fill="none" xmlns="http://www.w3.org/2000/svg">
<path d="M69.7581 2.13939C69.714 1.11013 68.911 0.274342 67.8844 0.18899L67.8204 0.183673C60.8639 -0.389928 53.9644 0.381508 47.314 2.4763C40.5171 4.61745 34.3071 8.03083 28.8568 12.6218C27.9112 13.4183 26.9992 14.2457 26.1167 15.0986C23.9508 13.7957 21.4223 13.1769 18.8719 13.348C15.8699 13.5494 13.0436 14.833 10.914 16.9626L0.599028 27.2777C-0.199676 28.0764 -0.199676 29.3713 0.599028 30.17L1.81154 31.3825C5.13929 34.7103 9.5094 36.5718 14.1167 36.6945L13.345 41.7359C13.2465 42.3793 13.4602 43.0312 13.9205 43.4915L25.0186 54.5894C25.405 54.9758 25.9263 55.1885 26.4645 55.1885C26.5673 55.1885 26.6709 55.1807 26.774 55.1649L31.8169 54.3929C31.9401 59.0003 33.8005 63.3714 37.1273 66.6984L38.3399 67.911C38.7393 68.3104 39.2627 68.51 39.786 68.51C40.3093 68.51 40.8328 68.3104 41.2321 67.9109L51.5469 57.5959C55.5164 53.6264 56.3074 47.6042 53.6488 42.8032C54.6884 41.7867 55.6918 40.7275 56.6529 39.6218C61.1496 34.4475 64.573 28.5415 66.8277 22.068C69.0643 15.6473 70.05 8.94229 69.7581 2.13939ZM65.7168 4.1457C65.7461 8.69496 65.1531 13.1868 63.9501 17.5567L51.8534 5.46006C56.392 4.36685 61.0358 3.92537 65.7168 4.1457ZM4.93996 28.7212L13.8061 19.855C16.2981 17.363 20.0778 16.7548 23.181 18.1679C20.1812 21.5684 17.6276 25.3388 15.5545 29.4412L15.2316 30.0801C15.1343 30.2728 15.068 30.4798 15.0354 30.6931L14.7423 32.6084C11.0959 32.641 7.61026 31.2721 4.93996 28.7212ZM17.545 41.3314L18.4039 35.7199C18.4723 35.6262 18.534 35.5278 18.5858 35.4236L33.099 49.9368C33.0022 49.9839 32.9103 50.0396 32.8223 50.1011L27.1787 50.9649L17.545 41.3314ZM48.6549 54.7038L39.7889 63.57C37.2387 60.9005 35.8692 57.4136 35.9017 53.7676L37.8169 53.4745C38.0303 53.4419 38.2371 53.3756 38.4298 53.2783L40.3686 52.2987C44.0105 50.4584 47.3929 48.2342 50.49 45.6554C51.7402 48.7064 51.0821 52.2764 48.6549 54.7038ZM38.5239 48.6479L37.9065 48.9599L19.5573 30.6107C25.4114 19.4644 35.464 10.8489 47.3721 6.76296L62.5301 21.9209C58.1434 33.5609 49.6598 43.0207 38.5239 48.6479Z" fill="black"/>
<path d="M36.2863 21.5082C33.1077 24.6868 33.1077 29.8589 36.2863 33.0376C37.8755 34.6268 39.9634 35.4215 42.0509 35.4215C44.1385 35.4215 46.2263 34.6268 47.8156 33.0375C50.9942 29.8589 50.9942 24.6868 47.8156 21.5082C44.637 18.3296 39.4647 18.3296 36.2863 21.5082ZM44.9233 30.1452C43.3395 31.729 40.7623 31.729 39.1786 30.1452C37.5948 28.5613 37.5948 25.9843 39.1786 24.4003C39.9706 23.6085 41.0106 23.2125 42.0509 23.2125C43.0912 23.2125 44.1314 23.6085 44.9233 24.4003C46.5071 25.9844 46.5071 28.5614 44.9233 30.1452Z" fill="black"/>
<path d="M16.7868 52.2886C15.9882 51.49 14.6932 51.4898 13.8945 52.2886L7.31387 58.8693C6.51517 59.668 6.51517 60.9629 7.31387 61.7616C7.71322 62.161 8.23665 62.3606 8.75994 62.3606C9.28323 62.3606 9.80679 62.161 10.206 61.7615L16.7867 55.1807C17.5856 54.3823 17.5856 53.0873 16.7868 52.2886Z" fill="#126DFB"/>
<path d="M10.9276 46.4307C10.129 45.632 8.83399 45.632 8.03529 46.4307L1.4545 53.0115C0.655793 53.8102 0.655793 55.1051 1.4545 55.9038C1.85385 56.3031 2.37727 56.5027 2.90056 56.5027C3.42385 56.5027 3.94741 56.3031 4.34663 55.9038L10.9274 49.323C11.7263 48.5243 11.7263 47.2294 10.9276 46.4307Z" fill="#126DFB"/>
<path d="M19.7501 58.1467L13.1693 64.7275C12.3706 65.5262 12.3706 66.8211 13.1693 67.6198C13.5687 68.0192 14.0921 68.2189 14.6154 68.2189C15.1387 68.2189 15.6623 68.0193 16.0615 67.6198L22.6423 61.039C23.441 60.2403 23.441 58.9454 22.6423 58.1467C21.8437 57.3479 20.5488 57.3479 19.7501 58.1467Z" fill="#126DFB"/>
</svg>
