<svg width="60" height="60" viewBox="0 0 60 60" fill="none" xmlns="http://www.w3.org/2000/svg">
<path d="M54.5068 47.8521C55.5953 46.5346 56.25 44.8462 56.25 43.0078C56.25 38.8077 52.8329 35.3906 48.6328 35.3906C44.4327 35.3906 41.0156 38.8077 41.0156 43.0078C41.0156 44.8462 41.6704 46.5346 42.7588 47.8521C41.3662 48.4655 40.1612 49.4283 39.2578 50.6311C38.3544 49.4283 37.1494 48.4655 35.7568 47.8521C36.8453 46.5346 37.5 44.8462 37.5 43.0078C37.5 38.8077 34.0829 35.3906 29.8828 35.3906C25.6827 35.3906 22.2656 38.8077 22.2656 43.0078C22.2656 44.8462 22.9204 46.5346 24.0088 47.8521C22.6162 48.4655 21.4112 49.4283 20.5078 50.6311C19.6044 49.4283 18.3994 48.4655 17.0068 47.8521C18.0953 46.5346 18.75 44.8462 18.75 43.0078C18.75 38.8077 15.3329 35.3906 11.1328 35.3906C6.9327 35.3906 3.51562 38.8077 3.51562 43.0078C3.51562 44.8462 4.17035 46.5346 5.25879 47.8521C2.16574 49.2144 0 52.3075 0 55.8984V58.2422C0 59.213 0.787031 60 1.75781 60H20.5078H39.2578H58.0078C58.9786 60 59.7656 59.213 59.7656 58.2422V55.8984C59.7656 52.3075 57.5999 49.2144 54.5068 47.8521ZM48.6328 38.9062C50.8944 38.9062 52.7344 40.7462 52.7344 43.0078C52.7344 45.2694 50.8944 47.1094 48.6328 47.1094C46.3712 47.1094 44.5312 45.2694 44.5312 43.0078C44.5312 40.7462 46.3712 38.9062 48.6328 38.9062ZM29.8828 38.9062C32.1444 38.9062 33.9844 40.7462 33.9844 43.0078C33.9844 45.2694 32.1444 47.1094 29.8828 47.1094C27.6212 47.1094 25.7812 45.2694 25.7812 43.0078C25.7812 40.7462 27.6212 38.9062 29.8828 38.9062ZM11.1328 38.9062C13.3944 38.9062 15.2344 40.7462 15.2344 43.0078C15.2344 45.2694 13.3944 47.1094 11.1328 47.1094C8.87121 47.1094 7.03125 45.2694 7.03125 43.0078C7.03125 40.7462 8.87121 38.9062 11.1328 38.9062ZM3.51562 55.8984C3.51562 52.9907 5.88129 50.625 8.78906 50.625H13.4766C16.3843 50.625 18.75 52.9907 18.75 55.8984V56.4844H3.51562V55.8984ZM22.2656 55.8984C22.2656 52.9907 24.6313 50.625 27.5391 50.625H32.2266C35.1343 50.625 37.5 52.9907 37.5 55.8984V56.4844H22.2656V55.8984ZM56.25 56.4844H41.0156V55.8984C41.0156 52.9907 43.3813 50.625 46.2891 50.625H50.9766C53.8843 50.625 56.25 52.9907 56.25 55.8984V56.4844Z" fill="#126DFB"/>
<path d="M58.0078 21.0937H54.737C54.4261 20.2084 54.0721 19.3477 53.6776 18.5176L55.9849 16.2103C56.3146 15.8808 56.4998 15.4336 56.4998 14.9674C56.4998 14.5012 56.3147 14.0541 55.9849 13.7245L46.0412 3.78082C45.3548 3.09445 44.2418 3.09445 43.5553 3.78082L41.2479 6.08824C40.4177 5.69367 39.5569 5.33953 38.6719 5.02875V1.75781C38.6719 0.787031 37.8848 0 36.9141 0H22.8516C21.8808 0 21.0938 0.787031 21.0938 1.75781V5.02863C20.2086 5.33941 19.3479 5.69355 18.5177 6.08801L16.2104 3.7807C15.8808 3.45105 15.4337 3.26578 14.9674 3.26578C14.5013 3.26578 14.0542 3.45094 13.7245 3.7807L3.78082 13.7244C3.45117 14.0539 3.2659 14.5011 3.2659 14.9673C3.2659 15.4335 3.45117 15.8807 3.78082 16.2102L6.08812 18.5175C5.69355 19.3477 5.33953 20.2086 5.02875 21.0936H1.75781C0.787031 21.0936 0 21.8807 0 22.8514V29.8827C0 30.8535 0.787031 31.6405 1.75781 31.6405H19.3359C20.3067 31.6405 21.0938 30.8535 21.0938 29.8827C21.0938 25.0364 25.0365 21.0936 29.8828 21.0936C34.7291 21.0936 38.6719 25.0364 38.6719 29.8827C38.6719 30.8535 39.4589 31.6405 40.4297 31.6405H58.0078C58.9786 31.6405 59.7656 30.8535 59.7656 29.8827V22.8514C59.7656 21.8808 58.9786 21.0937 58.0078 21.0937ZM29.8828 17.5781C23.6947 17.5781 18.5589 22.1699 17.7033 28.125H14.1606C15.0379 20.2259 21.7535 14.0625 29.8827 14.0625C38.0119 14.0625 44.7275 20.2259 45.6048 28.125H42.0621C41.2068 22.1699 36.0709 17.5781 29.8828 17.5781ZM56.25 28.125H49.1395C48.249 18.2834 39.9525 10.5469 29.8828 10.5469C19.8131 10.5469 11.5166 18.2834 10.6261 28.125H3.51562V24.6094H6.30609C7.08363 24.6094 7.76883 24.0986 7.99078 23.3534C8.44793 21.8184 9.04922 20.3582 9.77801 19.0134C10.1487 18.3293 10.0255 17.4831 9.47543 16.933L7.50973 14.9673L14.9675 7.50949L16.9332 9.47531C17.4833 10.0255 18.3295 10.1486 19.0137 9.77789C20.3585 9.0491 21.8187 8.44781 23.3535 7.99066C24.0986 7.76871 24.6094 7.08352 24.6094 6.30609V3.51562H35.1562V6.30609C35.1562 7.08363 35.6671 7.76871 36.4123 7.99078C37.947 8.44781 39.4071 9.04922 40.7522 9.77801C41.4361 10.1487 42.2825 10.0254 42.8325 9.47543L44.7983 7.50961L52.256 14.9674L50.2903 16.9331C49.7402 17.4832 49.6171 18.3295 49.9877 19.0136C50.7163 20.3579 51.3177 21.8181 51.775 23.3535C51.997 24.0986 52.6821 24.6095 53.4596 24.6095H56.25V28.125Z" fill="black"/>
</svg>
