<svg width="64" height="64" viewBox="0 0 64 64" fill="none" xmlns="http://www.w3.org/2000/svg">
<path d="M58.375 0H5.625C2.52338 0 0 2.52338 0 5.625V50.875C0 53.9766 2.52338 56.5 5.625 56.5H22.5V60.25H16.875C15.8395 60.25 15 61.0895 15 62.125C15 63.1605 15.8395 64 16.875 64H47C48.0355 64 48.875 63.1605 48.875 62.125C48.875 61.0895 48.0355 60.25 47 60.25H41.375V56.5H58.375C61.4766 56.5 64 53.9766 64 50.875V5.625C64 2.52338 61.4766 0 58.375 0ZM37.625 60.25H26.25V56.5H37.625V60.25ZM60.25 50.875C60.25 51.9089 59.4089 52.75 58.375 52.75H5.625C4.59113 52.75 3.75 51.9089 3.75 50.875V49H60.25V50.875ZM60.25 45.25H3.75V5.625C3.75 4.59113 4.59113 3.75 5.625 3.75H58.375C59.4089 3.75 60.25 4.59113 60.25 5.625V45.25Z" fill="black"/>
<path d="M32 15C30.9645 15 30.125 15.8395 30.125 16.875V24.625C30.125 25.6605 30.9645 26.5 32 26.5C33.0355 26.5 33.875 25.6605 33.875 24.625V16.875C33.875 15.8395 33.0355 15 32 15Z" fill="#126DFB"/>
<path d="M32 7.5C22.6914 7.5 15 15.2709 15 24.625C15 33.9299 22.6261 41.5 32 41.5C41.3049 41.5 48.875 33.9299 48.875 24.625C48.875 15.3231 41.3565 7.5 32 7.5ZM32 37.75C24.6939 37.75 18.75 31.8621 18.75 24.625C18.75 17.375 24.8177 11.25 32 11.25C39.2371 11.25 45.125 17.25 45.125 24.625C45.125 31.8621 39.2371 37.75 32 37.75Z" fill="#126DFB"/>
<path d="M31.9836 30.25C30.9393 30.25 30.0898 31.0995 30.0898 32.1437C30.0898 33.188 30.9395 34.0375 31.9836 34.0375C33.0278 34.0375 33.8773 33.188 33.8773 32.1437C33.8773 31.0995 33.0278 30.25 31.9836 30.25Z" fill="#126DFB"/>
</svg>
