<svg width="49" height="64" viewBox="0 0 49 64" fill="none" xmlns="http://www.w3.org/2000/svg">
<path d="M28.8618 42.1491L22.6876 48.3233L20.2633 45.8991C19.5312 45.1669 18.3439 45.1669 17.6117 45.8991C16.8794 46.6314 16.8794 47.8185 17.6117 48.5508L21.3617 52.3008C22.0938 53.033 23.2811 53.0331 24.0133 52.3008L31.5133 44.8008C32.2456 44.0685 32.2456 42.8814 31.5133 42.1491C30.7812 41.4168 29.5939 41.4168 28.8618 42.1491Z" fill="#126DFB"/>
<path d="M13.125 22.5H35.625C36.6605 22.5 37.5 21.6605 37.5 20.625C37.5 19.5895 36.6605 18.75 35.625 18.75H13.125C12.0895 18.75 11.25 19.5895 11.25 20.625C11.25 21.6605 12.0895 22.5 13.125 22.5Z" fill="#126DFB"/>
<path d="M13.125 30H35.625C36.6605 30 37.5 29.1605 37.5 28.125C37.5 27.0895 36.6605 26.25 35.625 26.25H13.125C12.0895 26.25 11.25 27.0895 11.25 28.125C11.25 29.1605 12.0895 30 13.125 30Z" fill="#126DFB"/>
<path d="M37.5 35.625C37.5 34.5895 36.6605 33.75 35.625 33.75H13.125C12.0895 33.75 11.25 34.5895 11.25 35.625C11.25 36.6605 12.0895 37.5 13.125 37.5H35.625C36.6605 37.5 37.5 36.6605 37.5 35.625Z" fill="#126DFB"/>
<path d="M31.875 3.75H29.6787C28.9049 1.56737 26.8196 0 24.375 0C21.9304 0 19.8451 1.56737 19.0713 3.75H16.875C14.4306 3.75 12.3465 5.31775 11.5725 7.5H1.875C0.8395 7.5 0 8.3395 0 9.375V62.125C0 63.1605 0.8395 64 1.875 64H46.875C47.9105 64 48.75 63.1605 48.75 62.125V9.375C48.75 8.3395 47.9105 7.5 46.875 7.5H37.1775C36.4035 5.31775 34.3194 3.75 31.875 3.75ZM16.875 7.5H20.625C21.6605 7.5 22.5 6.6605 22.5 5.625C22.5 4.59113 23.3411 3.75 24.375 3.75C25.4089 3.75 26.25 4.59113 26.25 5.625C26.25 6.6605 27.0895 7.5 28.125 7.5H31.875C32.9089 7.5 33.75 8.34113 33.75 9.375V11.25H15V9.375C15 8.34113 15.8411 7.5 16.875 7.5ZM45 60.25H3.75V11.25H11.25V13.125C11.25 14.1605 12.0895 15 13.125 15H35.625C36.6605 15 37.5 14.1605 37.5 13.125V11.25H45V60.25Z" fill="black"/>
</svg>
