<svg width="60" height="60" viewBox="0 0 60 60" fill="none" xmlns="http://www.w3.org/2000/svg">
<path d="M16.5936 24.7772C15.7264 24.3435 14.6709 24.695 14.237 25.5627L11.8138 30.4092L10.024 28.6193C9.33813 27.9334 8.22588 27.9334 7.53989 28.6193C6.85389 29.3053 6.85389 30.4175 7.53989 31.1035L11.053 34.6166C11.9021 35.4658 13.3312 35.2298 13.8661 34.1601L17.3792 27.1339C17.813 26.2663 17.4614 25.211 16.5936 24.7772Z" fill="black"/>
<path d="M16.5936 38.8295C15.7264 38.3959 14.6709 38.7473 14.237 39.6151L11.8138 44.4615L10.024 42.6717C9.33813 41.9857 8.22588 41.9857 7.53989 42.6717C6.85389 43.3577 6.85389 44.4698 7.53989 45.1558L11.053 48.6689C11.9004 49.5164 13.3302 49.2843 13.8661 48.2125L17.3792 41.1863C17.813 40.3186 17.4614 39.2634 16.5936 38.8295Z" fill="black"/>
<path d="M36.8877 24.5917H26.3484C25.3783 24.5917 24.5918 25.3781 24.5918 26.3482C24.5918 27.3183 25.3783 28.1048 26.3484 28.1048H36.8877C37.8578 28.1048 38.6442 27.3183 38.6442 26.3482C38.6442 25.3781 37.8578 24.5917 36.8877 24.5917Z" fill="black"/>
<path d="M36.8871 31.6179H22.8347C21.8646 31.6179 21.0781 32.4044 21.0781 33.3745C21.0781 34.3446 21.8646 35.131 22.8347 35.131H36.8871C37.8572 35.131 38.6437 34.3446 38.6437 33.3745C38.6437 32.4044 37.8572 31.6179 36.8871 31.6179Z" fill="black"/>
<path d="M36.8877 38.6443H26.3484C25.3783 38.6443 24.5918 39.4308 24.5918 40.4008C24.5918 41.3709 25.3783 42.1574 26.3484 42.1574H36.8877C37.8578 42.1574 38.6442 41.3709 38.6442 40.4008C38.6442 39.4308 37.8578 38.6443 36.8877 38.6443Z" fill="black"/>
<path d="M36.8871 45.6704H22.8347C21.8646 45.6704 21.0781 46.4569 21.0781 47.427C21.0781 48.3971 21.8646 49.1835 22.8347 49.1835H36.8871C37.8572 49.1835 38.6437 48.3971 38.6437 47.427C38.6437 46.4569 37.8572 45.6704 36.8871 45.6704Z" fill="black"/>
<path d="M40.4008 10.5393H38.3421C37.617 8.49482 35.6645 7.02622 33.3745 7.02622H31.4415C30.6253 3.02233 27.0766 0 22.8352 0C18.5938 0 15.0451 3.02233 14.2289 7.02622H12.2959C10.0059 7.02622 8.05345 8.49482 7.32835 10.5393H5.26966C2.36397 10.5393 0 12.9033 0 15.809V54.5703C0 57.476 2.36397 59.84 5.26966 59.84H40.4008C43.3064 59.84 45.6704 57.476 45.6704 54.5703V15.809C45.6704 12.9033 43.3064 10.5393 40.4008 10.5393ZM10.5393 12.2959C10.5393 11.3273 11.3273 10.5393 12.2959 10.5393H15.809C16.7791 10.5393 17.5655 9.75286 17.5655 8.78277C17.5655 5.87708 19.9295 3.51311 22.8352 3.51311C25.7409 3.51311 28.1049 5.87708 28.1049 8.78277C28.1049 9.75286 28.8913 10.5393 29.8614 10.5393H33.3745C34.3431 10.5393 35.1311 11.3273 35.1311 12.2959V14.0524H10.5393V12.2959ZM42.1573 54.5703C42.1573 55.5389 41.3693 56.3269 40.4008 56.3269H5.26966C4.3011 56.3269 3.51311 55.5389 3.51311 54.5703V15.809C3.51311 14.8404 4.3011 14.0524 5.26966 14.0524H7.02622V15.809C7.02622 16.7791 7.81269 17.5655 8.78277 17.5655H36.8876C37.8577 17.5655 38.6442 16.7791 38.6442 15.809V14.0524H40.4008C41.3693 14.0524 42.1573 14.8404 42.1573 15.809V54.5703Z" fill="black"/>
<path d="M59.7718 18.5366L56.2587 11.5104C55.612 10.2168 53.7617 10.2197 53.1166 11.5104L49.6035 18.5366C49.4814 18.7805 49.418 19.0495 49.418 19.3221V54.5703C49.418 57.476 51.7819 59.84 54.6876 59.84C57.5933 59.84 59.9573 57.476 59.9573 54.5703V19.3221C59.9573 19.0494 59.8938 18.7805 59.7718 18.5366ZM56.4442 54.5703C56.4442 55.5389 55.6562 56.3269 54.6876 56.3269C53.7191 56.3269 52.9311 55.5389 52.9311 54.5703V49.1836H56.4442V54.5703ZM56.4442 45.6705H52.9311V19.7368L54.6876 16.2237L56.4442 19.7368V45.6705Z" fill="#126DFB"/>
<path d="M22.8347 10.5394C23.8048 10.5394 24.5912 9.75292 24.5912 8.7828C24.5912 7.81268 23.8048 7.02625 22.8347 7.02625C21.8646 7.02625 21.0781 7.81268 21.0781 8.7828C21.0781 9.75292 21.8646 10.5394 22.8347 10.5394Z" fill="black"/>
</svg>
