<svg width="70" height="70" viewBox="0 0 70 70" fill="none" xmlns="http://www.w3.org/2000/svg">
<path d="M57.4388 35.2896C56.3276 35.2896 55.2886 35.603 54.4044 36.1455C53.3364 34.842 51.715 34.0086 49.9023 34.0086C48.8965 34.0086 47.9497 34.2652 47.1234 34.7162C46.0692 33.221 44.3303 32.2415 42.3657 32.2415C41.7682 32.2415 41.1914 32.3323 40.6482 32.5005V25.6064C40.6482 22.3536 38.0019 19.7074 34.749 19.7074C31.4962 19.7074 28.8499 22.3536 28.8499 25.6064V39.9084C27.8678 38.9945 26.6593 38.3496 25.3168 38.04C23.2955 37.5729 21.2143 37.9231 19.4562 39.0236L17.8807 40.0101C16.9585 40.5876 16.6478 41.7845 17.1726 42.7374C17.2428 42.8647 24.2109 55.5291 27.0343 61.5794C27.0904 61.6995 27.1467 61.8177 27.2037 61.9354C29.5688 66.804 34.6321 69.9501 40.1033 69.9501H48.513C52.3967 69.9501 56.0551 68.4447 58.8141 65.7115C61.5731 62.9784 63.1126 59.3344 63.1493 55.4508L63.2578 41.1085C63.2577 37.9 60.6473 35.2896 57.4388 35.2896ZM59.0479 55.4124C58.9938 61.167 54.2679 65.8488 48.5129 65.8488H40.1031C36.1916 65.8488 32.5764 63.6093 30.8932 60.1443C30.8457 60.0465 30.7984 59.9474 30.751 59.8456C28.4682 54.9538 23.7166 46.1635 21.6966 42.4604C22.5113 41.9728 23.4664 41.822 24.3942 42.0361C25.3322 42.2525 26.1316 42.8162 26.6499 43.6255L29.11 48.0301C29.5653 48.8452 30.5139 49.2498 31.4171 49.0147C32.3206 48.7795 32.9511 47.9637 32.9511 47.0301V25.6064C32.9511 24.6151 33.7576 23.8088 34.7489 23.8088C35.7402 23.8088 36.5467 24.6151 36.5467 25.6064V43.8917C36.5467 45.0242 37.4648 45.9424 38.5974 45.9424C39.7299 45.9424 40.6481 45.0242 40.6481 43.8917V38.0605C40.6481 37.1135 41.4186 36.3431 42.3656 36.3431C43.3126 36.3431 44.0831 37.1136 44.0831 38.0605V43.8917C44.0831 45.0242 45.0013 45.9424 46.1338 45.9424C47.2664 45.9424 48.1845 45.0242 48.1845 43.8917V39.8273C48.1845 38.8803 48.955 38.11 49.9021 38.11C50.8491 38.11 51.6196 38.8805 51.6196 39.8273V43.8917C51.6196 45.0242 52.5377 45.9424 53.6703 45.9424C54.8028 45.9424 55.721 45.0242 55.721 43.8917V41.1086C55.721 40.1615 56.4915 39.3911 57.4385 39.3911C58.3855 39.3911 59.156 40.1616 59.156 41.1086L59.0479 55.4124Z" fill="black"/>
<path d="M60.1493 9.84772C59.3486 9.04699 58.0501 9.04699 57.2492 9.84772L55.7793 11.3177L54.3093 9.84772C53.5086 9.04685 52.2102 9.04685 51.4092 9.84772C50.6084 10.6484 50.6084 11.947 51.4092 12.7478L52.8792 14.2178L51.4094 15.6876C50.6085 16.4883 50.6085 17.7868 51.4094 18.5877C51.8098 18.9881 52.3347 19.1884 52.8594 19.1884C53.3841 19.1884 53.909 18.9881 54.3093 18.5877L55.7793 17.1177L57.2492 18.5877C57.6497 18.9882 58.1744 19.1884 58.6992 19.1884C59.2239 19.1884 59.7489 18.9881 60.1492 18.5877C60.95 17.7869 60.95 16.4884 60.1492 15.6876L58.6792 14.2176L60.1492 12.7477C60.9502 11.947 60.9502 10.6484 60.1493 9.84772Z" fill="#126DFB"/>
<path d="M55.7801 0C47.9404 0 41.5625 6.37794 41.5625 14.2176C41.5625 22.0573 47.9404 28.4353 55.7801 28.4353C63.6197 28.4353 69.9978 22.0573 69.9978 14.2176C69.9978 6.37794 63.6198 0 55.7801 0ZM55.7801 24.3339C50.202 24.3339 45.6639 19.7958 45.6639 14.2176C45.6639 8.63945 50.202 4.1014 55.7801 4.1014C61.3582 4.1014 65.8964 8.63945 65.8964 14.2176C65.8964 19.7958 61.3583 24.3339 55.7801 24.3339Z" fill="#126DFB"/>
<path d="M28.4353 14.2176C28.4353 6.37794 22.0573 0 14.2176 0C6.37794 0 0 6.37808 0 14.2176C0 22.0572 6.37794 28.4353 14.2176 28.4353C22.0572 28.4353 28.4353 22.0573 28.4353 14.2176ZM14.2176 24.3339C8.63945 24.3339 4.1014 19.7958 4.1014 14.2176C4.1014 8.63945 8.63945 4.1014 14.2176 4.1014C19.7957 4.1014 24.3339 8.63945 24.3339 14.2176C24.3339 19.7958 19.7957 24.3339 14.2176 24.3339Z" fill="#126DFB"/>
<path d="M16.1052 10.7948L12.8696 14.0287L11.5878 12.8822C10.7436 12.1271 9.44726 12.1993 8.69219 13.0434C7.93713 13.8876 8.00931 15.1839 8.85338 15.9391L11.5805 18.3786C11.9707 18.7278 12.4596 18.9008 12.9474 18.9008C13.4733 18.9008 13.9982 18.6996 14.3974 18.3005L19.0046 13.6958C19.8056 12.8952 19.806 11.5967 19.0053 10.7957C18.2046 9.99466 16.9062 9.99438 16.1052 10.7948Z" fill="#126DFB"/>
</svg>
