<svg width="80" height="80" viewBox="0 0 80 80" fill="none" xmlns="http://www.w3.org/2000/svg">
<path d="M40.0006 60.3333C22.6673 60.3333 9.00065 42 8.33398 41.3333C7.66732 40.6667 7.66732 39.6667 8.33398 39C9.00065 38.3333 22.334 20 40.0006 20C57.6673 20 71.0006 38.3333 71.6673 39C72.334 39.6667 72.334 40.6667 71.6673 41.3333C71.0006 42 57.334 60.3333 40.0006 60.3333ZM12.6673 40C16.0006 44 27.0006 56.3333 40.0006 56.3333C53.0006 56.3333 64.334 44 67.334 40C64.0006 36 53.0006 23.6667 40.0006 23.6667C27.0006 23.6667 15.6673 36 12.6673 40Z" fill="#126DFB"/>
<path d="M39.9994 50.3333C34.3327 50.3333 29.666 45.6666 29.666 40C29.666 34.3333 34.3327 29.6666 39.9994 29.6666C45.666 29.6666 50.3327 34.3333 50.3327 40C50.3327 45.6666 45.666 50.3333 39.9994 50.3333ZM39.9994 33.6666C36.3327 33.6666 33.666 36.3333 33.666 40C33.666 43.6666 36.3327 46.3333 39.9994 46.3333C43.666 46.3333 46.3327 43.6666 46.3327 40C46.3327 36.3333 43.666 33.6666 39.9994 33.6666Z" fill="#126DFB"/>
<path d="M19.9993 75.3333H6.66602C5.66602 75.3333 4.66602 74.3333 4.66602 73.3333V60C4.66602 59 5.66602 58 6.66602 58C7.66602 58 8.66601 59 8.66601 60V71.3333H19.9993C20.9993 71.3333 21.9993 72.3333 21.9993 73.3333C21.9993 74.3333 20.9993 75.3333 19.9993 75.3333Z" fill="black"/>
<path d="M73.3333 22C72.3333 22 71.3333 21 71.3333 20V8.66663H60C59 8.66663 58 7.66663 58 6.66663C58 5.66663 59 4.66663 60 4.66663H73.3333C74.3333 4.66663 75.3333 5.66663 75.3333 6.66663V20C75.3333 21 74.3333 22 73.3333 22Z" fill="black"/>
<path d="M6.66602 22C5.66602 22 4.66602 21 4.66602 20V6.66663C4.66602 5.66663 5.66602 4.66663 6.66602 4.66663H19.9993C20.9993 4.66663 21.9993 5.66663 21.9993 6.66663C21.9993 7.66663 20.9993 8.66663 19.9993 8.66663H8.66601V20C8.66601 21 7.66602 22 6.66602 22Z" fill="black"/>
<path d="M73.3333 75.3333H60C59 75.3333 58 74.3333 58 73.3333C58 72.3333 59 71.3333 60 71.3333H71.3333V60C71.3333 59 72.3333 58 73.3333 58C74.3333 58 75.3333 59 75.3333 60V73.3333C75.3333 74.3333 74.3333 75.3333 73.3333 75.3333Z" fill="black"/>
</svg>
