<svg width="80" height="80" viewBox="0 0 80 80" fill="none" xmlns="http://www.w3.org/2000/svg">
<path d="M0 20C0 8.95431 8.95431 0 20 0H60C71.0457 0 80 8.95431 80 20V60C80 71.0457 71.0457 80 60 80H20C8.95431 80 0 71.0457 0 60V20Z" fill="url(#paint0_linear_737_2836)"/>
<g clip-path="url(#clip0_737_2836)">
<path d="M54.0973 18H25.9027C21.545 18 18 21.545 18 25.9027V54.0972C18 58.455 21.545 62 25.9027 62H54.0973C58.455 62 62 58.455 62 54.0973V25.9027C62 21.545 58.455 18 54.0973 18ZM55.1843 52.3373H41.0827C39.8433 56.0059 34.6369 56.0115 33.3957 52.3373H24.8157C23.1037 52.3373 23.1032 49.749 24.8157 49.749H33.3957C34.635 46.0803 39.8415 46.0747 41.0827 49.749H55.1843C56.8963 49.749 56.8969 52.3373 55.1843 52.3373ZM55.1843 41.2941H52.1259C50.8865 44.9628 45.68 44.9684 44.4388 41.2941H24.8157C23.1037 41.2941 23.1032 38.7059 24.8157 38.7059H44.4388C45.6781 35.0372 50.8847 35.0316 52.126 38.7059H55.1844C56.8963 38.7059 56.8969 41.2941 55.1843 41.2941ZM55.1843 30.251H35.5612C34.3218 33.9197 29.1153 33.9253 27.8741 30.251H24.8157C23.1037 30.251 23.1032 27.6627 24.8157 27.6627H27.8741C29.1134 23.9941 34.32 23.9885 35.5612 27.6627H55.1843C56.8963 27.6627 56.8969 30.251 55.1843 30.251Z" fill="white"/>
<path d="M37.2392 49.5764C35.2987 49.5764 35.2997 52.5097 37.2392 52.5097C39.1797 52.5098 39.1786 49.5764 37.2392 49.5764Z" fill="white"/>
<path d="M31.7177 27.4901C29.7772 27.4901 29.7782 30.4234 31.7177 30.4234C33.6582 30.4235 33.6572 27.4901 31.7177 27.4901Z" fill="white"/>
<path d="M48.2822 38.5333C46.3416 38.5333 46.3427 41.4666 48.2822 41.4666C50.2227 41.4667 50.2217 38.5333 48.2822 38.5333Z" fill="white"/>
</g>
<defs>
<linearGradient id="paint0_linear_737_2836" x1="0" y1="40" x2="80" y2="40" gradientUnits="userSpaceOnUse">
<stop stop-color="#0035E5"/>
<stop offset="0.7" stop-color="#298CFF"/>
</linearGradient>
<clipPath id="clip0_737_2836">
<rect width="44" height="44" fill="white" transform="translate(18 18)"/>
</clipPath>
</defs>
</svg>
