<svg width="80" height="80" viewBox="0 0 80 80" fill="none" xmlns="http://www.w3.org/2000/svg">
<rect width="80" height="80" rx="20" fill="url(#paint0_linear_737_2897)"/>
<path d="M21.667 36.3333V52.8333C21.6681 54.2916 22.2479 55.6899 23.2791 56.7211C24.3103 57.7523 25.7086 58.3321 27.167 58.3333H52.8336C54.292 58.3321 55.6902 57.7523 56.7215 56.7211C57.7527 55.6899 58.3325 54.2916 58.3336 52.8333V36.3333H21.667ZM47.7132 44.0461L39.4632 52.2961C39.293 52.4664 39.0909 52.6015 38.8685 52.6937C38.6461 52.7858 38.4077 52.8333 38.167 52.8333C37.9262 52.8333 37.6878 52.7858 37.4654 52.6937C37.243 52.6015 37.0409 52.4664 36.8707 52.2961L32.2874 47.7128C31.9436 47.3691 31.7505 46.9028 31.7505 46.4166C31.7505 45.9304 31.9436 45.4641 32.2874 45.1204C32.6312 44.7766 33.0975 44.5834 33.5836 44.5834C34.0698 44.5834 34.5361 44.7766 34.8799 45.1204L38.167 48.4075L45.1207 41.4538C45.2908 41.2828 45.4929 41.1472 45.7155 41.0545C45.9381 40.9618 46.1767 40.914 46.4178 40.9137C46.659 40.9134 46.8977 40.9606 47.1206 41.0528C47.3434 41.1449 47.5458 41.2801 47.7163 41.4505C47.8868 41.621 48.022 41.8235 48.1141 42.0463C48.2063 42.2691 48.2535 42.5079 48.2532 42.749C48.2529 42.9901 48.2051 43.2288 48.1124 43.4514C48.0198 43.674 47.8841 43.8761 47.7132 44.0461Z" fill="white"/>
<path d="M52.8336 22.5833V23.4999C52.8336 24.9586 52.2541 26.3576 51.2227 27.389C50.1912 28.4205 48.7923 28.9999 47.3336 28.9999C45.8749 28.9999 44.476 28.4205 43.4445 27.389C42.4131 26.3576 41.8336 24.9586 41.8336 23.4999V22.5833H38.167V23.4999C38.167 24.9586 37.5875 26.3576 36.5561 27.389C35.5246 28.4205 34.1257 28.9999 32.667 28.9999C31.2083 28.9999 29.8094 28.4205 28.7779 27.389C27.7465 26.3576 27.167 24.9586 27.167 23.4999V22.5833C25.7087 22.5844 24.3104 23.1642 23.2792 24.1954C22.248 25.2266 21.6681 26.6249 21.667 28.0833V32.6666H58.3336V28.0833C58.3325 26.6249 57.7526 25.2266 56.7214 24.1954C55.6902 23.1642 54.2919 22.5844 52.8336 22.5833Z" fill="white"/>
<path d="M49.1667 21.6667V23.5C49.1634 23.9841 48.9688 24.4472 48.6253 24.7883C48.2819 25.1294 47.8175 25.3209 47.3334 25.3209C46.8493 25.3209 46.3849 25.1294 46.0414 24.7883C45.698 24.4472 45.5034 23.9841 45.5 23.5V21.6667C45.4984 21.4249 45.5446 21.1852 45.636 20.9613C45.7274 20.7374 45.8622 20.5338 46.0326 20.3622C46.203 20.1907 46.4056 20.0545 46.6289 19.9616C46.8521 19.8686 47.0916 19.8208 47.3334 19.8208C47.5752 19.8208 47.8146 19.8686 48.0379 19.9616C48.2612 20.0545 48.4638 20.1907 48.6342 20.3622C48.8046 20.5338 48.9394 20.7374 49.0308 20.9613C49.1222 21.1852 49.1684 21.4249 49.1667 21.6667Z" fill="white"/>
<path d="M34.4997 21.6667V23.5C34.4964 23.9841 34.3018 24.4472 33.9584 24.7883C33.6149 25.1294 33.1505 25.3209 32.6664 25.3209C32.1823 25.3209 31.7179 25.1294 31.3744 24.7883C31.031 24.4472 30.8364 23.9841 30.8331 23.5V21.6667C30.8314 21.4249 30.8776 21.1852 30.969 20.9613C31.0604 20.7374 31.1952 20.5338 31.3656 20.3622C31.536 20.1907 31.7386 20.0545 31.9619 19.9616C32.1851 19.8686 32.4246 19.8208 32.6664 19.8208C32.9082 19.8208 33.1477 19.8686 33.3709 19.9616C33.5942 20.0545 33.7968 20.1907 33.9672 20.3622C34.1376 20.5338 34.2724 20.7374 34.3638 20.9613C34.4552 21.1852 34.5014 21.4249 34.4997 21.6667Z" fill="white"/>
<defs>
<linearGradient id="paint0_linear_737_2897" x1="0" y1="40" x2="80" y2="40" gradientUnits="userSpaceOnUse">
<stop stop-color="#0035E5"/>
<stop offset="0.7" stop-color="#298CFF"/>
</linearGradient>
</defs>
</svg>
