<svg width="80" height="80" viewBox="0 0 80 80" fill="none" xmlns="http://www.w3.org/2000/svg">
<rect width="80" height="80" rx="20" fill="url(#paint0_linear_737_2861)"/>
<path d="M29.0162 29.9167C29.0162 28.4663 29.4463 27.0485 30.2521 25.8425C31.0579 24.6366 32.2032 23.6966 33.5432 23.1416C34.8832 22.5866 36.3576 22.4413 37.7802 22.7243C39.2027 23.0072 40.5094 23.7057 41.535 24.7313C42.5605 25.7568 43.259 27.0635 43.5419 28.486C43.8249 29.9086 43.6797 31.3831 43.1246 32.7231C42.5696 34.063 41.6297 35.2084 40.4237 36.0142C39.2177 36.82 37.7999 37.25 36.3495 37.25C34.4046 37.25 32.5393 36.4774 31.1641 35.1022C29.7888 33.7269 29.0162 31.8616 29.0162 29.9167ZM42.0163 52.5034C41.5307 52.0504 41.1846 51.468 41.0189 50.8249C40.8533 50.1817 40.8749 49.5046 41.0813 48.8734C41.282 48.2334 41.6612 47.664 42.1743 47.2321C42.6875 46.8002 43.3132 46.5237 43.978 46.435L46.2697 46.105C46.2697 46.105 46.6363 46.0702 46.7463 45.8484L47.4797 44.3817C47.5384 44.2755 47.5639 44.1542 47.553 44.0334C47.5302 43.93 47.4794 43.8349 47.4063 43.7584C46.4422 42.7888 45.2838 42.0344 44.0072 41.5446C42.7307 41.0548 41.3649 40.8408 39.9997 40.9167H32.6663C25.223 40.9167 22.583 46.3617 22.583 51.0367C22.583 55.2167 24.8013 57.4167 28.9997 57.4167H42.9147C43.208 57.4167 43.395 57.1967 43.483 56.72L43.8497 54.6117C43.8693 54.522 43.8644 54.4286 43.8353 54.3415C43.8063 54.2544 43.7542 54.1767 43.6847 54.1167L42.0163 52.5034ZM58.0892 50.5215C58.1976 50.4172 58.2743 50.2843 58.3104 50.1382C58.3465 49.9921 58.3405 49.8388 58.2932 49.6959C58.2458 49.5531 58.159 49.4266 58.0428 49.331C57.9265 49.2354 57.7856 49.1746 57.6363 49.1557L53.9843 48.6369C53.8542 48.6188 53.7304 48.5695 53.6234 48.4932C53.5165 48.4169 53.4296 48.3159 53.3702 48.1987L51.7862 45.06C51.712 44.9162 51.5996 44.7955 51.4613 44.7112C51.3231 44.627 51.1643 44.5824 51.0024 44.5824C50.8405 44.5824 50.6818 44.627 50.5435 44.7112C50.4053 44.7955 50.2929 44.9162 50.2187 45.06L48.6365 48.1987C48.577 48.3158 48.49 48.4168 48.3831 48.4931C48.2762 48.5693 48.1524 48.6187 48.0223 48.6369L44.3703 49.1557C44.2206 49.1739 44.0792 49.2343 43.9625 49.3298C43.8458 49.4253 43.7587 49.552 43.7112 49.6952C43.6637 49.8383 43.6579 49.992 43.6945 50.1383C43.731 50.2846 43.8083 50.4175 43.9175 50.5215L46.5575 53.0405C46.6526 53.1304 46.724 53.2423 46.7652 53.3665C46.8065 53.4906 46.8164 53.623 46.794 53.7519L46.1908 57.1967C46.1654 57.3564 46.1849 57.52 46.2474 57.6692C46.3098 57.8184 46.4126 57.9471 46.5443 58.0411C46.6759 58.135 46.8311 58.1903 46.9925 58.2008C47.1539 58.2113 47.315 58.1766 47.4577 58.1005L50.6238 56.4725C50.7412 56.4119 50.8713 56.3803 51.0033 56.3803C51.1354 56.3803 51.2655 56.4119 51.3828 56.4725L54.5508 58.1024C54.6935 58.1779 54.8544 58.2122 55.0154 58.2015C55.1765 58.1907 55.3314 58.1353 55.4627 58.0415C55.5941 57.9476 55.6967 57.8191 55.759 57.6702C55.8214 57.5213 55.8411 57.358 55.8158 57.1985L55.2163 53.75C55.1941 53.6213 55.2038 53.4891 55.2447 53.365C55.2857 53.241 55.3565 53.1289 55.451 53.0387L58.0892 50.5215Z" fill="white"/>
<defs>
<linearGradient id="paint0_linear_737_2861" x1="0" y1="40" x2="80" y2="40" gradientUnits="userSpaceOnUse">
<stop stop-color="#0035E5"/>
<stop offset="0.7" stop-color="#298CFF"/>
</linearGradient>
</defs>
</svg>
