<svg width="80" height="80" viewBox="0 0 80 80" fill="none" xmlns="http://www.w3.org/2000/svg">
<rect width="80" height="80" rx="20" fill="url(#paint0_linear_737_2847)"/>
<g clip-path="url(#clip0_737_2847)">
<path d="M53.93 41.301C54.2114 43.9716 53.8486 46.7349 52.7373 49.3452V49.3462L56.5951 54.3285C56.9404 54.7745 57.5877 54.8357 58.0153 54.4679C61.4794 51.4868 63.7715 47.1837 64.1111 42.3415C64.1507 41.7778 63.6971 41.3011 63.132 41.3011H53.93V41.301Z" fill="white"/>
<path d="M44.2441 15.9813V28.1642C47.5124 29.5786 50.2255 32.0416 51.9577 35.1255H63.1576C63.7114 35.1255 64.1595 34.6671 64.1381 34.1137C63.7394 23.757 55.4821 15.5194 45.2666 15.0013C44.7093 14.973 44.2441 15.4232 44.2441 15.9813Z" fill="white"/>
<path d="M38.0029 59.2159C29.0861 59.3081 21.7172 52.0786 21.6452 43.1615C21.5725 34.1747 28.8626 26.84 37.833 26.84V22.062C37.833 21.5029 37.3662 21.0556 36.8077 21.0812C25.1501 21.6168 15.8614 31.2377 15.8613 43.0284C15.8613 55.1864 25.8196 65.0778 37.9772 64.9996C42.5621 64.9701 46.8123 63.5369 50.3209 61.1085C50.7825 60.789 50.8796 60.1461 50.5359 59.7021L47.6102 55.9231C44.9334 57.9568 41.6079 59.1786 38.0029 59.2159Z" fill="white"/>
<path d="M24.5869 43.0284C24.5869 50.332 30.5291 56.2742 37.8326 56.2742C45.1355 56.2742 51.0784 50.3332 51.0784 43.0284C51.0784 35.7251 45.1355 29.7827 37.8326 29.7827C30.5291 29.7827 24.5869 35.7249 24.5869 43.0284ZM39.304 34.229V35.6327C40.8124 35.6327 42.1476 36.2742 43.0892 37.2786C43.6443 37.871 43.6139 38.8028 43.0215 39.358C42.4327 39.9097 41.5053 39.8886 40.942 39.2903C40.5202 38.8411 39.9455 38.5802 39.3638 38.5753C38.1732 38.5753 37.3684 38.5753 36.1828 38.5753C35.3582 38.5753 34.6919 39.2434 34.6919 40.0662C34.6919 40.8882 35.3608 41.5571 36.1838 41.5571H39.4825C41.9268 41.5571 43.916 43.5464 43.916 45.9907C43.916 48.2748 42.1592 50.4252 39.304 50.4252V51.8279C39.304 52.64 38.6458 53.2992 37.8326 53.2992C37.0205 53.2992 36.3613 52.64 36.3613 51.8279V50.4252C35.3249 50.4252 34.3039 50.313 33.1078 49.4836C32.4408 49.0206 32.275 48.1035 32.738 47.4365C33.201 46.7685 34.1181 46.6028 34.7851 47.0657C35.1382 47.3129 35.5767 47.4769 36.0131 47.4826H39.4825C40.3018 47.4826 40.9734 46.8211 40.9734 45.9907C40.9734 45.1687 40.3045 44.4998 39.4825 44.4998C38.0227 44.4998 37.7219 44.4998 36.1838 44.4998C33.7385 44.4998 31.7493 42.5105 31.7493 40.0662C31.7493 37.775 33.5124 35.6327 36.3613 35.6327V34.229C36.3613 33.4169 37.0205 32.7577 37.8326 32.7577C38.6458 32.7577 39.304 33.4169 39.304 34.229Z" fill="white"/>
</g>
<defs>
<linearGradient id="paint0_linear_737_2847" x1="0" y1="40" x2="80" y2="40" gradientUnits="userSpaceOnUse">
<stop stop-color="#0035E5"/>
<stop offset="0.7" stop-color="#298CFF"/>
</linearGradient>
<clipPath id="clip0_737_2847">
<rect width="50" height="50" fill="white" transform="translate(15 15)"/>
</clipPath>
</defs>
</svg>
