<svg width="62" height="63" viewBox="0 0 62 63" fill="none" xmlns="http://www.w3.org/2000/svg">
<path d="M59.7675 47.8863H42.593V33.4597C42.593 32.3215 41.6703 31.3988 40.5321 31.3988H21.2964C20.1583 31.3988 19.2355 32.3215 19.2355 33.4597V39.6426H2.06091C0.922728 39.6426 0 40.5653 0 41.7035V60.939C0 62.0772 0.922728 63 2.06091 63C3.11271 63 58.5875 63 59.7675 63C60.9057 63 61.8284 62.0773 61.8284 60.9391V49.9474C61.8286 48.8092 60.9057 47.8863 59.7675 47.8863ZM19.2355 58.8781H4.12194V43.7645H19.2355V58.8781ZM38.4711 58.8781H23.3575C23.3575 58.291 23.3575 36.1656 23.3575 35.5206H38.4711C38.4711 36.663 38.4711 57.767 38.4711 58.8781ZM57.7066 58.8781H42.593V52.0083H57.7066V58.8781Z" fill="black"/>
<path d="M42.7648 8.90862L35.3829 7.83577L32.0818 1.14683C31.327 -0.382152 29.1402 -0.382399 28.3856 1.14683L25.0844 7.83602L17.7024 8.90886C16.0156 9.15373 15.3388 11.2336 16.5603 12.4242L21.9018 17.6308L20.6408 24.9828C20.3528 26.6627 22.1208 27.9494 23.6312 27.1555L30.2337 23.6842L36.8362 27.1555C38.3406 27.9458 40.1153 26.6671 39.8266 24.9828L38.5656 17.6309L43.9071 12.4242C45.1276 11.2341 44.4529 9.15361 42.7648 8.90862ZM34.9126 15.4353C34.4268 15.9088 34.2051 16.5909 34.3199 17.2594L35.0582 21.5634L31.1929 19.5312C30.5923 19.2156 29.8749 19.2156 29.2747 19.5312L25.4093 21.5635L26.1476 17.2594C26.2623 16.5909 26.0407 15.9088 25.5549 15.4353L22.4279 12.3872L26.7494 11.7591C27.4208 11.6615 28.0008 11.24 28.3012 10.6318L30.2337 6.7158L32.1662 10.6318C32.4664 11.24 33.0466 11.6615 33.7179 11.7591L38.0395 12.3872L34.9126 15.4353Z" fill="#126DFB"/>
</svg>
