<svg width="70" height="70" viewBox="0 0 70 70" fill="none" xmlns="http://www.w3.org/2000/svg">
<path d="M40.5932 20.2966C40.5932 9.10492 31.4881 0 20.2966 0C9.10506 0 0 9.10492 0 20.2966C0 31.4882 9.10506 40.5932 20.2966 40.5932C31.4881 40.5932 40.5932 31.4881 40.5932 20.2966ZM4.10156 20.2966C4.10156 11.3667 11.3667 4.10156 20.2966 4.10156C29.2265 4.10156 36.4916 11.3667 36.4916 20.2966C36.4916 29.2265 29.2265 36.4916 20.2966 36.4916C11.3667 36.4916 4.10156 29.2265 4.10156 20.2966Z" fill="black"/>
<path d="M22.3474 30.3005V29.7147C24.262 29.074 25.7502 27.627 26.3102 25.722C27.2431 22.5493 25.6018 19.4631 22.3188 18.2171C21.8363 18.034 21.401 17.8832 21.017 17.75C19.817 17.3343 19.3113 17.1468 18.8437 16.6749C18.4912 16.3191 18.3352 15.8857 18.4156 15.4854C18.4953 15.0884 18.8064 14.759 19.2912 14.5579C20.0586 14.2395 21.545 14.6975 22.5544 15.2901C23.5311 15.8636 24.7877 15.5367 25.3612 14.56C25.9347 13.5833 25.6079 12.3267 24.6311 11.7531C24.2345 11.5203 23.4001 11.0735 22.3477 10.7465V10.2923C22.3477 9.15972 21.4295 8.24152 20.2969 8.24152C19.1643 8.24152 18.2461 9.15972 18.2461 10.2923V10.5832C18.0697 10.6355 17.8939 10.697 17.7193 10.7694C15.9587 11.4999 14.7468 12.9244 14.3946 14.6773C14.0458 16.4132 14.6199 18.2392 15.9305 19.5618C17.0874 20.7294 18.2864 21.1448 19.6747 21.6256C20.0497 21.7555 20.4374 21.8899 20.8637 22.0516C22.1316 22.5329 22.6968 23.4724 22.3755 24.5648C22.1196 25.4351 21.2437 25.9759 20.0893 25.9759C19.1387 25.9759 18.0714 25.6395 17.2342 25.0758C16.2944 24.4434 15.0202 24.6925 14.3878 25.632C13.7554 26.5717 14.0043 27.846 14.9439 28.4784C15.9327 29.1439 17.0787 29.622 18.2461 29.8738V30.3003C18.2461 31.4328 19.1643 32.351 20.2969 32.351C21.4295 32.351 22.3474 31.4331 22.3474 30.3005Z" fill="black"/>
<path d="M51.9219 33.8442C41.9537 33.8442 33.844 41.9539 33.844 51.9221C33.844 61.8903 41.9537 70 51.9219 70C61.8901 70 69.9998 61.8904 69.9998 51.9221C69.9998 41.9538 61.8901 33.8442 51.9219 33.8442ZM51.9219 65.8984C44.2153 65.8984 37.9456 59.6288 37.9456 51.9221C37.9456 44.2154 44.2152 37.9457 51.9219 37.9457C59.6286 37.9457 65.8983 44.2155 65.8983 51.9221C65.8983 59.6287 59.6285 65.8984 51.9219 65.8984Z" fill="#126DFB"/>
<path d="M56.6357 46.3404L49.8226 53.1535L47.2086 50.5397C46.4079 49.7388 45.1093 49.7388 44.3084 50.5397C43.5075 51.3406 43.5075 52.639 44.3084 53.4399L48.3724 57.5039C48.7728 57.9043 49.2977 58.1046 49.8224 58.1046C50.3472 58.1046 50.8722 57.9045 51.2725 57.5039L59.5358 49.2406C60.3367 48.4397 60.3367 47.1413 59.5358 46.3404C58.735 45.5394 57.4364 45.5394 56.6357 46.3404Z" fill="#126DFB"/>
<path d="M63.7206 17.8124C62.9141 17.0175 61.6157 17.027 60.8205 17.8336L60.3753 18.2853C60.0248 14.7179 58.5518 12.2042 57.1661 10.5837C54.9964 8.04647 51.8487 6.28539 48.5302 5.75191C47.4114 5.57254 46.3596 6.33297 46.1798 7.45119C46.0002 8.56942 46.7609 9.62174 47.8791 9.80153C50.7547 10.2638 55.5196 12.6405 56.2535 18.3727L55.7443 17.8708C54.9376 17.0759 53.6392 17.0854 52.8441 17.892C52.049 18.6988 52.0586 19.9972 52.8652 20.7922L56.8826 24.7512C57.2665 25.1295 57.7836 25.3413 58.3221 25.3413H58.3371C58.881 25.3373 59.4011 25.1174 59.7828 24.73L63.7418 20.7126C64.5369 19.9059 64.5274 18.6074 63.7206 17.8124Z" fill="black"/>
<path d="M22.1207 60.1985C19.2452 59.7362 14.4802 57.3595 13.7463 51.6273L14.2556 52.1292C15.0622 52.9241 16.3606 52.9149 17.1558 52.108C17.9506 51.3014 17.9412 50.0028 17.1346 49.2078L13.1172 45.2488C12.7299 44.8671 12.2126 44.6525 11.6627 44.6589C11.1188 44.6629 10.5987 44.8827 10.217 45.2702L6.25805 49.2875C5.46303 50.0943 5.4726 51.3927 6.27924 52.1877C6.67873 52.5813 7.19881 52.7778 7.71862 52.7778C8.2484 52.7778 8.77819 52.5737 9.17946 52.1665L9.62461 51.7148C9.97516 55.2822 11.4482 57.7961 12.8338 59.4164C15.0035 61.9537 18.1512 63.7147 21.4698 64.2482C21.58 64.2659 21.6896 64.2745 21.7978 64.2745C22.7871 64.2745 23.658 63.5568 23.8201 62.5488C23.9998 61.4306 23.2389 60.3783 22.1207 60.1985Z" fill="black"/>
</svg>
