<svg width="70" height="70" viewBox="0 0 70 70" fill="none" xmlns="http://www.w3.org/2000/svg">
<path d="M49.4922 24.977V20.7812H51.543C52.6755 20.7812 53.5938 19.863 53.5938 18.7305C53.5938 17.5979 52.6755 16.6797 51.543 16.6797H43.3398C42.2073 16.6797 41.2891 17.5979 41.2891 18.7305C41.2891 19.863 42.2073 20.7812 43.3398 20.7812H45.3906V24.977C34.5851 25.9555 25.9555 34.5851 24.977 45.3906H10.5273C9.39477 45.3906 8.47656 46.3088 8.47656 47.4414C8.47656 48.574 9.39477 49.4922 10.5273 49.4922H24.977C25.1718 51.6435 25.6688 53.7089 26.427 55.6445H6.42578C5.2932 55.6445 4.375 56.5627 4.375 57.6953C4.375 58.8279 5.2932 59.7461 6.42578 59.7461H28.5436C30.1168 62.1541 32.1371 64.2446 34.4862 65.8984H2.05078C0.918203 65.8984 0 66.8166 0 67.9492C0 69.0818 0.918203 70 2.05078 70H47.4414C59.8802 70 70 59.8802 70 47.4414C70 35.6938 60.9734 26.0166 49.4922 24.977ZM47.4414 65.8984C37.2642 65.8984 28.9844 57.6186 28.9844 47.4414C28.9844 37.2642 37.2642 28.9844 47.4414 28.9844C57.6186 28.9844 65.8984 37.2642 65.8984 47.4414C65.8984 57.6186 57.6186 65.8984 47.4414 65.8984Z" fill="black"/>
<path d="M20.5078 14.3555H16.1366L18.1126 11.3914C18.7408 10.449 18.4861 9.17574 17.5437 8.54752C16.6016 7.91957 15.3282 8.17387 14.6998 9.1164L10.5983 15.2687C9.63863 16.9446 10.7243 18.4573 12.3057 18.4573H16.6755L14.6996 21.4214C14.0713 22.3638 14.326 23.637 15.2684 24.2653C15.618 24.4984 16.0131 24.6099 16.4042 24.6099C17.0668 24.6099 17.7172 24.2892 18.1125 23.6965L22.214 17.5442C23.2823 15.8432 21.8588 14.3555 20.5078 14.3555Z" fill="#126DFB"/>
<path d="M16.4062 32.8125C25.4527 32.8125 32.8125 25.4527 32.8125 16.4062C32.8125 7.35984 25.4527 0 16.4062 0C7.35984 0 0 7.35984 0 16.4062C0 25.4527 7.35984 32.8125 16.4062 32.8125ZM16.4062 4.10156C23.1911 4.10156 28.7109 9.62145 28.7109 16.4062C28.7109 23.1911 23.1911 28.7109 16.4062 28.7109C9.62145 28.7109 4.10156 23.1911 4.10156 16.4062C4.10156 9.62145 9.62145 4.10156 16.4062 4.10156Z" fill="#126DFB"/>
<path d="M51.543 57.6953H43.3398C42.2073 57.6953 41.2891 58.6135 41.2891 59.7461C41.2891 60.8787 42.2073 61.7969 43.3398 61.7969H51.543C52.6755 61.7969 53.5938 60.8787 53.5938 59.7461C53.5938 58.6135 52.6755 57.6953 51.543 57.6953Z" fill="black"/>
<path d="M60.9764 52.2281C60.9766 52.2277 60.9767 52.2272 60.9768 52.2267C60.9768 52.2266 61.7969 49.0809 61.7969 47.4414C61.7969 39.5258 55.357 33.0859 47.4414 33.0859C39.5258 33.0859 33.0859 39.5258 33.0859 47.4414C33.0859 49.0819 33.3621 50.6923 33.9065 52.2282C34.285 53.2958 35.4573 53.8542 36.5247 53.4758C37.5922 53.0973 38.1508 51.9251 37.7722 50.8576C37.3842 49.763 37.1875 48.6136 37.1875 47.4414C37.1875 41.7874 41.7874 37.1875 47.4414 37.1875C53.0954 37.1875 57.6953 41.7874 57.6953 47.4414C57.6953 47.9176 57.6611 48.3898 57.5965 48.8564L48.125 45.5079C47.0571 45.1302 45.8855 45.69 45.5079 46.7579C45.1303 47.8259 45.69 48.9974 46.7579 49.375L58.358 53.4759H58.3583C58.3583 53.4759 58.3584 53.4759 58.3585 53.4759L58.36 53.4764C59.517 53.8552 60.6186 53.4369 60.9764 52.2281Z" fill="black"/>
</svg>
