<svg width="80" height="80" viewBox="0 0 80 80" fill="none" xmlns="http://www.w3.org/2000/svg">
<rect width="80" height="80" rx="20" fill="url(#paint0_linear_737_2272)"/>
<path d="M37.0405 24.655L37.2619 23.8149C37.6428 22.3725 38.8349 21.2945 40.302 21.0277C41.2494 20.8572 42.194 20.7638 43.1373 20.75C44.0819 20.7638 45.0265 20.8573 45.9725 21.0291C47.4397 21.2959 48.6318 22.3739 49.0127 23.8163L49.234 24.6564C49.6589 26.2665 48.4462 27.8423 46.781 27.8423H39.4935C37.8284 27.8423 36.6157 26.2651 37.0405 24.655Z" fill="white"/>
<path d="M53.3233 25.1088H51.7861C51.8342 26.2706 51.4822 27.4146 50.7534 28.362C49.7978 29.6036 48.3486 30.3159 46.7811 30.3159H39.4922C37.9247 30.3159 36.4768 29.6036 35.5198 28.362C34.7911 27.4146 34.4391 26.2706 34.4872 25.1088H32.9596C30.1546 25.1088 27.8721 27.3913 27.8721 30.1963V44.2281H27.8748C32.6983 44.2281 36.6226 48.1524 36.6226 52.9759C36.6226 54.1446 36.3874 55.2598 35.9694 56.28H53.3233C56.1283 56.28 58.3971 54.0113 58.3971 51.2063V30.1825C58.3971 27.3775 56.1283 25.1088 53.3233 25.1088ZM36.3971 44.8139H35.6834C35.0001 44.8139 34.4459 44.2598 34.4459 43.5764C34.4459 42.893 35.0001 42.3389 35.6834 42.3389H36.3971C37.0804 42.3389 37.6346 42.893 37.6346 43.5764C37.6346 44.2598 37.0804 44.8139 36.3971 44.8139ZM36.3971 39.0526H35.6834C35.0001 39.0526 34.4459 38.4985 34.4459 37.8151C34.4459 37.1318 35.0001 36.5776 35.6834 36.5776H36.3971C37.0804 36.5776 37.6346 37.1318 37.6346 37.8151C37.6346 38.4985 37.0804 39.0526 36.3971 39.0526ZM50.5926 44.8139H41.0157C40.3323 44.8139 39.7782 44.2598 39.7782 43.5764C39.7782 42.893 40.3323 42.3389 41.0157 42.3389H50.5926C51.2759 42.3389 51.8301 42.893 51.8301 43.5764C51.8301 44.2598 51.2759 44.8139 50.5926 44.8139ZM50.5926 39.0526H41.0157C40.3323 39.0526 39.7782 38.4985 39.7782 37.8151C39.7782 37.1318 40.3323 36.5776 41.0157 36.5776H50.5926C51.2759 36.5776 51.8301 37.1318 51.8301 37.8151C51.8301 38.4985 51.2759 39.0526 50.5926 39.0526Z" fill="white"/>
<path d="M27.8737 46.7031C24.4087 46.7031 21.5996 49.5122 21.5996 52.9773C21.5996 56.4423 24.4087 59.2514 27.8737 59.2514C31.3387 59.2514 34.1479 56.4423 34.1479 52.9773C34.1479 49.5122 31.3387 46.7031 27.8737 46.7031ZM30.7832 52.8714L27.7211 55.3395C27.5011 55.5169 27.2261 55.6131 26.9456 55.6131C26.8989 55.6131 26.8521 55.6104 26.8054 55.6049C26.4767 55.5678 26.1756 55.4 25.9721 55.1401L24.7676 53.6056C24.3455 53.068 24.4404 52.2898 24.9766 51.8676C25.5156 51.4428 26.2925 51.5404 26.7146 52.0766L27.145 52.6252L29.2309 50.945C29.7644 50.516 30.5412 50.6013 30.9716 51.132C31.3992 51.6641 31.3167 52.4424 30.7832 52.8714Z" fill="white"/>
<defs>
<linearGradient id="paint0_linear_737_2272" x1="0" y1="40" x2="80" y2="40" gradientUnits="userSpaceOnUse">
<stop stop-color="#0035E5"/>
<stop offset="0.7" stop-color="#298CFF"/>
</linearGradient>
</defs>
</svg>
