<svg width="80" height="80" viewBox="0 0 80 80" fill="none" xmlns="http://www.w3.org/2000/svg">
<rect width="80" height="80" rx="20" fill="url(#paint0_linear_737_2261)"/>
<path d="M36.2794 28.2244L37.3835 31.2907C38.61 34.6938 41.2899 37.3737 44.693 38.6002L47.7593 39.7043C48.0356 39.8047 48.0356 40.1965 47.7593 40.2955L44.693 41.3997C41.2899 42.6262 38.61 45.306 37.3835 48.7092L36.2794 51.7754C36.179 52.0518 35.7871 52.0518 35.6881 51.7754L34.584 48.7092C33.3575 45.306 30.6776 42.6262 27.2745 41.3997L24.2083 40.2955C23.9319 40.1952 23.9319 39.8033 24.2083 39.7043L27.2745 38.6002C30.6776 37.3737 33.3575 34.6938 34.584 31.2907L35.6881 28.2244C35.7871 27.9467 36.179 27.9467 36.2794 28.2244Z" fill="white"/>
<path d="M50.0817 20.8559L50.6413 22.4082C51.2628 24.1311 52.62 25.4882 54.3428 26.1097L55.8952 26.6694C56.0355 26.7202 56.0355 26.9182 55.8952 26.9691L54.3428 27.5287C52.62 28.1502 51.2628 29.5074 50.6413 31.2302L50.0817 32.7826C50.0308 32.9229 49.8328 32.9229 49.782 32.7826L49.2223 31.2302C48.6008 29.5074 47.2437 28.1502 45.5208 27.5287L43.9685 26.9691C43.8282 26.9182 43.8282 26.7202 43.9685 26.6694L45.5208 26.1097C47.2437 25.4882 48.6008 24.1311 49.2223 22.4082L49.782 20.8559C49.8328 20.7142 50.0322 20.7142 50.0817 20.8559Z" fill="white"/>
<path d="M50.0817 47.2187L50.6413 48.7711C51.2628 50.494 52.62 51.8511 54.3428 52.4726L55.8952 53.0322C56.0355 53.0831 56.0355 53.2811 55.8952 53.332L54.3428 53.8916C52.62 54.5131 51.2628 55.8702 50.6413 57.5931L50.0817 59.1455C50.0308 59.2857 49.8328 59.2857 49.782 59.1455L49.2223 57.5931C48.6008 55.8702 47.2437 54.5131 45.5208 53.8916L43.9685 53.332C43.8282 53.2811 43.8282 53.0831 43.9685 53.0322L45.5208 52.4726C47.2437 51.8511 48.6008 50.494 49.2223 48.7711L49.782 47.2187C49.8328 47.0785 50.0322 47.0785 50.0817 47.2187Z" fill="white"/>
<defs>
<linearGradient id="paint0_linear_737_2261" x1="0" y1="40" x2="80" y2="40" gradientUnits="userSpaceOnUse">
<stop stop-color="#0035E5"/>
<stop offset="0.7" stop-color="#298CFF"/>
</linearGradient>
</defs>
</svg>
