<svg width="80" height="80" viewBox="0 0 80 80" fill="none" xmlns="http://www.w3.org/2000/svg">
<path d="M0 20C0 8.95431 8.95431 0 20 0H60C71.0457 0 80 8.95431 80 20V60C80 71.0457 71.0457 80 60 80H20C8.95431 80 0 71.0457 0 60V20Z" fill="url(#paint0_linear_737_2222)"/>
<path d="M54.5833 23.3333H45.875C45.4484 22.1155 44.6539 21.0603 43.6014 20.3138C42.5489 19.5673 41.2904 19.1663 40 19.1663C38.7096 19.1663 37.4511 19.5673 36.3986 20.3138C35.3461 21.0603 34.5516 22.1155 34.125 23.3333H25.4167C24.3126 23.3366 23.2547 23.7767 22.474 24.5574C21.6933 25.3381 21.2533 26.396 21.25 27.5V56.6667C21.2533 57.7707 21.6933 58.8286 22.474 59.6093C23.2547 60.39 24.3126 60.83 25.4167 60.8333H54.5833C55.6874 60.83 56.7453 60.39 57.526 59.6093C58.3067 58.8286 58.7467 57.7707 58.75 56.6667V27.5C58.7467 26.396 58.3067 25.3381 57.526 24.5574C56.7453 23.7767 55.6874 23.3366 54.5833 23.3333ZM40 23.3333C40.412 23.3333 40.8148 23.4555 41.1574 23.6845C41.5 23.9134 41.7671 24.2387 41.9247 24.6194C42.0824 25.0001 42.1237 25.419 42.0433 25.8231C41.9629 26.2272 41.7645 26.5985 41.4731 26.8898C41.1818 27.1812 40.8106 27.3796 40.4064 27.46C40.0023 27.5404 39.5834 27.4991 39.2027 27.3414C38.8221 27.1837 38.4967 26.9167 38.2678 26.5741C38.0389 26.2315 37.9167 25.8287 37.9167 25.4167C37.9183 24.8647 38.1383 24.3357 38.5287 23.9454C38.919 23.555 39.448 23.335 40 23.3333ZM35.8333 33.75L41.6458 39.5708L46.8958 34.3208L44.1667 31.6667H52.5V40L49.8417 37.2688L41.65 45.4667L35.8333 39.6458L30.4458 45.0292L27.5 42.0833L35.8333 33.75ZM54.5833 54.5833H25.4167V50.4167H54.5833V54.5833Z" fill="white"/>
<defs>
<linearGradient id="paint0_linear_737_2222" x1="0" y1="40" x2="80" y2="40" gradientUnits="userSpaceOnUse">
<stop stop-color="#0035E5"/>
<stop offset="0.7" stop-color="#298CFF"/>
</linearGradient>
</defs>
</svg>
