<svg width="80" height="80" viewBox="0 0 80 80" fill="none" xmlns="http://www.w3.org/2000/svg">
<rect width="80" height="80" rx="20" fill="url(#paint0_linear_737_2247)"/>
<path d="M53.5031 25.1012H50.8025C50.0562 25.1012 49.4521 25.7051 49.4521 26.4515C49.4521 27.1979 50.0561 27.8019 50.8025 27.8019H53.5031C54.2494 27.8019 54.8535 27.198 54.8535 26.4515C54.8534 25.7051 54.2494 25.1012 53.5031 25.1012Z" fill="white"/>
<path d="M39.8573 20.4463L38.507 17.7457C38.1708 17.0784 37.3624 16.8108 36.6951 17.1418C36.0279 17.4754 35.7575 18.2864 36.0912 18.9537L37.4416 21.6543C37.7747 22.3188 38.5817 22.5919 39.2534 22.2582C39.9205 21.9246 40.1909 21.1136 39.8573 20.4463Z" fill="white"/>
<path d="M48.7055 17.1418C48.0409 16.8108 47.2273 17.0785 46.8936 17.7457L45.5433 20.4463C45.2097 21.1136 45.48 21.9245 46.1472 22.2582C46.821 22.5927 47.6269 22.3166 47.9591 21.6542L49.3094 18.9536C49.643 18.2864 49.3727 17.4753 48.7055 17.1418Z" fill="white"/>
<path d="M34.5988 25.1012H31.8982C31.1519 25.1012 30.5479 25.7051 30.5479 26.4515C30.5479 27.1979 31.1518 27.8019 31.8982 27.8019H34.5988C35.3451 27.8019 35.9492 27.198 35.9492 26.4515C35.9492 25.7051 35.3451 25.1012 34.5988 25.1012Z" fill="white"/>
<path d="M26.4968 38.6943H21.0955C20.3498 38.6943 19.7451 39.2989 19.7451 40.0447V61.6496C19.7451 62.3953 20.3497 62.9999 21.0955 62.9999H26.4967C27.2424 62.9999 27.847 62.3953 27.847 61.6496V40.0446C27.847 39.2989 27.2426 38.6943 26.4968 38.6943Z" fill="white"/>
<path d="M60.2278 42.2737C59.9896 40.179 58.0329 38.6943 55.9247 38.6943H45.3973C46.292 37.0923 46.7722 32.5612 46.7509 30.7103C46.7156 27.6464 44.1783 25.1912 41.1144 25.1912H40.0001C39.2538 25.1912 38.6498 25.7951 38.6498 26.5415C38.6498 29.664 37.4339 35.3001 35.1408 37.5933C33.5974 39.1367 32.278 39.696 30.5479 40.5606V60.822C33.1967 61.7048 36.5599 62.9999 41.6861 62.9999H50.5192C53.4297 62.9999 55.6964 60.3044 54.5686 57.4563C56.2869 56.9882 57.554 55.4124 57.554 53.5478C57.554 53.0216 57.4525 52.5179 57.2692 52.055C60.1648 51.2661 61.2306 47.6908 59.2209 45.4459C59.9592 44.621 60.3664 43.4928 60.2278 42.2737Z" fill="white"/>
<defs>
<linearGradient id="paint0_linear_737_2247" x1="0" y1="40" x2="80" y2="40" gradientUnits="userSpaceOnUse">
<stop stop-color="#0035E5"/>
<stop offset="0.7" stop-color="#298CFF"/>
</linearGradient>
</defs>
</svg>
