<svg width="80" height="80" viewBox="0 0 80 80" fill="none" xmlns="http://www.w3.org/2000/svg">
<rect width="80" height="80" rx="20" fill="url(#paint0_linear_737_2233)"/>
<path d="M63.625 58.5625C63.6158 59.7497 63.1896 60.896 62.4209 61.8008C61.6523 62.7057 60.59 63.3116 59.4199 63.5126C58.2498 63.7137 57.0463 63.4971 56.0197 62.9007C54.9931 62.3043 54.2087 61.3661 53.8037 60.25H46.4462C46.0915 61.2273 45.4445 62.0717 44.5931 62.6685C43.7417 63.2652 42.7272 63.5853 41.6875 63.5853C40.6478 63.5853 39.6333 63.2652 38.7819 62.6685C37.9305 62.0717 37.2835 61.2273 36.9288 60.25H29.5712C29.2165 61.2273 28.5695 62.0717 27.7181 62.6685C26.8667 63.2652 25.8522 63.5853 24.8125 63.5853C23.7728 63.5853 22.7583 63.2652 21.9069 62.6685C21.0555 62.0717 20.4085 61.2273 20.0537 60.25H18.0625C17.6149 60.25 17.1857 60.0722 16.8693 59.7557C16.5528 59.4393 16.375 59.0101 16.375 58.5625C16.375 58.115 16.5528 57.6857 16.8693 57.3693C17.1857 57.0528 17.6149 56.875 18.0625 56.875H20.0537C20.4085 55.8977 21.0555 55.0533 21.9069 54.4566C22.7583 53.8598 23.7728 53.5397 24.8125 53.5397C25.8522 53.5397 26.8667 53.8598 27.7181 54.4566C28.5695 55.0533 29.2165 55.8977 29.5712 56.875H36.9288C37.2835 55.8977 37.9305 55.0533 38.7819 54.4566C39.6333 53.8598 40.6478 53.5397 41.6875 53.5397C42.7272 53.5397 43.7417 53.8598 44.5931 54.4566C45.4445 55.0533 46.0915 55.8977 46.4462 56.875H53.8037C54.2087 55.7589 54.9931 54.8207 56.0197 54.2243C57.0463 53.6279 58.2498 53.4113 59.4199 53.6124C60.59 53.8134 61.6523 54.4194 62.4209 55.3242C63.1896 56.2291 63.6158 57.3753 63.625 58.5625ZM23.125 33.25C23.125 29.9124 24.1147 26.6498 25.969 23.8748C27.8232 21.0997 30.4587 18.9368 33.5422 17.6595C36.6257 16.3823 40.0187 16.0481 43.2921 16.6993C46.5656 17.3504 49.5724 18.9576 51.9324 21.3176C54.2924 23.6776 55.8996 26.6844 56.5508 29.9579C57.2019 33.2313 56.8677 36.6243 55.5905 39.7078C54.3132 42.7913 52.1503 45.4268 49.3752 47.2811C46.6002 49.1353 43.3376 50.125 40 50.125C35.5245 50.125 31.2322 48.3471 28.0676 45.1824C24.9029 42.0178 23.125 37.7255 23.125 33.25ZM38.3125 32.5581C38.3163 33.4518 38.6743 34.3075 39.3081 34.9375L43.8644 39.5106C44.0221 39.667 44.2091 39.7908 44.4147 39.8747C44.6203 39.9587 44.8404 40.0013 45.0625 40C45.2846 40.0013 45.5047 39.9587 45.7103 39.8747C45.9159 39.7908 46.1029 39.667 46.2606 39.5106C46.4188 39.3538 46.5443 39.1671 46.63 38.9615C46.7157 38.7558 46.7598 38.5353 46.7598 38.3125C46.7598 38.0897 46.7157 37.8692 46.63 37.6635C46.5443 37.4579 46.4188 37.2713 46.2606 37.1144L41.6875 32.5581V24.8125C41.6875 24.365 41.5097 23.9357 41.1932 23.6193C40.8768 23.3028 40.4476 23.125 40 23.125C39.5524 23.125 39.1232 23.3028 38.8068 23.6193C38.4903 23.9357 38.3125 24.365 38.3125 24.8125V32.5581Z" fill="white"/>
<defs>
<linearGradient id="paint0_linear_737_2233" x1="0" y1="40" x2="80" y2="40" gradientUnits="userSpaceOnUse">
<stop stop-color="#0035E5"/>
<stop offset="0.7" stop-color="#298CFF"/>
</linearGradient>
</defs>
</svg>
