<svg width="80" height="80" viewBox="0 0 80 80" fill="none" xmlns="http://www.w3.org/2000/svg">
<rect width="80" height="80" rx="20" fill="url(#paint0_linear_173_1395)"/>
<path d="M62.3282 36.8885C61.9809 36.0482 61.1591 35.4996 60.2497 35.4996H51.9834L55.664 22.6179C55.9454 21.6313 55.5236 20.5799 54.6402 20.0605C53.7611 19.5421 52.6341 19.6835 51.9089 20.4088L33.909 38.4091C33.2654 39.0528 33.0731 40.0199 33.4214 40.8613C33.7697 41.7015 34.5905 42.2501 35.4999 42.2501H45.5876L40.1822 54.8645C39.7572 55.8554 40.0953 57.0089 40.9884 57.6131C41.3718 57.8723 41.8114 57.9998 42.2488 57.9998C42.8298 57.9998 43.4055 57.7757 43.8407 57.3404L61.8405 39.3406C62.4842 38.6969 62.6775 37.7303 62.3282 36.8885Z" fill="white"/>
<path d="M33.2502 53.5H19.7502C18.5076 53.5 17.5 54.5066 17.5 55.7502C17.5 56.9938 18.5076 58.0004 19.7502 58.0004H33.2502C34.4927 58.0004 35.5004 56.9938 35.5004 55.7502C35.5004 54.5066 34.4927 53.5 33.2502 53.5Z" fill="white"/>
<path d="M22.0002 46.75H28.7502C29.9927 46.75 31.0004 45.7434 31.0004 44.4998C31.0004 43.2562 29.9927 42.2496 28.7502 42.2496H22.0002C20.7576 42.2496 19.75 43.2562 19.75 44.4998C19.75 45.7434 20.7576 46.75 22.0002 46.75Z" fill="white"/>
<path d="M26.5002 24.2498H42.2504C43.494 24.2498 44.5005 23.2422 44.5005 21.9996C44.5005 20.7571 43.494 19.75 42.2504 19.75H26.5002C25.2576 19.75 24.25 20.7576 24.25 22.0002C24.25 23.2427 25.2576 24.2498 26.5002 24.2498Z" fill="white"/>
<path d="M24.2502 35.5002H31.0002C32.2427 35.5002 33.2504 34.4926 33.2504 33.2501C33.2504 32.0075 32.2427 30.9999 31.0002 30.9999H24.2502C23.0076 30.9999 22 32.0075 22 33.2501C22 34.4926 23.0076 35.5002 24.2502 35.5002Z" fill="white"/>
<defs>
<linearGradient id="paint0_linear_173_1395" x1="0" y1="40" x2="80" y2="40" gradientUnits="userSpaceOnUse">
<stop stop-color="#0035E5"/>
<stop offset="0.7" stop-color="#298CFF"/>
</linearGradient>
</defs>
</svg>
