<svg width="80" height="80" viewBox="0 0 80 80" fill="none" xmlns="http://www.w3.org/2000/svg">
<rect width="80" height="80" rx="20" fill="url(#paint0_linear_173_1445)"/>
<path d="M31.035 27.5H33.3333C33.9964 27.5 34.6323 27.2366 35.1011 26.7678C35.5699 26.2989 35.8333 25.663 35.8333 25C35.8333 24.337 35.5699 23.7011 35.1011 23.2322C34.6323 22.7634 33.9964 22.5 33.3333 22.5H25C24.3386 22.5052 23.7057 22.7703 23.238 23.238C22.7703 23.7057 22.5052 24.3386 22.5 25V33.3333C22.5 33.9964 22.7634 34.6323 23.2322 35.1011C23.7011 35.5699 24.337 35.8333 25 35.8333C25.663 35.8333 26.2989 35.5699 26.7678 35.1011C27.2366 34.6323 27.5 33.9964 27.5 33.3333V31.035L33.2317 36.7683C33.7007 37.2373 34.3367 37.5008 35 37.5008C35.6633 37.5008 36.2993 37.2373 36.7683 36.7683C37.2373 36.2993 37.5008 35.6633 37.5008 35C37.5008 34.3367 37.2373 33.7007 36.7683 33.2317L31.035 27.5Z" fill="white"/>
<path d="M57.3215 24.0883C57.1385 23.6212 56.8193 23.2199 56.4052 22.9367C55.9912 22.6534 55.5015 22.5012 54.9998 22.5H46.6665C46.0035 22.5 45.3676 22.7634 44.8987 23.2322C44.4299 23.7011 44.1665 24.337 44.1665 25C44.1665 25.663 44.4299 26.2989 44.8987 26.7678C45.3676 27.2366 46.0035 27.5 46.6665 27.5H48.9648L43.2315 33.2317C42.7625 33.7007 42.499 34.3367 42.499 35C42.499 35.6633 42.7625 36.2993 43.2315 36.7683C43.7005 37.2373 44.3366 37.5008 44.9998 37.5008C45.6631 37.5008 46.2992 37.2373 46.7682 36.7683L52.4998 31.035V33.3333C52.4998 33.9964 52.7632 34.6323 53.2321 35.1011C53.7009 35.5699 54.3368 35.8333 54.9998 35.8333C55.6629 35.8333 56.2987 35.5699 56.7676 35.1011C57.2364 34.6323 57.4998 33.9964 57.4998 33.3333V25C57.4985 24.6876 57.4379 24.3782 57.3215 24.0883Z" fill="white"/>
<path d="M33.2317 43.2316L27.5 48.9649V46.6666C27.5 46.0036 27.2366 45.3677 26.7678 44.8988C26.2989 44.43 25.663 44.1666 25 44.1666C24.337 44.1666 23.7011 44.43 23.2322 44.8988C22.7634 45.3677 22.5 46.0036 22.5 46.6666V54.9999C22.5052 55.6614 22.7703 56.2942 23.238 56.7619C23.7057 57.2296 24.3386 57.4947 25 57.4999H33.3333C33.9964 57.4999 34.6323 57.2366 35.1011 56.7677C35.5699 56.2989 35.8333 55.663 35.8333 54.9999C35.8333 54.3369 35.5699 53.701 35.1011 53.2322C34.6323 52.7633 33.9964 52.4999 33.3333 52.4999H31.035L36.7683 46.7683C37.2373 46.2993 37.5008 45.6632 37.5008 44.9999C37.5008 44.3367 37.2373 43.7006 36.7683 43.2316C36.2993 42.7626 35.6633 42.4991 35 42.4991C34.3367 42.4991 33.7007 42.7626 33.2317 43.2316Z" fill="white"/>
<path d="M54.9998 44.1666C54.3368 44.1666 53.7009 44.43 53.2321 44.8988C52.7632 45.3677 52.4998 46.0036 52.4998 46.6666V48.9649L46.7682 43.2316C46.2992 42.7626 45.6631 42.4991 44.9998 42.4991C44.3366 42.4991 43.7005 42.7626 43.2315 43.2316C42.7625 43.7006 42.499 44.3367 42.499 44.9999C42.499 45.6632 42.7625 46.2993 43.2315 46.7683L48.9648 52.4999H46.6665C46.0035 52.4999 45.3676 52.7633 44.8987 53.2322C44.4299 53.701 44.1665 54.3369 44.1665 54.9999C44.1665 55.663 44.4299 56.2989 44.8987 56.7677C45.3676 57.2366 46.0035 57.4999 46.6665 57.4999H54.9998C55.6612 57.4947 56.2941 57.2296 56.7618 56.7619C57.2295 56.2942 57.4946 55.6614 57.4998 54.9999V46.6666C57.4998 46.0036 57.2364 45.3677 56.7676 44.8988C56.2987 44.43 55.6629 44.1666 54.9998 44.1666Z" fill="white"/>
<defs>
<linearGradient id="paint0_linear_173_1445" x1="0" y1="40" x2="80" y2="40" gradientUnits="userSpaceOnUse">
<stop stop-color="#0035E5"/>
<stop offset="0.7" stop-color="#298CFF"/>
</linearGradient>
</defs>
</svg>
