<svg width="80" height="80" viewBox="0 0 80 80" fill="none" xmlns="http://www.w3.org/2000/svg">
<path d="M0 20C0 8.95431 8.95431 0 20 0H60C71.0457 0 80 8.95431 80 20V60C80 71.0457 71.0457 80 60 80H20C8.95431 80 0 71.0457 0 60V20Z" fill="url(#paint0_linear_173_1384)"/>
<path d="M46.1602 46.4667C46.1602 44.5067 46.1602 42.5334 46.1602 40.5734C46.1602 39.76 46.4135 39.5067 47.2135 39.5067H55.6535C56.3735 39.5067 56.6668 39.8 56.6668 40.52V50.32C56.6668 50.6534 56.7202 50.7867 57.0935 50.7734C57.7735 50.7334 58.8268 50.76 59.5068 50.76C59.7202 50.76 59.9068 50.7867 60.0002 51C60.0935 51.2134 60.0135 51.3734 59.8802 51.5334C58.0535 53.68 53.6935 58.2534 51.8668 60.4C51.5868 60.7334 51.3735 60.7334 51.0802 60.3867C49.2668 58.2534 45.0268 53.6934 43.2135 51.56C43.0668 51.3867 42.9602 51.2134 43.0802 50.9867C43.2002 50.76 43.3735 50.76 43.5868 50.76C44.2668 50.76 45.0668 50.7334 45.7468 50.7734C46.1202 50.7867 46.1868 50.6534 46.1868 50.32C46.1602 48.3067 46.1602 48.48 46.1602 46.4667Z" fill="white"/>
<path d="M37.4266 48.68C37.24 48.56 37.1466 48.3334 37.1733 48.12C37.1866 47.52 37.1733 46.9334 37.1866 46.3334C37.1866 46.1734 37.1333 46.12 36.9866 46.1067C35.7333 45.92 34.5466 45.4267 33.5333 44.68C33.24 44.48 32.9733 44.2534 32.7333 44C32.5466 43.7867 32.52 43.6134 32.6933 43.3867C33.08 42.8667 33.4666 42.36 33.8666 41.8534C34.08 41.5867 34.2933 41.56 34.56 41.7867C35.3866 42.5334 36.3866 43.0534 37.4666 43.2934C38.3733 43.48 39.24 43.4267 40.0666 42.9334C40.9333 42.4134 41.36 41.04 40.2266 40.16C39.64 39.7067 38.9466 39.44 38.2533 39.1467C37.3866 38.7867 36.5066 38.4667 35.68 38.0267C34.8533 37.5867 34.12 37.0534 33.5733 36.28C33 35.4667 32.76 34.48 32.88 33.4934C33.0933 31.5734 34.2533 30.4 35.9333 29.6534C36.28 29.5067 36.64 29.4 37.0133 29.3334C37.16 29.3067 37.1733 29.24 37.1733 29.12C37.1733 28.48 37.1733 27.8267 37.1733 27.1867C37.1733 26.84 37.32 26.6934 37.6666 26.6934H39.16C39.4666 26.6934 39.6 26.8267 39.6 27.1334V29.0667C39.6 29.2 39.64 29.2534 39.7733 29.2667C41.04 29.4134 42.24 29.92 43.24 30.7067C43.2933 30.7467 43.3466 30.8 43.4 30.8534C43.6266 31.0667 43.6533 31.1867 43.4933 31.4534C43.1866 32.0134 42.88 32.56 42.5733 33.12C42.4 33.4267 42.16 33.48 41.8666 33.2534C41.48 32.9467 41.0666 32.68 40.6133 32.4667C39.64 32.0134 38.64 31.8134 37.5866 32.0934C36.88 32.28 36.2666 32.6134 36.0266 33.3734C35.8266 34 36.0266 34.6 36.52 35.0267C37.16 35.6 37.9466 35.8934 38.7333 36.2C39.68 36.5734 40.6266 36.9334 41.5333 37.4134C42.1733 37.7467 42.7333 38.2 43.1866 38.7467C43.68 39.3467 43.9066 40.0667 43.9733 40.84C43.9733 40.92 43.9866 41.0134 43.9866 41.0934C44.0266 41.1734 43.9733 41.28 44.0266 41.36V41.4934C43.9733 41.8 44 42.12 43.92 42.4267C43.72 43.2 43.3466 43.9067 42.8 44.5067C42.0133 45.3867 41.0133 45.8934 39.88 46.1467C39.7466 46.1467 39.6533 46.2667 39.6533 46.4V46.4267C39.6666 47.0134 39.6533 47.6134 39.6533 48.2134C39.6533 48.44 39.5733 48.6134 39.3333 48.68H37.4266Z" fill="white"/>
<path d="M39.5603 51.84C39.147 51.88 38.7203 51.8933 38.2936 51.8933C30.4536 51.8933 24.0936 45.5333 24.0936 37.6933C24.0936 29.8533 30.4536 23.4933 38.2936 23.4933C46.1336 23.4933 52.4936 29.8533 52.4936 37.6933H56.627V37.68C56.6136 27.7067 48.267 19.36 38.307 19.36C28.187 19.3467 19.9736 27.5467 19.9736 37.6667V37.6933C19.9736 47.6667 28.3336 56.0133 38.2936 56.0133C39.9203 56.0133 41.547 55.8 43.1203 55.3733L39.5603 51.84Z" fill="white"/>
<defs>
<linearGradient id="paint0_linear_173_1384" x1="0" y1="40" x2="80" y2="40" gradientUnits="userSpaceOnUse">
<stop stop-color="#0035E5"/>
<stop offset="0.7" stop-color="#298CFF"/>
</linearGradient>
</defs>
</svg>
