<svg width="24" height="24" viewBox="0 0 24 24" fill="none" xmlns="http://www.w3.org/2000/svg">
<g clip-path="url(#clip0_744_7577)">
<path d="M17.5305 14.6064C17.5305 15.6144 17.8173 16.0164 18.5673 16.0164C20.2389 16.0164 21.3033 13.8864 21.3033 10.344C21.3033 4.92959 17.3577 2.33759 12.4317 2.33759C7.36412 2.33759 2.75492 5.73599 2.75492 12.1584C2.75492 18.2928 6.78691 21.6336 12.9789 21.6336C15.0813 21.6336 16.4925 21.4032 18.6513 20.6832L19.1145 22.6116C16.9833 23.304 14.7057 23.5044 12.9501 23.5044C4.82852 23.5044 0.478516 19.0404 0.478516 12.1572C0.478516 5.21639 5.51972 0.493195 12.4605 0.493195C19.6893 0.493195 23.5185 4.81319 23.5185 10.1124C23.5185 14.6052 22.1085 18.0324 17.6733 18.0324C15.6561 18.0324 14.3325 17.226 14.1597 15.4392C13.6413 17.4264 12.2589 18.0324 10.3857 18.0324C7.88012 18.0324 5.77772 16.1016 5.77772 12.2148C5.77772 8.29799 7.62211 5.87879 10.9341 5.87879C12.6909 5.87879 13.7853 6.56999 14.2725 7.66439L15.1089 6.13799H17.5281V14.6064H17.5305ZM13.9893 10.8048C13.9893 9.22199 12.8073 8.55839 11.8281 8.55839C10.7625 8.55839 9.58291 9.42119 9.58291 11.9568C9.58291 13.9728 10.4757 15.096 11.8281 15.096C12.7785 15.096 13.9893 14.4912 13.9893 12.8208V10.8048Z" fill="#126DFB"/>
</g>
<defs>
<clipPath id="clip0_744_7577">
<rect width="24" height="24" fill="white"/>
</clipPath>
</defs>
</svg>
