<svg width="80" height="80" viewBox="0 0 80 80" fill="none" xmlns="http://www.w3.org/2000/svg">
<rect width="80" height="80" rx="20" fill="url(#paint0_linear_739_6054)"/>
<path d="M53.5423 25.9375H52.5007V29.0625C52.5007 31.0724 50.8647 32.7083 48.8548 32.7083H31.1465C29.1366 32.7083 27.5007 31.0724 27.5007 29.0625V25.9375H26.459C24.7355 25.9375 23.334 27.3391 23.334 29.0625V58.75C23.334 60.4734 24.7355 61.875 26.459 61.875H53.5423C55.2658 61.875 56.6673 60.4734 56.6673 58.75V29.0625C56.6673 27.3391 55.2658 25.9375 53.5423 25.9375ZM33.2298 54.5833C33.2298 55.1589 32.7637 55.625 32.1882 55.625H30.1048C29.5293 55.625 29.0632 55.1589 29.0632 54.5833V52.5C29.0632 51.9245 29.5293 51.4583 30.1048 51.4583H32.1882C32.7637 51.4583 33.2298 51.9245 33.2298 52.5V54.5833ZM33.2298 47.2917C33.2298 47.8672 32.7637 48.3333 32.1882 48.3333H30.1048C29.5293 48.3333 29.0632 47.8672 29.0632 47.2917V45.2083C29.0632 44.6328 29.5293 44.1667 30.1048 44.1667H32.1882C32.7637 44.1667 33.2298 44.6328 33.2298 45.2083V47.2917ZM33.2298 40C33.2298 40.5755 32.7637 41.0417 32.1882 41.0417H30.1048C29.5293 41.0417 29.0632 40.5755 29.0632 40V37.9167C29.0632 37.3411 29.5293 36.875 30.1048 36.875H32.1882C32.7637 36.875 33.2298 37.3411 33.2298 37.9167V40ZM49.8965 54.5833H37.3965C36.8215 54.5833 36.3548 54.1167 36.3548 53.5417C36.3548 52.9667 36.8215 52.5 37.3965 52.5H49.8965C50.4715 52.5 50.9382 52.9667 50.9382 53.5417C50.9382 54.1167 50.4715 54.5833 49.8965 54.5833ZM49.8965 47.2917H37.3965C36.8215 47.2917 36.3548 46.825 36.3548 46.25C36.3548 45.675 36.8215 45.2083 37.3965 45.2083H49.8965C50.4715 45.2083 50.9382 45.675 50.9382 46.25C50.9382 46.825 50.4715 47.2917 49.8965 47.2917ZM49.8965 40H37.3965C36.8215 40 36.3548 39.5333 36.3548 38.9583C36.3548 38.3833 36.8215 37.9167 37.3965 37.9167H49.8965C50.4715 37.9167 50.9382 38.3833 50.9382 38.9583C50.9382 39.5333 50.4715 40 49.8965 40ZM48.8548 30.625H31.1465C30.285 30.625 29.584 29.924 29.584 29.0625V24.8958C29.584 24.0344 30.285 23.3333 31.1465 23.3333H34.2949C34.559 20.4172 37.0168 18.125 40.0007 18.125C42.9845 18.125 45.4423 20.4172 45.7064 23.3333H48.8548C49.7163 23.3333 50.4173 24.0344 50.4173 24.8958V29.0625C50.4173 29.924 49.7163 30.625 48.8548 30.625Z" fill="white"/>
<defs>
<linearGradient id="paint0_linear_739_6054" x1="0" y1="40" x2="80" y2="40" gradientUnits="userSpaceOnUse">
<stop stop-color="#0035E5"/>
<stop offset="0.7" stop-color="#298CFF"/>
</linearGradient>
</defs>
</svg>
