<svg width="24" height="24" viewBox="0 0 24 24" fill="none" xmlns="http://www.w3.org/2000/svg">
<g clip-path="url(#clip0_744_7551)">
<path d="M17.5 9.84961C17.6286 9.84961 17.7502 9.87818 17.8643 9.92773L17.9766 9.98438L17.9795 9.98535L17.9785 9.98633L22.6934 12.8701L22.6943 12.8711C22.9745 13.0451 23.1504 13.3618 23.1504 13.6973V19.3027C23.1504 19.6382 22.9745 19.9549 22.6943 20.1289L22.6934 20.1299L17.9785 23.0146L17.9766 23.0156C17.8312 23.1002 17.6715 23.1504 17.5 23.1504C17.3285 23.1504 17.1688 23.1002 17.0234 23.0156L17.0205 23.0146V23.0137L12.3066 20.1299L12.3057 20.1289C12.0255 19.9549 11.8496 19.6382 11.8496 19.3027V13.6973C11.8496 13.3618 12.0255 13.0451 12.3057 12.8711L12.3066 12.8701L17.0215 9.98535L17.0234 9.98438C17.1688 9.89985 17.3285 9.84961 17.5 9.84961ZM13.7217 14.2432V18.7559L17.5 21.0693L21.2783 18.7559V14.2432L17.5 11.9297L13.7217 14.2432Z" fill="#126DFB" stroke="#126DFB" stroke-width="0.3"/>
<path d="M6.69043 0.950195C7.98925 0.952864 9.24006 1.4284 10.2021 2.2832C11.01 1.72791 11.9603 1.42969 12.9609 1.42969C13.6976 1.43251 14.4242 1.59938 15.085 1.91895C15.7354 2.23353 16.3052 2.68771 16.7529 3.24707C17.2626 3.10052 17.7972 3.02734 18.3477 3.02734C21.4927 3.03208 24.0495 5.5588 24.0498 8.6709C24.0529 9.83882 23.6838 10.9788 22.9941 11.9307L22.9678 11.9668L22.9287 11.9453L21.4277 11.0957L21.377 11.0664L21.4131 11.0205C21.9491 10.3501 22.2415 9.52352 22.2432 8.67188L22.2383 8.47363C22.1341 6.43945 20.4318 4.80971 18.3477 4.80957C17.8656 4.80957 17.3965 4.89239 16.958 5.05762L16.7725 5.13379L16.0605 5.45312L16.0195 5.47168L15.9971 5.43262L15.6104 4.75977C15.0615 3.8077 14.049 3.212 12.9609 3.21191C12.2522 3.21191 11.5682 3.45977 11.0195 3.91504L11.0186 3.91602L9.98926 4.72363L9.9502 4.75488L9.91895 4.71484L9.4043 4.05078C8.76197 3.23025 7.7386 2.73242 6.68164 2.73242C5.7683 2.7325 4.90582 3.0804 4.25488 3.71875C3.61264 4.34858 3.26669 5.17704 3.2666 6.06348C3.2666 6.46948 3.33765 6.86275 3.48535 7.2373L3.55371 7.39746L3.8623 8.08789L3.88086 8.12891L3.8418 8.15137L3.18164 8.5293C2.30507 9.0335 1.76579 9.9678 1.76562 10.959C1.76562 12.5042 3.02954 13.7693 4.58008 13.7695C4.77451 13.7695 4.96884 13.7531 5.16211 13.7119L5.88281 13.5684L5.9248 13.5605L5.93945 13.5996L6.19727 14.2812L6.28809 14.499C6.78312 15.5615 7.8895 16.2675 9.10059 16.2676C9.50553 16.2676 9.90256 16.1852 10.2656 16.0361L10.335 16.0078V17.8965L10.2969 17.9053C9.91564 17.9987 9.50782 18.0498 9.10059 18.0498C8.21451 18.0478 7.34485 17.8118 6.58398 17.3662C5.83184 16.9256 5.2139 16.2958 4.79199 15.543H4.58008C2.02269 15.5428 -0.0498047 13.4852 -0.0498047 10.959C-0.0521184 10.2793 0.10012 9.6079 0.395508 8.99316C0.686362 8.38795 1.10853 7.85224 1.63281 7.4248C1.38665 6.56148 1.3781 5.6492 1.6084 4.78125C1.84156 3.90276 2.31054 3.10176 2.9668 2.46191C3.96257 1.4854 5.2792 0.950269 6.68164 0.950195H6.69043Z" fill="#126DFB" stroke="#126DFB" stroke-width="0.1"/>
</g>
<defs>
<clipPath id="clip0_744_7551">
<rect width="24" height="24" fill="white"/>
</clipPath>
</defs>
</svg>
