<svg width="18" height="24" viewBox="0 0 18 24" fill="none" xmlns="http://www.w3.org/2000/svg">
<path fill-rule="evenodd" clip-rule="evenodd" d="M15.75 9V21.75H2.25V2.25H9V6.375C9 7.824 10.176 9 11.625 9H15.75ZM15.5685 6.75L11.25 2.4315V6.375C11.25 6.582 11.418 6.75 11.625 6.75H15.5685ZM0 1.5C0 1.10218 0.158035 0.720644 0.43934 0.43934C0.720644 0.158035 1.10218 0 1.5 0L11.379 0C11.7768 8.49561e-05 12.1583 0.158176 12.4395 0.4395L17.5605 5.5605C17.8418 5.84174 17.9999 6.22321 18 6.621V22.5C18 22.8978 17.842 23.2794 17.5607 23.5607C17.2794 23.842 16.8978 24 16.5 24H1.5C1.10218 24 0.720644 23.842 0.43934 23.5607C0.158035 23.2794 0 22.8978 0 22.5V1.5ZM10.6875 15L13.5 18.2145V19.5H4.5V18.15L6.1875 16.125L7.902 18.183L10.6875 15ZM9 12.75C9 13.3467 8.76295 13.919 8.34099 14.341C7.91903 14.7629 7.34674 15 6.75 15C6.15326 15 5.58097 14.7629 5.15901 14.341C4.73705 13.919 4.5 13.3467 4.5 12.75C4.5 12.1533 4.73705 11.581 5.15901 11.159C5.58097 10.7371 6.15326 10.5 6.75 10.5C7.34674 10.5 7.91903 10.7371 8.34099 11.159C8.76295 11.581 9 12.1533 9 12.75Z" fill="#126DFB"/>
</svg>
