<svg width="80" height="80" viewBox="0 0 80 80" fill="none" xmlns="http://www.w3.org/2000/svg">
<rect width="80" height="80" rx="20" fill="url(#paint0_linear_739_6087)"/>
<g clip-path="url(#clip0_739_6087)">
<path d="M45.2318 51.7856H42.8746C41.5728 51.7856 40.5174 52.841 40.5174 54.1428C40.5174 54.5767 40.8692 54.9286 41.3031 54.9286H44.446C45.7188 54.9396 46.9607 55.3219 48.0194 56.0286C48.2539 56.183 48.3883 56.4508 48.3718 56.731C48.3554 57.0113 48.1907 57.2616 47.9397 57.3875C47.6887 57.5134 47.3896 57.4958 47.1551 57.3415C46.353 56.8048 45.4124 56.5125 44.4475 56.5H39.8023C39.1425 56.5004 38.488 56.3816 37.8703 56.1496L27.1523 52.1291C26.8026 51.9977 26.4085 52.0818 26.1426 52.3443C25.9605 52.5216 25.8576 52.765 25.8574 53.0193C25.8574 53.3563 26.0327 53.6691 26.3202 53.8451L37.4396 60.6383C38.0563 61.0167 38.7661 61.2162 39.4896 61.2143H54.1431V49.4285H51.5173C48.817 49.4285 48.5765 51.7856 45.2318 51.7856Z" fill="white"/>
<path d="M56.5006 47.8572H61.2148C61.6487 47.8572 62.0006 48.2089 62.0006 48.6429V61.2144C62.0006 61.6483 61.6488 62.0001 61.2148 62.0001H56.5006C56.0667 62.0001 55.7148 61.6483 55.7148 61.2144V48.6428C55.7148 48.2089 56.0667 47.8572 56.5006 47.8572Z" fill="white"/>
<path d="M37.6426 24.2857C37.6426 24.7196 37.9943 25.0715 38.4283 25.0715H43.1426C43.5765 25.0715 43.9283 24.7197 43.9283 24.2857V18H37.6426V24.2857Z" fill="white"/>
<path d="M18 40.7857C18 41.2196 18.3517 41.5714 18.7857 41.5714H20.5017C21.5875 41.5701 22.6493 41.8918 23.5519 42.4954L25.891 44.0542C26.5357 44.4853 27.2941 44.7151 28.0697 44.7142H34.7805C35.4131 44.7363 35.9634 44.2845 36.0652 43.6597C36.1004 43.3273 35.9928 42.9957 35.7692 42.7473C35.5456 42.4988 35.2271 42.357 34.8928 42.357H32.1428C31.7089 42.357 31.3571 42.0053 31.3571 41.5713C31.3571 41.1374 31.7088 40.7856 32.1428 40.7856H37.1376C37.7702 40.8077 38.3205 40.3559 38.4223 39.7311C38.4575 39.3987 38.3499 39.0671 38.1263 38.8186C37.9027 38.5702 37.5842 38.4284 37.2499 38.4284H32.1427C31.7088 38.4284 31.357 38.0766 31.357 37.6427C31.357 37.2087 31.7087 36.8569 32.1427 36.8569H38.8213C39.1555 36.857 39.4741 36.7151 39.6977 36.4667C39.9213 36.2182 40.0288 35.8865 39.9936 35.5542C39.892 34.9294 39.3416 34.4778 38.709 34.4998H32.1427C31.7088 34.4998 31.357 34.148 31.357 33.714C31.357 33.28 31.7087 32.9283 32.1427 32.9283H37.25C37.9009 32.9283 38.4285 32.4006 38.4285 31.7498C38.4285 31.0989 37.9009 30.5712 37.25 30.5712H27.4285C26.9946 30.5712 26.6428 30.2195 26.6428 29.7855C26.6428 29.3515 26.9946 28.9998 27.4285 28.9998H28.2143V26.6426H27.4285C26.6312 26.6446 25.867 26.9611 25.3016 27.5234L23.595 29.2299C22.7344 30.0857 21.5709 30.5677 20.3571 30.5711H18.7857C18.3518 30.5711 18 30.9229 18 31.3569L18 40.7857Z" fill="white"/>
<path d="M51.7852 18H45.4995V24.2857C45.4995 25.5875 44.4442 26.6429 43.1423 26.6429H38.4281C37.1263 26.6429 36.0709 25.5876 36.0709 24.2857V18H31.3566C30.4887 18 29.7852 18.7036 29.7852 19.5715V29H37.2495C38.224 28.9998 39.1258 29.5155 39.6201 30.3553C40.1144 31.1952 40.1271 32.2339 39.6539 33.0857C40.5445 33.3611 41.2326 34.0727 41.4779 34.9722C41.7232 35.8716 41.4915 36.8341 40.8639 37.5235C40.5401 37.881 40.1279 38.1471 39.6688 38.295C39.9324 38.7819 40.0438 39.3367 39.9886 39.8877C39.8159 41.2264 38.7213 42.2565 37.3746 42.3477C37.4929 42.5994 37.5724 42.8674 37.6103 43.1429H51.7853C52.6532 43.1429 53.3568 42.4393 53.3568 41.5715V19.5715C53.3567 18.7036 52.6531 18 51.7852 18ZM45.4995 40C45.4995 40.4339 45.1478 40.7857 44.7138 40.7857C44.2799 40.7857 43.9281 40.434 43.9281 40V38.4285C43.9281 37.9946 44.2798 37.6428 44.7138 37.6428C45.1477 37.6428 45.4995 37.9946 45.4995 38.4285V40ZM48.6423 40C48.6423 40.4339 48.2906 40.7857 47.8566 40.7857C47.4226 40.7857 47.0709 40.434 47.0709 40V38.4285C47.0709 37.9946 47.4226 37.6428 47.8566 37.6428C48.2906 37.6428 48.6423 37.9946 48.6423 38.4285V40ZM51.7852 40C51.7852 40.4339 51.4335 40.7857 50.9995 40.7857C50.5656 40.7857 50.2138 40.434 50.2138 40V38.4285C50.2138 37.9946 50.5655 37.6428 50.9995 37.6428C51.4334 37.6428 51.7852 37.9946 51.7852 38.4285V40Z" fill="white"/>
</g>
<defs>
<linearGradient id="paint0_linear_739_6087" x1="0" y1="40" x2="80" y2="40" gradientUnits="userSpaceOnUse">
<stop stop-color="#0035E5"/>
<stop offset="0.7" stop-color="#298CFF"/>
</linearGradient>
<clipPath id="clip0_739_6087">
<rect width="44" height="44" fill="white" transform="translate(18 18)"/>
</clipPath>
</defs>
</svg>
