<svg width="80" height="80" viewBox="0 0 80 80" fill="none" xmlns="http://www.w3.org/2000/svg">
<rect width="80" height="80" rx="20" fill="url(#paint0_linear_739_6067)"/>
<path fill-rule="evenodd" clip-rule="evenodd" d="M46.1477 20.0415C38.1522 20.0415 31.6705 26.5232 31.6705 34.5187C31.6705 37.607 32.6381 40.4693 34.2861 42.8194L29.7479 47.2233L29.5843 47.0548C29.0803 46.5353 28.2427 46.5227 27.7233 47.0269L19.773 54.7416C19.2536 55.2457 19.2408 56.0831 19.745 56.6026L22.6154 59.5607C23.1196 60.0802 23.957 60.0927 24.4765 59.5887L32.4267 51.874C32.9462 51.37 32.9587 50.5324 32.4547 50.013L32.2912 49.8445L36.7431 45.5245C38.9447 47.4076 41.7178 48.6419 44.7664 48.9307L46.3907 46.1173C46.3099 46.1189 46.229 46.1204 46.1478 46.1204C39.7405 46.1204 34.5463 40.9261 34.5463 34.5188C34.5463 28.1114 39.7405 22.9171 46.1478 22.9171C52.5552 22.9171 57.7494 28.1114 57.7494 34.5188C57.7494 37.7921 56.3934 40.7483 54.213 42.8575C54.5474 43.1565 54.8377 43.5111 55.0702 43.9137L55.8497 45.2637C58.782 42.6144 60.625 38.782 60.625 34.5188C60.6249 26.5232 54.1432 20.0415 46.1477 20.0415ZM47.8542 27.3685C48.6109 27.5487 49.3336 27.8486 49.9959 28.2564L51.3877 27.6384L53.028 29.2787L52.41 30.67C52.818 31.3325 53.118 32.0555 53.2981 32.8123L54.718 33.3589V35.6786L53.2977 36.2253C53.1297 36.9311 52.8574 37.6074 52.4905 38.2327L52.532 37.3377C52.5606 36.6937 52.1012 36.1169 51.4494 36.0134L50.6261 35.8819C50.7573 35.4506 50.828 34.993 50.828 34.5188C50.828 31.9336 48.7327 29.8383 46.1476 29.8383C45.0714 29.8383 44.0802 30.2016 43.2896 30.8121L42.3842 30.6676L42.458 29.076C42.4725 28.7414 42.3576 28.4312 42.1577 28.1936L42.2993 28.2565C42.9616 27.8488 43.6844 27.5487 44.4411 27.3686L44.9878 25.9484H47.3075L47.8542 27.3685ZM41.6691 33.1555C41.538 33.5869 41.4672 34.0445 41.4672 34.5187C41.4672 37.1039 43.5625 39.1991 46.1477 39.1991C47.2239 39.1991 48.2151 38.8358 49.0057 38.2253L49.9111 38.3698L49.8373 39.9614C49.8229 40.2959 49.9378 40.6061 50.1376 40.8437L49.9965 40.7811C49.334 41.189 48.611 41.489 47.8541 41.6691L47.3076 43.0891H44.9878L44.4412 41.6688C43.6845 41.4888 42.9618 41.1887 42.2994 40.7809L40.9076 41.399L39.2673 39.7587L39.8853 38.3674C39.4774 37.7049 39.1774 36.9819 38.9972 36.2251L37.5774 35.6785V33.3588L38.9975 32.8122C39.1655 32.1062 39.4378 31.4298 39.8048 30.8045L39.7633 31.6996C39.7347 32.3436 40.1941 32.9204 40.8459 33.0239L41.6691 33.1555ZM60.2331 55.6063L53.8792 44.6011C53.3568 43.6962 52.4111 43.1504 51.3664 43.1504C50.3216 43.1504 49.376 43.6963 48.8536 44.6011L42.4998 55.6063C41.3836 57.5394 42.7805 59.9586 45.0126 59.9586H57.7203C59.9524 59.9586 61.3492 57.5394 60.2331 55.6063ZM51.1744 47.3347H51.5585C51.9915 47.3347 52.3332 47.689 52.3175 48.1218L52.1256 53.439C52.1109 53.8474 51.7752 54.1712 51.3665 54.1712C50.9578 54.1712 50.6221 53.8475 50.6074 53.439L50.4154 48.1218C50.3997 47.689 50.7414 47.3347 51.1744 47.3347ZM51.3665 57.8544C50.829 57.8544 50.3933 57.4187 50.3933 56.8813C50.3933 56.3438 50.829 55.9082 51.3665 55.9082C51.9038 55.9082 52.3395 56.3439 52.3395 56.8813C52.3395 57.4187 51.9038 57.8544 51.3665 57.8544Z" fill="white"/>
<defs>
<linearGradient id="paint0_linear_739_6067" x1="0" y1="40" x2="80" y2="40" gradientUnits="userSpaceOnUse">
<stop stop-color="#0035E5"/>
<stop offset="0.7" stop-color="#298CFF"/>
</linearGradient>
</defs>
</svg>
