<svg width="80" height="80" viewBox="0 0 80 80" fill="none" xmlns="http://www.w3.org/2000/svg">
<rect width="80" height="80" rx="20" fill="url(#paint0_linear_739_6097)"/>
<path d="M22.125 53.75C22.125 54.844 22.5596 55.8932 23.3332 56.6668C24.1068 57.4404 25.156 57.875 26.25 57.875H53.75C54.844 57.875 55.8932 57.4404 56.6668 56.6668C57.4404 55.8932 57.875 54.844 57.875 53.75V34.0417H22.125V53.75ZM44.5833 40C44.5858 39.7098 44.68 39.4277 44.8525 39.1943C45.0251 38.9609 45.267 38.788 45.5438 38.7005C45.8205 38.613 46.1179 38.6154 46.3932 38.7072C46.6686 38.799 46.9078 38.9756 47.0767 39.2117L49.1667 42.1817L51.2567 39.2117C51.4255 38.9756 51.6648 38.799 51.9401 38.7072C52.2155 38.6154 52.5128 38.613 52.7896 38.7005C53.0663 38.788 53.3083 38.9609 53.4808 39.1943C53.6533 39.4277 53.7476 39.7098 53.75 40V49.1667C53.75 49.5313 53.6051 49.8811 53.3473 50.1389C53.0894 50.3968 52.7397 50.5417 52.375 50.5417C52.0103 50.5417 51.6606 50.3968 51.4027 50.1389C51.1449 49.8811 51 49.5313 51 49.1667V44.3633L50.285 45.3717C50.1531 45.5429 49.9837 45.6815 49.7898 45.7769C49.596 45.8723 49.3828 45.9219 49.1667 45.9219C48.9506 45.9219 48.7374 45.8723 48.5435 45.7769C48.3496 45.6815 48.1802 45.5429 48.0483 45.3717L47.3333 44.3633V49.1667C47.3333 49.5313 47.1885 49.8811 46.9306 50.1389C46.6727 50.3968 46.323 50.5417 45.9583 50.5417C45.5937 50.5417 45.2439 50.3968 44.9861 50.1389C44.7282 49.8811 44.5833 49.5313 44.5833 49.1667V40ZM34.9583 44.6017V40C34.9631 39.6368 35.1095 39.2898 35.3663 39.033C35.6232 38.7761 35.9701 38.6297 36.3333 38.625H39.1017C39.6123 38.5953 40.1237 38.6666 40.6066 38.8349C41.0896 39.0033 41.5346 39.2653 41.9161 39.6059C42.2976 39.9465 42.6082 40.3591 42.8299 40.82C43.0516 41.2809 43.1802 41.781 43.2083 42.2917C43.1932 43.1805 42.865 44.0356 42.2815 44.7063C41.698 45.377 40.8966 45.8204 40.0183 45.9583L42.7133 48.195C42.9009 48.3816 43.0306 48.6184 43.0869 48.8769C43.1432 49.1354 43.1238 49.4047 43.0309 49.6524C42.938 49.9001 42.7756 50.1158 42.5632 50.2735C42.3507 50.4313 42.0973 50.5244 41.8333 50.5417C41.5134 50.5392 41.2035 50.4294 40.9533 50.23L37.7083 47.5167V49.1667C37.7083 49.5313 37.5635 49.8811 37.3056 50.1389C37.0477 50.3968 36.698 50.5417 36.3333 50.5417C35.9687 50.5417 35.6189 50.3968 35.3611 50.1389C35.1032 49.8811 34.9583 49.5313 34.9583 49.1667V44.6017ZM26.25 41.5217C26.25 40.7534 26.5552 40.0166 27.0984 39.4734C27.6416 38.9302 28.3784 38.625 29.1467 38.625H32.2083C32.573 38.625 32.9227 38.7699 33.1806 39.0277C33.4385 39.2856 33.5833 39.6353 33.5833 40C33.5833 40.3647 33.4385 40.7144 33.1806 40.9723C32.9227 41.2301 32.573 41.375 32.2083 41.375H29.1467C29.1091 41.379 29.0741 41.3957 29.0474 41.4224C29.0207 41.4491 29.004 41.4841 29 41.5217V47.645C29.004 47.6825 29.0207 47.7176 29.0474 47.7443C29.0741 47.771 29.1091 47.7877 29.1467 47.7917H32.2083C32.573 47.7917 32.9227 47.9365 33.1806 48.1944C33.4385 48.4523 33.5833 48.802 33.5833 49.1667C33.5833 49.5313 33.4385 49.8811 33.1806 50.1389C32.9227 50.3968 32.573 50.5417 32.2083 50.5417H29.1467C28.3784 50.5417 27.6416 50.2365 27.0984 49.6933C26.5552 49.15 26.25 48.4132 26.25 47.645V41.5217ZM39.0833 43.2083H37.69V41.375H39.0833C39.89 41.375 40.44 41.8517 40.44 42.31C40.44 42.7683 40 43.2083 39.1017 43.2083H39.0833ZM53.75 22.125H26.25C25.156 22.125 24.1068 22.5596 23.3332 23.3332C22.5596 24.1068 22.125 25.156 22.125 26.25V31.2917H57.875V26.25C57.875 25.156 57.4404 24.1068 56.6668 23.3332C55.8932 22.5596 54.844 22.125 53.75 22.125ZM29.9167 28.5417H28.0833C27.7187 28.5417 27.3689 28.3968 27.1111 28.1389C26.8532 27.8811 26.7083 27.5313 26.7083 27.1667C26.7083 26.802 26.8532 26.4523 27.1111 26.1944C27.3689 25.9365 27.7187 25.7917 28.0833 25.7917H29.9167C30.2813 25.7917 30.6311 25.9365 30.8889 26.1944C31.1468 26.4523 31.2917 26.802 31.2917 27.1667C31.2917 27.5313 31.1468 27.8811 30.8889 28.1389C30.6311 28.3968 30.2813 28.5417 29.9167 28.5417ZM35.4167 28.5417H33.5833C33.2187 28.5417 32.8689 28.3968 32.6111 28.1389C32.3532 27.8811 32.2083 27.5313 32.2083 27.1667C32.2083 26.802 32.3532 26.4523 32.6111 26.1944C32.8689 25.9365 33.2187 25.7917 33.5833 25.7917H35.4167C35.7813 25.7917 36.1311 25.9365 36.3889 26.1944C36.6468 26.4523 36.7917 26.802 36.7917 27.1667C36.7917 27.5313 36.6468 27.8811 36.3889 28.1389C36.1311 28.3968 35.7813 28.5417 35.4167 28.5417Z" fill="white"/>
<defs>
<linearGradient id="paint0_linear_739_6097" x1="0" y1="40" x2="80" y2="40" gradientUnits="userSpaceOnUse">
<stop stop-color="#0035E5"/>
<stop offset="0.7" stop-color="#298CFF"/>
</linearGradient>
</defs>
</svg>
