<svg width="24" height="24" viewBox="0 0 24 24" fill="none" xmlns="http://www.w3.org/2000/svg">
<path d="M12 0C9.62663 0 7.30655 0.703788 5.33316 2.02236C3.35977 3.34094 1.8217 5.21508 0.913451 7.4078C0.00519943 9.60051 -0.232441 12.0133 0.230582 14.3411C0.693605 16.6689 1.83649 18.807 3.51472 20.4853C5.19295 22.1635 7.33115 23.3064 9.65892 23.7694C11.9867 24.2324 14.3995 23.9948 16.5922 23.0865C18.7849 22.1783 20.6591 20.6402 21.9776 18.6668C23.2962 16.6934 24 14.3734 24 12C23.9965 8.81848 22.7311 5.76829 20.4814 3.51862C18.2317 1.26894 15.1815 0.00352914 12 0ZM12 21.3333C10.154 21.3333 8.34954 20.7859 6.81468 19.7604C5.27982 18.7348 4.08355 17.2772 3.37713 15.5717C2.67071 13.8663 2.48588 11.9896 2.84601 10.1792C3.20614 8.36867 4.09505 6.70563 5.40034 5.40034C6.70563 4.09505 8.36867 3.20613 10.1792 2.846C11.9896 2.48587 13.8663 2.67071 15.5717 3.37712C17.2772 4.08354 18.7348 5.27982 19.7604 6.81468C20.7859 8.34953 21.3333 10.154 21.3333 12C21.3307 14.4745 20.3465 16.847 18.5967 18.5967C16.847 20.3465 14.4745 21.3307 12 21.3333ZM16.4989 10.1678C16.7494 10.4183 16.8901 10.758 16.8901 11.1122C16.8901 11.4665 16.7494 11.8062 16.4989 12.0567C16.2484 12.3071 15.9087 12.4479 15.5544 12.4479C15.2002 12.4479 14.8605 12.3071 14.61 12.0567L13.3333 10.7778V16.4444C13.3333 16.7981 13.1929 17.1372 12.9428 17.3872C12.6928 17.6373 12.3536 17.7778 12 17.7778C11.6464 17.7778 11.3072 17.6373 11.0572 17.3872C10.8071 17.1372 10.6667 16.7981 10.6667 16.4444V10.7778L9.38778 12.0578C9.1373 12.3083 8.79757 12.449 8.44334 12.449C8.0891 12.449 7.74937 12.3083 7.49889 12.0578C7.24841 11.8073 7.10769 11.4676 7.10769 11.1133C7.10769 10.7591 7.24841 10.4194 7.49889 10.1689L11.0544 6.61333C11.1783 6.48903 11.3255 6.3904 11.4876 6.32311C11.6496 6.25581 11.8234 6.22117 11.9989 6.22117C12.1744 6.22117 12.3481 6.25581 12.5102 6.32311C12.6723 6.3904 12.8195 6.48903 12.9433 6.61333L16.4989 10.1678Z" fill="#126DFB"/>
</svg>
