<svg width="80" height="80" viewBox="0 0 80 80" fill="none" xmlns="http://www.w3.org/2000/svg">
<rect width="80" height="80" rx="20" fill="url(#paint0_linear_739_6109)"/>
<path fill-rule="evenodd" clip-rule="evenodd" d="M59.6117 32.5V56.5C59.6117 57.694 59.138 58.8385 58.2935 59.6815C57.449 60.526 56.3043 61 55.1104 61H31.1032C29.9093 61 28.7646 60.526 27.9201 59.6815C27.0756 58.8385 26.6019 57.694 26.6019 56.5V45.802C27.3328 45.9325 28.0852 46 28.8525 46C35.8918 46 41.6064 40.2865 41.6064 33.25C41.6064 26.2135 35.8918 20.5 28.8525 20.5C28.4646 20.5 28.0809 20.518 27.7036 20.551C28.5288 19.6015 29.7464 19 31.1032 19H46.1077V28C46.1077 29.194 46.5814 30.3385 47.4259 31.1815C48.2705 32.026 49.4151 32.5 50.609 32.5H59.6117ZM35.6045 53.5V52C35.6045 51.172 34.9315 50.5 34.1041 50.5C33.2767 50.5 32.6037 51.172 32.6037 52V53.5C32.6037 54.328 33.2767 55 34.1041 55C34.9315 55 35.6045 54.328 35.6045 53.5ZM41.6064 53.5V47.5C41.6064 46.672 40.9333 46 40.1059 46C39.2785 46 38.6054 46.672 38.6054 47.5V53.5C38.6054 54.328 39.2785 55 40.1059 55C40.9333 55 41.6064 54.328 41.6064 53.5ZM47.6082 53.5V49C47.6082 48.172 46.9351 47.5 46.1077 47.5C45.2803 47.5 44.6072 48.172 44.6072 49V53.5C44.6072 54.328 45.2803 55 46.1077 55C46.9351 55 47.6082 54.328 47.6082 53.5ZM53.6099 53.5V43C53.6099 42.172 52.9369 41.5 52.1095 41.5C51.2821 41.5 50.609 42.172 50.609 43V53.5C50.609 54.328 51.2821 55 52.1095 55C52.9369 55 53.6099 54.328 53.6099 53.5ZM49.1086 19.0285C50.1868 19.1515 51.1921 19.6615 51.9294 20.473L58.4414 27.6325C58.928 28.1695 59.2752 28.81 59.4596 29.5H50.609C50.2104 29.5 49.8288 29.3425 49.548 29.0605C49.2672 28.78 49.1086 28.3975 49.1086 28V19.0285ZM38.4897 34.75C37.7673 39.4195 33.7247 43 28.8525 43C23.4702 43 19.0996 38.6305 19.0996 33.25C19.0996 28.3795 22.6814 24.337 27.3521 23.6155V31.75C27.3521 33.4075 28.6961 34.75 30.353 34.75H38.4897ZM30.353 23.6155C34.535 24.262 37.8445 27.5695 38.4897 31.75H30.353V23.6155Z" fill="white"/>
<defs>
<linearGradient id="paint0_linear_739_6109" x1="0" y1="40" x2="80" y2="40" gradientUnits="userSpaceOnUse">
<stop stop-color="#0035E5"/>
<stop offset="0.7" stop-color="#298CFF"/>
</linearGradient>
</defs>
</svg>
