<svg width="24" height="22" viewBox="0 0 24 22" fill="none" xmlns="http://www.w3.org/2000/svg">
<mask id="path-1-inside-1_744_7604" fill="white">
<path d="M4.80078 22.0005H22.0009C23.1055 22.0005 24.0009 21.1051 24.0009 20.0005V2C24.0009 0.895431 23.1055 0 22.0009 0H6.80078C5.69621 0 4.80078 0.895431 4.80078 2V5.50012"/>
</mask>
<path d="M4.80078 22.0005V24.4005H22.0009V22.0005V19.6005H4.80078V22.0005ZM24.0009 20.0005H26.4009V2H24.0009H21.6009V20.0005H24.0009ZM22.0009 0V-2.4H6.80078V0V2.4H22.0009V0ZM4.80078 2H2.40078V5.50012H4.80078H7.20078V2H4.80078ZM6.80078 0V-2.4C4.37073 -2.4 2.40078 -0.430053 2.40078 2H4.80078H7.20078C7.20078 2.22091 7.0217 2.4 6.80078 2.4V0ZM24.0009 2H26.4009C26.4009 -0.430052 24.431 -2.4 22.0009 -2.4V0V2.4C21.78 2.4 21.6009 2.22091 21.6009 2H24.0009ZM22.0009 22.0005V24.4005C24.431 24.4005 26.4009 22.4305 26.4009 20.0005H24.0009H21.6009C21.6009 19.7796 21.78 19.6005 22.0009 19.6005V22.0005Z" fill="#126DFB" mask="url(#path-1-inside-1_744_7604)"/>
<mask id="path-3-inside-2_744_7604" fill="white">
<path d="M2.40039 22.0005H14.8005C15.9051 22.0005 16.8005 21.105 16.8005 20.0005V7.50009C16.8005 6.39552 15.9051 5.50009 14.8005 5.50009H4.40039C3.29582 5.50009 2.40039 6.39552 2.40039 7.50009V11.0002"/>
</mask>
<path d="M2.40039 22.0005V24.4005H14.8005V22.0005V19.6005H2.40039V22.0005ZM16.8005 20.0005H19.2005V7.50009H16.8005H14.4005V20.0005H16.8005ZM14.8005 5.50009V3.10009H4.40039V5.50009V7.90009H14.8005V5.50009ZM2.40039 7.50009H0.00039053V11.0002H2.40039H4.80039V7.50009H2.40039ZM4.40039 5.50009V3.10009C1.97033 3.10009 0.00039053 5.07004 0.00039053 7.50009H2.40039H4.80039C4.80039 7.721 4.62131 7.90009 4.40039 7.90009V5.50009ZM16.8005 7.50009H19.2005C19.2005 5.07004 17.2305 3.10009 14.8005 3.10009V5.50009V7.90009C14.5796 7.90009 14.4005 7.72101 14.4005 7.50009H16.8005ZM14.8005 22.0005V24.4005C17.2306 24.4005 19.2005 22.4305 19.2005 20.0005H16.8005H14.4005C14.4005 19.7795 14.5796 19.6005 14.8005 19.6005V22.0005Z" fill="#126DFB" mask="url(#path-3-inside-2_744_7604)"/>
<path d="M2 12.2004H7.59961C8.04144 12.2004 8.40039 12.5584 8.40039 13.0002V20.0002C8.40039 20.4421 8.04144 20.8 7.59961 20.8H2C1.55817 20.8 1.2002 20.4421 1.2002 20.0002V13.0002C1.2002 12.5584 1.55817 12.2004 2 12.2004Z" stroke="#126DFB" stroke-width="2.4" stroke-linejoin="round"/>
</svg>
