<svg width="24" height="26" viewBox="0 0 24 26" fill="none" xmlns="http://www.w3.org/2000/svg">
<path d="M23.811 17.7063C23.9873 18.0145 24.0353 18.3806 23.9445 18.7245C23.8538 19.0684 23.6317 19.3619 23.3269 19.5408L12.6661 25.8166C12.4622 25.9367 12.2304 26 11.9943 26C11.7582 26 11.5263 25.9367 11.3224 25.8166L0.661668 19.5408C0.356249 19.3612 0.134065 19.0664 0.0439936 18.7214C-0.0460781 18.3764 0.00334107 18.0095 0.181379 17.7012C0.359418 17.393 0.651491 17.1688 0.993347 17.0779C1.3352 16.987 1.69884 17.0369 2.00426 17.2166L11.9987 23.0978L21.9943 17.2166C22.2997 17.0392 22.6624 16.9911 23.0029 17.0829C23.3433 17.1747 23.6339 17.3988 23.811 17.7063ZM21.9943 11.8373L11.9998 17.7186L2.01092 11.8373C1.70637 11.6723 1.35019 11.6332 1.01758 11.7282C0.684977 11.8232 0.401972 12.045 0.228317 12.3466C0.0546608 12.6482 0.00394365 13.0061 0.0868722 13.3448C0.169801 13.6834 0.379885 13.9763 0.672773 14.1616L11.3335 20.4374C11.5374 20.5575 11.7693 20.6208 12.0054 20.6208C12.2415 20.6208 12.4733 20.5575 12.6772 20.4374L23.338 14.1616C23.6434 13.9818 23.8655 13.6869 23.9555 13.3418C24.0455 12.9967 23.9959 12.6297 23.8177 12.3215C23.6395 12.0132 23.3473 11.7891 23.0053 11.6983C22.6634 11.6075 22.2997 11.6575 21.9943 11.8373ZM0.00647632 7.62026C0.00691056 7.38462 0.0686906 7.15323 0.185628 6.94927C0.302566 6.74531 0.470557 6.57594 0.672773 6.45812L11.3335 0.182367C11.5376 0.062912 11.7694 0 12.0054 0C12.2413 0 12.4731 0.062912 12.6772 0.182367L23.338 6.45812C23.5394 6.57648 23.7065 6.74609 23.8227 6.95001C23.9389 7.15393 24 7.38504 24 7.62026C24 7.85547 23.9389 8.08658 23.8227 8.2905C23.7065 8.49442 23.5394 8.66403 23.338 8.78239L12.6772 15.0581C12.4733 15.1783 12.2415 15.2416 12.0054 15.2416C11.7693 15.2416 11.5374 15.1783 11.3335 15.0581L0.672773 8.78239C0.470557 8.66457 0.302566 8.4952 0.185628 8.29124C0.0686906 8.08728 0.00691056 7.85589 0.00647632 7.62026ZM3.98427 7.62026L11.9998 12.3394L20.0154 7.62026L11.9998 2.90111L3.98427 7.62026Z" fill="#126DFB"/>
</svg>
