<svg width="24" height="24" viewBox="0 0 24 24" fill="none" xmlns="http://www.w3.org/2000/svg">
<g clip-path="url(#clip0_744_7567)">
<path d="M22.3489 24L18.8698 20.5252V23.146H16.5111V16.4908H23.1744V18.8466H20.5209L24 22.3215L22.3489 24ZM11.7936 23.5583C10.1622 23.5583 8.62899 23.2489 7.1941 22.6301C5.75922 22.0113 4.51106 21.1722 3.44963 20.1129C2.38821 19.0535 1.54811 17.8069 0.929338 16.373C0.310567 14.9391 0.000787734 13.4078 1.49286e-06 11.7791C-0.000784748 10.1505 0.308994 8.61919 0.929338 7.18528C1.54968 5.75136 2.38978 4.50474 3.44963 3.4454C4.50949 2.38606 5.75764 1.54699 7.1941 0.928196C8.63057 0.309399 10.1637 0 11.7936 0C13.4235 0 14.9567 0.309399 16.3931 0.928196C17.8296 1.54699 19.0777 2.38606 20.1376 3.4454C21.1974 4.50474 22.0379 5.75136 22.6591 7.18528C23.2802 8.61919 23.5896 10.1505 23.5872 11.7791C23.5872 12.1718 23.5676 12.5644 23.5283 12.9571C23.4889 13.3497 23.43 13.7423 23.3514 14.135H20.9337C21.0319 13.7423 21.1058 13.3497 21.1554 12.9571C21.2049 12.5644 21.2293 12.1718 21.2285 11.7791C21.2277 11.3865 21.2033 10.9939 21.1554 10.6012C21.1074 10.2086 21.0335 9.81595 20.9337 9.42331H16.9238C16.9828 9.81595 17.0272 10.2086 17.0571 10.6012C17.087 10.9939 17.1015 11.3865 17.1007 11.7791C17.1 12.1718 17.0854 12.5644 17.0571 12.9571C17.0288 13.3497 16.9844 13.7423 16.9238 14.135H14.5651C14.6241 13.7423 14.6685 13.3497 14.6984 12.9571C14.7283 12.5644 14.7428 12.1718 14.742 11.7791C14.7412 11.3865 14.7267 10.9939 14.6984 10.6012C14.6701 10.2086 14.6257 9.81595 14.5651 9.42331H9.02211C8.96315 9.81595 8.91912 10.2086 8.89003 10.6012C8.86094 10.9939 8.846 11.3865 8.84521 11.7791C8.84442 12.1718 8.85936 12.5644 8.89003 12.9571C8.92069 13.3497 8.96472 13.7423 9.02211 14.135H12.973V16.4908H9.55283C9.7887 17.335 10.0934 18.145 10.4668 18.9208C10.8403 19.6967 11.2826 20.4376 11.7936 21.1436C12.1867 21.1436 12.5799 21.1192 12.973 21.0705C13.3661 21.0218 13.7592 20.9775 14.1523 20.9374V23.3521C13.7592 23.3914 13.3661 23.4358 12.973 23.4853C12.5799 23.5347 12.1867 23.5591 11.7936 23.5583ZM2.65356 14.135H6.66339C6.60442 13.7423 6.56039 13.3497 6.5313 12.9571C6.50221 12.5644 6.48727 12.1718 6.48649 11.7791C6.4857 11.3865 6.50064 10.9939 6.5313 10.6012C6.56197 10.2086 6.606 9.81595 6.66339 9.42331H2.65356C2.55528 9.81595 2.48177 10.2086 2.43302 10.6012C2.38428 10.9939 2.35951 11.3865 2.35872 11.7791C2.35794 12.1718 2.3827 12.5644 2.43302 12.9571C2.48334 13.3497 2.55686 13.7423 2.65356 14.135ZM3.65602 7.06748H7.13514C7.31204 6.3411 7.53337 5.62964 7.79912 4.9331C8.06487 4.23656 8.37425 3.55416 8.72727 2.88589C7.64619 3.23926 6.67322 3.77443 5.80836 4.49139C4.94349 5.20834 4.22605 6.06704 3.65602 7.06748ZM8.72727 20.6724C8.37347 20.0049 8.06369 19.3229 7.79794 18.6264C7.53219 17.9298 7.31125 17.218 7.13514 16.4908H3.65602C4.22605 17.492 4.94349 18.3511 5.80836 19.0681C6.67322 19.785 7.64619 20.3198 8.72727 20.6724ZM9.55283 7.06748H14.0344C13.7985 6.22331 13.4939 5.41369 13.1204 4.63863C12.7469 3.86356 12.3047 3.12226 11.7936 2.41472C11.2826 3.12147 10.8403 3.86277 10.4668 4.63863C10.0934 5.41448 9.7887 6.2241 9.55283 7.06748ZM16.4521 7.06748H19.9312C19.3612 6.06626 18.6437 5.20756 17.7789 4.49139C16.914 3.77522 15.941 3.24005 14.86 2.88589C15.2138 3.55337 15.5235 4.23578 15.7893 4.9331C16.055 5.63043 16.276 6.34189 16.4521 7.06748Z" fill="#126DFB"/>
</g>
<defs>
<clipPath id="clip0_744_7567">
<rect width="24" height="24" fill="white"/>
</clipPath>
</defs>
</svg>
