<svg width="80" height="80" viewBox="0 0 80 80" fill="none" xmlns="http://www.w3.org/2000/svg">
<rect width="80" height="80" rx="20" fill="url(#paint0_linear_739_6076)"/>
<g clip-path="url(#clip0_739_6076)">
<path d="M50.3125 38.7969C43.9154 38.7969 38.7109 44.0013 38.7109 50.3984C38.7109 56.7955 43.9154 62 50.3125 62C56.7096 62 61.9141 56.7955 61.9141 50.3984C61.9141 44.0013 56.7096 38.7969 50.3125 38.7969ZM55.4349 48.9896L49.4193 55.0052C49.1676 55.2569 48.8377 55.3828 48.5078 55.3828C48.1779 55.3828 47.848 55.2569 47.5964 55.0052L45.0182 52.4271C44.5148 51.9237 44.5148 51.1075 45.0182 50.6041C45.5216 50.1008 46.3378 50.1008 46.8412 50.6041L48.5078 52.2708L53.612 47.1666C54.1153 46.6633 54.9316 46.6633 55.435 47.1666C55.9383 47.67 55.9383 48.4862 55.4349 48.9896Z" fill="white"/>
<path d="M27.9688 29.1719C28.6807 29.1719 29.2578 28.5947 29.2578 27.8828V18H47.7344C49.8667 18 51.6016 19.7348 51.6016 21.8672V36.278C51.1769 36.2395 50.7471 36.2188 50.3125 36.2188C45.9187 36.2188 41.9854 38.2276 39.3825 41.375H25.3906C24.6787 41.375 24.1016 41.9522 24.1016 42.6641C24.1016 43.376 24.6787 43.9531 25.3906 43.9531H37.6842C36.8784 45.5254 36.3588 47.2673 36.192 49.1094H25.3906C24.6787 49.1094 24.1016 49.6865 24.1016 50.3984C24.1016 51.1103 24.6787 51.6875 25.3906 51.6875H36.192C36.5775 55.9448 38.8521 59.6647 42.1692 62H21.9531C19.8208 62 18.0859 60.2652 18.0859 58.1328V29.1719H27.9688ZM25.3906 36.2188H44.2969C45.0088 36.2188 45.5859 35.6416 45.5859 34.9297C45.5859 34.2178 45.0088 33.6406 44.2969 33.6406H25.3906C24.6787 33.6406 24.1016 34.2178 24.1016 34.9297C24.1016 35.6416 24.6787 36.2188 25.3906 36.2188Z" fill="white"/>
<path d="M26.6797 18.7549V26.5938H18.8412L26.6797 18.7549Z" fill="white"/>
</g>
<defs>
<linearGradient id="paint0_linear_739_6076" x1="0" y1="40" x2="80" y2="40" gradientUnits="userSpaceOnUse">
<stop stop-color="#0035E5"/>
<stop offset="0.7" stop-color="#298CFF"/>
</linearGradient>
<clipPath id="clip0_739_6076">
<rect width="44" height="44" fill="white" transform="matrix(-1 0 0 1 62 18)"/>
</clipPath>
</defs>
</svg>
