<svg width="24" height="24" viewBox="0 0 24 24" fill="none" xmlns="http://www.w3.org/2000/svg">
<g clip-path="url(#clip0_744_7569)">
<path d="M13.3333 6.66667V1.33333C13.3333 0.955555 13.4613 0.639111 13.7173 0.384C13.9733 0.128889 14.2898 0.000888889 14.6667 0H22.6667C23.0444 0 23.3613 0.128 23.6173 0.384C23.8733 0.64 24.0009 0.956444 24 1.33333V6.66667C24 7.04444 23.872 7.36133 23.616 7.61733C23.36 7.87333 23.0436 8.00089 22.6667 8H14.6667C14.2889 8 13.9724 7.872 13.7173 7.616C13.4622 7.36 13.3342 7.04355 13.3333 6.66667ZM0 12V1.33333C0 0.955555 0.128 0.639111 0.384 0.384C0.64 0.128889 0.956444 0.000888889 1.33333 0H9.33333C9.71111 0 10.028 0.128 10.284 0.384C10.54 0.64 10.6676 0.956444 10.6667 1.33333V12C10.6667 12.3778 10.5387 12.6947 10.2827 12.9507C10.0267 13.2067 9.71022 13.3342 9.33333 13.3333H1.33333C0.955555 13.3333 0.639111 13.2053 0.384 12.9493C0.128889 12.6933 0.000888889 12.3769 0 12ZM13.3333 22.6667V12C13.3333 11.6222 13.4613 11.3058 13.7173 11.0507C13.9733 10.7956 14.2898 10.6676 14.6667 10.6667H22.6667C23.0444 10.6667 23.3613 10.7947 23.6173 11.0507C23.8733 11.3067 24.0009 11.6231 24 12V22.6667C24 23.0444 23.872 23.3613 23.616 23.6173C23.36 23.8733 23.0436 24.0009 22.6667 24H14.6667C14.2889 24 13.9724 23.872 13.7173 23.616C13.4622 23.36 13.3342 23.0436 13.3333 22.6667ZM0 22.6667V17.3333C0 16.9556 0.128 16.6391 0.384 16.384C0.64 16.1289 0.956444 16.0009 1.33333 16H9.33333C9.71111 16 10.028 16.128 10.284 16.384C10.54 16.64 10.6676 16.9564 10.6667 17.3333V22.6667C10.6667 23.0444 10.5387 23.3613 10.2827 23.6173C10.0267 23.8733 9.71022 24.0009 9.33333 24H1.33333C0.955555 24 0.639111 23.872 0.384 23.616C0.128889 23.36 0.000888889 23.0436 0 22.6667ZM2.66667 10.6667H8V2.66667H2.66667V10.6667ZM16 21.3333H21.3333V13.3333H16V21.3333ZM16 5.33333H21.3333V2.66667H16V5.33333ZM2.66667 21.3333H8V18.6667H2.66667V21.3333Z" fill="#126DFB"/>
</g>
<defs>
<clipPath id="clip0_744_7569">
<rect width="24" height="24" fill="white"/>
</clipPath>
</defs>
</svg>
