<svg width="24" height="24" viewBox="0 0 24 24" fill="none" xmlns="http://www.w3.org/2000/svg">
<g clip-path="url(#clip0_744_7541)">
<path d="M22.8 0H15.6C15.2817 0 14.9765 0.126428 14.7515 0.351472C14.5264 0.576515 14.4 0.88174 14.4 1.2C14.4 1.51826 14.5264 1.82348 14.7515 2.04853C14.9765 2.27357 15.2817 2.4 15.6 2.4H21.6V8.4C21.6 8.71826 21.7264 9.02348 21.9515 9.24853C22.1765 9.47357 22.4817 9.6 22.8 9.6C23.1183 9.6 23.4235 9.47357 23.6485 9.24853C23.8736 9.02348 24 8.71826 24 8.4V1.2C24 0.88174 23.8736 0.576515 23.6485 0.351472C23.4235 0.126428 23.1183 0 22.8 0ZM22.8 14.4C22.4817 14.4 22.1765 14.5264 21.9515 14.7515C21.7264 14.9765 21.6 15.2817 21.6 15.6V21.6H15.6C15.2817 21.6 14.9765 21.7264 14.7515 21.9515C14.5264 22.1765 14.4 22.4817 14.4 22.8C14.4 23.1183 14.5264 23.4235 14.7515 23.6485C14.9765 23.8736 15.2817 24 15.6 24H22.8C23.1183 24 23.4235 23.8736 23.6485 23.6485C23.8736 23.4235 24 23.1183 24 22.8V15.6C24 15.2817 23.8736 14.9765 23.6485 14.7515C23.4235 14.5264 23.1183 14.4 22.8 14.4ZM12 4.8C11.0452 4.8 10.1295 5.17929 9.45442 5.85442C8.77928 6.52955 8.4 7.44522 8.4 8.4V9.6C7.76348 9.6 7.15303 9.85286 6.70294 10.3029C6.25286 10.753 6 11.3635 6 12V16.8C6 17.4365 6.25286 18.047 6.70294 18.4971C7.15303 18.9471 7.76348 19.2 8.4 19.2H15.6C16.2365 19.2 16.847 18.9471 17.2971 18.4971C17.7471 18.047 18 17.4365 18 16.8V12C18 11.3635 17.7471 10.753 17.2971 10.3029C16.847 9.85286 16.2365 9.6 15.6 9.6V8.4C15.6 7.44522 15.2207 6.52955 14.5456 5.85442C13.8705 5.17929 12.9548 4.8 12 4.8ZM10.8 8.4C10.8 8.08174 10.9264 7.77652 11.1515 7.55147C11.3765 7.32643 11.6817 7.2 12 7.2C12.3183 7.2 12.6235 7.32643 12.8485 7.55147C13.0736 7.77652 13.2 8.08174 13.2 8.4V9.6H10.8V8.4ZM15.6 16.8H8.4V12H15.6V16.8ZM1.2 9.6C1.51826 9.6 1.82348 9.47357 2.04853 9.24853C2.27357 9.02348 2.4 8.71826 2.4 8.4V2.4H8.4C8.71826 2.4 9.02348 2.27357 9.24853 2.04853C9.47357 1.82348 9.6 1.51826 9.6 1.2C9.6 0.88174 9.47357 0.576515 9.24853 0.351472C9.02348 0.126428 8.71826 0 8.4 0H1.2C0.88174 0 0.576515 0.126428 0.351472 0.351472C0.126428 0.576515 0 0.88174 0 1.2V8.4C0 8.71826 0.126428 9.02348 0.351472 9.24853C0.576515 9.47357 0.88174 9.6 1.2 9.6ZM8.4 21.6H2.4V15.6C2.4 15.2817 2.27357 14.9765 2.04853 14.7515C1.82348 14.5264 1.51826 14.4 1.2 14.4C0.88174 14.4 0.576515 14.5264 0.351472 14.7515C0.126428 14.9765 0 15.2817 0 15.6V22.8C0 23.1183 0.126428 23.4235 0.351472 23.6485C0.576515 23.8736 0.88174 24 1.2 24H8.4C8.71826 24 9.02348 23.8736 9.24853 23.6485C9.47357 23.4235 9.6 23.1183 9.6 22.8C9.6 22.4817 9.47357 22.1765 9.24853 21.9515C9.02348 21.7264 8.71826 21.6 8.4 21.6Z" fill="#126DFB"/>
</g>
<defs>
<clipPath id="clip0_744_7541">
<rect width="24" height="24" fill="white"/>
</clipPath>
</defs>
</svg>
